<?xml version="1.0" encoding="utf-8"?>
<!-- Generator: Adobe Illustrator 19.0.0, SVG Export Plug-In . SVG Version: 6.00 Build 0)  -->
<svg version="1.1" id="Layer_1" xmlns="http://www.w3.org/2000/svg" xmlns:xlink="http://www.w3.org/1999/xlink" x="0px" y="0px"
	 width="800px" height="800px" viewBox="0 0 800 800" style="enable-background:new 0 0 800 800;" xml:space="preserve">
<style type="text/css">
	.st0{opacity:5.000000e-002;fill:#0A1720;enable-background:new    ;}
	.st1{fill:#403E56;}
	.st2{fill:#14090E;}
	.st3{fill:#FFFFFF;}
	.st4{fill:#302E41;}
	.st5{fill:#F9B7B8;}
	.st6{fill:#280E10;}
	.st7{fill:#0D0E21;}
	.st8{fill:#093A3E;}
</style>
<g id="XMLID_1_">
	<path id="XMLID_5_" class="st0" d="M-0.6,149.7c0,0,142-97.3,206.4-59c35.7,21.3,73.3,44.6,114.5,53.2
		c49.1,10.3,99.3,5.3,147.3,22.2c69.5,24.6,124.7,67.6,165.4,129.5c59,89.8,16,230.6-96,249.4c-54.9,9.2-109.8-15-163.7-2.8
		C325.6,553,288.5,589,249,615.4c-72.9,48.8-163.1,65.9-249.6,71.1V149.7z"/>
	<path id="XMLID_3_" class="st0" d="M-0.6,176.2c0,0,132.6-86.2,192.7-52.2c26.7,15.1,54.5,31,83.2,42.1c30.1,11.6,63.4,9,94.9,11.4
		c61.2,4.8,132,29.7,174.8,75.4c25.8,27.5,53.4,56.2,66,92.5c14.2,40.9,3.4,81.2-16.7,118c-33.9,61.9-97.4,68.4-161.4,62.2
		c-54.9-5.3-106.4-3-152.6,30.2c-47.2,33.9-94.6,62.2-151.4,76.2c-42.2,10.4-86,17.1-129.5,19.6C-0.6,651.6-0.6,176.2-0.6,176.2z"/>
	<path id="ab4f3350-d584-452d-9eac-b0b73bd1c74e_1_" class="st1" d="M123.3,252.8c-7.1,0-12.9-5.8-12.9-12.9
		c0-7.1,5.8-12.9,12.9-12.9c7.1,0,12.9,5.8,12.9,12.9C136.2,247.1,130.4,252.8,123.3,252.8z M123.3,227.5c-6.9,0-12.4,5.6-12.4,12.4
		c0,6.9,5.6,12.4,12.4,12.4c6.9,0,12.4-5.6,12.4-12.4C135.8,233.1,130.2,227.5,123.3,227.5z"/>
	<path id="b38c2432-9b55-44a1-a6c5-37f262cb8526_1_" class="st1" d="M254,252.8c-7.1,0-12.9-5.8-12.9-12.9c0-7.1,5.8-12.9,12.9-12.9
		c7.1,0,12.9,5.8,12.9,12.9C266.9,247.1,261.1,252.8,254,252.8z M254,227.5c-6.9,0-12.4,5.6-12.4,12.4c0,6.9,5.6,12.4,12.4,12.4
		c6.9,0,12.4-5.6,12.4-12.4C266.5,233.1,260.9,227.5,254,227.5z"/>
	<path id="b9a1c0cd-2b1d-41a9-871b-afddc5e936af_1_" class="st1" d="M301.2,222.9H76.6c-4.4,0-7.9,4.4-7.9,9.8v107.1
		c0,5.4,3.5,9.8,7.9,9.8h224.6c4.4,0,7.9-4.4,7.9-9.8V232.7C309.1,227.3,305.6,222.9,301.2,222.9z M308.2,339.8c0,4.8-3.1,8.6-7,8.6
		H76.6c-3.9,0-7-3.9-7-8.6V232.7c0-4.8,3.1-8.6,7-8.6h224.6c3.9,0,7,3.9,7,8.6V339.8z"/>
	<path id="a89ccb60-c26f-4785-b3c5-3332740adbf1_1_" class="st2" d="M85.2,266h39.9v27.9H85.2V266z"/>
	<path id="b7e05322-8b5b-4202-896a-d010557e20ee_1_" class="st2" d="M141,266h39.9v27.9H141V266z"/>
	<path id="ad37576e-0400-4032-9a23-fea9f12fbce1_1_" class="st2" d="M196.9,266h39.9v27.9h-39.9V266z"/>
	<path id="aa533c7f-257d-4f82-9a34-f3791ed05f8e_1_" class="st2" d="M252.8,266h39.9v27.9h-39.9L252.8,266z"/>
	<path id="ab695b59-e86b-4a87-812a-08bf740c05b4_1_" class="st2" d="M85.2,306.9h39.9v27.9H85.2V306.9z"/>
	<path id="a6c88313-aaf4-41f2-8928-a742f49a0902_1_" class="st2" d="M141,306.9h39.9v27.9H141V306.9z"/>
	<path id="f58c3339-a4c0-4d62-ba2a-e54ff2bf716d_1_" class="st2" d="M196.9,306.9h39.9v27.9h-39.9V306.9z"/>
	<path id="a422fb6a-8004-41fc-ab64-b502da5703c1_1_" class="st2" d="M252.8,306.9h39.9v27.9h-39.9L252.8,306.9z"/>
	<path id="e86106fc-25bd-447d-bb7e-e20bb3b23e30_1_" class="st3" d="M154.3,334.6l-9.4-13l2.6-1.9l7.2,10l27.6-28.3l2.3,2.2
		L154.3,334.6L154.3,334.6z"/>
	<path id="aa2d9f48-069a-485a-b75e-c70dd332b5e8_1_" class="st3" d="M210.7,293.7l-9.4-13l2.6-1.9l7.2,10l27.6-28.3l2.3,2.2
		L210.7,293.7L210.7,293.7z"/>
	<path id="a17708df-8f3a-464e-8619-6278c337a09b_1_" class="st4" d="M122.8,192.1h0.7V240h-0.7V192.1z"/>
	<path id="e9aa34a1-352e-42c8-a0fd-7deef0e48a7e_1_" class="st4" d="M254,192.1h0.7V240H254V192.1z"/>
	<path id="fc392f67-ef8a-4310-beff-ce5a3a27e5fb_1_" class="st1" d="M450.5,485.7H261.3c-0.4,0-0.7-0.3-0.7-0.6
		c0-0.4,0.3-0.7,0.6-0.7h189.3c0.4,0,0.7,0.3,0.7,0.6S451,485.7,450.5,485.7C450.6,485.7,450.5,485.7,450.5,485.7z"/>
	<path id="ba3ff805-5da2-4d08-bd39-7111d50a55d9_1_" class="st3" d="M99,293.7l-9.4-13l2.6-1.9l7.2,10l27.6-28.3l2.3,2.2L99,293.7
		L99,293.7z"/>
	<path id="bdecccf6-f579-4d39-b60a-bacda51b23df_1_" class="st5" d="M396.1,378.1c0.3-0.1,0.5-0.1,0.8-0.2l10.9-22.2l-3.3-5l6.9-6
		l8.7,10.6L402.5,381c1.2,2.6,0,5.7-2.6,6.9c-2.6,1.2-5.7,0-6.9-2.6c-1.2-2.6,0-5.7,2.6-6.9C395.6,378.2,395.9,378.1,396.1,378.1z"
		/>
	<path id="b851710e-73ca-4439-b312-82ecd7f1d520_1_" class="st6" d="M414.7,347.7c-0.1,0.2-0.3,0.3-0.5,0.4l-11.2,6.5
		c-1.1,0.6-2.4,0.3-3.1-0.8c0-0.1-0.1-0.1-0.1-0.2l-5.4-11.5c-0.5-1-0.2-2.2,0.8-2.8l6.9-4.7c0.9-0.6,2.1-0.5,2.9,0.3l9.7,9.7
		C415.5,345.5,415.5,346.9,414.7,347.7L414.7,347.7z"/>
	<path id="ad151a06-cd68-422d-8460-5ec9215ef0ce_1_" class="st5" d="M430.4,474.9l-5.9,1.6l-9-22l8.7-2.4L430.4,474.9L430.4,474.9z"
		/>
	<path id="a741d46f-b26c-45f0-81fb-c6a01d8961c3_1_" class="st7" d="M419.8,476l11.4-3.1l1.9,7.2l-18.5,5
		C413.5,481.1,415.9,477.1,419.8,476z"/>
	<path id="b643b79b-b2db-4e0a-a6b9-2a26cd7af685_1_" class="st5" d="M380,479.4h-6.1l-2.9-23.6h9V479.4z"/>
	<path id="a8551279-f8d8-4e53-ac0b-f4d7d43df3e0_1_" class="st7" d="M369.5,477.7h11.8v7.4H362C362,481,365.4,477.7,369.5,477.7z"/>
	<circle id="ffb0ed30-f7ca-4f01-bb29-dfb3f0108b7e_1_" class="st5" cx="386.4" cy="314.5" r="12.3"/>
	<path id="fe8d7a91-2eb0-4840-bbb3-2ac5f6694a19_1_" class="st8" d="M379.6,462.6h-8.4c-1.2,0-2.2-0.9-2.2-2.1
		c-2.5-39.6-1-68,4.6-89.4c0-0.1,0.1-0.2,0.1-0.3l0.4-1.1c0.3-0.9,1.2-1.4,2.1-1.4h17.2c0.7,0,1.3,0.3,1.7,0.8l2.3,2.7
		c0,0.1,0.1,0.1,0.1,0.2c10.5,14.7,20,43.4,30.9,81.9c0.3,1.2-0.3,2.4-1.5,2.8l-9,2.9c-1.1,0.3-2.2-0.2-2.7-1.2L392,410.1
		c-0.4-0.9-1.5-1.2-2.3-0.8c-0.5,0.3-0.9,0.8-1,1.3l-6.8,50.1C381.7,461.8,380.7,462.6,379.6,462.6L379.6,462.6z"/>
	<path id="ac260d39-3f12-4112-9245-19e088f5ff96_1_" class="st6" d="M396.5,372l-20.9-0.7c-1.1,0-2-0.9-2.2-2
		c-2.6-21.4,4.6-27.2,7.9-28.6c0.6-0.2,0.9-0.8,1-1.4l0.3-2.2c0-0.4,0.2-0.8,0.4-1.1c5.1-6.6,12-8.7,15.7-9.4
		c1.2-0.2,2.4,0.6,2.6,1.8v0.1l0.4,3.2c0,0.3,0.2,0.6,0.4,0.8c10.6,13.9-1.2,34.3-3.7,38.3C398,371.6,397.2,372,396.5,372L396.5,372
		z"/>
	<path id="b7ced118-7cfa-4844-a3c8-435a3db4f4e2_1_" class="st3" d="M389.9,398.8l-15.8,3l-0.6-3.1l12.1-2.3l-14-37l3-1.1
		L389.9,398.8z"/>
	<path id="a52cfa20-9d3d-49ed-8bbb-6f27952576f3_1_" d="M411.1,315.9c-2.7-3.8-6-7.3-9.7-10.2c-3.1-2.4-6.5-4.5-10.3-5.5
		s-8-0.8-11.5,1s-7,5.5-7.1,9.4c0,1.3,0.3,3,1.6,2.7h0.4l9-1.8l3.8,13.3c0.3,0.9,0.6,2,1.5,2.4c0.8,0.4,1.8,0,2.6-0.3
		c0.1-0.1,1.3-2.7,1.3-2.7c0.1-0.3,0.4-0.4,0.6-0.3c0.1,0,0.2,0.1,0.2,0.2l0.7,0.9c0.3,0.3,0.8,0.5,1.2,0.3l14.6-6.1
		c0.7-0.3,1.4-0.6,1.6-1.4C411.9,317.2,411.5,316.5,411.1,315.9L411.1,315.9z"/>
	<path id="bd21c6a3-3a01-4e11-8b47-ec36a28067e7_1_" class="st5" d="M394.5,402.5c2.4-1.7,3-5,1.3-7.5c-0.2-0.3-0.4-0.5-0.6-0.7
		l3.9-46.8l-11.5,1.6l-0.2,45.5c-2,2.2-1.7,5.6,0.5,7.6C389.7,403.8,392.5,403.9,394.5,402.5L394.5,402.5z"/>
	<path id="b8799e3f-759a-46c3-9e68-c27b7b779f3b_1_" class="st6" d="M399.9,354.2c-0.2,0-0.4,0-0.6-0.1l-12.4-3.6
		c-1.2-0.3-1.9-1.6-1.5-2.8c0-0.1,0-0.1,0.1-0.2l4.6-11.8c0.4-1,1.5-1.6,2.6-1.4l8.2,1.8c1.1,0.2,1.8,1.2,1.8,2.3l-0.4,13.7
		C402.1,353.2,401.1,354.2,399.9,354.2L399.9,354.2z"/>
</g>
</svg>
