<?xml version="1.0" encoding="utf-8"?>
<!-- Generator: Adobe Illustrator 19.0.0, SVG Export Plug-In . SVG Version: 6.00 Build 0)  -->
<svg version="1.1" id="Layer_1" xmlns="http://www.w3.org/2000/svg" xmlns:xlink="http://www.w3.org/1999/xlink" x="0px" y="0px"
	 width="800px" height="800px" viewBox="0 0 800 800" style="enable-background:new 0 0 800 800;" xml:space="preserve">
<style type="text/css">
	.st0{fill:none;}
	.st1{fill:#010101;}
	.st2{fill:#C12227;}
	.st3{fill:#0A1720;}
	.st4{fill:#FFFFFF;}
	.st5{opacity:0.1;fill:#FFFFFF;enable-background:new    ;}
	.st6{opacity:0.1;fill:#6466AF;enable-background:new    ;}
	.st7{fill:none;stroke:#403E56;stroke-width:1.8312;stroke-miterlimit:10;}
	.st8{fill:#6466AF;}
	.st9{opacity:0.1;fill:#010101;enable-background:new    ;}
	.st10{fill:#1B1549;}
	.st11{fill:url(#XMLID_335_);}
	.st12{fill:#BE6F73;}
	.st13{fill:#F36F63;}
	.st14{fill:#403E56;}
	.st15{fill:#361F27;}
	.st16{opacity:0.1;}
	.st17{fill:url(#XMLID_336_);}
	.st18{fill:url(#XMLID_337_);}
	.st19{fill:#521945;}
	.st20{opacity:0.1;fill:none;stroke:#010101;stroke-width:0.458;stroke-miterlimit:10;enable-background:new    ;}
	.st21{fill:url(#XMLID_338_);}
	.st22{fill:#302E41;}
	.st23{fill:#F9BEBF;}
	.st24{opacity:0.1;fill:#DD1F26;enable-background:new    ;}
	.st25{fill:#E8E8F0;}
	.st26{fill:#DD1F26;}
	.st27{fill:#F26D70;}
</style>
<pattern  y="800" width="36.9" height="49.5" patternUnits="userSpaceOnUse" id="XMLID_332_" viewBox="0 -49.5 36.9 49.5" style="overflow:visible;">
	<g>
		<polygon class="st0" points="0,0 36.9,0 36.9,-49.5 0,-49.5 		"/>
		<g id="XMLID_57_">
			<path id="XMLID_209_" class="st0" d="M0-49.5h36.9V0H0V-49.5z"/>
			<path id="XMLID_208_" class="st0" d="M0-49.5h36.9V0H0V-49.5z"/>
			<path id="XMLID_207_" class="st1" d="M4.3-36.3c4.5,0,4.5-7,0-7S-0.2-36.3,4.3-36.3z"/>
			<path id="XMLID_125_" class="st1" d="M4.5-32.3c4.5,0,4.5-7,0-7S0-32.3,4.5-32.3z"/>
			<path id="XMLID_124_" class="st1" d="M4.5-28.6c4.5,0,4.5-7,0-7S0-28.6,4.5-28.6z"/>
			<path id="XMLID_119_" class="st1" d="M3.4-24.8c4.5,0,4.5-7,0-7S-1.1-24.8,3.4-24.8z"/>
			<path id="XMLID_118_" class="st1" d="M1.1-21.2l0.2,0.4c1,1.7,3.1,2.2,4.8,1.3c1.6-1,2.2-3.1,1.3-4.8l-0.2-0.4
				c-1-1.7-3.1-2.2-4.8-1.3C0.7-25,0.2-22.9,1.1-21.2z"/>
			<path id="XMLID_114_" class="st1" d="M1.5-19.4l0.2,0.6c0.3,0.9,0.8,1.6,1.6,2.1s1.8,0.6,2.7,0.3c1.9-0.5,2.9-2.4,2.4-4.3
				l-0.2-0.6c-0.3-0.9-0.8-1.6-1.6-2.1S4.8-24,3.9-23.8C2.1-23.2,1-21.3,1.5-19.4z"/>
			<path id="XMLID_113_" class="st1" d="M1.6-15.6v0.4c0,1.9,1.6,3.5,3.5,3.5s3.5-1.6,3.5-3.5v-0.4c0-1.9-1.6-3.5-3.5-3.5
				S1.6-17.5,1.6-15.6z"/>
			<path id="XMLID_111_" class="st1" d="M4.9-7.2c4.5,0,4.5-7,0-7S0.4-7.2,4.9-7.2z"/>
			<path id="XMLID_110_" class="st1" d="M1.8-7.5v0.2c0,1.9,1.6,3.5,3.5,3.5s3.5-1.6,3.5-3.5v-0.2c0-1.9-1.6-3.5-3.5-3.5
				S1.8-9.4,1.8-7.5z"/>
			<path id="XMLID_99_" class="st1" d="M6-0.2c4.5,0,4.5-7,0-7S1.5-0.2,6-0.2z"/>
			<path id="XMLID_98_" class="st1" d="M10-35.4c4.5,0,4.5-7,0-7S5.5-35.4,10-35.4z"/>
			<path id="XMLID_97_" class="st1" d="M6.6-28.6c4.5,0,4.5-7,0-7S2.1-28.6,6.6-28.6z"/>
			<path id="XMLID_96_" class="st1" d="M8.5-22.5c4.5,0,4.5-7,0-7S4-22.5,8.5-22.5z"/>
			<path id="XMLID_95_" class="st1" d="M8.5-20.2c4.5,0,4.5-7,0-7S4-20.2,8.5-20.2z"/>
			<path id="XMLID_94_" class="st1" d="M14.9-15.7c4.5,0,4.5-7,0-7S10.4-15.7,14.9-15.7z"/>
			<path id="XMLID_93_" class="st1" d="M9.8-11c4.5,0,4.5-7,0-7S5.3-11,9.8-11z"/>
			<path id="XMLID_92_" class="st1" d="M10.6-4.4c4.5,0,4.5-7,0-7S6.1-4.4,10.6-4.4z"/>
			<path id="XMLID_91_" class="st1" d="M10.6,0c4.5,0,4.5-7,0-7S6.1,0,10.6,0z"/>
			<path id="XMLID_90_" class="st1" d="M12.8-31.4c2.6,0,2.6-4,0-4S10.3-31.4,12.8-31.4z"/>
			<path id="XMLID_89_" class="st1" d="M13-29.1c2.6,0,2.6-4,0-4S10.4-29.1,13-29.1z"/>
			<path id="XMLID_88_" class="st1" d="M13.1-28.5v0.2c0,1.1,0.9,2,2,2s2-0.9,2-2v-0.2c0-1.1-0.9-2-2-2S13.1-29.6,13.1-28.5z"/>
			<path id="XMLID_87_" class="st1" d="M15.1-23.6c2.6,0,2.6-4,0-4S12.5-23.6,15.1-23.6z"/>
			<path id="XMLID_86_" class="st1" d="M16.6-38.4c0.6,0,1-0.4,1-1c0-0.6-0.4-1-1-1s-1,0.4-1,1C15.6-38.8,16.1-38.4,16.6-38.4z"/>
			<path id="XMLID_85_" class="st1" d="M21.7-33c0.6,0,1-0.4,1-1s-0.4-1-1-1s-1,0.4-1,1S21.2-33,21.7-33z"/>
			<path id="XMLID_84_" class="st1" d="M16.9-40.6V-41c0-0.6-0.4-1-1-1s-1,0.4-1,1v0.4c0,0.6,0.4,1,1,1C16.4-39.6,16.9-40,16.9-40.6
				z"/>
			<path id="XMLID_83_" class="st1" d="M16.5-44.7v-0.2c0-0.6-0.4-1-1-1s-1,0.4-1,1v0.2c0,0.6,0.4,1,1,1
				C16-43.7,16.5-44.2,16.5-44.7z"/>
			<path id="XMLID_82_" class="st1" d="M15.5-47.5c0.6,0,1-0.4,1-1s-0.4-1-1-1s-1,0.4-1,1S14.9-47.5,15.5-47.5z"/>
			<path id="XMLID_81_" class="st1" d="M10.6-47.5c0.6,0,1-0.4,1-1s-0.4-1-1-1s-1,0.4-1,1S10-47.5,10.6-47.5z"/>
			<path id="XMLID_80_" class="st1" d="M10.4-44.8c0.6,0,1-0.4,1-1c0-0.6-0.4-1-1-1s-1,0.4-1,1C9.4-45.2,9.8-44.8,10.4-44.8z"/>
			<path id="XMLID_79_" class="st1" d="M7.4-43.3c0.6,0,1-0.4,1-1c0-0.6-0.4-1-1-1s-1,0.4-1,1C6.4-43.7,6.8-43.3,7.4-43.3z"/>
			<path id="XMLID_78_" class="st1" d="M11.9-42.4h0.4c0.6,0,1-0.4,1-1c0-0.6-0.4-1-1-1h-0.4c-0.6,0-1,0.4-1,1
				C10.9-42.8,11.3-42.4,11.9-42.4z"/>
			<path id="XMLID_77_" class="st1" d="M13.3-38.5l0.6,1.3c0.3,0.5,0.9,0.6,1.4,0.4c0.5-0.3,0.6-0.9,0.4-1.4L15-39.5
				c-0.3-0.5-0.9-0.6-1.4-0.4C13.2-39.6,13-39,13.3-38.5z"/>
			<path id="XMLID_76_" class="st1" d="M18.4-30.2v0.2c0,0.6,0.4,1,1,1s1-0.4,1-1v-0.2c0-0.6-0.4-1-1-1S18.4-30.7,18.4-30.2z"/>
			<path id="XMLID_75_" class="st1" d="M20.7-24.6l0.2,0.4c0.6,1.1,2.3,0.1,1.7-1l-0.2-0.4C21.8-26.7,20.1-25.7,20.7-24.6z"/>
			<path id="XMLID_74_" class="st1" d="M22.1-20.1c-0.5,0.5-0.8,1.1-0.8,1.9c0,0.6,0.4,1,1,1s1-0.4,1-1c0-0.2,0.1-0.3,0.3-0.4
				c0.4-0.4,0.4-1,0-1.4C23.2-20.5,22.5-20.5,22.1-20.1z"/>
			<path id="XMLID_73_" class="st1" d="M20.3-16.1l-0.5,1.7c-0.4,1.2,1.5,1.8,1.9,0.5l0.5-1.7C22.6-16.8,20.7-17.3,20.3-16.1z"/>
			<path id="XMLID_72_" class="st1" d="M19.4-12.5h-0.2c-0.6,0-1,0.4-1,1s0.4,1,1,1h0.2c0.6,0,1-0.4,1-1S20-12.5,19.4-12.5z"/>
			<path id="XMLID_71_" class="st1" d="M17.6-8l-0.2,0.4c-0.6,1.2,1.1,2.2,1.7,1L19.3-7C19.9-8.2,18.2-9.2,17.6-8z"/>
			<path id="XMLID_70_" class="st1" d="M15.8-1.6V-1c0,0.6,0.4,1,1,1s1-0.4,1-1v-0.6c0-0.6-0.4-1-1-1S15.8-2.2,15.8-1.6z"/>
			<path id="XMLID_69_" class="st1" d="M14.3-0.1c0.6,0,1-0.4,1-1s-0.4-1-1-1s-1,0.4-1,1S13.8-0.1,14.3-0.1z"/>
			<path id="XMLID_68_" class="st1" d="M14.3-8.2c0.6,0,1-0.4,1-1s-0.4-1-1-1s-1,0.4-1,1S13.8-8.2,14.3-8.2z"/>
			<path id="XMLID_67_" class="st1" d="M17.1-13c0.6-0.3,1-1,1-1.6s-0.4-1-1-1s-1,0.4-1,1c0-0.1,0.2-0.2,0-0.1
				C15-14.2,16-12.5,17.1-13z"/>
			<path id="XMLID_66_" class="st1" d="M17.4-18.2c0.6,0,1-0.4,1-1s-0.4-1-1-1s-1,0.4-1,1S16.8-18.2,17.4-18.2z"/>
			<path id="XMLID_65_" class="st1" d="M18.1-21c0.6,0,1-0.4,1-1s-0.4-1-1-1s-1,0.4-1,1S17.6-21,18.1-21z"/>
			<path id="XMLID_64_" class="st1" d="M19-24.6l0.2-0.4c0.6-1.1-1.1-2.2-1.7-1l-0.2,0.4C16.7-24.4,18.4-23.4,19-24.6z"/>
			<path id="XMLID_63_" class="st1" d="M17.9-33.5c0.6,0,1-0.4,1-1s-0.4-1-1-1s-1,0.4-1,1S17.4-33.5,17.9-33.5z"/>
			<path id="XMLID_62_" class="st1" d="M24.6-33.5l0.6,0.9c0.3,0.4,1,0.5,1.4,0.2c0.4-0.3,0.5-0.8,0.3-1.2l-0.6-1
				c-0.3-0.5-0.9-0.6-1.4-0.3C24.6-34.5,24.4-34,24.6-33.5z"/>
			<path id="XMLID_61_" class="st1" d="M34.9-19.8v0.2c0,0.6,0.4,1,1,1s1-0.4,1-1v-0.2c0-0.6-0.4-1-1-1S34.9-20.3,34.9-19.8z"/>
			<path id="XMLID_60_" class="st1" d="M24-10.3c0.6,0,1-0.4,1-1s-0.4-1-1-1s-1,0.4-1,1S23.5-10.3,24-10.3z"/>
			<path id="XMLID_59_" class="st1" d="M22.9-20.5c0.6,0,1-0.4,1-1s-0.4-1-1-1s-1,0.4-1,1S22.3-20.5,22.9-20.5z"/>
			<path id="XMLID_58_" class="st1" d="M18.2-27.6l0.6-0.6c0.9-0.9-0.5-2.3-1.4-1.4L16.8-29C15.9-28.1,17.3-26.7,18.2-27.6z"/>
		</g>
	</g>
</pattern>
<pattern  y="800" width="36.9" height="49.5" patternUnits="userSpaceOnUse" id="XMLID_333_" viewBox="0 -49.5 36.9 49.5" style="overflow:visible;">
	<g>
		<polygon class="st0" points="0,0 36.9,0 36.9,-49.5 0,-49.5 		"/>
		<g id="XMLID_211_">
			<path id="XMLID_264_" class="st0" d="M0-49.5h36.9V0H0V-49.5z"/>
			<path id="XMLID_263_" class="st0" d="M0-49.5h36.9V0H0V-49.5z"/>
			<path id="XMLID_262_" class="st1" d="M4.3-36.3c4.5,0,4.5-7,0-7S-0.2-36.3,4.3-36.3z"/>
			<path id="XMLID_261_" class="st1" d="M4.5-32.3c4.5,0,4.5-7,0-7S0-32.3,4.5-32.3z"/>
			<path id="XMLID_260_" class="st1" d="M4.5-28.6c4.5,0,4.5-7,0-7S0-28.6,4.5-28.6z"/>
			<path id="XMLID_259_" class="st1" d="M3.4-24.8c4.5,0,4.5-7,0-7S-1.1-24.8,3.4-24.8z"/>
			<path id="XMLID_258_" class="st1" d="M1.1-21.2l0.2,0.4c1,1.7,3.1,2.2,4.8,1.3c1.6-1,2.2-3.1,1.3-4.8l-0.2-0.4
				c-1-1.7-3.1-2.2-4.8-1.3C0.7-25,0.2-22.9,1.1-21.2z"/>
			<path id="XMLID_257_" class="st1" d="M1.5-19.4l0.2,0.6c0.3,0.9,0.8,1.6,1.6,2.1s1.8,0.6,2.7,0.3c1.9-0.5,2.9-2.4,2.4-4.3
				l-0.2-0.6c-0.3-0.9-0.8-1.6-1.6-2.1S4.8-24,3.9-23.8C2.1-23.2,1-21.3,1.5-19.4z"/>
			<path id="XMLID_256_" class="st1" d="M1.6-15.6v0.4c0,1.9,1.6,3.5,3.5,3.5s3.5-1.6,3.5-3.5v-0.4c0-1.9-1.6-3.5-3.5-3.5
				S1.6-17.5,1.6-15.6z"/>
			<path id="XMLID_255_" class="st1" d="M4.9-7.2c4.5,0,4.5-7,0-7S0.4-7.2,4.9-7.2z"/>
			<path id="XMLID_254_" class="st1" d="M1.8-7.5v0.2c0,1.9,1.6,3.5,3.5,3.5s3.5-1.6,3.5-3.5v-0.2c0-1.9-1.6-3.5-3.5-3.5
				S1.8-9.4,1.8-7.5z"/>
			<path id="XMLID_253_" class="st1" d="M6-0.2c4.5,0,4.5-7,0-7S1.5-0.2,6-0.2z"/>
			<path id="XMLID_252_" class="st1" d="M10-35.4c4.5,0,4.5-7,0-7S5.5-35.4,10-35.4z"/>
			<path id="XMLID_251_" class="st1" d="M6.6-28.6c4.5,0,4.5-7,0-7S2.1-28.6,6.6-28.6z"/>
			<path id="XMLID_250_" class="st1" d="M8.5-22.5c4.5,0,4.5-7,0-7S4-22.5,8.5-22.5z"/>
			<path id="XMLID_249_" class="st1" d="M8.5-20.2c4.5,0,4.5-7,0-7S4-20.2,8.5-20.2z"/>
			<path id="XMLID_248_" class="st1" d="M14.9-15.7c4.5,0,4.5-7,0-7S10.4-15.7,14.9-15.7z"/>
			<path id="XMLID_247_" class="st1" d="M9.8-11c4.5,0,4.5-7,0-7S5.3-11,9.8-11z"/>
			<path id="XMLID_246_" class="st1" d="M10.6-4.4c4.5,0,4.5-7,0-7S6.1-4.4,10.6-4.4z"/>
			<path id="XMLID_245_" class="st1" d="M10.6,0c4.5,0,4.5-7,0-7S6.1,0,10.6,0z"/>
			<path id="XMLID_244_" class="st1" d="M12.8-31.4c2.6,0,2.6-4,0-4S10.3-31.4,12.8-31.4z"/>
			<path id="XMLID_243_" class="st1" d="M13-29.1c2.6,0,2.6-4,0-4S10.4-29.1,13-29.1z"/>
			<path id="XMLID_242_" class="st1" d="M13.1-28.5v0.2c0,1.1,0.9,2,2,2s2-0.9,2-2v-0.2c0-1.1-0.9-2-2-2S13.1-29.6,13.1-28.5z"/>
			<path id="XMLID_241_" class="st1" d="M15.1-23.6c2.6,0,2.6-4,0-4S12.5-23.6,15.1-23.6z"/>
			<path id="XMLID_240_" class="st1" d="M16.6-38.4c0.6,0,1-0.4,1-1c0-0.6-0.4-1-1-1s-1,0.4-1,1C15.6-38.8,16.1-38.4,16.6-38.4z"/>
			<path id="XMLID_239_" class="st1" d="M21.7-33c0.6,0,1-0.4,1-1s-0.4-1-1-1s-1,0.4-1,1S21.2-33,21.7-33z"/>
			<path id="XMLID_238_" class="st1" d="M16.9-40.6V-41c0-0.6-0.4-1-1-1s-1,0.4-1,1v0.4c0,0.6,0.4,1,1,1
				C16.4-39.6,16.9-40,16.9-40.6z"/>
			<path id="XMLID_237_" class="st1" d="M16.5-44.7v-0.2c0-0.6-0.4-1-1-1s-1,0.4-1,1v0.2c0,0.6,0.4,1,1,1
				C16-43.7,16.5-44.2,16.5-44.7z"/>
			<path id="XMLID_236_" class="st1" d="M15.5-47.5c0.6,0,1-0.4,1-1s-0.4-1-1-1s-1,0.4-1,1S14.9-47.5,15.5-47.5z"/>
			<path id="XMLID_235_" class="st1" d="M10.6-47.5c0.6,0,1-0.4,1-1s-0.4-1-1-1s-1,0.4-1,1S10-47.5,10.6-47.5z"/>
			<path id="XMLID_234_" class="st1" d="M10.4-44.8c0.6,0,1-0.4,1-1c0-0.6-0.4-1-1-1s-1,0.4-1,1C9.4-45.2,9.8-44.8,10.4-44.8z"/>
			<path id="XMLID_233_" class="st1" d="M7.4-43.3c0.6,0,1-0.4,1-1c0-0.6-0.4-1-1-1s-1,0.4-1,1C6.4-43.7,6.8-43.3,7.4-43.3z"/>
			<path id="XMLID_232_" class="st1" d="M11.9-42.4h0.4c0.6,0,1-0.4,1-1c0-0.6-0.4-1-1-1h-0.4c-0.6,0-1,0.4-1,1
				C10.9-42.8,11.3-42.4,11.9-42.4z"/>
			<path id="XMLID_231_" class="st1" d="M13.3-38.5l0.6,1.3c0.3,0.5,0.9,0.6,1.4,0.4c0.5-0.3,0.6-0.9,0.4-1.4L15-39.5
				c-0.3-0.5-0.9-0.6-1.4-0.4C13.2-39.6,13-39,13.3-38.5z"/>
			<path id="XMLID_230_" class="st1" d="M18.4-30.2v0.2c0,0.6,0.4,1,1,1s1-0.4,1-1v-0.2c0-0.6-0.4-1-1-1S18.4-30.7,18.4-30.2z"/>
			<path id="XMLID_229_" class="st1" d="M20.7-24.6l0.2,0.4c0.6,1.1,2.3,0.1,1.7-1l-0.2-0.4C21.8-26.7,20.1-25.7,20.7-24.6z"/>
			<path id="XMLID_228_" class="st1" d="M22.1-20.1c-0.5,0.5-0.8,1.1-0.8,1.9c0,0.6,0.4,1,1,1s1-0.4,1-1c0-0.2,0.1-0.3,0.3-0.4
				c0.4-0.4,0.4-1,0-1.4C23.2-20.5,22.5-20.5,22.1-20.1z"/>
			<path id="XMLID_227_" class="st1" d="M20.3-16.1l-0.5,1.7c-0.4,1.2,1.5,1.8,1.9,0.5l0.5-1.7C22.6-16.8,20.7-17.3,20.3-16.1z"/>
			<path id="XMLID_226_" class="st1" d="M19.4-12.5h-0.2c-0.6,0-1,0.4-1,1s0.4,1,1,1h0.2c0.6,0,1-0.4,1-1S20-12.5,19.4-12.5z"/>
			<path id="XMLID_225_" class="st1" d="M17.6-8l-0.2,0.4c-0.6,1.2,1.1,2.2,1.7,1L19.3-7C19.9-8.2,18.2-9.2,17.6-8z"/>
			<path id="XMLID_224_" class="st1" d="M15.8-1.6V-1c0,0.6,0.4,1,1,1s1-0.4,1-1v-0.6c0-0.6-0.4-1-1-1S15.8-2.2,15.8-1.6z"/>
			<path id="XMLID_223_" class="st1" d="M14.3-0.1c0.6,0,1-0.4,1-1s-0.4-1-1-1s-1,0.4-1,1S13.8-0.1,14.3-0.1z"/>
			<path id="XMLID_222_" class="st1" d="M14.3-8.2c0.6,0,1-0.4,1-1s-0.4-1-1-1s-1,0.4-1,1S13.8-8.2,14.3-8.2z"/>
			<path id="XMLID_221_" class="st1" d="M17.1-13c0.6-0.3,1-1,1-1.6s-0.4-1-1-1s-1,0.4-1,1c0-0.1,0.2-0.2,0-0.1
				C15-14.2,16-12.5,17.1-13z"/>
			<path id="XMLID_220_" class="st1" d="M17.4-18.2c0.6,0,1-0.4,1-1s-0.4-1-1-1s-1,0.4-1,1S16.8-18.2,17.4-18.2z"/>
			<path id="XMLID_219_" class="st1" d="M18.1-21c0.6,0,1-0.4,1-1s-0.4-1-1-1s-1,0.4-1,1S17.6-21,18.1-21z"/>
			<path id="XMLID_218_" class="st1" d="M19-24.6l0.2-0.4c0.6-1.1-1.1-2.2-1.7-1l-0.2,0.4C16.7-24.4,18.4-23.4,19-24.6z"/>
			<path id="XMLID_217_" class="st1" d="M17.9-33.5c0.6,0,1-0.4,1-1s-0.4-1-1-1s-1,0.4-1,1S17.4-33.5,17.9-33.5z"/>
			<path id="XMLID_216_" class="st1" d="M24.6-33.5l0.6,0.9c0.3,0.4,1,0.5,1.4,0.2c0.4-0.3,0.5-0.8,0.3-1.2l-0.6-1
				c-0.3-0.5-0.9-0.6-1.4-0.3C24.6-34.5,24.4-34,24.6-33.5z"/>
			<path id="XMLID_215_" class="st1" d="M34.9-19.8v0.2c0,0.6,0.4,1,1,1s1-0.4,1-1v-0.2c0-0.6-0.4-1-1-1S34.9-20.3,34.9-19.8z"/>
			<path id="XMLID_214_" class="st1" d="M24-10.3c0.6,0,1-0.4,1-1s-0.4-1-1-1s-1,0.4-1,1S23.5-10.3,24-10.3z"/>
			<path id="XMLID_213_" class="st1" d="M22.9-20.5c0.6,0,1-0.4,1-1s-0.4-1-1-1s-1,0.4-1,1S22.3-20.5,22.9-20.5z"/>
			<path id="XMLID_212_" class="st1" d="M18.2-27.6l0.6-0.6c0.9-0.9-0.5-2.3-1.4-1.4L16.8-29C15.9-28.1,17.3-26.7,18.2-27.6z"/>
		</g>
	</g>
</pattern>
<g id="XMLID_331_">
	<path id="XMLID_1_" class="st2" d="M803.7,143.5c0,0-156.9-110.4-232.9-76c-56.1,25.4-107.6,59.4-164,84.7
		c-44.2,19.8-89.7,36.5-136.2,49.9c-47.9,13.8-86.8,30.1-128.1,59c-33.9,23.8-65.1,51.7-73.5,94c-7.8,38.9-4.6,78.5,13.8,114.1
		c20.9,40.4,57.8,66.7,98.1,85.4c136.2,63.3,209.3-10.2,253.7,16.5c68.3,41,128.9,102,209.8,117.2c56,10.6,121.2-33.3,159.3-71.9
		V143.5z"/>
	<path id="XMLID_56_" class="st3" d="M803.7,174.3c0,0-159.8-89.6-230-60.9c-45.5,18.6-87.3,44.7-130.6,67.8
		c-40.6,21.6-80.8,33.1-123.7,47.1c-61.5,20.1-125.5,50.1-173.7,94C105.6,358.7,81.9,409.4,115,459
		c88.9,133.1,282.4,21.3,351.2,77.2s174.9,131.9,232.2,116.1s105.3-95.8,105.3-95.8V174.3z"/>
	<g id="XMLID_200_">
		<ellipse id="XMLID_206_" class="st4" cx="494.2" cy="409.8" rx="5.2" ry="6.8"/>
		<path id="XMLID_205_" class="st4" d="M498.3,380.6c0.7-1.3,1.1-2.7,1.1-4.2c0-3.8-2.3-6.8-5.2-6.8s-5.2,3.1-5.2,6.8
			c0,1.5,0.4,2.9,1.1,4.2c-1.5,2.6-1.5,5.7,0,8.3c-1.5,2.6-1.5,5.7,0,8.3c-0.7,1.3-1.1,2.7-1.1,4.2c0,3.8,2.3,6.8,5.2,6.8
			s5.2-3.1,5.2-6.8c0-1.5-0.4-2.9-1.1-4.2c1.5-2.6,1.5-5.7,0-8.3C499.8,386.4,499.8,383.2,498.3,380.6z"/>
		<ellipse id="XMLID_204_" class="st4" cx="494.2" cy="368.1" rx="5.2" ry="6.8"/>
		<ellipse id="XMLID_203_" class="st4" cx="494.2" cy="359.8" rx="5.2" ry="6.8"/>
		<path id="XMLID_202_" class="st4" d="M474.7,302.7c-0.7-0.9-1.4-1.9-1.9-2.9l13.7-2.2l-14.8,0.1c-2.9-6.2-3-13.4-0.5-19.8
			l19.9,10.3l-18.3-13.5c6.8-12,22.1-16.2,34-9.4c12,6.8,16.2,22.1,9.4,34c-0.6,1.1-1.4,2.2-2.2,3.2c1.1,1.4,2.1,2.9,2.8,4.6
			l-17.8,9.3l18.9-6.4c2.7,8,1.2,16.8-4,23.4c8.5,10.8,6.6,26.5-4.2,35s-26.5,6.6-35-4.2c-7.1-9.1-7.1-21.8,0-30.9
			C467.6,324.5,467.6,311.8,474.7,302.7L474.7,302.7z"/>
		<path id="XMLID_201_" class="st5" d="M519.3,318.2c0,5.6-1.9,11-5.3,15.4c8.5,10.8,6.6,26.5-4.2,35s-26.5,6.6-35-4.2
			c-7.1-9.1-7.1-21.8,0-30.9C471.3,329.3,519.3,315.4,519.3,318.2z"/>
	</g>
	<g id="XMLID_193_">
		<ellipse id="XMLID_199_" class="st4" cx="555" cy="395.2" rx="3.9" ry="5.1"/>
		<path id="XMLID_198_" class="st4" d="M558.1,373.4c0.5-0.9,0.8-2,0.8-3.1c0-2.8-1.7-5.1-3.9-5.1c-2.1,0-3.9,2.3-3.9,5.1
			c0,1.1,0.3,2.2,0.8,3.1c-1.1,1.9-1.1,4.3,0,6.2c-1.1,1.9-1.1,4.3,0,6.2c-0.5,0.9-0.8,2-0.8,3.1c0,2.8,1.7,5.1,3.9,5.1
			s3.9-2.3,3.9-5.1c0-1.1-0.3-2.2-0.8-3.1c1.1-1.9,1.1-4.3,0-6.2C559.2,377.7,559.2,375.3,558.1,373.4z"/>
		<ellipse id="XMLID_197_" class="st4" cx="555" cy="364.1" rx="3.9" ry="5.1"/>
		<ellipse id="XMLID_196_" class="st4" cx="555" cy="357.8" rx="3.9" ry="5.1"/>
		<path id="XMLID_195_" class="st4" d="M540.4,315.2l-1.5-2.1l10.2-1.7l-11.1,0.1c-2.1-4.7-2.3-10-0.4-14.8l14.8,7.7L539,294.3
			c5.1-8.9,16.6-12,25.5-6.8s12,16.6,6.8,25.5c-0.5,0.8-1,1.5-1.5,2.2c0.8,1.1,1.5,2.2,2.1,3.4l-13.3,6.9l14.2-4.8
			c2,6,0.9,12.6-3,17.5c6.4,8.1,5,19.8-3.1,26.2c-8.1,6.4-19.8,5-26.2-3.1c-5.3-6.8-5.3-16.3,0-23.1
			C535.1,331.5,535.1,322,540.4,315.2L540.4,315.2z"/>
		<path id="XMLID_194_" class="st5" d="M573.7,326.7c0,4.2-1.4,8.2-4,11.5c6.4,8.1,5,19.8-3.1,26.2s-19.8,5-26.2-3.1
			c-5.3-6.8-5.3-16.3,0-23.1C538,335.1,573.7,324.6,573.7,326.7z"/>
	</g>
	<g id="XMLID_186_">
		<ellipse id="XMLID_192_" class="st4" cx="750.2" cy="391.5" rx="5.2" ry="6.8"/>
		<path id="XMLID_191_" class="st4" d="M746,362.3c-0.7-1.3-1.1-2.7-1.1-4.2c0-3.8,2.3-6.8,5.2-6.8s5.2,3.1,5.2,6.8
			c0,1.5-0.4,2.9-1.1,4.2c1.5,2.6,1.5,5.7,0,8.3c1.5,2.6,1.5,5.7,0,8.3c0.7,1.3,1.1,2.7,1.1,4.2c0,3.8-2.3,6.8-5.2,6.8
			s-5.2-3.1-5.2-6.8c0-1.5,0.4-2.9,1.1-4.2c-1.5-2.6-1.5-5.7,0-8.3C744.6,368,744.6,364.9,746,362.3z"/>
		<ellipse id="XMLID_190_" class="st4" cx="750.2" cy="349.8" rx="5.2" ry="6.8"/>
		<ellipse id="XMLID_189_" class="st4" cx="750.2" cy="341.5" rx="5.2" ry="6.8"/>
		<path id="XMLID_188_" class="st4" d="M769.7,284.4c0.7-0.9,1.4-1.9,1.9-2.9l-13.7-2.2l14.8,0.1c2.9-6.2,3-13.4,0.5-19.8
			l-19.9,10.3l18.3-13.5c-6.8-12-22.1-16.2-34-9.4s-16.2,22.1-9.4,34c0.6,1.1,1.4,2.2,2.2,3.2c-1.1,1.4-2.1,2.9-2.8,4.6l17.8,9.3
			l-18.9-6.4c-2.7,8-1.2,16.8,4,23.4c-8.5,10.8-6.6,26.5,4.2,35s26.5,6.6,35-4.2c7.1-9.1,7.1-21.8,0-30.9
			C776.8,306.2,776.8,293.5,769.7,284.4L769.7,284.4z"/>
		<path id="XMLID_187_" class="st5" d="M725.1,299.8c0,5.6,1.9,11,5.3,15.4c-8.5,10.8-6.6,26.5,4.2,35s26.5,6.6,35-4.2
			c7.1-9.1,7.1-21.8,0-30.9C773,311,725.1,297,725.1,299.8z"/>
	</g>
	<g id="XMLID_179_">
		<ellipse id="XMLID_185_" class="st4" cx="699.9" cy="392.5" rx="3.9" ry="5.1"/>
		<path id="XMLID_184_" class="st4" d="M696.8,370.7c-0.5-0.9-0.8-2-0.8-3.1c0-2.8,1.7-5.1,3.9-5.1s3.9,2.3,3.9,5.1
			c0,1.1-0.3,2.2-0.8,3.1c1.1,1.9,1.1,4.3,0,6.2c1.1,1.9,1.1,4.3,0,6.2c0.5,0.9,0.8,2,0.8,3.1c0,2.8-1.7,5.1-3.9,5.1
			s-3.9-2.3-3.9-5.1c0-1.1,0.3-2.2,0.8-3.1c-1.1-1.9-1.1-4.3,0-6.2C695.7,375,695.7,372.6,696.8,370.7z"/>
		<ellipse id="XMLID_183_" class="st4" cx="699.9" cy="361.3" rx="3.9" ry="5.1"/>
		<ellipse id="XMLID_182_" class="st4" cx="699.9" cy="355.1" rx="3.9" ry="5.1"/>
		<path id="XMLID_181_" class="st4" d="M714.5,312.5l1.5-2.1l-10.2-1.7l11.1,0.1c2.1-4.7,2.3-10,0.4-14.8l-14.8,7.7l13.7-10.1
			c-5.1-8.9-16.6-12-25.5-6.8s-12,16.6-6.8,25.5c0.5,0.8,1,1.5,1.5,2.2c-0.8,1.1-1.5,2.2-2.1,3.4l13.3,6.9l-14.1-4.7
			c-2,6-0.9,12.6,3,17.5c-6.4,8.1-5,19.8,3.1,26.2c8.1,6.4,19.8,5,26.2-3.1c5.3-6.8,5.3-16.3,0-23.1
			C719.8,328.8,719.8,319.2,714.5,312.5L714.5,312.5z"/>
		<path id="XMLID_180_" class="st5" d="M681.1,324c0,4.2,1.4,8.2,4,11.5c-6.4,8.1-5,19.8,3.1,26.2c8.1,6.4,19.8,5,26.2-3.1
			c5.3-6.8,5.3-16.3,0-23.1C716.9,332.3,681.1,321.9,681.1,324z"/>
	</g>
	<g id="XMLID_172_">
		<ellipse id="XMLID_178_" class="st4" cx="302.9" cy="391.5" rx="5.2" ry="6.8"/>
		<path id="XMLID_177_" class="st4" d="M307,362.3c0.7-1.3,1.1-2.7,1.1-4.2c0-3.8-2.3-6.8-5.2-6.8c-2.9,0-5.2,3.1-5.2,6.8
			c0,1.5,0.4,2.9,1.1,4.2c-1.4,2.6-1.4,5.7,0,8.3c-1.4,2.6-1.4,5.7,0,8.3c-0.7,1.3-1.1,2.7-1.1,4.2c0,3.8,2.3,6.8,5.2,6.8
			c2.9,0,5.2-3,5.2-6.8c0-1.5-0.4-2.9-1.1-4.2c1.5-2.6,1.5-5.7,0-8.3C308.5,368.1,308.5,364.9,307,362.3z"/>
		<ellipse id="XMLID_176_" class="st4" cx="302.9" cy="349.8" rx="5.2" ry="6.8"/>
		<ellipse id="XMLID_175_" class="st4" cx="302.9" cy="341.5" rx="5.2" ry="6.8"/>
		<path id="XMLID_174_" class="st4" d="M283.4,284.4c-0.7-0.9-1.4-1.9-1.9-2.9l13.7-2.2l-14.8,0.1c-2.9-6.2-3-13.4-0.5-19.8
			l19.9,10.3l-18.3-13.5c6.8-12,22.1-16.1,34.1-9.3s16.1,22.1,9.3,34.1c-0.6,1.1-1.3,2.1-2.1,3.1c1.1,1.4,2.1,2.9,2.8,4.6l-17.8,9.2
			l19-6.4c2.7,8,1.2,16.8-4,23.4c8.5,10.8,6.6,26.5-4.2,35s-26.5,6.6-35-4.2c-7.1-9.1-7.1-21.8,0-30.9
			C276.3,306.2,276.3,293.5,283.4,284.4z"/>
		<path id="XMLID_173_" class="st5" d="M328,299.8c0,5.6-1.9,11-5.3,15.4c8.5,10.8,6.6,26.5-4.2,35s-26.5,6.6-35-4.2
			c-7.1-9.1-7.1-21.8,0-30.9C280.1,311,328,297,328,299.8z"/>
	</g>
	<g id="XMLID_165_">
		<ellipse id="XMLID_171_" class="st4" cx="353.2" cy="392.5" rx="3.9" ry="5.1"/>
		<path id="XMLID_170_" class="st4" d="M356.3,370.7c0.5-0.9,0.8-2,0.8-3.1c0-2.8-1.7-5.1-3.9-5.1s-3.9,2.3-3.9,5.1
			c0,1.1,0.3,2.2,0.8,3.1c-1.1,1.9-1.1,4.3,0,6.2c-1.1,1.9-1.1,4.3,0,6.2c-0.5,0.9-0.8,2-0.8,3.1c0,2.8,1.7,5.1,3.9,5.1
			s3.9-2.3,3.9-5.1c0-1.1-0.3-2.2-0.8-3.1c1.1-1.9,1.1-4.3,0-6.2C357.4,375,357.4,372.6,356.3,370.7z"/>
		<ellipse id="XMLID_169_" class="st4" cx="353.2" cy="361.3" rx="3.9" ry="5.1"/>
		<ellipse id="XMLID_168_" class="st4" cx="353.2" cy="355.1" rx="3.9" ry="5.1"/>
		<path id="XMLID_167_" class="st4" d="M338.6,312.5l-1.5-2.1l10.2-1.7l-11.1,0.1c-2.1-4.7-2.3-10-0.4-14.8l14.8,7.7l-13.7-10.1
			c5.1-8.9,16.6-12,25.5-6.8c8.9,5.1,12,16.6,6.8,25.5c-0.5,0.8-1,1.5-1.5,2.2c0.8,1.1,1.5,2.2,2.1,3.4l-13.3,6.9L371,318
			c2,6,0.9,12.6-3,17.5c6.4,8.1,5,19.8-3.1,26.2c-8.1,6.4-19.8,5-26.2-3.1c-5.3-6.8-5.3-16.3,0-23.1
			C333.3,328.7,333.3,319.2,338.6,312.5L338.6,312.5z"/>
		<path id="XMLID_166_" class="st5" d="M371.9,324c0,4.2-1.4,8.2-4,11.5c6.4,8.1,5,19.8-3.1,26.2s-19.8,5-26.2-3.1
			c-5.3-6.8-5.3-16.3,0-23.1C336.1,332.3,371.9,321.9,371.9,324L371.9,324z"/>
	</g>
	<ellipse id="XMLID_164_" class="st6" cx="525.6" cy="469.8" rx="250.9" ry="4.1"/>
	<ellipse id="XMLID_163_" class="st6" cx="525.6" cy="503.1" rx="250.9" ry="4.1"/>
	<ellipse id="XMLID_162_" class="st6" cx="525.6" cy="400.3" rx="250.9" ry="4.1"/>
	<ellipse id="XMLID_161_" class="st6" cx="525.6" cy="435" rx="250.9" ry="4.1"/>
	<path id="XMLID_160_" class="st6" d="M645,294.5c-1.6-0.3-3.3-0.1-4.9,0.5c-1.9,0.8-4,0.8-5.8,0c-2.2-1-4.7-0.9-6.9,0.1
		c-0.6,0.3-1.3,0.5-2,0.5c-2.8,0-5.1-2.8-5.6-6.5c0.5-0.4,1-0.9,1.4-1.5c1.6-2.6,4.2-4.3,7-4.3s5.3,1.7,7,4.3c1,1.6,2.7,2.6,4.6,2.5
		h0.1C642.1,290.2,644,292,645,294.5L645,294.5z"/>
	<path id="XMLID_159_" class="st6" d="M653.5,282.9l-4.5,2.8l2.7-5c-0.8-0.6-1.7-1-2.7-1h-0.1c-0.3,0-0.6,0-0.9-0.1l-1.5,1l0.7-1.2
		c-1.1-0.4-2-1.1-2.7-2l-2.7,1.7l1.7-3.1c-1.6-1.9-3.7-3.1-6.1-3.1c-2.8,0-5.4,1.7-7,4.3c-1,1.6-2.7,2.6-4.6,2.5h-0.2
		c-3.1,0-5.7,3.5-5.7,7.9s2.5,7.9,5.7,7.9c0.7,0,1.4-0.2,2-0.5c2.2-1.1,4.7-1.1,6.9-0.1c1.9,0.8,4,0.8,5.8,0
		c2.2-0.9,4.7-0.9,6.8,0.1c0.6,0.3,1.3,0.5,2,0.5c3.1,0,5.7-3.6,5.7-7.9C654.6,286.1,654.2,284.4,653.5,282.9L653.5,282.9z"/>
	<path id="XMLID_158_" class="st6" d="M453.8,292.1c-1.1-0.2-2.3-0.1-3.4,0.4c-1.3,0.6-2.8,0.6-4.1,0c-1.5-0.7-3.3-0.6-4.8,0.1
		c-0.4,0.2-0.9,0.3-1.4,0.3c-1.9,0-3.6-2-3.9-4.5c0.4-0.3,0.7-0.6,1-1c1.1-1.8,2.9-3,4.9-3s3.7,1.2,4.9,3c0.7,1.1,1.9,1.8,3.2,1.8
		h0.1C451.8,289,453.2,290.3,453.8,292.1L453.8,292.1z"/>
	<path id="XMLID_157_" class="st6" d="M459.8,284l-3.1,2l1.9-3.5c-0.5-0.4-1.2-0.7-1.9-0.7h-0.1c-0.2,0-0.4,0-0.7-0.1l-1.1,0.7
		l0.5-0.8c-0.8-0.3-1.4-0.8-1.9-1.4l-1.9,1.2l1.2-2.2c-1-1.3-2.6-2.1-4.3-2.2c-2,0-3.8,1.2-4.9,3c-0.7,1.1-1.9,1.8-3.2,1.7h-0.1
		c-2.2,0-4,2.5-4,5.5s1.8,5.5,4,5.5c0.5,0,1-0.1,1.4-0.3c1.5-0.7,3.3-0.8,4.8-0.1c0.6,0.3,1.3,0.5,2.1,0.5c0.7,0,1.4-0.1,2-0.4
		c1.5-0.7,3.3-0.6,4.8,0.1c0.4,0.2,0.9,0.3,1.4,0.3c2.2,0,4-2.5,4-5.5C460.6,286.2,460.3,285,459.8,284L459.8,284z"/>
	<path id="XMLID_156_" class="st6" d="M398.1,328c1.1-0.2,2.3-0.1,3.4,0.4c1.3,0.6,2.8,0.6,4.1,0c1.5-0.7,3.3-0.6,4.8,0.1
		c0.4,0.2,0.9,0.3,1.4,0.3c1.9,0,3.6-2,3.9-4.6c-0.4-0.3-0.7-0.6-1-1c-1.1-1.8-2.9-3-4.9-3s-3.7,1.2-4.9,3c-0.7,1.1-1.9,1.8-3.2,1.8
		h-0.1C400.1,324.9,398.8,326.2,398.1,328L398.1,328z"/>
	<path id="XMLID_155_" class="st6" d="M392.2,319.9l3.1,2l-1.9-3.5c0.5-0.4,1.2-0.7,1.9-0.7h0.8l1.1,0.7l-0.5-0.8
		c0.8-0.3,1.4-0.8,1.9-1.4l1.9,1.2l-1.2-2.2c1-1.3,2.6-2.1,4.3-2.2c2,0,3.8,1.2,4.9,3c0.7,1.1,1.9,1.8,3.2,1.7h0.1
		c2.2,0,4,2.5,4,5.5s-1.8,5.5-4,5.5c-0.5,0-0.9-0.1-1.4-0.3c-1.5-0.7-3.3-0.8-4.8-0.1c-0.6,0.3-1.3,0.5-2.1,0.5
		c-0.7,0-1.4-0.1-2-0.4c-1.5-0.7-3.3-0.6-4.8,0.1c-0.4,0.2-0.9,0.3-1.4,0.3c-2.2,0-4-2.5-4-5.5C391.4,322.1,391.7,320.9,392.2,319.9
		L392.2,319.9z"/>
	<path id="XMLID_154_" class="st7" d="M578.8,468.5c1.2-2.2-0.2-4.9-1.7-6.9c-1.6-2-3.5-4-3.4-6.5c0.1-3.6,3.9-5.7,7-7.7
		c2.3-1.4,4.4-3.1,6.2-5c0.8-0.7,1.4-1.6,1.9-2.6c0.6-1.4,0.6-3,0.6-4.6c-0.1-5.2-0.4-10.3-0.8-15.5"/>
	<path id="XMLID_153_" class="st8" d="M594.5,419.5c-0.1-1.9-1.2-3.7-2.8-4.6l-1.3,2.5v-3c-3-0.9-6.1,0.8-7,3.8s0.8,6.1,3.8,7
		s6.1-0.8,7-3.8C594.4,420.7,594.5,420.1,594.5,419.5z"/>
	<path id="XMLID_152_" class="st8" d="M584.4,457.6c-1.4,2.7-4.7,3.9-7.4,2.5c-0.1,0-0.1-0.1-0.2-0.1c-1.8-0.9-2.9-2.7-3-4.7
		c0-0.8,0.1-1.6,0.4-2.3c1.1-2.9,4.4-4.3,7.3-3.2c1.5,0.6,2.7,1.8,3.2,3.3l-3.5,2.9l3.9-0.9C585,455.9,584.8,456.8,584.4,457.6
		L584.4,457.6z"/>
	<path id="XMLID_151_" class="st8" d="M581.6,446.7c-3.1,0.1-5.7-2.3-5.9-5.4c-0.1-2.6,1.6-5,4.1-5.7v2.3l1.3-2.5
		c3.1-0.1,5.7,2.3,5.9,5.4C587.1,443.9,584.7,446.5,581.6,446.7L581.6,446.7z"/>
	<path id="XMLID_150_" class="st8" d="M595.3,437.6c-3.1,0.2-5.8-2.2-5.9-5.3c-0.2-3.1,2.2-5.8,5.3-5.9c1.1-0.1,2.1,0.2,3.1,0.7
		l-1,2.7l2-2c2.3,2.1,2.4,5.7,0.3,8C598.2,436.8,596.8,437.5,595.3,437.6L595.3,437.6z"/>
	<path id="XMLID_149_" class="st9" d="M593.7,421c-1.3,0.1-2.6,0.5-3.9,0.6c-1.3,0.1-2.7-0.2-3.6-1.2c-0.4-0.6-0.7-1.2-1-1.8
		c-0.4-0.6-0.8-1-1.4-1.3c-1.4,2.8-0.3,6.2,2.5,7.6s6.2,0.3,7.6-2.5c0.2-0.4,0.4-0.9,0.5-1.4C594.1,420.9,593.9,420.9,593.7,421
		L593.7,421z"/>
	<path id="XMLID_148_" class="st9" d="M595.3,437.6c-3.1,0.1-5.7-2.3-5.9-5.4c0-0.9,0.1-1.8,0.5-2.7c0.4,0.3,0.8,0.7,1.1,1.1
		c0.3,0.6,0.7,1.3,1.1,1.9c0.9,1,2.4,1.4,3.7,1.3c1.4-0.1,2.7-0.5,4-0.6h0.6C600,435.7,597.8,437.4,595.3,437.6L595.3,437.6z"/>
	<path id="XMLID_147_" class="st9" d="M581.6,446.7c-3.1,0.1-5.7-2.3-5.9-5.4c0-0.9,0.1-1.8,0.5-2.6c0.5,0.3,0.9,0.7,1.2,1.1
		c0.4,0.7,0.8,1.3,1.2,1.9c0.9,1.1,2.5,1.4,4,1.4c1.4-0.1,2.7-0.4,4.1-0.5C586,445,584,446.5,581.6,446.7z"/>
	<path id="XMLID_146_" class="st9" d="M584.4,457.6c-1.4,2.7-4.7,3.9-7.4,2.5c-0.1,0-0.1-0.1-0.2-0.1c-1.8-0.9-2.9-2.7-3-4.7
		c0-0.8,0.1-1.6,0.4-2.3c0.5,0.3,0.9,0.7,1.2,1.1c0.5,0.7,0.9,1.4,1.5,2c1.1,1.1,3,1.6,4.7,1.6C582.5,457.8,583.5,457.7,584.4,457.6
		L584.4,457.6z"/>
	<path id="XMLID_145_" class="st7" d="M299.6,435.5c1.2-2.2-0.2-4.9-1.7-6.9s-3.5-4-3.4-6.5c0.1-3.6,3.9-5.7,7-7.7
		c2.3-1.4,4.4-3.1,6.2-5c0.8-0.7,1.4-1.6,1.9-2.6c0.6-1.4,0.6-3,0.6-4.6c-0.1-5.2-0.4-10.3-0.8-15.5"/>
	<path id="XMLID_144_" class="st8" d="M315.2,386.5c-0.1-1.9-1.2-3.7-2.8-4.6l-1.3,2.5v-3c-3-0.9-6.1,0.8-7,3.8s0.8,6.1,3.8,7
		s6.1-0.8,7-3.8C315.2,387.7,315.2,387.1,315.2,386.5z"/>
	<path id="XMLID_143_" class="st8" d="M305.2,424.6c-1.4,2.7-4.7,3.9-7.4,2.5c-0.1,0-0.1-0.1-0.2-0.1c-1.8-0.9-2.9-2.7-3-4.7
		c0-0.8,0.1-1.6,0.4-2.3c1.1-2.9,4.4-4.3,7.3-3.2c1.5,0.6,2.7,1.8,3.2,3.3L302,423l3.9-0.9C305.8,423,305.6,423.8,305.2,424.6
		L305.2,424.6z"/>
	<path id="XMLID_142_" class="st8" d="M302.4,413.7c-3.1,0.1-5.7-2.3-5.9-5.4c-0.1-2.6,1.6-5,4.1-5.7v2.3l1.3-2.5
		c3.1-0.1,5.7,2.3,5.9,5.4S305.5,413.6,302.4,413.7L302.4,413.7z"/>
	<path id="XMLID_141_" class="st8" d="M316.1,404.6c-3.1,0.2-5.8-2.2-5.9-5.3c-0.2-3.1,2.2-5.8,5.3-5.9c1.1-0.1,2.1,0.2,3.1,0.7
		l-1,2.7l2-2c2.3,2.1,2.4,5.7,0.3,8C318.9,403.9,317.5,404.5,316.1,404.6L316.1,404.6z"/>
	<path id="XMLID_140_" class="st9" d="M314.5,388c-1.3,0.1-2.6,0.5-3.9,0.6s-2.7-0.2-3.6-1.2c-0.4-0.6-0.7-1.2-1-1.8
		c-0.4-0.6-0.8-1-1.4-1.3c-1.4,2.8-0.3,6.2,2.5,7.6s6.2,0.3,7.6-2.5c0.2-0.4,0.4-0.9,0.5-1.4L314.5,388L314.5,388z"/>
	<path id="XMLID_139_" class="st9" d="M316.1,404.6c-3.1,0.1-5.7-2.3-5.9-5.4c0-0.9,0.1-1.8,0.5-2.7c0.4,0.3,0.8,0.7,1.1,1.1
		c0.3,0.6,0.7,1.3,1.1,1.9c0.9,1,2.4,1.4,3.7,1.3c1.4-0.1,2.7-0.5,4-0.6h0.6C320.7,402.7,318.6,404.5,316.1,404.6L316.1,404.6z"/>
	<path id="XMLID_138_" class="st9" d="M302.4,413.7c-3.1,0.1-5.7-2.3-5.9-5.4c0-0.9,0.1-1.8,0.5-2.6c0.5,0.3,0.9,0.7,1.2,1.1
		c0.4,0.7,0.8,1.3,1.2,1.9c0.9,1.1,2.5,1.4,4,1.4c1.4-0.1,2.7-0.4,4.1-0.5C306.8,412,304.7,413.6,302.4,413.7L302.4,413.7z"/>
	<path id="XMLID_137_" class="st9" d="M305.2,424.6c-1.4,2.7-4.7,3.9-7.4,2.5c-0.1,0-0.1-0.1-0.2-0.1c-1.8-0.9-2.9-2.7-3-4.7
		c0-0.8,0.1-1.6,0.4-2.3c0.5,0.3,0.9,0.7,1.2,1.1c0.5,0.7,0.9,1.4,1.5,2c1.1,1.1,3,1.6,4.7,1.6C303.3,424.8,304.2,424.8,305.2,424.6
		z"/>
	<path id="XMLID_136_" class="st7" d="M485.5,397.8c-1.2-2.2,0.2-4.9,1.7-6.9c1.6-2,3.5-4,3.4-6.5c-0.1-3.6-3.9-5.7-7-7.7
		c-2.3-1.4-4.4-3.1-6.2-5c-0.8-0.7-1.4-1.6-1.9-2.6c-0.6-1.4-0.6-3-0.6-4.6c0.1-5.2,0.4-10.3,0.8-15.5"/>
	<path id="XMLID_135_" class="st8" d="M469.9,348.8c0.1-1.9,1.1-3.7,2.8-4.6l1.3,2.5v-3c0.6-0.2,1.2-0.3,1.9-0.2
		c3.1,0.1,5.5,2.8,5.4,5.9s-2.8,5.5-5.9,5.4C472.2,354.5,469.8,351.9,469.9,348.8L469.9,348.8z"/>
	<path id="XMLID_134_" class="st8" d="M480,386.9c1.4,2.8,4.8,3.9,7.6,2.4c2.8-1.4,3.9-4.8,2.4-7.6c-1.4-2.7-4.7-3.9-7.4-2.5
		c-0.1,0-0.1,0.1-0.2,0.1c-1.3,0.6-2.2,1.7-2.7,3.1l3.5,2.9l-3.9-0.9C479.3,385.2,479.6,386.1,480,386.9z"/>
	<path id="XMLID_133_" class="st8" d="M482.8,376c3.1,0.1,5.8-2.2,5.9-5.4c0.1-2.6-1.6-5-4.1-5.7v2.3l-1.3-2.5
		c-3.1-0.2-5.8,2.2-5.9,5.4c0,0.7,0,1.3,0.2,1.9C478.3,374.3,480.4,375.9,482.8,376L482.8,376z"/>
	<path id="XMLID_132_" class="st8" d="M469.1,366.9c3.1,0.2,5.8-2.2,5.9-5.3s-2.2-5.8-5.3-5.9c-1.1-0.1-2.1,0.2-3.1,0.7l1,2.7
		l-2.1-2c-1.1,1-1.8,2.4-1.8,3.9c0,0.5,0,1,0.1,1.6C464.4,365,466.6,366.8,469.1,366.9L469.1,366.9z"/>
	<path id="XMLID_131_" class="st9" d="M470.7,350.3c1.3,0.1,2.6,0.5,3.9,0.6s2.7-0.2,3.6-1.2c0.4-0.6,0.7-1.2,1-1.8
		c0.4-0.6,0.8-1,1.4-1.3c1.4,2.8,0.3,6.2-2.5,7.6s-6.2,0.3-7.6-2.5c-0.2-0.4-0.4-0.9-0.5-1.4L470.7,350.3L470.7,350.3z"/>
	<path id="XMLID_130_" class="st9" d="M469.1,366.9c3.1,0.1,5.8-2.3,5.9-5.4c0-0.9-0.1-1.8-0.5-2.7c-0.4,0.3-0.8,0.7-1.1,1.1
		c-0.3,0.6-0.7,1.3-1.1,1.9c-0.9,1-2.4,1.4-3.7,1.3s-2.7-0.5-4-0.6H464C464.4,365,466.6,366.8,469.1,366.9L469.1,366.9z"/>
	<path id="XMLID_129_" class="st9" d="M482.8,376c3.1,0.1,5.7-2.2,5.9-5.4c0-0.9-0.1-1.8-0.5-2.6c-0.5,0.3-0.9,0.7-1.2,1.1
		c-0.4,0.7-0.8,1.3-1.2,1.9c-1,1.1-2.5,1.4-4,1.4c-1.4-0.1-2.7-0.4-4.1-0.5C478.3,374.3,480.4,375.9,482.8,376L482.8,376z"/>
	<path id="XMLID_128_" class="st9" d="M480,386.9c1.4,2.8,4.8,3.8,7.6,2.4c2.5-1.3,3.7-4.3,2.7-7c-0.5,0.3-0.9,0.7-1.2,1.1
		c-0.5,0.7-0.9,1.4-1.5,2c-1.2,1.1-3,1.6-4.7,1.6C481.9,387.1,480.9,387,480,386.9z"/>
	<circle id="XMLID_127_" class="st10" cx="631.7" cy="353.1" r="45.8"/>
	<path id="XMLID_126_" class="st4" d="M651.3,364.9c-1.6-1.6-5.4-4-7.3-4.9c-2.2-1.1-3-1-4.6,0.1c-1.3,0.9-2.1,1.8-3.6,1.5
		s-4.4-2.5-7.3-5.4c-2.8-2.8-5-5.8-5.4-7.3c-0.3-1.5,0.6-2.3,1.5-3.6c1.1-1.6,1.1-2.4,0.1-4.6c-0.9-1.9-3.3-5.7-4.9-7.3
		c-1.6-1.6-2-1.2-2.8-0.9c-0.9,0.4-1.8,0.8-2.6,1.4c-1.6,1.1-2.5,2-3.1,3.3s-1.3,3.8,2.3,10.3c2.7,5,6.1,9.5,10.1,13.5
		s8.6,7.4,13.5,10.1c6.5,3.7,9,2.9,10.3,2.3s2.2-1.5,3.3-3.1c0.5-0.8,1-1.7,1.4-2.6S652.9,366.5,651.3,364.9z"/>
	<path id="XMLID_123_" class="st4" d="M631.7,307.3c-25.3,0-45.8,20.5-45.8,45.8s20.5,45.8,45.8,45.8s45.8-20.5,45.8-45.8
		C677.4,327.8,656.9,307.3,631.7,307.3z M631.7,392.7c-21.9,0-39.7-17.8-39.7-39.7s17.8-39.7,39.7-39.7s39.7,17.8,39.7,39.7
		C671.4,375,653.6,392.7,631.7,392.7z"/>
	<circle id="XMLID_122_" class="st10" cx="526.5" cy="422.6" r="45.8"/>
	<path id="XMLID_121_" class="st4" d="M552.6,408.7l-13.7,13.9c-0.1,0.1-0.1,0.3,0,0.3l9.6,10.2c0.6,0.6,0.6,1.7,0,2.3
		c-0.3,0.3-0.7,0.5-1.2,0.5c-0.4,0-0.9-0.2-1.2-0.5l-9.6-10.2c-0.1-0.1-0.3-0.1-0.4,0l-2.3,2.4c-1.9,2-4.6,3.1-7.3,3.1
		c-2.8,0-5.5-1.2-7.5-3.2l-2.2-2.3c-0.1-0.1-0.3-0.1-0.4,0l-9.5,10.2c-0.6,0.6-1.7,0.6-2.3,0c-0.6-0.6-0.6-1.7,0-2.3l9.6-10.2
		c0.1-0.1,0.1-0.3,0-0.4l-13.7-13.9c-0.1-0.1-0.3-0.1-0.4,0c0,0-0.1,0.1-0.1,0.2v27.9c0,2.2,1.8,4.1,4.1,4.1h44.8
		c2.2,0,4.1-1.8,4.1-4.1v-27.9c0-0.1-0.1-0.3-0.2-0.3C552.7,408.7,552.6,408.7,552.6,408.7L552.6,408.7z"/>
	<path id="XMLID_120_" class="st4" d="M526.5,427.5c1.9,0,3.7-0.7,5-2.1l20-20.3c-0.7-0.6-1.6-0.9-2.5-0.9h-44.8
		c-0.9,0-1.8,0.3-2.5,0.9l20,20.3C522.9,426.8,524.7,427.5,526.5,427.5z"/>
	<path id="XMLID_117_" class="st4" d="M526,376.8c-25.3,0-45.8,20.5-45.8,45.8s20.5,45.8,45.8,45.8s45.8-20.5,45.8-45.8
		C571.7,397.3,551.2,376.8,526,376.8z M526,462.2c-21.9,0-39.7-17.8-39.7-39.7c0-21.9,17.8-39.7,39.7-39.7s39.7,17.8,39.7,39.7
		C565.6,444.5,547.9,462.2,526,462.2z"/>
	<circle id="XMLID_116_" class="st10" cx="417.9" cy="388.4" r="45.8"/>
	<path id="XMLID_115_" class="st4" d="M417.9,366.5l-18.2,42.1l1.7,1.7l16.5-7.3l16.5,7.3l1.7-1.7L417.9,366.5z"/>
	<path id="XMLID_112_" class="st4" d="M417.9,342.6c-25.3,0-45.8,20.5-45.8,45.8s20.5,45.8,45.8,45.8s45.8-20.5,45.8-45.8
		S443.2,342.6,417.9,342.6z M417.9,428c-21.9,0-39.7-17.8-39.7-39.7s17.8-39.7,39.7-39.7s39.7,17.8,39.7,39.7
		C457.6,410.3,439.9,428.1,417.9,428z"/>
	
		<linearGradient id="XMLID_335_" gradientUnits="userSpaceOnUse" x1="423.8232" y1="-76.449" x2="423.8232" y2="-155.225" gradientTransform="matrix(1 0 0 1 202 581.37)">
		<stop  offset="0" style="stop-color:#818181;stop-opacity:0.25"/>
		<stop  offset="0.54" style="stop-color:#818181;stop-opacity:0.12"/>
		<stop  offset="1" style="stop-color:#818181;stop-opacity:0.1"/>
	</linearGradient>
	<path id="XMLID_109_" class="st11" d="M635.9,446c-0.4-1-0.8-2-1.3-3c-0.4-1-0.9-1.9-1.6-2.7c-0.3-0.3-0.6-0.5-0.9-0.7
		c-0.4-0.1-0.8-0.2-1.2-0.2c-0.6-0.1-1.3-0.1-1.9-0.1c-0.2-0.1-0.5-0.2-0.8-0.3c2.8-0.7,4.8-3.2,4.9-6.1v-0.3c0-3.6-2.9-6.5-6.5-6.6
		c-1.2,0-2.4,0.3-3.4,1c-2.8-0.6-5.6,0.7-6.9,3.3c-1.5,1.5-2.4,3.5-2.3,5.6v0.3c0.1,3.6,2.4,6.4,5.3,6.7c-0.3,0.1-0.6,0.3-0.8,0.6
		c-0.9,0.9-1,2.2-1.1,3.5l-0.1,0.9l-1.5,0.5c-0.1,0.1-0.2,0.2-0.2,0.4c0,0.1,0.1,0.1,0.1,0.1l1.5,1v0.6c-0.3,0.2-0.4,0.5-0.6,0.8
		c-0.1,0.5-0.2,1-0.1,1.5l0.1,1.3c0,1,0.1,1.9,0.4,2.8c0.2,0.6,1,1.9,1.6,1.9c-0.6,2.5-0.7,7.8-0.7,7.8c-0.1,0.1,0.1,0.1,0.5,0.2
		c0.3,2.5,1.4,9.6,3.3,12.7c0.3,1,0.5,2,0.7,3.1c0,0,0.5,6.7,1.3,8.7c0.6,1.7,1.1,5.9,1.2,7.1c-0.3,0.1-0.4,0.3-0.5,0.5
		c-0.4,1.1-2.7,2.7-2.7,2.7c-0.7,0.4-1.4,0.8-2,1.3c-0.7,0.7-0.7,1.3,2.6,0.9c6.3-0.7,7.4-2.7,7.4-2.7s-0.1-0.3-0.3-0.8
		c-0.2-0.7-0.5-1.3-0.8-2c-0.1-0.1-0.2,0.1-0.3,0.3c-0.5-2.9-0.6-5.9-0.4-8.8c0,0,0.2-3.1-0.7-5.3c-0.2-1.1-0.2-2.3,0-3.5
		c0.4-1.5-1.4-8.6-1.4-8.6l-1-5.2l0.3,0.6v0.3c0,0.1,0,0.1,0.1,0.1c0.7,2.9,2.6,11,2.6,12.2c0,1.5,1.8,5.1,1.8,5.1s0.7,6,2,8.4
		c1,1.8,1,4.4,0.9,5.6c0,0-0.2,1.5-0.6,1.9c-0.3,0.4-0.5,0.8-0.7,1.2v0.1c0,0-0.5,1.1-0.2,1.3c1.4,0.5,2.9,0.7,4.3,0.5
		c0,0,0.7-0.9,0.7-1.3c0-0.2,0-0.4-0.1-0.7c-0.1-0.9-0.4-2.2-0.4-2.2c0.2-0.6-0.5-2.2-0.5-2.2l-0.2-5.1c0.3-3.4-0.1-6.9-1.3-10.2
		c0,0-0.9-3.3-0.7-4.2c0.2-0.9-0.4-10.6-0.4-10.6l-0.1-0.1c0-0.7,0-1.4,0.1-2c0.2-2.2-0.5-6.7-0.7-6.9l-0.3-1.5
		c0-0.4,0.2-1.5,0.3-2.9c1.8-0.1,3.6-0.2,5.3-0.5c0.2,0,0.3-0.1,0.5-0.2c0.1-0.1,0.1-0.2,0.1-0.4C637.9,451.2,636.9,448.6,635.9,446
		L635.9,446z M632.3,451.8c0.2-1.3,0.4-2.6,0.6-3.5v0.1c0.3,0.9,0.6,1.9,0.9,2.9C633.3,451.5,632.8,451.7,632.3,451.8z"/>
	<path id="XMLID_108_" class="st12" d="M618.2,466.5c0,0,1.1,9.7,3.4,13.5c0.3,1,0.5,2,0.7,3.1c0,0,0.5,6.7,1.3,8.6
		c0.7,2,1.3,7.4,1.3,7.4s2.5,2.9,3.4,0.5c-0.6-3.1-0.7-6.2-0.5-9.4c0,0,0.2-3.1-0.7-5.2c-0.2-1.1-0.2-2.3,0-3.4
		c0.4-1.4-1.4-8.5-1.4-8.5l-1.4-7L618.2,466.5z"/>
	<path id="XMLID_107_" class="st13" d="M629.6,501.4c0,0-1.1,2-7.4,2.7c-3.3,0.4-3.3-0.2-2.6-0.9c0.6-0.5,1.3-0.9,2-1.3
		c0,0,2.3-1.6,2.7-2.7s1.6-0.2,1.6-0.2c1.8,2.7,2.2-0.7,2.5-0.4c0.4,0.6,0.6,1.3,0.8,1.9C629.5,501.1,629.6,501.4,629.6,501.4z"/>
	<path id="XMLID_106_" class="st9" d="M629.6,501.4c0,0-1.1,2-7.4,2.7c-3.3,0.4-3.3-0.2-2.6-0.9c0.5,0.3,1.5,0.5,3.6-0.4
		c3-1.2,5.2-1.9,6-2.2C629.5,501.1,629.6,501.4,629.6,501.4z"/>
	<path id="XMLID_105_" class="st9" d="M627.8,490.3c0,0,0.2-3.1-0.7-5.2c-0.2-1.1-0.2-2.3,0-3.4c0.4-1.4-1.4-8.5-1.4-8.5l-1.4-7
		l-1.2,0.1l1.4,6.9c0,0,1.8,7,1.4,8.5c-0.2,1.1-0.2,2.3,0,3.4c0.9,2.2,0.7,5.2,0.7,5.2c-0.2,3.1,0,6.3,0.5,9.4
		c-0.1,0.3-0.3,0.6-0.5,0.7c0.7,0.3,1.4,0.3,1.8-0.7C627.7,496.6,627.6,493.4,627.8,490.3z"/>
	<path id="XMLID_104_" class="st14" d="M626.6,427c-1.2,0-2.4,0.3-3.4,1c-2.8-0.6-5.6,0.7-6.9,3.3c-1.5,1.4-2.4,3.5-2.3,5.6
		c0,3.8,2.6,6.9,5.8,6.9c2.3,0,4.3-1.6,5.2-4c0.5,0.1,1.1,0.2,1.6,0.2c3.6,0,6.5-2.9,6.5-6.5S630.2,427,626.6,427L626.6,427z"/>
	<path id="XMLID_103_" class="st12" d="M631.9,467.4l0.5,1.4c0,0,0.5,9.5,0.4,10.4s0.7,4.1,0.7,4.1c1.2,3.2,1.6,6.7,1.3,10.1l0.2,5
		c0,0,0.7,2,0.4,2.3c-0.4,0.4-3.1-0.3-3.1-0.3s0.4-3.8-0.9-6.1s-2-8.3-2-8.3s-1.8-3.6-1.8-5s-2.9-13.1-2.9-13.1L631.9,467.4
		L631.9,467.4z"/>
	<path id="XMLID_102_" class="st15" d="M617.9,467.3c0,0,0.2-6.5,0.9-8.5c0.4-0.9,0.6-1.9,0.8-2.9c0,0,10.9,2,11.8,1.2
		c0,0,0.2,2.5,0.4,2.7s0.9,4.7,0.7,6.8c-0.2,2.2,0,2.2,0,2.2s-7.4,1.1-7.6,0c-0.2-1.1-0.7-1.1-0.7-1.1S617.5,467.6,617.9,467.3
		L617.9,467.3z"/>
	<g id="XMLID_266_" class="st16">
		<path id="XMLID_101_" class="st1" d="M623.8,467.3c0,0-4.6-0.1-5.9-0.4v0.4c-0.4,0.4,6.3,0.5,6.3,0.5c0.1,0,0.2,0,0.2,0.1
			C624.2,467.3,623.8,467.3,623.8,467.3z"/>
		<path id="XMLID_100_" class="st1" d="M631.7,459.9c-0.2-0.2-0.4-2.7-0.4-2.7c-0.1,0.1-0.2,0.1-0.3,0.1c0.1,0.8,0.2,1.9,0.3,2
			s0.9,4.7,0.7,6.8c-0.2,2.2,0,2.2,0,2.2s-5.8,0.9-7.3,0.3c0,0.1,0,0.2,0.1,0.3c0.2,1.1,7.6,0,7.6,0s-0.2,0,0-2.2
			C632.6,464.6,631.9,460.1,631.7,459.9L631.7,459.9z"/>
		<pattern  id="XMLID_336_" xlink:href="#XMLID_332_" patternTransform="matrix(1 0 0 1 173.28 14712.3096)"  class="st16">
		</pattern>
		<path id="XMLID_210_" class="st17" d="M623.8,467.3c0,0-4.6-0.1-5.9-0.4v0.4c-0.4,0.4,6.3,0.5,6.3,0.5c0.1,0,0.2,0,0.2,0.1
			C624.2,467.3,623.8,467.3,623.8,467.3z"/>
		<pattern  id="XMLID_337_" xlink:href="#XMLID_333_" patternTransform="matrix(1 0 0 1 173.28 14712.3096)"  class="st16">
		</pattern>
		<path id="XMLID_265_" class="st18" d="M631.7,459.9c-0.2-0.2-0.4-2.7-0.4-2.7c-0.1,0.1-0.2,0.1-0.3,0.1c0.1,0.8,0.2,1.9,0.3,2
			s0.9,4.7,0.7,6.8c-0.2,2.2,0,2.2,0,2.2s-5.8,0.9-7.3,0.3c0,0.1,0,0.2,0.1,0.3c0.2,1.1,7.6,0,7.6,0s-0.2,0,0-2.2
			C632.6,464.6,631.9,460.1,631.7,459.9L631.7,459.9z"/>
	</g>
	<path id="XMLID_267_" class="st12" d="M625.8,438.4c0.2,0.3,0.4,0.7,0.7,0.9l0.6,0.3l-1.2,0.6c-0.6,0.4-1.2,0.9-1.8,1.4
		s-1.3,0.8-2.1,0.8c0.5-0.7,0.7-1.7,0.3-2.6c-0.2-0.3-0.3-0.6-0.3-0.9c0-0.5,0.5-0.9,0.9-1.2c0.3-0.2,0.7-0.5,1.1-0.7
		c0.3-0.2,0.7-0.5,1.1-0.5c0.4,0,0.4,0.3,0.5,0.6C625.5,437.6,625.6,438,625.8,438.4L625.8,438.4z"/>
	<path id="XMLID_268_" class="st9" d="M625.8,438.4c0.2,0.3,0.4,0.7,0.7,0.9l0.6,0.3l-1.2,0.6c-0.6,0.4-1.2,0.9-1.8,1.4
		s-1.3,0.8-2.1,0.8c0.5-0.7,0.7-1.7,0.3-2.6c-0.2-0.3-0.3-0.6-0.3-0.9c0-0.5,0.5-0.9,0.9-1.2c0.3-0.2,0.7-0.5,1.1-0.7
		c0.3-0.2,0.7-0.5,1.1-0.5c0.4,0,0.4,0.3,0.5,0.6C625.5,437.6,625.6,438,625.8,438.4L625.8,438.4z"/>
	<circle id="XMLID_269_" class="st12" cx="630" cy="444.9" r="4.1"/>
	<path id="XMLID_270_" class="st13" d="M635.9,503.6c0,0.4-0.7,1.3-0.7,1.3c-1.5,0.2-2.9,0-4.3-0.5c-0.4-0.2,0.2-1.3,0.2-1.3V503
		c0.2-0.4,0.4-0.8,0.7-1.2c0.4-0.4,0.6-1.8,0.6-1.8c1.1-1.8,3.1,0.8,3.1,0.8s0.3,1.4,0.4,2.2C635.8,503.3,635.9,503.5,635.9,503.6z"
		/>
	<path id="XMLID_271_" class="st9" d="M635.9,503.6c0,0.4-0.7,1.3-0.7,1.3c-1.5,0.2-2.9,0-4.3-0.5c-0.4-0.2,0.2-1.3,0.2-1.3V503
		c1.2,0.6,2.6,0.8,3.9,0.8l0.8-0.8C635.8,503.3,635.9,503.5,635.9,503.6z"/>
	<circle id="XMLID_272_" class="st12" cx="621.7" cy="436.2" r="4"/>
	<path id="XMLID_273_" class="st12" d="M618.5,444.3c-0.9,0.8-1,2.2-1.1,3.4l-0.1,1.8c0,0.5-0.1,1,0,1.5c0,0.3,0.1,0.6,0.1,0.9v3.7
		c0,0.5,0.1,1.1,0.3,1.6c0.3,0.5,0.9,0.7,1.4,0.5c0.3-0.2,0.5-0.5,0.6-0.9c0.4-1.1,0.8-2.2,0.9-3.4c0-0.4,0-0.8,0.1-1.2
		c0-0.4,0.1-0.8,0.2-1.2c0.3-1.7,0.4-3.4,0.5-5.1c0-0.5,0.5-2.5-0.2-2.7c-0.3-0.1-1,0.2-1.3,0.3C619.3,443.7,618.8,444,618.5,444.3
		L618.5,444.3z"/>
	<path id="XMLID_274_" class="st9" d="M618.5,444.3c-0.9,0.8-1,2.2-1.1,3.4l-0.1,1.8c0,0.5-0.1,1,0,1.5c0,0.3,0.1,0.6,0.1,0.9v3.7
		c0,0.5,0.1,1.1,0.3,1.6c0.3,0.5,0.9,0.7,1.4,0.5c0.3-0.2,0.5-0.5,0.6-0.9c0.4-1.1,0.8-2.2,0.9-3.4c0-0.4,0-0.8,0.1-1.2
		c0-0.4,0.1-0.8,0.2-1.2c0.3-1.7,0.4-3.4,0.5-5.1c0-0.5,0.5-2.5-0.2-2.7c-0.3-0.1-1,0.2-1.3,0.3C619.3,443.7,618.8,444,618.5,444.3
		L618.5,444.3z"/>
	<path id="XMLID_275_" class="st19" d="M626.9,438.8c0,0-3.1,2.3-4.9,2.9c0,0-1.1,1.2-1.2,1.5c-0.2,0.3-0.5,3.5-0.9,4.2
		s-1.3,2.3,0,4c0,0,0.4,1.6,0.2,2.2s-0.8,2.5-0.2,2.6s2.4,1.3,4,1c1.6-0.4,7.6,1.4,7.6,1.4s1-9.3,1.7-10.9l-1.6-0.5
		c0,0-4.5-2.7-1.8-6.8C629.7,440.3,627.2,439.7,626.9,438.8L626.9,438.8z"/>
	<path id="XMLID_276_" class="st14" d="M615.7,449.7l3.7,2.6c0.1,0.1,0.2,0.1,0.3,0l1-0.8c0.1-0.1,0.1-0.3,0-0.4l-2.9-2.5
		c-0.1-0.1-0.2-0.1-0.3-0.1l-1.8,0.7c-0.1,0.1-0.2,0.2-0.2,0.4C615.6,449.6,615.7,449.6,615.7,449.7L615.7,449.7z"/>
	<path id="XMLID_277_" class="st12" d="M617,457.6c-0.3-0.9-0.4-1.9-0.4-2.8l-0.1-1.3c-0.1-0.5,0-1,0.1-1.5c0.3-0.7,0.9-1.2,1.5-1.4
		c0.7-0.2,1.4-0.2,2.1-0.2c0.1,0,0.2,0,0.3,0.1s0.1,0.2,0.1,0.2c0.2,0.4,0.2,0.9,0.1,1.3c-0.1,0.2-0.3,0.3-0.4,0.4
		c-0.5,0.4-1.1,0.6-1.6,1c-0.1,0.1-0.2,0.2-0.2,0.3v0.3c0.1,0.3,0.1,0.5,0.2,0.7c0,0.1,0.1,0.2,0.2,0.3c0.1,0.1,0.2,0.1,0.3,0.2
		c0.2,0.2,0.6,0.4,0.6,0.6c-0.1,0.9-0.6,1.9-0.8,2.8C618.7,460.6,617.2,458.4,617,457.6L617,457.6z"/>
	<g id="XMLID_280_" class="st16">
		<path id="XMLID_278_" class="st1" d="M622.7,457.2L622.7,457.2c0.3,0.1,0.7,0.1,1.1,0h0.1C623.5,457.1,623.1,457.1,622.7,457.2z"
			/>
		<path id="XMLID_279_" class="st1" d="M632.2,447.4c-0.6,1.5-1.6,9.3-1.8,10.9c0.6,0.2,1,0.3,1,0.3s1-9.2,1.7-10.9L632.2,447.4z"/>
	</g>
	<path id="XMLID_281_" class="st12" d="M630.2,445c0.1,0.4,0.3,0.7,0.6,0.9c0.4,0.3,0.7,0.7,1,1.1c0.5,0.6,0.8,1.3,1,2.1
		c0.3,0.9,0.6,1.9,0.9,2.8c-2.3,1.1-4.9,1-7.3,1.7c-1,0.3-2,0.8-2.7,1.6c-0.8,0.8-1.1,1.9-1,3c0,0.1,0,0.1,0.1,0.2s0.2,0.1,0.3,0.1
		c0.6,0,1.2-0.2,1.7-0.6s0.9-0.8,1.3-1.3c0.2-0.3,0.6-0.5,0.9-0.7c1.3-0.4,2.7-0.4,4.1-0.4c2.1,0,4.1-0.2,6.1-0.5
		c0.3,0,0.5-0.2,0.5-0.4v-0.1c0.2-2.7-0.8-5.3-1.8-7.8c-0.4-1-0.8-2-1.3-3c-0.4-1-0.9-1.9-1.6-2.7c-0.3-0.3-0.6-0.5-0.9-0.7
		c-0.4-0.1-0.8-0.2-1.2-0.2c-0.7-0.1-1.3-0.1-2,0c-0.1,0.3-0.2,0.7-0.2,1c0,1.2,0.6,2.4,1.1,3.5C629.9,444.8,630.1,444.8,630.2,445
		L630.2,445z"/>
	<path id="XMLID_282_" class="st20" d="M622.8,447.3c-0.3,0.5-0.5,1.1-0.5,1.7c0,0.2,0,0.5,0.1,0.7c0.3,0.7,0.8,1.2,1.5,1.4"/>
	<path id="XMLID_283_" class="st14" d="M625.2,432.3c-0.2,0-0.4,0-0.7,0.1c-0.6-0.9-2-1.5-3.7-1.5c-2.2,0-4,1.1-4,2.5s1.8,2.5,4,2.5
		c0.8,0,1.6-0.2,2.4-0.5c0.5,1.1,1.8,1.5,2.9,1c1.1-0.5,1.5-1.8,1-2.9C626.7,432.7,626,432.3,625.2,432.3z"/>
	<path id="XMLID_284_" class="st9" d="M625.3,436c-0.8,0-1.6-0.5-1.9-1.2c-0.7,0.3-1.6,0.5-2.4,0.5c-2.2,0-4-1.1-4-2.5v-0.3
		c-0.1,0.2-0.2,0.5-0.2,0.8c0,1.4,1.8,2.5,4,2.5c0.8,0,1.6-0.2,2.4-0.5c0.5,1.1,1.8,1.5,2.9,1c0.6-0.3,1.1-0.9,1.2-1.5
		C626.9,435.6,626.2,436,625.3,436z"/>
	<path id="XMLID_285_" class="st9" d="M616.3,432.3c1.2-2.6,4.1-3.9,6.9-3.3c3-1.9,7-0.9,8.9,2.1c0.5,0.9,0.9,1.8,0.9,2.9v-0.5
		c0-3.6-2.9-6.5-6.5-6.5c-1.2,0-2.4,0.3-3.4,1c-2.8-0.6-5.6,0.7-6.9,3.3c-1.5,1.4-2.4,3.5-2.3,5.6v0.5
		C614.1,435.5,614.9,433.7,616.3,432.3L616.3,432.3z"/>
	<path id="XMLID_286_" class="st7" d="M657.6,433.7c1.2-2.2-0.2-4.9-1.7-6.9c-1.6-2-3.5-4-3.4-6.5c0.1-3.6,3.9-5.7,7-7.7
		c2.3-1.4,4.4-3.1,6.2-5c0.8-0.7,1.4-1.6,1.9-2.6c0.6-1.4,0.6-3,0.6-4.6c-0.1-5.2-0.4-10.3-0.8-15.5"/>
	<path id="XMLID_287_" class="st8" d="M673.2,384.7c-0.1-1.9-1.1-3.7-2.8-4.6l-1.3,2.5v-3c-0.6-0.2-1.2-0.3-1.9-0.2
		c-3.1,0.1-5.5,2.8-5.4,5.9s2.8,5.5,5.9,5.4C671,390.4,673.4,387.8,673.2,384.7L673.2,384.7z"/>
	<path id="XMLID_288_" class="st8" d="M663.2,422.8c-1.4,2.7-4.7,3.9-7.4,2.5c-0.1,0-0.1-0.1-0.2-0.1c-2.7-1.4-3.9-4.7-2.5-7.4
		c0-0.1,0.1-0.1,0.1-0.2c1.4-2.8,4.8-3.9,7.6-2.4c1.3,0.6,2.2,1.7,2.7,3l-3.5,2.9l3.9-0.9C663.8,421.2,663.6,422,663.2,422.8z"/>
	<path id="XMLID_289_" class="st8" d="M660.4,411.9c-3.1,0.1-5.8-2.2-5.9-5.4c-0.1-2.6,1.6-5,4.1-5.7v2.3l1.3-2.5
		c3.1-0.1,5.7,2.3,5.9,5.4C665.9,409.1,663.5,411.8,660.4,411.9L660.4,411.9z"/>
	<path id="XMLID_290_" class="st8" d="M674.1,402.8c-3.1,0.2-5.8-2.2-5.9-5.3c-0.2-3.1,2.2-5.8,5.3-5.9c1.1-0.1,2.1,0.2,3.1,0.7
		l-1,2.7l2.1-2c1.1,1,1.8,2.4,1.8,3.9c0,0.5,0,1-0.1,1.6C678.7,400.9,676.6,402.7,674.1,402.8L674.1,402.8z"/>
	<path id="XMLID_291_" class="st9" d="M672.5,386.2c-1.3,0.1-2.6,0.5-3.9,0.6c-1.3,0.1-2.7-0.2-3.6-1.2c-0.4-0.6-0.7-1.2-1-1.8
		c-0.4-0.6-0.8-1-1.4-1.3c-1.4,2.8-0.3,6.2,2.5,7.6s6.2,0.3,7.6-2.5c0.2-0.4,0.4-0.9,0.5-1.4L672.5,386.2L672.5,386.2z"/>
	<path id="XMLID_292_" class="st9" d="M674.1,402.8c-3.1,0.1-5.8-2.3-5.9-5.4c0-0.9,0.1-1.8,0.5-2.7c0.4,0.3,0.8,0.7,1.1,1.1
		c0.3,0.6,0.7,1.3,1.1,1.9c0.9,1,2.4,1.4,3.7,1.3c1.4-0.1,2.7-0.5,4-0.6h0.6C678.7,400.9,676.6,402.7,674.1,402.8L674.1,402.8z"/>
	<path id="XMLID_293_" class="st9" d="M660.4,411.9c-3.1,0.2-5.7-2.2-5.9-5.3c0-0.9,0.1-1.8,0.5-2.6c0.5,0.3,0.9,0.7,1.2,1.1
		c0.5,0.6,0.7,1.3,1.2,1.9c1,1.1,2.5,1.4,4,1.4s2.7-0.4,4.1-0.5C664.8,410.2,662.8,411.8,660.4,411.9z"/>
	<path id="XMLID_294_" class="st9" d="M663.2,422.8c-1.5,2.7-4.9,3.8-7.6,2.3c-2.5-1.3-3.6-4.3-2.6-6.9c0.5,0.3,0.9,0.7,1.2,1.1
		c0.5,0.7,0.9,1.4,1.5,2c1.2,1.1,3,1.6,4.7,1.6C661.3,423,662.2,423,663.2,422.8L663.2,422.8z"/>
	<path id="XMLID_295_" class="st7" d="M730.4,503.3c1.2-2.2-0.2-4.9-1.7-6.9c-1.6-2-3.5-4-3.4-6.5c0.1-3.6,3.9-5.7,7-7.7
		c2.3-1.4,4.4-3.1,6.2-5c0.8-0.7,1.4-1.6,1.9-2.6c0.6-1.4,0.6-3,0.6-4.6c-0.1-5.2-0.4-10.3-0.8-15.5"/>
	<path id="XMLID_296_" class="st8" d="M746,454.3c-0.1-1.9-1.1-3.7-2.8-4.6l-1.3,2.5v-3c-0.6-0.2-1.2-0.3-1.8-0.2
		c-3.1,0.1-5.5,2.8-5.4,5.9s2.8,5.5,5.9,5.4C743.8,460,746.2,457.4,746,454.3L746,454.3z"/>
	<path id="XMLID_297_" class="st8" d="M736,492.4c-1.4,2.8-4.8,3.9-7.6,2.4s-3.9-4.8-2.4-7.6s4.8-3.9,7.6-2.4c1.3,0.6,2.2,1.7,2.7,3
		l-3.5,2.9l3.9-0.9C736.6,490.7,736.4,491.6,736,492.4z"/>
	<path id="XMLID_298_" class="st8" d="M733.2,481.5c-3.1,0.1-5.8-2.2-5.9-5.4c-0.1-2.6,1.6-5,4.1-5.7v2.3l1.3-2.5
		c3.1-0.1,5.7,2.3,5.9,5.4C738.7,478.7,736.3,481.3,733.2,481.5L733.2,481.5z"/>
	<path id="XMLID_299_" class="st8" d="M746.9,472.4c-3.1,0.2-5.8-2.2-5.9-5.3c-0.2-3.1,2.2-5.8,5.3-5.9c1.1-0.1,2.1,0.2,3.1,0.7
		l-1,2.7l2.1-2c1.1,1,1.8,2.4,1.8,3.9c0,0.5,0,1-0.1,1.6C751.5,470.5,749.4,472.3,746.9,472.4L746.9,472.4z"/>
	<path id="XMLID_300_" class="st9" d="M745.3,455.8c-1.3,0.1-2.6,0.5-3.9,0.6c-1.3,0.1-2.7-0.2-3.6-1.2c-0.4-0.6-0.7-1.2-1-1.8
		c-0.4-0.6-0.8-1-1.4-1.3c-1.4,2.8-0.3,6.2,2.5,7.6s6.2,0.3,7.6-2.5c0.2-0.4,0.4-0.9,0.5-1.4L745.3,455.8L745.3,455.8z"/>
	<path id="XMLID_301_" class="st9" d="M746.9,472.4c-3.1,0.1-5.8-2.3-5.9-5.4c0-0.9,0.1-1.8,0.5-2.7c0.4,0.3,0.8,0.7,1.1,1.1
		c0.3,0.6,0.7,1.3,1.1,1.9c0.9,1,2.4,1.4,3.7,1.3c1.4-0.1,2.7-0.5,4-0.6h0.6C751.5,470.5,749.4,472.3,746.9,472.4L746.9,472.4z"/>
	<path id="XMLID_302_" class="st9" d="M733.2,481.5c-3.1,0.2-5.7-2.2-5.9-5.3c0-0.9,0.1-1.8,0.5-2.6c0.5,0.3,0.9,0.7,1.2,1.1
		c0.5,0.6,0.7,1.3,1.2,1.9c1,1.1,2.5,1.4,4,1.4c1.4,0,2.7-0.4,4.1-0.5C737.6,479.8,735.6,481.4,733.2,481.5z"/>
	<path id="XMLID_303_" class="st9" d="M736,492.4c-1.5,2.7-4.9,3.8-7.6,2.3c-2.5-1.3-3.6-4.3-2.6-6.9c0.5,0.3,0.9,0.7,1.2,1.1
		c0.5,0.7,0.9,1.4,1.5,2c1.2,1.1,3,1.6,4.7,1.6C734.1,492.6,735,492.5,736,492.4L736,492.4z"/>
	
		<linearGradient id="XMLID_338_" gradientUnits="userSpaceOnUse" x1="260.9026" y1="-109.339" x2="260.9026" y2="-155.572" gradientTransform="matrix(1 0 0 1 202 581.37)">
		<stop  offset="0" style="stop-color:#818181;stop-opacity:0.25"/>
		<stop  offset="0.54" style="stop-color:#818181;stop-opacity:0.12"/>
		<stop  offset="1" style="stop-color:#818181;stop-opacity:0.1"/>
	</linearGradient>
	<path id="XMLID_304_" class="st21" d="M493.5,438.7c0-1.4-0.7-2.8-1.8-3.6c0-2.6-1.9-4.7-4.4-5.2c-0.4-1.8-1.7-3.3-3.5-3.9
		c-0.2-0.1-0.4-0.1-0.7-0.2h-0.7c-2.5,0.1-4.6,1.9-5,4.4c-1.6-0.4-3.1,0.1-3.3,1.1c-0.1,0.3-0.1,0.6,0,0.8c0.3,0.8,1.2,1.5,2.4,1.9
		h0.2l0.2,0.1h0.1c-0.3,0.5-0.4,1.1-0.4,1.7c0,1.5,0.8,2.9,2.2,3.6l-0.1,0.1c-0.1,0.1-0.3,0.3-0.3,0.5c-0.3,0.5-0.5,1.1-0.7,1.6
		c-0.1,0.5-0.1,1-0.3,1.5c-0.3,0.9-0.9,1.6-1,2.5c0,0.4,0,0.9-0.3,1.2c-0.1,0.1-0.2,0.1-0.2,0.2c-0.2,0.1-0.4,0.3-0.5,0.5
		s-0.2,0.4-0.4,0.5c-0.3,0.2-0.7,0.2-0.8,0.5c-0.1,0.3,0.2,0.7,0.1,1s-0.4,0.4-0.6,0.6c-0.2,0.3-0.4,0.6-0.5,0.9
		c-0.9,0.2-1.8-0.1-2.5-0.6l0.3,0.9c-0.4-0.3-0.9-0.5-1.3-0.7c-0.5-0.2-1-0.6-1.4-1.1l0.8-0.1l-3.4-5.1l-1-0.2l0.9,1.7
		c-0.2,0.1-0.3,0.2-0.3,0.4s-0.1,0.4,0,0.6c0,0.5,0.1,0.9,0.2,1.4l0.3,1.2c0,0.1,0.1,0.2,0.1,0.3c-0.3,0-0.7,0-1,0.1
		c-0.7-0.2-1.4-0.4-2.1-0.5h-0.5c-0.2,0.1-0.3,0.2-0.4,0.4c-0.6,0.7-1.1,1.4-1.5,2.2c-1.8,3.1-4.2,5.9-6.5,8.7
		c-1.6,0.6-3.1,1.2-4.7,1.8l-3.4,1.3c-0.7,0.3-1.4,0.5-2.1,0.5c-0.3,0-0.7-0.1-0.9,0.2c-0.1,0.1-0.2,0.3-0.2,0.5h-0.3
		c-0.2-0.5-0.4-1.1-0.8-1.5c-0.2,0-0.3,0.1-0.4,0.3c-0.1,0.2-0.1,0.3-0.2,0.5c-0.2,0.3-0.5,0.4-0.7,0.6s-0.4,0.6-0.6,0.8
		c-0.3,0.2-0.7,0.4-1.1,0.5c-0.6,0.1-1.2,0.4-1.8,0.7c-0.2,0.1-0.4,0.2-0.7,0.3c-0.3,0.1-0.5,0.1-0.8,0l-1.8-0.1h-0.5
		c-0.4,0.1-0.6,0.5-0.6,0.9s0.3,0.7,0.6,1c0.3,0.2,0.7,0.4,1,0.5c1.5,0.6,3.1,1.1,4.8,1.4v0.4c1.1,0.6,2.4,0.9,3.7,0.9
		c0.1,0,0.2,0,0.3-0.1c0.1-0.1,0.2-0.2,0.2-0.4c0.4-1.1,0.6-2.3,0.7-3.5c0.2,0,0.4-0.1,0.6-0.2c0.6-0.2,1.2,0.3,1.9,0.3
		c0.8,0.1,1.5-0.4,2.2-0.7l0.3-0.1c-0.2,0.3-0.5,0.5-0.7,0.7c-0.3,0.2-0.7,0.4-0.9,0.6c-0.3,0.2-0.5,0.4-0.8,0.6
		c-0.2,0.1-0.4,0.2-0.6,0.2c-0.3,0.1-0.6,0.3-0.9,0.5c-0.2,0.1-0.4,0.3-0.6,0.6c-0.2,0.2-0.2,0.6-0.1,0.8c0.1,0.2,0.3,0.4,0.6,0.4
		h0.7c1-0.1,1.9-0.2,2.9-0.2c0.4,0,0.8-0.1,1.2-0.2c0.2-0.1,0.4-0.1,0.6-0.2c0.4-0.1,0.7-0.1,1.1-0.2h0.3c0.2,0.1,0.4,0.3,0.6,0.3
		s0.3,0,0.5-0.1c0.7-0.2,1.4-0.2,2.1-0.2c0.3,0,0.7-0.1,0.8-0.4c0.1-0.3-0.1-0.8-0.2-1.2c-0.1-0.2-0.1-0.5-0.1-0.8
		c-0.1-0.6-0.2-1.2-0.5-1.8c-0.2-0.3-0.3-0.5-0.4-0.8c1.4-0.5,2.7-1.2,4-2c0.7-0.5,1.4-0.9,2.3-1.1c1-0.1,1.9,0,2.8,0.3
		c2.2,0.6,4.4,1.4,6.5,2.3c1,0.4,2,0.9,3.1,1.2c0.3,0.4,0.7,0.8,1.1,1.1c0.7,0.4,1.5,0.6,2.4,0.6c1.1,0.1,2.2,0.1,3.3,0.1
		c0.8,0,1.7-0.1,2.5-0.5c0.2-0.1,0.4-0.2,0.5-0.3c0.6,0.1,1.2-0.2,1.6-0.6c0.6-0.5,1-1.2,1.2-2c0.3-1,0.1-2.3,0.7-3.1l0.6-0.6
		c0.2-0.3,0.3-0.7,0.3-1.1c0.1-0.3,0.2-0.7,0.3-1.1c0.1-0.3,0.2-0.6,0.3-0.8c0.3-0.8,0.6-1.6,0.9-2.5c0.2-0.6,0.3-1.1,0.4-1.7
		c0.1-0.5,0.1-0.9,0.1-1.4c0-0.7,0.2-1.4,0.4-2.1c0.6-1.6,0.9-3.3,1-5.1v0.4c1.7-0.2,3.1-1.7,3-3.5c0-0.5-0.1-1-0.3-1.5
		C493.3,440.3,493.5,439.5,493.5,438.7L493.5,438.7z M477.2,458.6c0.1,0.2,0.1,0.4,0.2,0.5l-0.8-0.8c0.1,0,0.2,0.1,0.3,0.1
		C477,458.5,477.1,458.5,477.2,458.6L477.2,458.6z M475.9,457.7c-1.6-1.4-3.4-2.4-5-3.8c0.9,0.4,1.7,0.9,2.6,1.4
		c1,0.6,2,1.1,3.1,1.7L475.9,457.7L475.9,457.7z M476.5,454.3c0.1,0.1,0.1,0.3,0.1,0.5l-0.4-0.1
		C476.3,454.5,476.4,454.4,476.5,454.3z M462.6,458c0.6-0.7,1.2-1.5,1.7-2.4c0.6,1.1,1.6,1.9,2.5,2.8
		C465.4,458.2,464,458.1,462.6,458z"/>
	<path id="XMLID_305_" class="st22" d="M464.9,444.6l1,0.3l3.4,5l-1.5,0.2L464.9,444.6z"/>
	<path id="XMLID_306_" class="st23" d="M440.7,465.1c0.3,0.9,0.6,1.8,1,2.6c1.1-0.2,2.2-0.6,3.3-0.9c-0.2-0.3-0.4-0.6-0.7-0.9
		c-0.3-0.3-0.6-0.5-0.9-0.7c-0.4-0.1-0.8-0.1-1.1,0C441.7,465.1,441.2,465.1,440.7,465.1L440.7,465.1z"/>
	<path id="XMLID_307_" class="st22" d="M443.4,466.4c-0.5-0.2-1-0.7-1.1-1.3c-0.2-0.6-0.5-1.1-0.9-1.5c-0.2,0-0.3,0.1-0.4,0.3
		c-0.1,0.1-0.1,0.3-0.2,0.5c-0.2,0.3-0.5,0.4-0.7,0.6s-0.4,0.6-0.6,0.8c-0.3,0.3-0.7,0.4-1.2,0.5c-0.6,0.1-1.3,0.4-1.8,0.7
		c-0.2,0.1-0.4,0.2-0.7,0.3H435l-1.8-0.1h-0.5c-0.4,0.1-0.6,0.5-0.6,0.9s0.3,0.7,0.6,1c0.3,0.2,0.7,0.4,1,0.5
		c1.6,0.6,3.2,1.1,4.8,1.4v0.4c1.1,0.6,2.4,0.9,3.7,0.9h0.3c0.1-0.1,0.2-0.2,0.2-0.4c0.4-1.3,0.7-2.6,0.8-3.9c0-0.3,0-0.7-0.1-1
		C443.3,466.3,443.7,466.5,443.4,466.4"/>
	<path id="XMLID_308_" class="st22" d="M477.9,459.6c-5.3,0.3-10.6-1.2-16-1.4c-0.7,0-1.3,0-2,0.1c-0.7,0.2-1.3,0.4-2,0.8
		c-2.9,1.3-5.8,2.4-8.8,3.5l-3.4,1.3c-0.7,0.3-1.4,0.5-2.1,0.5c-0.3,0-0.7-0.1-0.9,0.2c-0.6,0.8-0.3,2,0.1,3
		c0.1,0.3,0.3,0.6,0.6,0.7c0.2,0,0.4-0.1,0.7-0.2c0.6-0.2,1.2,0.3,1.9,0.3c0.8,0.1,1.5-0.4,2.3-0.6c1.2-0.5,2.6-0.5,3.9-0.7
		c2.2-0.4,4.2-1.4,6.1-2.5c0.7-0.5,1.5-0.9,2.3-1.1c1-0.1,1.9,0,2.9,0.3c2.2,0.6,4.4,1.4,6.5,2.2c1.1,0.5,2.3,0.9,3.4,1.2
		c2.5,0.7,5.2,0.5,7.7-0.5c0.9-0.3,1.8-0.9,1.8-1.9c0-0.5-0.4-1-0.7-1.4c-0.2-0.3-0.4-0.6-0.5-0.9
		C480.7,461.3,479.6,459.5,477.9,459.6z"/>
	<path id="XMLID_309_" class="st15" d="M477.9,459.6c-5.3,0.3-10.6-1.2-16-1.4c-0.7,0-1.3,0-2,0.1c-0.7,0.2-1.3,0.4-2,0.8
		c-2.9,1.3-5.8,2.4-8.8,3.5l-3.4,1.3c-0.7,0.3-1.4,0.5-2.1,0.5c-0.3,0-0.7-0.1-0.9,0.2c-0.6,0.8-0.3,2,0.1,3
		c0.1,0.3,0.3,0.6,0.6,0.7c0.2,0,0.4-0.1,0.7-0.2c0.6-0.2,1.2,0.3,1.9,0.3c0.8,0.1,1.5-0.4,2.3-0.6c1.2-0.5,2.6-0.5,3.9-0.7
		c2.2-0.4,4.2-1.4,6.1-2.5c0.7-0.5,1.5-0.9,2.3-1.1c1-0.1,1.9,0,2.9,0.3c2.2,0.6,4.4,1.4,6.5,2.2c1.1,0.5,2.3,0.9,3.4,1.2
		c2.5,0.7,5.2,0.5,7.7-0.5c0.9-0.3,1.8-0.9,1.8-1.9c0-0.5-0.4-1-0.7-1.4c-0.2-0.3-0.4-0.6-0.5-0.9
		C480.7,461.3,479.6,459.5,477.9,459.6z"/>
	<path id="XMLID_310_" class="st23" d="M450.9,465.3c0.8,0.3,1.7,0.5,2.5,0.8c0.5-0.8,1.4-1.3,1.6-2.2v-0.1l-0.1-0.1
		c-0.6-0.3-1.3-0.5-2-0.6c-0.5,0-0.8,0.5-1,0.9C451.8,464.2,451.2,465.4,450.9,465.3L450.9,465.3z"/>
	<path id="XMLID_311_" class="st22" d="M452.1,464.7c-0.5-0.1-1-0.4-1.2-0.8c-0.1-0.2-0.2-0.5-0.5-0.5c-0.2,0-0.3,0.3-0.4,0.5
		c-0.2,0.8-0.4,1.6-0.7,2.4c-0.3,0.8-0.8,1.4-1.5,1.9c-0.3,0.2-0.7,0.4-1,0.6s-0.5,0.4-0.8,0.6c-0.2,0.1-0.4,0.2-0.6,0.2
		c-0.3,0.1-0.6,0.3-0.9,0.5c-0.2,0.1-0.5,0.3-0.6,0.6c-0.2,0.2-0.2,0.6,0,0.8c0.1,0.2,0.3,0.4,0.6,0.4h0.7c1-0.1,2-0.2,2.9-0.2
		c0.4,0,0.8-0.1,1.2-0.2l0.6-0.2c0.4-0.1,0.7-0.2,1.1-0.2h0.3c0.2,0.1,0.4,0.3,0.6,0.3s0.3,0,0.5-0.1c0.7-0.2,1.4-0.2,2.2-0.2
		c0.3,0,0.7-0.1,0.8-0.4c0.2-0.4-0.1-0.8-0.2-1.1c-0.1-0.2-0.1-0.5-0.1-0.7c-0.1-0.6-0.2-1.2-0.5-1.8c-0.2-0.5-0.6-1-0.4-1.4
		c0.1-0.2,0.1-0.3,0.2-0.5C454.4,464.6,452.6,464.8,452.1,464.7L452.1,464.7z"/>
	<path id="XMLID_312_" class="st23" d="M469.9,451c-0.9-0.4-1.7-1.2-2.1-2.1c-0.1-0.2-0.2-0.4-0.2-0.6c-0.3-0.7-0.7-1.3-1.3-1.8
		c-0.1-0.1-0.3-0.2-0.5-0.2c-0.2,0.1-0.3,0.2-0.3,0.4c-0.1,0.2-0.1,0.4,0,0.6c0,0.5,0.1,0.9,0.2,1.3l0.3,1.2c0,0.2,0.1,0.4,0.2,0.5
		c0.1,0.2,0.3,0.4,0.4,0.5c0.2,0.2,0.5,0.4,0.7,0.6c0.1,0.1,0.3,0.2,0.5,0.3c0.3,0.1,0.5,0.2,0.8,0.2c1.1,0.1,2.1,0.5,3,1.2v-0.9
		c0-0.2-0.1-0.5-0.2-0.6C470.9,451.4,470.4,451.1,469.9,451z"/>
	<path id="XMLID_313_" class="st9" d="M469.9,451c-0.9-0.4-1.7-1.2-2.1-2.1c-0.1-0.2-0.2-0.4-0.2-0.6c-0.3-0.7-0.7-1.3-1.3-1.8
		c-0.1-0.1-0.3-0.2-0.5-0.2c-0.2,0.1-0.3,0.2-0.3,0.4c-0.1,0.2-0.1,0.4,0,0.6c0,0.5,0.1,0.9,0.2,1.3l0.3,1.2c0,0.2,0.1,0.4,0.2,0.5
		c0.1,0.2,0.3,0.4,0.4,0.5c0.2,0.2,0.5,0.4,0.7,0.6c0.1,0.1,0.3,0.2,0.5,0.3c0.3,0.1,0.5,0.2,0.8,0.2c1.1,0.1,2.1,0.5,3,1.2v-0.9
		c0-0.2-0.1-0.5-0.2-0.6C470.9,451.4,470.4,451.1,469.9,451z"/>
	<ellipse id="XMLID_314_" class="st22" cx="480.8" cy="440.7" rx="1.3" ry="1.3"/>
	<path id="XMLID_315_" class="st22" d="M480,439.9c-0.3-0.1-0.7,0-1,0.1c-0.2,0.1-0.3,0.3-0.4,0.5c-0.3,0.5-0.5,1-0.7,1.6
		c-0.1,0.5-0.1,1-0.3,1.4c-0.3,0.9-0.9,1.6-1,2.5c0,0.4,0,0.9-0.3,1.2c-0.1,0.1-0.2,0.1-0.2,0.2c-0.2,0.1-0.4,0.3-0.5,0.5
		s-0.2,0.4-0.4,0.5c-0.3,0.2-0.7,0.2-0.8,0.5s0.2,0.7,0.1,1s-0.4,0.4-0.6,0.6c-0.2,0.3-0.4,0.6-0.5,0.9c-0.9,0.2-1.8-0.1-2.5-0.6
		c0.3,0.9,0.4,1.9,0.4,2.8c0,0.3,0,0.6-0.2,0.9c1,0.1,2.1,0.3,3.1,0.5c0.4,0.1,0.9,0.1,1.3,0c0.2-0.1,0.4-0.3,0.6-0.5
		c0.5-0.6,1.1-1.2,1.3-1.9v-1.3c0.1-0.5,0.2-1.1,0.3-1.6c0.3-1.1,0.5-2.2,0.6-3.3c0.1-0.7,0.7-1.2,1-1.8c0.6-1.2,1.2-2.4,1.2-3.7
		C480.6,440.5,480.4,439.9,480,439.9L480,439.9z"/>
	<path id="XMLID_316_" class="st24" d="M480,439.9c-0.3-0.1-0.7,0-1,0.1c-0.2,0.1-0.3,0.3-0.4,0.5c-0.3,0.5-0.5,1-0.7,1.6
		c-0.1,0.5-0.1,1-0.3,1.4c-0.3,0.9-0.9,1.6-1,2.5c0,0.4,0,0.9-0.3,1.2c-0.1,0.1-0.2,0.1-0.2,0.2c-0.2,0.1-0.4,0.3-0.5,0.5
		s-0.2,0.4-0.4,0.5c-0.3,0.2-0.7,0.2-0.8,0.5s0.2,0.7,0.1,1s-0.4,0.4-0.6,0.6c-0.2,0.3-0.4,0.6-0.5,0.9c-0.9,0.2-1.8-0.1-2.5-0.6
		c0.3,0.9,0.4,1.9,0.4,2.8c0,0.3,0,0.6-0.2,0.9c1,0.1,2.1,0.3,3.1,0.5c0.4,0.1,0.9,0.1,1.3,0c0.2-0.1,0.4-0.3,0.6-0.5
		c0.5-0.6,1.1-1.2,1.3-1.9v-1.3c0.1-0.5,0.2-1.1,0.3-1.6c0.3-1.1,0.5-2.2,0.6-3.3c0.1-0.7,0.7-1.2,1-1.8c0.6-1.2,1.2-2.4,1.2-3.7
		C480.6,440.5,480.4,439.9,480,439.9L480,439.9z"/>
	<path id="XMLID_317_" class="st15" d="M478.8,460.7c-1.1-0.5-1.9-1.5-2.8-2.4c-1.7-1.6-3.8-2.7-5.6-4.3c-1.2-1-2.3-2.2-3.6-3
		c-1.2-0.7-2.5-1.2-3.8-1.3h-0.5c-0.2,0.1-0.3,0.2-0.4,0.3c-0.6,0.7-1.1,1.4-1.6,2.1c-2.3,3.9-5.5,7.2-8.2,10.8
		c-0.1,0.1-0.1,0.2-0.1,0.3c0,0.1,0,0.3,0.1,0.4l0.5,1.1c0.3,0.6,0.8,1.3,1.5,1.2c0.3-0.1,0.6-0.3,0.8-0.5l2.5-2.4l2.6-2.5
		c1.5-1.4,3-2.9,4-4.8c0.8,1.3,2.1,2.2,3.1,3.4c0.4,0.5,0.7,1,1,1.5c0.5,0.8,1.1,1.5,1.7,2.3l3,3.8c0.4,0.5,0.8,1,1.4,1.4
		c0.7,0.4,1.5,0.6,2.4,0.6c1.1,0.1,2.2,0.1,3.3,0.1c0.9,0,1.7-0.1,2.5-0.5s1.3-1.1,1.4-2c0-0.4-0.2-0.9-0.4-1.2
		C482.2,463.3,480.8,461.7,478.8,460.7z"/>
	<ellipse id="XMLID_318_" class="st25" cx="481.6" cy="441.6" rx="1" ry="1"/>
	<path id="XMLID_319_" class="st23" d="M481.4,440.8c0.2,0.4,0.3,1,0.1,1.4c-0.2,0.5-0.4,0.9-0.6,1.3s-0.5,0.8-0.8,1.2
		c1.5,0.1,3-0.5,4.4-1.3c1.1-0.6,2.2-1.3,2.8-2.4c-0.4,0.1-0.7,0-1-0.2s-0.6-0.4-0.8-0.7l-0.8-0.9c-0.2-0.2-0.3-0.4-0.5-0.6
		c-0.2-0.3-0.2-0.7-0.2-1c-0.3,0.3-0.7,0.6-1,0.9c-0.6,0.4-1.2,0.6-1.7,1c-0.2,0.1-0.6,0.3-0.5,0.6
		C480.8,440.4,481.2,440.6,481.4,440.8z"/>
	<path id="XMLID_320_" class="st9" d="M481.4,440.8c0.2,0.4,0.3,1,0.1,1.4c-0.2,0.5-0.4,0.9-0.6,1.3s-0.5,0.8-0.8,1.2
		c1.5,0.1,3-0.5,4.4-1.3c1.1-0.6,2.2-1.3,2.8-2.4c-0.4,0.1-0.7,0-1-0.2s-0.6-0.4-0.8-0.7l-0.8-0.9c-0.2-0.2-0.3-0.4-0.5-0.6
		c-0.2-0.3-0.2-0.7-0.2-1c-0.3,0.3-0.7,0.6-1,0.9c-0.6,0.4-1.2,0.6-1.7,1c-0.2,0.1-0.6,0.3-0.5,0.6
		C480.8,440.4,481.2,440.6,481.4,440.8z"/>
	<path id="XMLID_321_" class="st15" d="M481.4,441c-0.3,0.5-0.3,1.1,0,1.5c0,0.1,0.2,0.4,0.3,0.4c0.1,0,0.1,0,0.2-0.1
		c0.4-0.4,0.7-0.8,1-1.2c0.3-0.4,0.7-0.7,1.2-0.8c0.6,0,1.2,0.2,1.7,0.5c0.2,0.1,0.4,0.3,0.6,0.5c0.1,0.2,0.2,0.4,0.2,0.7
		c0.1,1.4,0.2,2.8,0.2,4.2c0,1,0,2-0.2,3l-0.3,1.5c-0.1,0.5-0.1,0.9-0.1,1.4v1.9c0,0.4,0,0.7,0.1,1c0.1,0.4,0.3,0.8,0.4,1.2
		c0.1,0.5,0.2,0.9,0.3,1.4l0.3,2c0.1,0.6,0.1,1.3-0.2,1.8l-0.6,0.6c-0.6,0.8-0.5,2-0.7,3.1c-0.2,0.8-0.6,1.4-1.3,1.9
		c-0.4,0.4-1,0.6-1.7,0.6c-0.8-0.2-1.3-1-1.5-1.8s-0.3-1.7-0.8-2.3c-0.4-0.5-1-0.9-1.5-1.3c-0.6-0.3-1-0.9-1.2-1.6
		c-0.1-0.3,0-0.6-0.1-0.9c-0.1-0.8-0.6-1.4-1.3-1.7c-0.4-0.2-0.9-0.2-1.2-0.6c0.6-0.4,1-0.9,1.2-1.6s0.3-1.4,0.3-2l0.1-2.3
		c0.1-1,0.1-2,0.5-3c0.2-0.4,0.5-0.8,0.7-1.2c0.3-0.6,0.5-1.2,0.7-1.8c0.3-0.9,0.7-1.9,1-2.8c0.1-0.5,0.3-0.9,0.5-1.3
		C480.6,441.6,481,441.1,481.4,441L481.4,441z"/>
	<path id="XMLID_322_" class="st26" d="M476.3,455.9h0.6l0.1-0.9c0-0.2,0.1-0.4,0.1-0.5c0.1-0.2,0.2-0.4,0.4-0.5
		c0.6-0.8,0.6-2,0.7-3c0.3-1.4,0.7-2.7,1.3-3.9l1.2-2.6c0.1-0.2,0.2-0.4,0.3-0.7c0-0.3,0.1-0.5,0.1-0.8c0-0.4,0.1-1.9,0.1-2.3
		c0-0.2-0.3-0.1-0.4-0.2c-0.1-0.3-0.3,0.5-0.6,0.7c-0.3,0.2-0.5,0.5-0.5,0.8c-0.3,0.7-0.4,1.4-0.7,2c-0.2,0.7-0.6,1.3-1.1,1.8
		c-0.2,0.2-0.5,0.4-0.8,0.6c-0.7,0.7-0.8,1.9-0.8,2.9C476.3,449.9,476.2,455.9,476.3,455.9L476.3,455.9z"/>
	<path id="XMLID_323_" class="st26" d="M485.1,439.9c-0.6,0.3-1,0.8-1.1,1.5c-0.1,0.6-0.3,1.2-0.5,1.8c-0.7,1.3-2.6,1.7-3.2,3.1
		c-0.1,0.5-0.2,1-0.2,1.4c-0.1,1-0.4,2-0.5,3c-0.1,0.8,0,1.6,0.1,2.3l0.7,7.9c0.1,1.2,0.1,2.3-0.2,3.5c0.7,0.1,1.4,0,2-0.3
		s1.2-0.7,1.8-1c1-0.6,2.2-1,3.1-1.7c0.2-0.1,0.3-0.3,0.4-0.5c0.1-0.3,0.2-0.7,0.3-1c0.1-0.3,0.2-0.6,0.3-0.8l0.9-2.4
		c0.2-0.5,0.3-1.1,0.4-1.7c0.1-0.5,0.1-0.9,0.2-1.4c0-0.7,0.2-1.4,0.4-2.1c0.6-1.6,0.9-3.3,1-5c0-0.2,0-0.5-0.1-0.7
		c-0.1-0.3-0.2-0.6-0.4-0.8c-0.3-0.5-0.5-1.1-0.7-1.6c-0.6-1.2-1.6-2.1-2.7-2.8C486.3,440.1,485.7,439.7,485.1,439.9L485.1,439.9z"
		/>
	<path id="XMLID_324_" class="st23" d="M471.2,452.7c-0.5-0.2-0.9-0.6-1.3-1c-0.2-0.2-0.3-0.4-0.5-0.6c-0.4-0.5-1-0.8-1.6-0.9
		s-1.2-0.2-1.8-0.2c-0.4,0-0.8,0-1.2,0.1c-0.4,0.1-0.7,0.5-0.8,0.9c0,0.5,0.2,1,0.6,1.3s0.8,0.5,1.2,0.6c0.4,0.1,0.7,0.1,1.1,0.1
		c2.2,0.2,4.1,1.4,6.1,2.5c1.7,1,3.4,1.8,5.2,2.7c0.1-0.5,0.1-1.1,0.1-1.6c0-0.4,0-1-0.4-1.2c-0.5-0.2-1.1-0.4-1.6-0.5
		c-1.1-0.4-2.2-0.8-3.3-1.3C472.4,453.4,471.8,453.1,471.2,452.7L471.2,452.7z"/>
	<ellipse id="XMLID_325_" class="st23" cx="480.8" cy="436.5" rx="3.9" ry="3.9"/>
	<path id="XMLID_326_" class="st26" d="M486.2,444.3c-0.3,0.4-0.6,0.9-0.8,1.4c-0.5,1-1.2,1.8-1.6,2.9c-0.4,1-0.4,2.4-1.2,3.3
		c-0.2,0.1-0.3,0.3-0.3,0.5v0.4c-0.1,0.3-0.6,0.3-0.7,0.6v0.3c-0.1,0.2-0.4,0.2-0.5,0.4c-0.4,0.3-0.3,0.9-0.6,1.2
		c-0.2,0.3-0.6,0.4-1,0.3s-0.7-0.2-1-0.4c-0.1-0.1-0.2-0.1-0.4-0.1s-0.3,0.1-0.4,0.1c-0.7,0.5-1.1,1.4-1.1,2.2
		c0.1,0.9,0.3,1.7,0.6,2.5c0,0.1,0.1,0.3,0.2,0.4c0.3,0.2,0.7,0.2,1,0.1c0.3-0.2,0.6-0.3,0.9-0.4c0.6-0.1,1.2,0.3,1.8,0.3
		c0.4-0.1,0.9-0.3,1.2-0.5c0.6-0.4,1.2-0.8,1.6-1.4c0.3-0.4,0.5-0.8,0.7-1.1c0.3-0.5,0.6-0.9,1-1.3l2.3-2.7c0.2-0.3,0.4-0.5,0.6-0.8
		c0.2-0.4,0.4-0.8,0.5-1.3c0.2-0.7,0.4-1.5,0.5-2.2c0-0.6,0-1.3-0.2-1.9c-0.1-0.6-0.2-1.2-0.5-1.8
		C488.3,444.1,487.1,443.3,486.2,444.3z"/>
	<path id="XMLID_327_" class="st27" d="M494,439.2c0-1.4-0.7-2.7-1.8-3.6c0-2.6-1.9-4.7-4.4-5.1c-0.6-2.7-3.2-4.5-6-4
		c-2.1,0.4-3.7,2.1-4,4.2c-1.6-0.4-3.1,0.1-3.4,1.1s0.9,2.3,2.6,2.7c0.5,0.2,1.1,0.2,1.7,0.2c0.8,1.2,2.1,2,3.5,2.2
		c0.4,1.9,1.9,3.4,3.8,3.9c0.3,0.6,0.7,1.2,1.2,1.6v0.4c0,1.8,1.5,3.3,3.3,3.3s3.3-1.5,3.3-3.3c0-0.5-0.1-1-0.3-1.5
		C493.8,440.8,494,440,494,439.2L494,439.2z"/>
	<path id="XMLID_328_" class="st9" d="M475.5,432.1c0.3-1,1.8-1.5,3.4-1.1c0.4-2.5,2.5-4.3,5-4.3h0.3c-0.5-0.1-1-0.2-1.4-0.2
		c-2.5,0-4.6,1.9-5,4.3c-1.6-0.4-3.1,0.1-3.4,1.1s0.9,2.3,2.6,2.7c0.3,0.1,0.6,0.1,1,0.2C476.4,434.4,475.3,433.2,475.5,432.1z"/>
	<path id="XMLID_329_" class="st9" d="M488.2,443.1v-0.4c-0.5-0.4-0.9-1-1.2-1.6c-1.9-0.5-3.4-2-3.8-3.9c-1.4-0.2-2.7-1-3.5-2.2h-1
		c0.8,1.1,2,1.8,3.4,2c0.4,1.9,1.9,3.4,3.8,3.9c0.3,0.6,0.7,1.2,1.2,1.6v0.4c0,1.8,1.4,3.4,3.3,3.4
		C489.1,445.8,488.2,444.6,488.2,443.1L488.2,443.1z"/>
	
		<ellipse id="XMLID_330_" transform="matrix(-0.7963 0.6049 -0.6049 -0.7963 1130.5817 493.771)" class="st23" cx="482.2" cy="437.2" rx="0.6" ry="0.8"/>
</g>
</svg>
