<svg version="1.1" id="Layer_1" xmlns="http://www.w3.org/2000/svg" xmlns:xlink="http://www.w3.org/1999/xlink" x="0" y="0" viewBox="0 0 800 800" xml:space="preserve"><style>.st0{fill:none}.st1{fill:#010101}.st4{fill:#fff}.st5,.st6{opacity:.1;fill:#fff;enable-background:new}.st6{fill:#6466af}.st7{fill:none;stroke:#403e56;stroke-width:1.8312;stroke-miterlimit:10}.st8{fill:#6466af}.st9{opacity:.1;fill:#010101;enable-background:new}.st10{fill:#1b1549}.st13{fill:#be6f73}.st14{fill:#f36f63}.st15{fill:#403e56}.st16{fill:#361f27}.st17{opacity:.1}.st23{fill:#302e41}.st24{fill:#f9bebf}.st28{fill:#dd1f26}</style><pattern width="36.9" height="49.5" patternUnits="userSpaceOnUse" id="ad310e25-2b04-44c8-bb7b-9823891" viewBox="0 -49.5 36.9 49.5" overflow="visible"><g id="XMLID_1_"><path id="XMLID_439_" class="st0" d="M0 0h36.9v-49.5H0z"/><path id="XMLID_438_" class="st0" d="M0 0h36.9v-49.5H0z"/><path id="XMLID_437_" class="st1" d="M4.3-13.2c4.5 0 4.5 7 0 7s-4.5-7 0-7z"/><path id="XMLID_436_" class="st1" d="M4.5-17.2c4.5 0 4.5 7 0 7s-4.5-7 0-7z"/><path id="XMLID_435_" class="st1" d="M4.5-20.9c4.5 0 4.5 7 0 7s-4.5-7 0-7z"/><path id="XMLID_434_" class="st1" d="M3.4-24.7c4.5 0 4.5 7 0 7s-4.5-7 0-7z"/><path id="XMLID_433_" class="st1" d="M1.1-28.3l.2-.4c1-1.7 3.1-2.2 4.8-1.3 1.6 1 2.2 3.1 1.3 4.8l-.2.4c-1 1.7-3.1 2.2-4.8 1.3-1.7-1-2.2-3.1-1.3-4.8z"/><path id="XMLID_432_" class="st1" d="M1.5-30.1l.2-.6c.3-.9.8-1.6 1.6-2.1s1.8-.6 2.7-.3c1.9.5 2.9 2.4 2.4 4.3l-.2.6c-.3.9-.8 1.6-1.6 2.1s-1.8.6-2.7.4c-1.8-.6-2.9-2.5-2.4-4.4z"/><path id="XMLID_431_" class="st1" d="M1.6-33.9v-.4c0-1.9 1.6-3.5 3.5-3.5s3.5 1.6 3.5 3.5v.4c0 1.9-1.6 3.5-3.5 3.5S1.6-32 1.6-33.9z"/><path id="XMLID_430_" class="st1" d="M4.9-42.3c4.5 0 4.5 7 0 7s-4.5-7 0-7z"/><path id="XMLID_429_" class="st1" d="M1.8-42v-.2c0-1.9 1.6-3.5 3.5-3.5s3.5 1.6 3.5 3.5v.2c0 1.9-1.6 3.5-3.5 3.5S1.8-40.1 1.8-42z"/><path id="XMLID_428_" class="st1" d="M6-49.3c4.5 0 4.5 7 0 7s-4.5-7 0-7z"/><path id="XMLID_427_" class="st1" d="M10-14.1c4.5 0 4.5 7 0 7s-4.5-7 0-7z"/><path id="XMLID_426_" class="st1" d="M6.6-20.9c4.5 0 4.5 7 0 7s-4.5-7 0-7z"/><path id="XMLID_425_" class="st1" d="M8.5-27c4.5 0 4.5 7 0 7s-4.5-7 0-7z"/><path id="XMLID_424_" class="st1" d="M8.5-29.3c4.5 0 4.5 7 0 7s-4.5-7 0-7z"/><path id="XMLID_423_" class="st1" d="M14.9-33.8c4.5 0 4.5 7 0 7s-4.5-7 0-7z"/><path id="XMLID_422_" class="st1" d="M9.8-38.5c4.5 0 4.5 7 0 7s-4.5-7 0-7z"/><path id="XMLID_421_" class="st1" d="M10.6-45.1c4.5 0 4.5 7 0 7s-4.5-7 0-7z"/><path id="XMLID_420_" class="st1" d="M10.6-49.5c4.5 0 4.5 7 0 7s-4.5-7 0-7z"/><path id="XMLID_419_" class="st1" d="M12.8-18.1c2.6 0 2.6 4 0 4s-2.5-4 0-4z"/><path id="XMLID_418_" class="st1" d="M13-20.4c2.6 0 2.6 4 0 4s-2.6-4 0-4z"/><path id="XMLID_417_" class="st1" d="M13.1-21v-.2c0-1.1.9-2 2-2s2 .9 2 2v.2c0 1.1-.9 2-2 2s-2-.9-2-2z"/><path id="XMLID_416_" class="st1" d="M15.1-25.9c2.6 0 2.6 4 0 4s-2.6-4 0-4z"/><path id="XMLID_415_" class="st1" d="M16.6-11.1c.6 0 1 .4 1 1s-.4 1-1 1-1-.4-1-1 .5-1 1-1z"/><path id="XMLID_414_" class="st1" d="M21.7-16.5c.6 0 1 .4 1 1s-.4 1-1 1-1-.4-1-1 .5-1 1-1z"/><path id="XMLID_413_" class="st1" d="M16.9-8.9v.4c0 .6-.4 1-1 1s-1-.4-1-1v-.4c0-.6.4-1 1-1 .5 0 1 .4 1 1z"/><path id="XMLID_412_" class="st1" d="M16.5-4.8v.2c0 .6-.4 1-1 1s-1-.4-1-1v-.2c0-.6.4-1 1-1 .5 0 1 .5 1 1z"/><path id="XMLID_411_" class="st1" d="M15.5-2c.6 0 1 .4 1 1s-.4 1-1 1-1-.4-1-1 .4-1 1-1z"/><path id="XMLID_410_" class="st1" d="M10.6-2c.6 0 1 .4 1 1s-.4 1-1 1-1-.4-1-1 .4-1 1-1z"/><path id="XMLID_409_" class="st1" d="M10.4-4.7c.6 0 1 .4 1 1s-.4 1-1 1-1-.4-1-1 .4-1 1-1z"/><path id="XMLID_408_" class="st1" d="M7.4-6.2c.6 0 1 .4 1 1s-.4 1-1 1-1-.4-1-1 .4-1 1-1z"/><path id="XMLID_407_" class="st1" d="M11.9-7.1h.4c.6 0 1 .4 1 1s-.4 1-1 1h-.4c-.6 0-1-.4-1-1s.4-1 1-1z"/><path id="XMLID_406_" class="st1" d="M13.3-11l.6-1.3c.3-.5.9-.6 1.4-.4.5.3.6.9.4 1.4L15-10c-.3.5-.9.6-1.4.4-.4-.3-.6-.9-.3-1.4z"/><path id="XMLID_405_" class="st1" d="M18.4-19.3v-.2c0-.6.4-1 1-1s1 .4 1 1v.2c0 .6-.4 1-1 1s-1-.5-1-1z"/><path id="XMLID_404_" class="st1" d="M20.7-24.9l.2-.4c.6-1.1 2.3-.1 1.7 1l-.2.4c-.6 1.1-2.3.1-1.7-1z"/><path id="XMLID_403_" class="st1" d="M22.1-29.4c-.5-.5-.8-1.1-.8-1.9 0-.6.4-1 1-1s1 .4 1 1c0 .2.1.3.3.4.4.4.4 1 0 1.4-.4.5-1.1.5-1.5.1z"/><path id="XMLID_402_" class="st1" d="M20.3-33.4l-.5-1.7c-.4-1.2 1.5-1.8 1.9-.5l.5 1.7c.4 1.2-1.5 1.7-1.9.5z"/><path id="XMLID_401_" class="st1" d="M19.4-37h-.2c-.6 0-1-.4-1-1s.4-1 1-1h.2c.6 0 1 .4 1 1s-.4 1-1 1z"/><path id="XMLID_400_" class="st1" d="M17.6-41.5l-.2-.4c-.6-1.2 1.1-2.2 1.7-1l.2.4c.6 1.2-1.1 2.2-1.7 1z"/><path id="XMLID_399_" class="st1" d="M15.8-47.9v-.6c0-.6.4-1 1-1s1 .4 1 1v.6c0 .6-.4 1-1 1s-1-.4-1-1z"/><path id="XMLID_398_" class="st1" d="M14.3-49.4c.6 0 1 .4 1 1s-.4 1-1 1-1-.4-1-1 .5-1 1-1z"/><path id="XMLID_397_" class="st1" d="M14.3-41.3c.6 0 1 .4 1 1s-.4 1-1 1-1-.4-1-1 .5-1 1-1z"/><path id="XMLID_396_" class="st1" d="M17.1-36.5c.6.3 1 1 1 1.6 0 .6-.4 1-1 1s-1-.4-1-1c0 .1.2.2 0 .1-1.1-.5-.1-2.2 1-1.7z"/><path id="XMLID_395_" class="st1" d="M17.4-31.3c.6 0 1 .4 1 1s-.4 1-1 1-1-.4-1-1 .4-1 1-1z"/><path id="XMLID_394_" class="st1" d="M18.1-28.5c.6 0 1 .4 1 1s-.4 1-1 1-1-.4-1-1 .5-1 1-1z"/><path id="XMLID_393_" class="st1" d="M19-24.9l.2.4c.6 1.1-1.1 2.2-1.7 1l-.2-.4c-.6-1.2 1.1-2.2 1.7-1z"/><path id="XMLID_392_" class="st1" d="M17.9-16c.6 0 1 .4 1 1s-.4 1-1 1-1-.4-1-1 .5-1 1-1z"/><path id="XMLID_391_" class="st1" d="M24.6-16l.6-.9c.3-.4 1-.5 1.4-.2.4.3.5.8.3 1.2l-.6 1c-.3.5-.9.6-1.4.3-.3-.4-.5-.9-.3-1.4z"/><path id="XMLID_390_" class="st1" d="M34.9-29.7v-.2c0-.6.4-1 1-1s1 .4 1 1v.2c0 .6-.4 1-1 1s-1-.5-1-1z"/><path id="XMLID_389_" class="st1" d="M24-39.2c.6 0 1 .4 1 1s-.4 1-1 1-1-.4-1-1 .5-1 1-1z"/><path id="XMLID_388_" class="st1" d="M22.9-29c.6 0 1 .4 1 1s-.4 1-1 1-1-.4-1-1 .4-1 1-1z"/><path id="XMLID_387_" class="st1" d="M18.2-21.9l.6.6c.9.9-.5 2.3-1.4 1.4l-.6-.6c-.9-.9.5-2.3 1.4-1.4z"/></g></pattern><g id="XMLID_2_"><path id="XMLID_8_" d="M803.7 143.5s-156.9-110.4-232.9-76c-56.1 25.4-107.6 59.4-164 84.7-44.2 19.8-89.7 36.5-136.2 49.9-47.9 13.8-86.8 30.1-128.1 59-33.9 23.8-65.1 51.7-73.5 94-7.8 38.9-4.6 78.5 13.8 114.1 20.9 40.4 57.8 66.7 98.1 85.4 136.2 63.3 209.3-10.2 253.7 16.5 68.3 41 128.9 102 209.8 117.2 56 10.6 121.2-33.3 159.3-71.9V143.5z" fill="#c12227"/><path id="XMLID_12_" d="M803.7 174.3s-159.8-89.6-230-60.9c-45.5 18.6-87.3 44.7-130.6 67.8-40.6 21.6-80.8 33.1-123.7 47.1-61.5 20.1-125.5 50.1-173.7 94-40.1 36.4-63.8 87.1-30.7 136.7 88.9 133.1 282.4 21.3 351.2 77.2 68.8 55.9 174.9 131.9 232.2 116.1 57.3-15.8 105.3-95.8 105.3-95.8V174.3z" fill="#0a1720"/><g id="XMLID_200_"><ellipse id="XMLID_206_" class="st4" cx="494.2" cy="409.8" rx="5.2" ry="6.8"/><path id="XMLID_205_" class="st4" d="M498.3 380.6c.7-1.3 1.1-2.7 1.1-4.2 0-3.8-2.3-6.8-5.2-6.8s-5.2 3.1-5.2 6.8c0 1.5.4 2.9 1.1 4.2-1.5 2.6-1.5 5.7 0 8.3-1.5 2.6-1.5 5.7 0 8.3-.7 1.3-1.1 2.7-1.1 4.2 0 3.8 2.3 6.8 5.2 6.8s5.2-3.1 5.2-6.8c0-1.5-.4-2.9-1.1-4.2 1.5-2.6 1.5-5.7 0-8.3 1.5-2.5 1.5-5.7 0-8.3z"/><ellipse id="XMLID_204_" class="st4" cx="494.2" cy="368.1" rx="5.2" ry="6.8"/><ellipse id="XMLID_203_" class="st4" cx="494.2" cy="359.8" rx="5.2" ry="6.8"/><path id="XMLID_202_" class="st4" d="M474.7 302.7c-.7-.9-1.4-1.9-1.9-2.9l13.7-2.2-14.8.1c-2.9-6.2-3-13.4-.5-19.8l19.9 10.3-18.3-13.5c6.8-12 22.1-16.2 34-9.4 12 6.8 16.2 22.1 9.4 34-.6 1.1-1.4 2.2-2.2 3.2 1.1 1.4 2.1 2.9 2.8 4.6l-17.8 9.3 18.9-6.4c2.7 8 1.2 16.8-4 23.4 8.5 10.8 6.6 26.5-4.2 35s-26.5 6.6-35-4.2c-7.1-9.1-7.1-21.8 0-30.9-7.1-8.8-7.1-21.5 0-30.6z"/><path id="XMLID_201_" class="st5" d="M519.3 318.2c0 5.6-1.9 11-5.3 15.4 8.5 10.8 6.6 26.5-4.2 35s-26.5 6.6-35-4.2c-7.1-9.1-7.1-21.8 0-30.9-3.5-4.2 44.5-18.1 44.5-15.3z"/></g><g id="XMLID_193_"><ellipse id="XMLID_199_" class="st4" cx="555" cy="395.2" rx="3.9" ry="5.1"/><path id="XMLID_198_" class="st4" d="M558.1 373.4c.5-.9.8-2 .8-3.1 0-2.8-1.7-5.1-3.9-5.1-2.1 0-3.9 2.3-3.9 5.1 0 1.1.3 2.2.8 3.1-1.1 1.9-1.1 4.3 0 6.2-1.1 1.9-1.1 4.3 0 6.2-.5.9-.8 2-.8 3.1 0 2.8 1.7 5.1 3.9 5.1s3.9-2.3 3.9-5.1c0-1.1-.3-2.2-.8-3.1 1.1-1.9 1.1-4.3 0-6.2 1.1-1.9 1.1-4.3 0-6.2z"/><ellipse id="XMLID_197_" class="st4" cx="555" cy="364.1" rx="3.9" ry="5.1"/><ellipse id="XMLID_196_" class="st4" cx="555" cy="357.8" rx="3.9" ry="5.1"/><path id="XMLID_195_" class="st4" d="M540.4 315.2l-1.5-2.1 10.2-1.7-11.1.1c-2.1-4.7-2.3-10-.4-14.8l14.8 7.7-13.4-10.1c5.1-8.9 16.6-12 25.5-6.8s12 16.6 6.8 25.5c-.5.8-1 1.5-1.5 2.2.8 1.1 1.5 2.2 2.1 3.4l-13.3 6.9 14.2-4.8c2 6 .9 12.6-3 17.5 6.4 8.1 5 19.8-3.1 26.2-8.1 6.4-19.8 5-26.2-3.1-5.3-6.8-5.3-16.3 0-23.1-5.4-6.7-5.4-16.2-.1-23z"/><path id="XMLID_194_" class="st5" d="M573.7 326.7c0 4.2-1.4 8.2-4 11.5 6.4 8.1 5 19.8-3.1 26.2s-19.8 5-26.2-3.1c-5.3-6.8-5.3-16.3 0-23.1-2.4-3.1 33.3-13.6 33.3-11.5z"/></g><g id="XMLID_186_"><ellipse id="XMLID_192_" class="st4" cx="750.2" cy="391.5" rx="5.2" ry="6.8"/><path id="XMLID_191_" class="st4" d="M746 362.3c-.7-1.3-1.1-2.7-1.1-4.2 0-3.8 2.3-6.8 5.2-6.8s5.2 3.1 5.2 6.8c0 1.5-.4 2.9-1.1 4.2 1.5 2.6 1.5 5.7 0 8.3 1.5 2.6 1.5 5.7 0 8.3.7 1.3 1.1 2.7 1.1 4.2 0 3.8-2.3 6.8-5.2 6.8s-5.2-3.1-5.2-6.8c0-1.5.4-2.9 1.1-4.2-1.5-2.6-1.5-5.7 0-8.3-1.4-2.6-1.4-5.7 0-8.3z"/><ellipse id="XMLID_190_" class="st4" cx="750.2" cy="349.8" rx="5.2" ry="6.8"/><ellipse id="XMLID_189_" class="st4" cx="750.2" cy="341.5" rx="5.2" ry="6.8"/><path id="XMLID_188_" class="st4" d="M769.7 284.4c.7-.9 1.4-1.9 1.9-2.9l-13.7-2.2 14.8.1c2.9-6.2 3-13.4.5-19.8l-19.9 10.3 18.3-13.5c-6.8-12-22.1-16.2-34-9.4s-16.2 22.1-9.4 34c.6 1.1 1.4 2.2 2.2 3.2-1.1 1.4-2.1 2.9-2.8 4.6l17.8 9.3-18.9-6.4c-2.7 8-1.2 16.8 4 23.4-8.5 10.8-6.6 26.5 4.2 35s26.5 6.6 35-4.2c7.1-9.1 7.1-21.8 0-30.9 7.1-8.8 7.1-21.5 0-30.6z"/><path id="XMLID_187_" class="st5" d="M725.1 299.8c0 5.6 1.9 11 5.3 15.4-8.5 10.8-6.6 26.5 4.2 35s26.5 6.6 35-4.2c7.1-9.1 7.1-21.8 0-30.9 3.4-4.1-44.5-18.1-44.5-15.3z"/></g><g id="XMLID_179_"><ellipse id="XMLID_185_" class="st4" cx="699.9" cy="392.5" rx="3.9" ry="5.1"/><path id="XMLID_184_" class="st4" d="M696.8 370.7c-.5-.9-.8-2-.8-3.1 0-2.8 1.7-5.1 3.9-5.1s3.9 2.3 3.9 5.1c0 1.1-.3 2.2-.8 3.1 1.1 1.9 1.1 4.3 0 6.2 1.1 1.9 1.1 4.3 0 6.2.5.9.8 2 .8 3.1 0 2.8-1.7 5.1-3.9 5.1s-3.9-2.3-3.9-5.1c0-1.1.3-2.2.8-3.1-1.1-1.9-1.1-4.3 0-6.2-1.1-1.9-1.1-4.3 0-6.2z"/><ellipse id="XMLID_183_" class="st4" cx="699.9" cy="361.3" rx="3.9" ry="5.1"/><ellipse id="XMLID_182_" class="st4" cx="699.9" cy="355.1" rx="3.9" ry="5.1"/><path id="XMLID_181_" class="st4" d="M714.5 312.5l1.5-2.1-10.2-1.7 11.1.1c2.1-4.7 2.3-10 .4-14.8l-14.8 7.7 13.7-10.1c-5.1-8.9-16.6-12-25.5-6.8s-12 16.6-6.8 25.5c.5.8 1 1.5 1.5 2.2-.8 1.1-1.5 2.2-2.1 3.4l13.3 6.9-14.1-4.7c-2 6-.9 12.6 3 17.5-6.4 8.1-5 19.8 3.1 26.2 8.1 6.4 19.8 5 26.2-3.1 5.3-6.8 5.3-16.3 0-23.1 5-6.8 5-16.4-.3-23.1z"/><path id="XMLID_180_" class="st5" d="M681.1 324c0 4.2 1.4 8.2 4 11.5-6.4 8.1-5 19.8 3.1 26.2 8.1 6.4 19.8 5 26.2-3.1 5.3-6.8 5.3-16.3 0-23.1 2.5-3.2-33.3-13.6-33.3-11.5z"/></g><g id="XMLID_172_"><ellipse id="XMLID_178_" class="st4" cx="302.9" cy="391.5" rx="5.2" ry="6.8"/><path id="XMLID_177_" class="st4" d="M307 362.3c.7-1.3 1.1-2.7 1.1-4.2 0-3.8-2.3-6.8-5.2-6.8-2.9 0-5.2 3.1-5.2 6.8 0 1.5.4 2.9 1.1 4.2-1.4 2.6-1.4 5.7 0 8.3-1.4 2.6-1.4 5.7 0 8.3-.7 1.3-1.1 2.7-1.1 4.2 0 3.8 2.3 6.8 5.2 6.8 2.9 0 5.2-3 5.2-6.8 0-1.5-.4-2.9-1.1-4.2 1.5-2.6 1.5-5.7 0-8.3 1.5-2.5 1.5-5.7 0-8.3z"/><ellipse id="XMLID_176_" class="st4" cx="302.9" cy="349.8" rx="5.2" ry="6.8"/><ellipse id="XMLID_175_" class="st4" cx="302.9" cy="341.5" rx="5.2" ry="6.8"/><path id="XMLID_174_" class="st4" d="M283.4 284.4c-.7-.9-1.4-1.9-1.9-2.9l13.7-2.2-14.8.1c-2.9-6.2-3-13.4-.5-19.8l19.9 10.3-18.3-13.5c6.8-12 22.1-16.1 34.1-9.3 12 6.8 16.1 22.1 9.3 34.1-.6 1.1-1.3 2.1-2.1 3.1 1.1 1.4 2.1 2.9 2.8 4.6l-17.8 9.2 19-6.4c2.7 8 1.2 16.8-4 23.4 8.5 10.8 6.6 26.5-4.2 35s-26.5 6.6-35-4.2c-7.1-9.1-7.1-21.8 0-30.9-7.3-8.8-7.3-21.5-.2-30.6z"/><path id="XMLID_173_" class="st5" d="M328 299.8c0 5.6-1.9 11-5.3 15.4 8.5 10.8 6.6 26.5-4.2 35s-26.5 6.6-35-4.2c-7.1-9.1-7.1-21.8 0-30.9-3.4-4.1 44.5-18.1 44.5-15.3z"/></g><g id="XMLID_165_"><ellipse id="XMLID_171_" class="st4" cx="353.2" cy="392.5" rx="3.9" ry="5.1"/><path id="XMLID_170_" class="st4" d="M356.3 370.7c.5-.9.8-2 .8-3.1 0-2.8-1.7-5.1-3.9-5.1s-3.9 2.3-3.9 5.1c0 1.1.3 2.2.8 3.1-1.1 1.9-1.1 4.3 0 6.2-1.1 1.9-1.1 4.3 0 6.2-.5.9-.8 2-.8 3.1 0 2.8 1.7 5.1 3.9 5.1s3.9-2.3 3.9-5.1c0-1.1-.3-2.2-.8-3.1 1.1-1.9 1.1-4.3 0-6.2 1.1-1.9 1.1-4.3 0-6.2z"/><ellipse id="XMLID_169_" class="st4" cx="353.2" cy="361.3" rx="3.9" ry="5.1"/><ellipse id="XMLID_168_" class="st4" cx="353.2" cy="355.1" rx="3.9" ry="5.1"/><path id="XMLID_167_" class="st4" d="M338.6 312.5l-1.5-2.1 10.2-1.7-11.1.1c-2.1-4.7-2.3-10-.4-14.8l14.8 7.7-13.7-10.1c5.1-8.9 16.6-12 25.5-6.8 8.9 5.1 12 16.6 6.8 25.5-.5.8-1 1.5-1.5 2.2.8 1.1 1.5 2.2 2.1 3.4l-13.3 6.9L371 318c2 6 .9 12.6-3 17.5 6.4 8.1 5 19.8-3.1 26.2-8.1 6.4-19.8 5-26.2-3.1-5.3-6.8-5.3-16.3 0-23.1-5.4-6.8-5.4-16.3-.1-23z"/><path id="XMLID_166_" class="st5" d="M371.9 324c0 4.2-1.4 8.2-4 11.5 6.4 8.1 5 19.8-3.1 26.2s-19.8 5-26.2-3.1c-5.3-6.8-5.3-16.3 0-23.1-2.5-3.2 33.3-13.6 33.3-11.5z"/></g><ellipse id="XMLID_164_" class="st6" cx="525.6" cy="469.8" rx="250.9" ry="4.1"/><ellipse id="XMLID_163_" class="st6" cx="525.6" cy="503.1" rx="250.9" ry="4.1"/><ellipse id="XMLID_162_" class="st6" cx="525.6" cy="400.3" rx="250.9" ry="4.1"/><ellipse id="XMLID_161_" class="st6" cx="525.6" cy="435" rx="250.9" ry="4.1"/><path id="XMLID_160_" class="st6" d="M645 294.5c-1.6-.3-3.3-.1-4.9.5-1.9.8-4 .8-5.8 0-2.2-1-4.7-.9-6.9.1-.6.3-1.3.5-2 .5-2.8 0-5.1-2.8-5.6-6.5.5-.4 1-.9 1.4-1.5 1.6-2.6 4.2-4.3 7-4.3s5.3 1.7 7 4.3c1 1.6 2.7 2.6 4.6 2.5h.1c2.2.1 4.1 1.9 5.1 4.4z"/><path id="XMLID_159_" class="st6" d="M653.5 282.9l-4.5 2.8 2.7-5c-.8-.6-1.7-1-2.7-1h-.1c-.3 0-.6 0-.9-.1l-1.5 1 .7-1.2c-1.1-.4-2-1.1-2.7-2l-2.7 1.7 1.7-3.1c-1.6-1.9-3.7-3.1-6.1-3.1-2.8 0-5.4 1.7-7 4.3-1 1.6-2.7 2.6-4.6 2.5h-.2c-3.1 0-5.7 3.5-5.7 7.9s2.5 7.9 5.7 7.9c.7 0 1.4-.2 2-.5 2.2-1.1 4.7-1.1 6.9-.1 1.9.8 4 .8 5.8 0 2.2-.9 4.7-.9 6.8.1.6.3 1.3.5 2 .5 3.1 0 5.7-3.6 5.7-7.9-.2-1.5-.6-3.2-1.3-4.7z"/><path id="XMLID_158_" class="st6" d="M453.8 292.1c-1.1-.2-2.3-.1-3.4.4-1.3.6-2.8.6-4.1 0-1.5-.7-3.3-.6-4.8.1-.4.2-.9.3-1.4.3-1.9 0-3.6-2-3.9-4.5.4-.3.7-.6 1-1 1.1-1.8 2.9-3 4.9-3s3.7 1.2 4.9 3c.7 1.1 1.9 1.8 3.2 1.8h.1c1.5-.2 2.9 1.1 3.5 2.9z"/><path id="XMLID_157_" class="st6" d="M459.8 284l-3.1 2 1.9-3.5c-.5-.4-1.2-.7-1.9-.7h-.1c-.2 0-.4 0-.7-.1l-1.1.7.5-.8c-.8-.3-1.4-.8-1.9-1.4l-1.9 1.2 1.2-2.2c-1-1.3-2.6-2.1-4.3-2.2-2 0-3.8 1.2-4.9 3-.7 1.1-1.9 1.8-3.2 1.7h-.1c-2.2 0-4 2.5-4 5.5s1.8 5.5 4 5.5c.5 0 1-.1 1.4-.3 1.5-.7 3.3-.8 4.8-.1.6.3 1.3.5 2.1.5.7 0 1.4-.1 2-.4 1.5-.7 3.3-.6 4.8.1.4.2.9.3 1.4.3 2.2 0 4-2.5 4-5.5-.1-1.1-.4-2.3-.9-3.3z"/><path id="XMLID_156_" class="st6" d="M398.1 328c1.1-.2 2.3-.1 3.4.4 1.3.6 2.8.6 4.1 0 1.5-.7 3.3-.6 4.8.1.4.2.9.3 1.4.3 1.9 0 3.6-2 3.9-4.6-.4-.3-.7-.6-1-1-1.1-1.8-2.9-3-4.9-3s-3.7 1.2-4.9 3c-.7 1.1-1.9 1.8-3.2 1.8h-.1c-1.5-.1-2.8 1.2-3.5 3z"/><path id="XMLID_155_" class="st6" d="M392.2 319.9l3.1 2-1.9-3.5c.5-.4 1.2-.7 1.9-.7H396.1l1.1.7-.5-.8c.8-.3 1.4-.8 1.9-1.4l1.9 1.2-1.2-2.2c1-1.3 2.6-2.1 4.3-2.2 2 0 3.8 1.2 4.9 3 .7 1.1 1.9 1.8 3.2 1.7h.1c2.2 0 4 2.5 4 5.5s-1.8 5.5-4 5.5c-.5 0-.9-.1-1.4-.3-1.5-.7-3.3-.8-4.8-.1-.6.3-1.3.5-2.1.5-.7 0-1.4-.1-2-.4-1.5-.7-3.3-.6-4.8.1-.4.2-.9.3-1.4.3-2.2 0-4-2.5-4-5.5.1-1.2.4-2.4.9-3.4z"/><path id="XMLID_154_" class="st7" d="M578.8 468.5c1.2-2.2-.2-4.9-1.7-6.9-1.6-2-3.5-4-3.4-6.5.1-3.6 3.9-5.7 7-7.7 2.3-1.4 4.4-3.1 6.2-5 .8-.7 1.4-1.6 1.9-2.6.6-1.4.6-3 .6-4.6-.1-5.2-.4-10.3-.8-15.5"/><path id="XMLID_153_" class="st8" d="M594.5 419.5c-.1-1.9-1.2-3.7-2.8-4.6l-1.3 2.5v-3c-3-.9-6.1.8-7 3.8-.9 3 .8 6.1 3.8 7s6.1-.8 7-3.8c.2-.7.3-1.3.3-1.9z"/><path id="XMLID_152_" class="st8" d="M584.4 457.6a5.53 5.53 0 0 1-7.6 2.4c-1.8-.9-2.9-2.7-3-4.7 0-.8.1-1.6.4-2.3 1.1-2.9 4.4-4.3 7.3-3.2 1.5.6 2.7 1.8 3.2 3.3l-3.5 2.9 3.9-.9c-.1.8-.3 1.7-.7 2.5z"/><path id="XMLID_151_" class="st8" d="M581.6 446.7c-3.1.1-5.7-2.3-5.9-5.4-.1-2.6 1.6-5 4.1-5.7v2.3l1.3-2.5c3.1-.1 5.7 2.3 5.9 5.4.1 3.1-2.3 5.7-5.4 5.9z"/><path id="XMLID_150_" class="st8" d="M595.3 437.6c-3.1.2-5.8-2.2-5.9-5.3-.2-3.1 2.2-5.8 5.3-5.9 1.1-.1 2.1.2 3.1.7l-1 2.7 2-2c2.3 2.1 2.4 5.7.3 8-.9 1-2.3 1.7-3.8 1.8z"/><path id="XMLID_149_" class="st9" d="M593.7 421c-1.3.1-2.6.5-3.9.6-1.3.1-2.7-.2-3.6-1.2-.4-.6-.7-1.2-1-1.8-.4-.6-.8-1-1.4-1.3-1.4 2.8-.3 6.2 2.5 7.6 2.8 1.4 6.2.3 7.6-2.5.2-.4.4-.9.5-1.4-.3-.1-.5-.1-.7 0z"/><path id="XMLID_148_" class="st9" d="M595.3 437.6c-3.1.1-5.7-2.3-5.9-5.4 0-.9.1-1.8.5-2.7.4.3.8.7 1.1 1.1.3.6.7 1.3 1.1 1.9.9 1 2.4 1.4 3.7 1.3 1.4-.1 2.7-.5 4-.6h.6c-.4 2.5-2.6 4.2-5.1 4.4z"/><path id="XMLID_147_" class="st9" d="M581.6 446.7c-3.1.1-5.7-2.3-5.9-5.4 0-.9.1-1.8.5-2.6.5.3.9.7 1.2 1.1.4.7.8 1.3 1.2 1.9.9 1.1 2.5 1.4 4 1.4 1.4-.1 2.7-.4 4.1-.5-.7 2.4-2.7 3.9-5.1 4.1z"/><path id="XMLID_146_" class="st9" d="M584.4 457.6a5.53 5.53 0 0 1-7.6 2.4c-1.8-.9-2.9-2.7-3-4.7 0-.8.1-1.6.4-2.3.5.3.9.7 1.2 1.1.5.7.9 1.4 1.5 2 1.1 1.1 3 1.6 4.7 1.6.9.1 1.9 0 2.8-.1z"/><path id="XMLID_145_" class="st7" d="M299.6 435.5c1.2-2.2-.2-4.9-1.7-6.9s-3.5-4-3.4-6.5c.1-3.6 3.9-5.7 7-7.7 2.3-1.4 4.4-3.1 6.2-5 .8-.7 1.4-1.6 1.9-2.6.6-1.4.6-3 .6-4.6-.1-5.2-.4-10.3-.8-15.5"/><path id="XMLID_144_" class="st8" d="M315.2 386.5c-.1-1.9-1.2-3.7-2.8-4.6l-1.3 2.5v-3c-3-.9-6.1.8-7 3.8-.9 3 .8 6.1 3.8 7 3 .9 6.1-.8 7-3.8.3-.7.3-1.3.3-1.9z"/><path id="XMLID_143_" class="st8" d="M305.2 424.6a5.53 5.53 0 0 1-7.6 2.4c-1.8-.9-2.9-2.7-3-4.7 0-.8.1-1.6.4-2.3 1.1-2.9 4.4-4.3 7.3-3.2 1.5.6 2.7 1.8 3.2 3.3L302 423l3.9-.9c-.1.9-.3 1.7-.7 2.5z"/><path id="XMLID_142_" class="st8" d="M302.4 413.7c-3.1.1-5.7-2.3-5.9-5.4-.1-2.6 1.6-5 4.1-5.7v2.3l1.3-2.5c3.1-.1 5.7 2.3 5.9 5.4s-2.3 5.8-5.4 5.9z"/><path id="XMLID_141_" class="st8" d="M316.1 404.6c-3.1.2-5.8-2.2-5.9-5.3-.2-3.1 2.2-5.8 5.3-5.9 1.1-.1 2.1.2 3.1.7l-1 2.7 2-2c2.3 2.1 2.4 5.7.3 8-1 1.1-2.4 1.7-3.8 1.8z"/><path id="XMLID_140_" class="st9" d="M314.5 388c-1.3.1-2.6.5-3.9.6-1.3.1-2.7-.2-3.6-1.2-.4-.6-.7-1.2-1-1.8-.4-.6-.8-1-1.4-1.3-1.4 2.8-.3 6.2 2.5 7.6s6.2.3 7.6-2.5c.2-.4.4-.9.5-1.4h-.7z"/><path id="XMLID_139_" class="st9" d="M316.1 404.6c-3.1.1-5.7-2.3-5.9-5.4 0-.9.1-1.8.5-2.7.4.3.8.7 1.1 1.1.3.6.7 1.3 1.1 1.9.9 1 2.4 1.4 3.7 1.3 1.4-.1 2.7-.5 4-.6h.6c-.5 2.5-2.6 4.3-5.1 4.4z"/><path id="XMLID_138_" class="st9" d="M302.4 413.7c-3.1.1-5.7-2.3-5.9-5.4 0-.9.1-1.8.5-2.6.5.3.9.7 1.2 1.1.4.7.8 1.3 1.2 1.9.9 1.1 2.5 1.4 4 1.4 1.4-.1 2.7-.4 4.1-.5-.7 2.4-2.8 4-5.1 4.1z"/><path id="XMLID_137_" class="st9" d="M305.2 424.6a5.53 5.53 0 0 1-7.6 2.4c-1.8-.9-2.9-2.7-3-4.7 0-.8.1-1.6.4-2.3.5.3.9.7 1.2 1.1.5.7.9 1.4 1.5 2 1.1 1.1 3 1.6 4.7 1.6.9.1 1.8.1 2.8-.1z"/><path id="XMLID_136_" class="st7" d="M485.5 397.8c-1.2-2.2.2-4.9 1.7-6.9 1.6-2 3.5-4 3.4-6.5-.1-3.6-3.9-5.7-7-7.7-2.3-1.4-4.4-3.1-6.2-5-.8-.7-1.4-1.6-1.9-2.6-.6-1.4-.6-3-.6-4.6.1-5.2.4-10.3.8-15.5"/><path id="XMLID_135_" class="st8" d="M469.9 348.8c.1-1.9 1.1-3.7 2.8-4.6l1.3 2.5v-3c.6-.2 1.2-.3 1.9-.2 3.1.1 5.5 2.8 5.4 5.9-.1 3.1-2.8 5.5-5.9 5.4-3.2-.3-5.6-2.9-5.5-6z"/><path id="XMLID_134_" class="st8" d="M480 386.9c1.4 2.8 4.8 3.9 7.6 2.4 2.8-1.4 3.9-4.8 2.4-7.6a5.53 5.53 0 0 0-7.6-2.4c-1.3.6-2.2 1.7-2.7 3.1l3.5 2.9-3.9-.9c0 .8.3 1.7.7 2.5z"/><path id="XMLID_133_" class="st8" d="M482.8 376c3.1.1 5.8-2.2 5.9-5.4.1-2.6-1.6-5-4.1-5.7v2.3l-1.3-2.5c-3.1-.2-5.8 2.2-5.9 5.4 0 .7 0 1.3.2 1.9.7 2.3 2.8 3.9 5.2 4z"/><path id="XMLID_132_" class="st8" d="M469.1 366.9c3.1.2 5.8-2.2 5.9-5.3s-2.2-5.8-5.3-5.9c-1.1-.1-2.1.2-3.1.7l1 2.7-2.1-2c-1.1 1-1.8 2.4-1.8 3.9 0 .5 0 1 .1 1.6.6 2.4 2.8 4.2 5.3 4.3z"/><path id="XMLID_131_" class="st9" d="M470.7 350.3c1.3.1 2.6.5 3.9.6 1.3.1 2.7-.2 3.6-1.2.4-.6.7-1.2 1-1.8.4-.6.8-1 1.4-1.3 1.4 2.8.3 6.2-2.5 7.6s-6.2.3-7.6-2.5c-.2-.4-.4-.9-.5-1.4h.7z"/><path id="XMLID_130_" class="st9" d="M469.1 366.9c3.1.1 5.8-2.3 5.9-5.4 0-.9-.1-1.8-.5-2.7-.4.3-.8.7-1.1 1.1-.3.6-.7 1.3-1.1 1.9-.9 1-2.4 1.4-3.7 1.3s-2.7-.5-4-.6h-.6c.4 2.5 2.6 4.3 5.1 4.4z"/><path id="XMLID_129_" class="st9" d="M482.8 376c3.1.1 5.7-2.2 5.9-5.4 0-.9-.1-1.8-.5-2.6-.5.3-.9.7-1.2 1.1-.4.7-.8 1.3-1.2 1.9-1 1.1-2.5 1.4-4 1.4-1.4-.1-2.7-.4-4.1-.5.6 2.4 2.7 4 5.1 4.1z"/><path id="XMLID_128_" class="st9" d="M480 386.9c1.4 2.8 4.8 3.8 7.6 2.4 2.5-1.3 3.7-4.3 2.7-7-.5.3-.9.7-1.2 1.1-.5.7-.9 1.4-1.5 2-1.2 1.1-3 1.6-4.7 1.6-1 .1-2 0-2.9-.1z"/><circle id="XMLID_127_" class="st10" cx="631.7" cy="353.1" r="45.8"/><path id="XMLID_126_" class="st4" d="M651.3 364.9c-1.6-1.6-5.4-4-7.3-4.9-2.2-1.1-3-1-4.6.1-1.3.9-2.1 1.8-3.6 1.5-1.5-.3-4.4-2.5-7.3-5.4-2.8-2.8-5-5.8-5.4-7.3-.3-1.5.6-2.3 1.5-3.6 1.1-1.6 1.1-2.4.1-4.6-.9-1.9-3.3-5.7-4.9-7.3-1.6-1.6-2-1.2-2.8-.9-.9.4-1.8.8-2.6 1.4-1.6 1.1-2.5 2-3.1 3.3-.6 1.3-1.3 3.8 2.3 10.3 2.7 5 6.1 9.5 10.1 13.5s8.6 7.4 13.5 10.1c6.5 3.7 9 2.9 10.3 2.3 1.3-.6 2.2-1.5 3.3-3.1.5-.8 1-1.7 1.4-2.6.4-.9.7-1.2-.9-2.8z"/><path id="XMLID_123_" class="st4" d="M631.7 307.3c-25.3 0-45.8 20.5-45.8 45.8 0 25.3 20.5 45.8 45.8 45.8 25.3 0 45.8-20.5 45.8-45.8-.1-25.3-20.6-45.8-45.8-45.8zm0 85.4c-21.9 0-39.7-17.8-39.7-39.7s17.8-39.7 39.7-39.7c21.9 0 39.7 17.8 39.7 39.7 0 22-17.8 39.7-39.7 39.7z"/><circle id="XMLID_122_" class="st10" cx="526.5" cy="422.6" r="45.8"/><path id="XMLID_121_" class="st4" d="M552.6 408.7l-13.7 13.9c-.1.1-.1.3 0 .3l9.6 10.2c.6.6.6 1.7 0 2.3-.3.3-.7.5-1.2.5-.4 0-.9-.2-1.2-.5l-9.6-10.2c-.1-.1-.3-.1-.4 0l-2.3 2.4c-1.9 2-4.6 3.1-7.3 3.1-2.8 0-5.5-1.2-7.5-3.2l-2.2-2.3c-.1-.1-.3-.1-.4 0l-9.5 10.2c-.6.6-1.7.6-2.3 0-.6-.6-.6-1.7 0-2.3l9.6-10.2c.1-.1.1-.3 0-.4l-13.7-13.9c-.1-.1-.3-.1-.4 0 0 0-.1.1-.1.2v27.9c0 2.2 1.8 4.1 4.1 4.1h44.8c2.2 0 4.1-1.8 4.1-4.1v-27.9c0-.1-.1-.3-.2-.3-.1.2-.2.2-.2.2z"/><path id="XMLID_120_" class="st4" d="M526.5 427.5c1.9 0 3.7-.7 5-2.1l20-20.3c-.7-.6-1.6-.9-2.5-.9h-44.8c-.9 0-1.8.3-2.5.9l20 20.3c1.2 1.4 3 2.1 4.8 2.1z"/><path id="XMLID_117_" d="M526 376.8c-25.3 0-45.8 20.5-45.8 45.8 0 25.3 20.5 45.8 45.8 45.8 25.3 0 45.8-20.5 45.8-45.8-.1-25.3-20.6-45.8-45.8-45.8zm0 85.4c-21.9 0-39.7-17.8-39.7-39.7 0-21.9 17.8-39.7 39.7-39.7s39.7 17.8 39.7 39.7c-.1 22-17.8 39.7-39.7 39.7z" fill="#fff"/><circle id="XMLID_116_" class="st10" cx="417.9" cy="388.4" r="45.8"/><path id="XMLID_115_" class="st4" d="M417.9 366.5l-18.2 42.1 1.7 1.7 16.5-7.3 16.5 7.3 1.7-1.7-18.2-42.1z"/><path id="XMLID_112_" class="st4" d="M417.9 342.6c-25.3 0-45.8 20.5-45.8 45.8 0 25.3 20.5 45.8 45.8 45.8 25.3 0 45.8-20.5 45.8-45.8 0-25.3-20.5-45.8-45.8-45.8zm0 85.4c-21.9 0-39.7-17.8-39.7-39.7s17.8-39.7 39.7-39.7 39.7 17.8 39.7 39.7c0 22-17.7 39.8-39.7 39.7z"/><linearGradient id="XMLID_4_" gradientUnits="userSpaceOnUse" x1="423.889" y1="876.449" x2="423.889" y2="955.225" gradientTransform="matrix(1 0 0 -1 202 1381.37)"><stop offset="0" stop-color="#818181" stop-opacity=".25"/><stop offset=".54" stop-color="#818181" stop-opacity=".12"/><stop offset="1" stop-color="#818181" stop-opacity=".1"/></linearGradient><path id="XMLID_109_" d="M635.9 446c-.4-1-.8-2-1.3-3-.4-1-.9-1.9-1.6-2.7-.3-.3-.6-.5-.9-.7-.4-.1-.8-.2-1.2-.2-.6-.1-1.3-.1-1.9-.1-.2-.1-.5-.2-.8-.3 2.8-.7 4.8-3.2 4.9-6.1v-.3c0-3.6-2.9-6.5-6.5-6.6-1.2 0-2.4.3-3.4 1-2.8-.6-5.6.7-6.9 3.3-1.5 1.5-2.4 3.5-2.3 5.6v.3c.1 3.6 2.4 6.4 5.3 6.7-.3.1-.6.3-.8.6-.9.9-1 2.2-1.1 3.5l-.1.9-1.5.5c-.1.1-.2.2-.2.4 0 .1.1.1.1.1l1.5 1v.6c-.3.2-.4.5-.6.8-.1.5-.2 1-.1 1.5l.1 1.3c0 1 .1 1.9.4 2.8.2.6 1 1.9 1.6 1.9-.6 2.5-.7 7.8-.7 7.8-.1.1.1.1.5.2.3 2.5 1.4 9.6 3.3 12.7.3 1 .5 2 .7 3.1 0 0 .5 6.7 1.3 8.7.6 1.7 1.1 5.9 1.2 7.1-.3.1-.4.3-.5.5-.4 1.1-2.7 2.7-2.7 2.7-.7.4-1.4.8-2 1.3-.7.7-.7 1.3 2.6.9 6.3-.7 7.4-2.7 7.4-2.7s-.1-.3-.3-.8c-.2-.7-.5-1.3-.8-2-.1-.1-.2.1-.3.3-.5-2.9-.6-5.9-.4-8.8 0 0 .2-3.1-.7-5.3-.2-1.1-.2-2.3 0-3.5.4-1.5-1.4-8.6-1.4-8.6l-1-5.2.3.6V468.1c0 .1 0 .1.1.1.7 2.9 2.6 11 2.6 12.2 0 1.5 1.8 5.1 1.8 5.1s.7 6 2 8.4c1 1.8 1 4.4.9 5.6 0 0-.2 1.5-.6 1.9-.3.4-.5.8-.7 1.2v.1s-.5 1.1-.2 1.3c1.4.5 2.9.7 4.3.5 0 0 .7-.9.7-1.3 0-.2 0-.4-.1-.7-.1-.9-.4-2.2-.4-2.2.2-.6-.5-2.2-.5-2.2l-.2-5.1c.3-3.4-.1-6.9-1.3-10.2 0 0-.9-3.3-.7-4.2.2-.9-.4-10.6-.4-10.6l-.1-.1c0-.7 0-1.4.1-2 .2-2.2-.5-6.7-.7-6.9l-.3-1.5c0-.4.2-1.5.3-2.9 1.8-.1 3.6-.2 5.3-.5.2 0 .3-.1.5-.2.1-.1.1-.2.1-.4.3-2.3-.7-4.9-1.7-7.5zm-3.6 5.8c.2-1.3.4-2.6.6-3.5v.1c.3.9.6 1.9.9 2.9-.5.2-1 .4-1.5.5z" fill="url(#XMLID_4_)"/><path id="XMLID_108_" class="st13" d="M618.2 466.5s1.1 9.7 3.4 13.5c.3 1 .5 2 .7 3.1 0 0 .5 6.7 1.3 8.6.7 2 1.3 7.4 1.3 7.4s2.5 2.9 3.4.5c-.6-3.1-.7-6.2-.5-9.4 0 0 .2-3.1-.7-5.2-.2-1.1-.2-2.3 0-3.4.4-1.4-1.4-8.5-1.4-8.5l-1.4-7-6.1.4z"/><path id="XMLID_107_" class="st14" d="M629.6 501.4s-1.1 2-7.4 2.7c-3.3.4-3.3-.2-2.6-.9.6-.5 1.3-.9 2-1.3 0 0 2.3-1.6 2.7-2.7.4-1.1 1.6-.2 1.6-.2 1.8 2.7 2.2-.7 2.5-.4.4.6.6 1.3.8 1.9.3.6.4.9.4.9z"/><path id="XMLID_106_" class="st9" d="M629.6 501.4s-1.1 2-7.4 2.7c-3.3.4-3.3-.2-2.6-.9.5.3 1.5.5 3.6-.4 3-1.2 5.2-1.9 6-2.2.3.5.4.8.4.8z"/><path id="XMLID_105_" class="st9" d="M627.8 490.3s.2-3.1-.7-5.2c-.2-1.1-.2-2.3 0-3.4.4-1.4-1.4-8.5-1.4-8.5l-1.4-7-1.2.1 1.4 6.9s1.8 7 1.4 8.5c-.2 1.1-.2 2.3 0 3.4.9 2.2.7 5.2.7 5.2-.2 3.1 0 6.3.5 9.4-.1.3-.3.6-.5.7.7.3 1.4.3 1.8-.7-.7-3.1-.8-6.3-.6-9.4z"/><path id="XMLID_104_" class="st15" d="M626.6 427c-1.2 0-2.4.3-3.4 1-2.8-.6-5.6.7-6.9 3.3-1.5 1.4-2.4 3.5-2.3 5.6 0 3.8 2.6 6.9 5.8 6.9 2.3 0 4.3-1.6 5.2-4 .5.1 1.1.2 1.6.2 3.6 0 6.5-2.9 6.5-6.5s-2.9-6.5-6.5-6.5z"/><path id="XMLID_103_" class="st13" d="M631.9 467.4l.5 1.4s.5 9.5.4 10.4.7 4.1.7 4.1c1.2 3.2 1.6 6.7 1.3 10.1l.2 5s.7 2 .4 2.3c-.4.4-3.1-.3-3.1-.3s.4-3.8-.9-6.1-2-8.3-2-8.3-1.8-3.6-1.8-5-2.9-13.1-2.9-13.1l7.2-.5z"/><path id="XMLID_102_" class="st16" d="M617.9 467.3s.2-6.5.9-8.5c.4-.9.6-1.9.8-2.9 0 0 10.9 2 11.8 1.2 0 0 .2 2.5.4 2.7.2.2.9 4.7.7 6.8-.2 2.2 0 2.2 0 2.2s-7.4 1.1-7.6 0c-.2-1.1-.7-1.1-.7-1.1s-6.7-.1-6.3-.4z"/><g id="XMLID_97_" class="st17"><path id="XMLID_101_" class="st1" d="M623.8 467.3s-4.6-.1-5.9-.4v.4c-.4.4 6.3.5 6.3.5.1 0 .2 0 .2.1-.2-.6-.6-.6-.6-.6z"/><path id="XMLID_100_" class="st1" d="M631.7 459.9c-.2-.2-.4-2.7-.4-2.7-.1.1-.2.1-.3.1.1.8.2 1.9.3 2 .1.1.9 4.7.7 6.8-.2 2.2 0 2.2 0 2.2s-5.8.9-7.3.3c0 .1 0 .2.1.3.2 1.1 7.6 0 7.6 0s-.2 0 0-2.2c.2-2.1-.5-6.6-.7-6.8z"/><pattern id="XMLID_5_" xlink:href="#ad310e25-2b04-44c8-bb7b-9823891" patternTransform="matrix(1 0 0 -1 173.28 -13961.81)" class="st17"/><path id="XMLID_99_" d="M623.8 467.3s-4.6-.1-5.9-.4v.4c-.4.4 6.3.5 6.3.5.1 0 .2 0 .2.1-.2-.6-.6-.6-.6-.6z" fill="url(#XMLID_5_)"/><pattern id="XMLID_6_" xlink:href="#ad310e25-2b04-44c8-bb7b-9823891" patternTransform="matrix(1 0 0 -1 173.28 -13961.81)" class="st17"/><path id="XMLID_98_" d="M631.7 459.9c-.2-.2-.4-2.7-.4-2.7-.1.1-.2.1-.3.1.1.8.2 1.9.3 2 .1.1.9 4.7.7 6.8-.2 2.2 0 2.2 0 2.2s-5.8.9-7.3.3c0 .1 0 .2.1.3.2 1.1 7.6 0 7.6 0s-.2 0 0-2.2c.2-2.1-.5-6.6-.7-6.8z" fill="url(#XMLID_6_)"/></g><path id="XMLID_96_" class="st13" d="M625.8 438.4c.2.3.4.7.7.9l.6.3-1.2.6c-.6.4-1.2.9-1.8 1.4-.6.5-1.3.8-2.1.8.5-.7.7-1.7.3-2.6-.2-.3-.3-.6-.3-.9 0-.5.5-.9.9-1.2.3-.2.7-.5 1.1-.7.3-.2.7-.5 1.1-.5.4 0 .4.3.5.6-.1.5 0 .9.2 1.3z"/><path id="XMLID_95_" class="st9" d="M625.8 438.4c.2.3.4.7.7.9l.6.3-1.2.6c-.6.4-1.2.9-1.8 1.4-.6.5-1.3.8-2.1.8.5-.7.7-1.7.3-2.6-.2-.3-.3-.6-.3-.9 0-.5.5-.9.9-1.2.3-.2.7-.5 1.1-.7.3-.2.7-.5 1.1-.5.4 0 .4.3.5.6-.1.5 0 .9.2 1.3z"/><circle id="XMLID_93_" class="st13" cx="630" cy="444.9" r="4.1"/><path id="XMLID_92_" class="st14" d="M635.9 503.6c0 .4-.7 1.3-.7 1.3-1.5.2-2.9 0-4.3-.5-.4-.2.2-1.3.2-1.3v-.1c.2-.4.4-.8.7-1.2.4-.4.6-1.8.6-1.8 1.1-1.8 3.1.8 3.1.8s.3 1.4.4 2.2c-.1.3 0 .5 0 .6z"/><path id="XMLID_91_" class="st9" d="M635.9 503.6c0 .4-.7 1.3-.7 1.3-1.5.2-2.9 0-4.3-.5-.4-.2.2-1.3.2-1.3v-.1c1.2.6 2.6.8 3.9.8l.8-.8c0 .3.1.5.1.6z"/><circle id="XMLID_90_" class="st13" cx="621.7" cy="436.2" r="4"/><path id="XMLID_89_" class="st13" d="M618.5 444.3c-.9.8-1 2.2-1.1 3.4l-.1 1.8c0 .5-.1 1 0 1.5 0 .3.1.6.1.9v3.7c0 .5.1 1.1.3 1.6.3.5.9.7 1.4.5.3-.2.5-.5.6-.9.4-1.1.8-2.2.9-3.4 0-.4 0-.8.1-1.2 0-.4.1-.8.2-1.2.3-1.7.4-3.4.5-5.1 0-.5.5-2.5-.2-2.7-.3-.1-1 .2-1.3.3-.6.2-1.1.5-1.4.8z"/><path id="XMLID_88_" class="st9" d="M618.5 444.3c-.9.8-1 2.2-1.1 3.4l-.1 1.8c0 .5-.1 1 0 1.5 0 .3.1.6.1.9v3.7c0 .5.1 1.1.3 1.6.3.5.9.7 1.4.5.3-.2.5-.5.6-.9.4-1.1.8-2.2.9-3.4 0-.4 0-.8.1-1.2 0-.4.1-.8.2-1.2.3-1.7.4-3.4.5-5.1 0-.5.5-2.5-.2-2.7-.3-.1-1 .2-1.3.3-.6.2-1.1.5-1.4.8z"/><path id="XMLID_87_" d="M626.9 438.8s-3.1 2.3-4.9 2.9c0 0-1.1 1.2-1.2 1.5-.2.3-.5 3.5-.9 4.2-.4.7-1.3 2.3 0 4 0 0 .4 1.6.2 2.2s-.8 2.5-.2 2.6c.6.1 2.4 1.3 4 1 1.6-.4 7.6 1.4 7.6 1.4s1-9.3 1.7-10.9l-1.6-.5s-4.5-2.7-1.8-6.8c-.1-.1-2.6-.7-2.9-1.6z" fill="#521945"/><path id="XMLID_86_" class="st15" d="M615.7 449.7l3.7 2.6c.1.1.2.1.3 0l1-.8c.1-.1.1-.3 0-.4l-2.9-2.5c-.1-.1-.2-.1-.3-.1l-1.8.7c-.1.1-.2.2-.2.4.1 0 .2 0 .2.1z"/><path id="XMLID_85_" class="st13" d="M617 457.6c-.3-.9-.4-1.9-.4-2.8l-.1-1.3c-.1-.5 0-1 .1-1.5.3-.7.9-1.2 1.5-1.4.7-.2 1.4-.2 2.1-.2.1 0 .2 0 .3.1.1.1.1.2.1.2.2.4.2.9.1 1.3-.1.2-.3.3-.4.4-.5.4-1.1.6-1.6 1-.1.1-.2.2-.2.3v.3c.1.3.1.5.2.7 0 .1.1.2.2.3.1.1.2.1.3.2.2.2.6.4.6.6-.1.9-.6 1.9-.8 2.8-.3 2-1.8-.2-2-1z"/><g id="XMLID_82_" class="st17"><path id="XMLID_84_" class="st1" d="M622.7 457.2h-.1c.4.1.8.1 1.2 0h.1c-.4-.1-.8-.1-1.2 0z"/><path id="XMLID_83_" class="st1" d="M632.2 447.4c-.6 1.5-1.6 9.3-1.8 10.9.6.2 1 .3 1 .3s1-9.2 1.7-10.9l-.9-.3z"/></g><path id="XMLID_81_" class="st13" d="M630.2 445c.1.4.3.7.6.9.4.3.7.7 1 1.1.5.6.8 1.3 1 2.1.3.9.6 1.9.9 2.8-2.3 1.1-4.9 1-7.3 1.7-1 .3-2 .8-2.7 1.6-.8.8-1.1 1.9-1 3 0 .1 0 .1.1.2s.2.1.3.1c.6 0 1.2-.2 1.7-.6.5-.4.9-.8 1.3-1.3.2-.3.6-.5.9-.7 1.3-.4 2.7-.4 4.1-.4 2.1 0 4.1-.2 6.1-.5.3 0 .5-.2.5-.4v-.1c.2-2.7-.8-5.3-1.8-7.8-.4-1-.8-2-1.3-3-.4-1-.9-1.9-1.6-2.7-.3-.3-.6-.5-.9-.7-.4-.1-.8-.2-1.2-.2-.7-.1-1.3-.1-2 0-.1.3-.2.7-.2 1 0 1.2.6 2.4 1.1 3.5.1.2.3.2.4.4z"/><path id="XMLID_80_" d="M622.8 447.3c-.3.5-.5 1.1-.5 1.7 0 .2 0 .5.1.7.3.7.8 1.2 1.5 1.4" opacity=".1" fill="none" stroke="#010101" stroke-width=".458" stroke-miterlimit="10"/><path id="XMLID_79_" class="st15" d="M625.2 432.3c-.2 0-.4 0-.7.1-.6-.9-2-1.5-3.7-1.5-2.2 0-4 1.1-4 2.5s1.8 2.5 4 2.5c.8 0 1.6-.2 2.4-.5.5 1.1 1.8 1.5 2.9 1 1.1-.5 1.5-1.8 1-2.9-.4-.8-1.1-1.2-1.9-1.2z"/><path id="XMLID_78_" class="st9" d="M625.3 436c-.8 0-1.6-.5-1.9-1.2-.7.3-1.6.5-2.4.5-2.2 0-4-1.1-4-2.5v-.3c-.1.2-.2.5-.2.8 0 1.4 1.8 2.5 4 2.5.8 0 1.6-.2 2.4-.5.5 1.1 1.8 1.5 2.9 1 .6-.3 1.1-.9 1.2-1.5-.4.8-1.1 1.2-2 1.2z"/><path id="XMLID_77_" class="st9" d="M616.3 432.3c1.2-2.6 4.1-3.9 6.9-3.3 3-1.9 7-.9 8.9 2.1.5.9.9 1.8.9 2.9v-.5c0-3.6-2.9-6.5-6.5-6.5-1.2 0-2.4.3-3.4 1-2.8-.6-5.6.7-6.9 3.3-1.5 1.4-2.4 3.5-2.3 5.6v.5c.2-1.9 1-3.7 2.4-5.1z"/><path id="XMLID_76_" class="st7" d="M657.6 433.7c1.2-2.2-.2-4.9-1.7-6.9-1.6-2-3.5-4-3.4-6.5.1-3.6 3.9-5.7 7-7.7 2.3-1.4 4.4-3.1 6.2-5 .8-.7 1.4-1.6 1.9-2.6.6-1.4.6-3 .6-4.6-.1-5.2-.4-10.3-.8-15.5"/><path id="XMLID_75_" class="st8" d="M673.2 384.7c-.1-1.9-1.1-3.7-2.8-4.6l-1.3 2.5v-3c-.6-.2-1.2-.3-1.9-.2-3.1.1-5.5 2.8-5.4 5.9.1 3.1 2.8 5.5 5.9 5.4 3.3-.3 5.7-2.9 5.5-6z"/><path id="XMLID_74_" class="st8" d="M663.2 422.8a5.53 5.53 0 0 1-7.6 2.4 5.53 5.53 0 0 1-2.4-7.6c1.4-2.8 4.8-3.9 7.6-2.4 1.3.6 2.2 1.7 2.7 3l-3.5 2.9 3.9-.9c-.1 1-.3 1.8-.7 2.6z"/><path id="XMLID_73_" class="st8" d="M660.4 411.9c-3.1.1-5.8-2.2-5.9-5.4-.1-2.6 1.6-5 4.1-5.7v2.3l1.3-2.5c3.1-.1 5.7 2.3 5.9 5.4.1 3.1-2.3 5.8-5.4 5.9z"/><path id="XMLID_72_" class="st8" d="M674.1 402.8c-3.1.2-5.8-2.2-5.9-5.3-.2-3.1 2.2-5.8 5.3-5.9 1.1-.1 2.1.2 3.1.7l-1 2.7 2.1-2c1.1 1 1.8 2.4 1.8 3.9 0 .5 0 1-.1 1.6-.7 2.4-2.8 4.2-5.3 4.3z"/><path id="XMLID_71_" class="st9" d="M672.5 386.2c-1.3.1-2.6.5-3.9.6-1.3.1-2.7-.2-3.6-1.2-.4-.6-.7-1.2-1-1.8-.4-.6-.8-1-1.4-1.3-1.4 2.8-.3 6.2 2.5 7.6s6.2.3 7.6-2.5c.2-.4.4-.9.5-1.4h-.7z"/><path id="XMLID_70_" class="st9" d="M674.1 402.8c-3.1.1-5.8-2.3-5.9-5.4 0-.9.1-1.8.5-2.7.4.3.8.7 1.1 1.1.3.6.7 1.3 1.1 1.9.9 1 2.4 1.4 3.7 1.3 1.4-.1 2.7-.5 4-.6h.6c-.5 2.5-2.6 4.3-5.1 4.4z"/><path id="XMLID_69_" class="st9" d="M660.4 411.9c-3.1.2-5.7-2.2-5.9-5.3 0-.9.1-1.8.5-2.6.5.3.9.7 1.2 1.1.5.6.7 1.3 1.2 1.9 1 1.1 2.5 1.4 4 1.4s2.7-.4 4.1-.5c-.7 2.3-2.7 3.9-5.1 4z"/><path id="XMLID_68_" class="st9" d="M663.2 422.8c-1.5 2.7-4.9 3.8-7.6 2.3-2.5-1.3-3.6-4.3-2.6-6.9.5.3.9.7 1.2 1.1.5.7.9 1.4 1.5 2 1.2 1.1 3 1.6 4.7 1.6.9.1 1.8.1 2.8-.1z"/><path id="XMLID_67_" class="st7" d="M730.4 503.3c1.2-2.2-.2-4.9-1.7-6.9-1.6-2-3.5-4-3.4-6.5.1-3.6 3.9-5.7 7-7.7 2.3-1.4 4.4-3.1 6.2-5 .8-.7 1.4-1.6 1.9-2.6.6-1.4.6-3 .6-4.6-.1-5.2-.4-10.3-.8-15.5"/><path id="XMLID_66_" class="st8" d="M746 454.3c-.1-1.9-1.1-3.7-2.8-4.6l-1.3 2.5v-3c-.6-.2-1.2-.3-1.8-.2-3.1.1-5.5 2.8-5.4 5.9s2.8 5.5 5.9 5.4c3.2-.3 5.6-2.9 5.4-6z"/><path id="XMLID_65_" class="st8" d="M736 492.4c-1.4 2.8-4.8 3.9-7.6 2.4s-3.9-4.8-2.4-7.6 4.8-3.9 7.6-2.4c1.3.6 2.2 1.7 2.7 3l-3.5 2.9 3.9-.9c-.1.9-.3 1.8-.7 2.6z"/><path id="XMLID_64_" class="st8" d="M733.2 481.5c-3.1.1-5.8-2.2-5.9-5.4-.1-2.6 1.6-5 4.1-5.7v2.3l1.3-2.5c3.1-.1 5.7 2.3 5.9 5.4.1 3.1-2.3 5.7-5.4 5.9z"/><path id="XMLID_63_" class="st8" d="M746.9 472.4c-3.1.2-5.8-2.2-5.9-5.3-.2-3.1 2.2-5.8 5.3-5.9 1.1-.1 2.1.2 3.1.7l-1 2.7 2.1-2c1.1 1 1.8 2.4 1.8 3.9 0 .5 0 1-.1 1.6-.7 2.4-2.8 4.2-5.3 4.3z"/><path id="XMLID_62_" class="st9" d="M745.3 455.8c-1.3.1-2.6.5-3.9.6-1.3.1-2.7-.2-3.6-1.2-.4-.6-.7-1.2-1-1.8-.4-.6-.8-1-1.4-1.3-1.4 2.8-.3 6.2 2.5 7.6 2.8 1.4 6.2.3 7.6-2.5.2-.4.4-.9.5-1.4h-.7z"/><path id="XMLID_61_" class="st9" d="M746.9 472.4c-3.1.1-5.8-2.3-5.9-5.4 0-.9.1-1.8.5-2.7.4.3.8.7 1.1 1.1.3.6.7 1.3 1.1 1.9.9 1 2.4 1.4 3.7 1.3 1.4-.1 2.7-.5 4-.6h.6c-.5 2.5-2.6 4.3-5.1 4.4z"/><path id="XMLID_60_" class="st9" d="M733.2 481.5c-3.1.2-5.7-2.2-5.9-5.3 0-.9.1-1.8.5-2.6.5.3.9.7 1.2 1.1.5.6.7 1.3 1.2 1.9 1 1.1 2.5 1.4 4 1.4 1.4 0 2.7-.4 4.1-.5-.7 2.3-2.7 3.9-5.1 4z"/><path id="XMLID_59_" class="st9" d="M736 492.4c-1.5 2.7-4.9 3.8-7.6 2.3-2.5-1.3-3.6-4.3-2.6-6.9.5.3.9.7 1.2 1.1.5.7.9 1.4 1.5 2 1.2 1.1 3 1.6 4.7 1.6.9.1 1.8 0 2.8-.1z"/><linearGradient id="XMLID_9_" gradientUnits="userSpaceOnUse" x1="260.856" y1="909.339" x2="260.856" y2="955.572" gradientTransform="matrix(1 0 0 -1 202 1381.37)"><stop offset="0" stop-color="#818181" stop-opacity=".25"/><stop offset=".54" stop-color="#818181" stop-opacity=".12"/><stop offset="1" stop-color="#818181" stop-opacity=".1"/></linearGradient><path id="XMLID_53_" d="M493.5 438.7c0-1.4-.7-2.8-1.8-3.6 0-2.6-1.9-4.7-4.4-5.2-.4-1.8-1.7-3.3-3.5-3.9-.2-.1-.4-.1-.7-.2h-.7c-2.5.1-4.6 1.9-5 4.4-1.6-.4-3.1.1-3.3 1.1-.1.3-.1.6 0 .8.3.8 1.2 1.5 2.4 1.9h.2l.2.1h.1c-.3.5-.4 1.1-.4 1.7 0 1.5.8 2.9 2.2 3.6l-.1.1c-.1.1-.3.3-.3.5-.3.5-.5 1.1-.7 1.6-.1.5-.1 1-.3 1.5-.3.9-.9 1.6-1 2.5 0 .4 0 .9-.3 1.2-.1.1-.2.1-.2.2-.2.1-.4.3-.5.5-.1.2-.2.4-.4.5-.3.2-.7.2-.8.5-.1.3.2.7.1 1-.1.3-.4.4-.6.6-.2.3-.4.6-.5.9-.9.2-1.8-.1-2.5-.6l.3.9c-.4-.3-.9-.5-1.3-.7-.5-.2-1-.6-1.4-1.1l.8-.1-3.4-5.1-1-.2.9 1.7c-.2.1-.3.2-.3.4s-.1.4 0 .6c0 .5.1.9.2 1.4l.3 1.2c0 .1.1.2.1.3-.3 0-.7 0-1 .1-.7-.2-1.4-.4-2.1-.5h-.5c-.2.1-.3.2-.4.4-.6.7-1.1 1.4-1.5 2.2-1.8 3.1-4.2 5.9-6.5 8.7-1.6.6-3.1 1.2-4.7 1.8l-3.4 1.3c-.7.3-1.4.5-2.1.5-.3 0-.7-.1-.9.2-.1.1-.2.3-.2.5h-.3c-.2-.5-.4-1.1-.8-1.5-.2 0-.3.1-.4.3-.1.2-.1.3-.2.5-.2.3-.5.4-.7.6-.2.2-.4.6-.6.8-.3.2-.7.4-1.1.5-.6.1-1.2.4-1.8.7-.2.1-.4.2-.7.3-.3.1-.5.1-.8 0l-1.8-.1h-.5c-.4.1-.6.5-.6.9s.3.7.6 1c.3.2.7.4 1 .5 1.5.6 3.1 1.1 4.8 1.4v.4c1.1.6 2.4.9 3.7.9.1 0 .2 0 .3-.1.1-.1.2-.2.2-.4.4-1.1.6-2.3.7-3.5.2 0 .4-.1.6-.2.6-.2 1.2.3 1.9.3.8.1 1.5-.4 2.2-.7l.3-.1c-.2.3-.5.5-.7.7-.3.2-.7.4-.9.6-.3.2-.5.4-.8.6-.2.1-.4.2-.6.2-.3.1-.6.3-.9.5-.2.1-.4.3-.6.6-.2.2-.2.6-.1.8.1.2.3.4.6.4h.7c1-.1 1.9-.2 2.9-.2.4 0 .8-.1 1.2-.2.2-.1.4-.1.6-.2.4-.1.7-.1 1.1-.2h.3c.2.1.4.3.6.3.2 0 .3 0 .5-.1.7-.2 1.4-.2 2.1-.2.3 0 .7-.1.8-.4.1-.3-.1-.8-.2-1.2-.1-.2-.1-.5-.1-.8-.1-.6-.2-1.2-.5-1.8-.2-.3-.3-.5-.4-.8 1.4-.5 2.7-1.2 4-2 .7-.5 1.4-.9 2.3-1.1 1-.1 1.9 0 2.8.3 2.2.6 4.4 1.4 6.5 2.3 1 .4 2 .9 3.1 1.2.3.4.7.8 1.1 1.1.7.4 1.5.6 2.4.6 1.1.1 2.2.1 3.3.1.8 0 1.7-.1 2.5-.5.2-.1.4-.2.5-.3.6.1 1.2-.2 1.6-.6.6-.5 1-1.2 1.2-2 .3-1 .1-2.3.7-3.1l.6-.6c.2-.3.3-.7.3-1.1.1-.3.2-.7.3-1.1.1-.3.2-.6.3-.8.3-.8.6-1.6.9-2.5.2-.6.3-1.1.4-1.7.1-.5.1-.9.1-1.4 0-.7.2-1.4.4-2.1.6-1.6.9-3.3 1-5.1v.4c1.7-.2 3.1-1.7 3-3.5 0-.5-.1-1-.3-1.5.1-.7.3-1.5.3-2.3zm-16.3 19.9c.1.2.1.4.2.5l-.8-.8c.1 0 .2.1.3.1.1.1.2.1.3.2zm-1.3-.9c-1.6-1.4-3.4-2.4-5-3.8.9.4 1.7.9 2.6 1.4 1 .6 2 1.1 3.1 1.7l-.7.7zm.6-3.4c.1.1.1.3.1.5l-.4-.1c.1-.2.2-.3.3-.4zm-13.9 3.7c.6-.7 1.2-1.5 1.7-2.4.6 1.1 1.6 1.9 2.5 2.8-1.4-.2-2.8-.3-4.2-.4z" fill="url(#XMLID_9_)"/><path id="XMLID_52_" class="st23" d="M464.9 444.6l1 .3 3.4 5-1.5.2z"/><path id="XMLID_51_" class="st24" d="M440.7 465.1c.3.9.6 1.8 1 2.6 1.1-.2 2.2-.6 3.3-.9-.2-.3-.4-.6-.7-.9-.3-.3-.6-.5-.9-.7-.4-.1-.8-.1-1.1 0-.6-.1-1.1-.1-1.6-.1z"/><path id="XMLID_50_" class="st23" d="M443.4 466.4c-.5-.2-1-.7-1.1-1.3-.2-.6-.5-1.1-.9-1.5-.2 0-.3.1-.4.3-.1.1-.1.3-.2.5-.2.3-.5.4-.7.6-.2.2-.4.6-.6.8-.3.3-.7.4-1.2.5-.6.1-1.3.4-1.8.7-.2.1-.4.2-.7.3h-.8l-1.8-.1h-.5c-.4.1-.6.5-.6.9s.3.7.6 1c.3.2.7.4 1 .5 1.6.6 3.2 1.1 4.8 1.4v.4c1.1.6 2.4.9 3.7.9h.3c.1-.1.2-.2.2-.4.4-1.3.7-2.6.8-3.9 0-.3 0-.7-.1-1-.1-.7.3-.5 0-.6"/><path id="XMLID_49_" class="st23" d="M477.9 459.6c-5.3.3-10.6-1.2-16-1.4-.7 0-1.3 0-2 .1-.7.2-1.3.4-2 .8-2.9 1.3-5.8 2.4-8.8 3.5l-3.4 1.3c-.7.3-1.4.5-2.1.5-.3 0-.7-.1-.9.2-.6.8-.3 2 .1 3 .1.3.3.6.6.7.2 0 .4-.1.7-.2.6-.2 1.2.3 1.9.3.8.1 1.5-.4 2.3-.6 1.2-.5 2.6-.5 3.9-.7 2.2-.4 4.2-1.4 6.1-2.5.7-.5 1.5-.9 2.3-1.1 1-.1 1.9 0 2.9.3 2.2.6 4.4 1.4 6.5 2.2 1.1.5 2.3.9 3.4 1.2 2.5.7 5.2.5 7.7-.5.9-.3 1.8-.9 1.8-1.9 0-.5-.4-1-.7-1.4-.2-.3-.4-.6-.5-.9-1-1.2-2.1-3-3.8-2.9z"/><path id="XMLID_48_" d="M477.9 459.6c-5.3.3-10.6-1.2-16-1.4-.7 0-1.3 0-2 .1-.7.2-1.3.4-2 .8-2.9 1.3-5.8 2.4-8.8 3.5l-3.4 1.3c-.7.3-1.4.5-2.1.5-.3 0-.7-.1-.9.2-.6.8-.3 2 .1 3 .1.3.3.6.6.7.2 0 .4-.1.7-.2.6-.2 1.2.3 1.9.3.8.1 1.5-.4 2.3-.6 1.2-.5 2.6-.5 3.9-.7 2.2-.4 4.2-1.4 6.1-2.5.7-.5 1.5-.9 2.3-1.1 1-.1 1.9 0 2.9.3 2.2.6 4.4 1.4 6.5 2.2 1.1.5 2.3.9 3.4 1.2 2.5.7 5.2.5 7.7-.5.9-.3 1.8-.9 1.8-1.9 0-.5-.4-1-.7-1.4-.2-.3-.4-.6-.5-.9-1-1.2-2.1-3-3.8-2.9z" fill="#361f27"/><path id="XMLID_47_" class="st24" d="M450.9 465.3c.8.3 1.7.5 2.5.8.5-.8 1.4-1.3 1.6-2.2v-.1l-.1-.1c-.6-.3-1.3-.5-2-.6-.5 0-.8.5-1 .9-.1.2-.7 1.4-1 1.3z"/><path id="XMLID_46_" class="st23" d="M452.1 464.7c-.5-.1-1-.4-1.2-.8-.1-.2-.2-.5-.5-.5-.2 0-.3.3-.4.5-.2.8-.4 1.6-.7 2.4-.3.8-.8 1.4-1.5 1.9-.3.2-.7.4-1 .6-.3.2-.5.4-.8.6-.2.1-.4.2-.6.2-.3.1-.6.3-.9.5-.2.1-.5.3-.6.6-.2.2-.2.6 0 .8.1.2.3.4.6.4h.7c1-.1 2-.2 2.9-.2.4 0 .8-.1 1.2-.2l.6-.2c.4-.1.7-.2 1.1-.2h.3c.2.1.4.3.6.3.2 0 .3 0 .5-.1.7-.2 1.4-.2 2.2-.2.3 0 .7-.1.8-.4.2-.4-.1-.8-.2-1.1-.1-.2-.1-.5-.1-.7-.1-.6-.2-1.2-.5-1.8-.2-.5-.6-1-.4-1.4.1-.2.1-.3.2-.5 0-.6-1.8-.4-2.3-.5z"/><path id="XMLID_45_" class="st24" d="M469.9 451c-.9-.4-1.7-1.2-2.1-2.1-.1-.2-.2-.4-.2-.6-.3-.7-.7-1.3-1.3-1.8-.1-.1-.3-.2-.5-.2-.2.1-.3.2-.3.4-.1.2-.1.4 0 .6 0 .5.1.9.2 1.3l.3 1.2c0 .2.1.4.2.5.1.2.3.4.4.5.2.2.5.4.7.6.1.1.3.2.5.3.3.1.5.2.8.2 1.1.1 2.1.5 3 1.2v-.9c0-.2-.1-.5-.2-.6-.5-.2-1-.5-1.5-.6z"/><path id="XMLID_44_" class="st9" d="M469.9 451c-.9-.4-1.7-1.2-2.1-2.1-.1-.2-.2-.4-.2-.6-.3-.7-.7-1.3-1.3-1.8-.1-.1-.3-.2-.5-.2-.2.1-.3.2-.3.4-.1.2-.1.4 0 .6 0 .5.1.9.2 1.3l.3 1.2c0 .2.1.4.2.5.1.2.3.4.4.5.2.2.5.4.7.6.1.1.3.2.5.3.3.1.5.2.8.2 1.1.1 2.1.5 3 1.2v-.9c0-.2-.1-.5-.2-.6-.5-.2-1-.5-1.5-.6z"/><ellipse id="XMLID_43_" class="st23" cx="480.8" cy="440.7" rx="1.3" ry="1.3"/><path id="XMLID_42_" class="st23" d="M480 439.9c-.3-.1-.7 0-1 .1-.2.1-.3.3-.4.5-.3.5-.5 1-.7 1.6-.1.5-.1 1-.3 1.4-.3.9-.9 1.6-1 2.5 0 .4 0 .9-.3 1.2-.1.1-.2.1-.2.2-.2.1-.4.3-.5.5-.1.2-.2.4-.4.5-.3.2-.7.2-.8.5s.2.7.1 1c-.1.3-.4.4-.6.6-.2.3-.4.6-.5.9-.9.2-1.8-.1-2.5-.6.3.9.4 1.9.4 2.8 0 .3 0 .6-.2.9 1 .1 2.1.3 3.1.5.4.1.9.1 1.3 0 .2-.1.4-.3.6-.5.5-.6 1.1-1.2 1.3-1.9v-1.3c.1-.5.2-1.1.3-1.6.3-1.1.5-2.2.6-3.3.1-.7.7-1.2 1-1.8.6-1.2 1.2-2.4 1.2-3.7.1-.4-.1-1-.5-1z"/><path id="XMLID_41_" d="M480 439.9c-.3-.1-.7 0-1 .1-.2.1-.3.3-.4.5-.3.5-.5 1-.7 1.6-.1.5-.1 1-.3 1.4-.3.9-.9 1.6-1 2.5 0 .4 0 .9-.3 1.2-.1.1-.2.1-.2.2-.2.1-.4.3-.5.5-.1.2-.2.4-.4.5-.3.2-.7.2-.8.5s.2.7.1 1c-.1.3-.4.4-.6.6-.2.3-.4.6-.5.9-.9.2-1.8-.1-2.5-.6.3.9.4 1.9.4 2.8 0 .3 0 .6-.2.9 1 .1 2.1.3 3.1.5.4.1.9.1 1.3 0 .2-.1.4-.3.6-.5.5-.6 1.1-1.2 1.3-1.9v-1.3c.1-.5.2-1.1.3-1.6.3-1.1.5-2.2.6-3.3.1-.7.7-1.2 1-1.8.6-1.2 1.2-2.4 1.2-3.7.1-.4-.1-1-.5-1z" opacity=".1" fill="#dd1f26"/><path id="XMLID_40_" class="st16" d="M478.8 460.7c-1.1-.5-1.9-1.5-2.8-2.4-1.7-1.6-3.8-2.7-5.6-4.3-1.2-1-2.3-2.2-3.6-3-1.2-.7-2.5-1.2-3.8-1.3h-.5c-.2.1-.3.2-.4.3-.6.7-1.1 1.4-1.6 2.1-2.3 3.9-5.5 7.2-8.2 10.8-.1.1-.1.2-.1.3 0 .1 0 .3.1.4l.5 1.1c.3.6.8 1.3 1.5 1.2.3-.1.6-.3.8-.5l2.5-2.4 2.6-2.5c1.5-1.4 3-2.9 4-4.8.8 1.3 2.1 2.2 3.1 3.4.4.5.7 1 1 1.5.5.8 1.1 1.5 1.7 2.3l3 3.8c.4.5.8 1 1.4 1.4.7.4 1.5.6 2.4.6 1.1.1 2.2.1 3.3.1.9 0 1.7-.1 2.5-.5s1.3-1.1 1.4-2c0-.4-.2-.9-.4-1.2-1.4-1.8-2.8-3.4-4.8-4.4z"/><ellipse id="XMLID_39_" cx="481.6" cy="441.6" rx="1" ry="1" fill="#e8e8f0"/><path id="XMLID_38_" class="st24" d="M481.4 440.8c.2.4.3 1 .1 1.4-.2.5-.4.9-.6 1.3-.2.4-.5.8-.8 1.2 1.5.1 3-.5 4.4-1.3 1.1-.6 2.2-1.3 2.8-2.4-.4.1-.7 0-1-.2-.3-.2-.6-.4-.8-.7l-.8-.9c-.2-.2-.3-.4-.5-.6-.2-.3-.2-.7-.2-1-.3.3-.7.6-1 .9-.6.4-1.2.6-1.7 1-.2.1-.6.3-.5.6 0 .3.4.5.6.7z"/><path id="XMLID_37_" class="st9" d="M481.4 440.8c.2.4.3 1 .1 1.4-.2.5-.4.9-.6 1.3-.2.4-.5.8-.8 1.2 1.5.1 3-.5 4.4-1.3 1.1-.6 2.2-1.3 2.8-2.4-.4.1-.7 0-1-.2-.3-.2-.6-.4-.8-.7l-.8-.9c-.2-.2-.3-.4-.5-.6-.2-.3-.2-.7-.2-1-.3.3-.7.6-1 .9-.6.4-1.2.6-1.7 1-.2.1-.6.3-.5.6 0 .3.4.5.6.7z"/><path id="XMLID_36_" class="st16" d="M481.4 441c-.3.5-.3 1.1 0 1.5 0 .1.2.4.3.4.1 0 .1 0 .2-.1.4-.4.7-.8 1-1.2.3-.4.7-.7 1.2-.8.6 0 1.2.2 1.7.5.2.1.4.3.6.5.1.2.2.4.2.7.1 1.4.2 2.8.2 4.2 0 1 0 2-.2 3l-.3 1.5c-.1.5-.1.9-.1 1.4v1.9c0 .4 0 .7.1 1 .1.4.3.8.4 1.2.1.5.2.9.3 1.4l.3 2c.1.6.1 1.3-.2 1.8l-.6.6c-.6.8-.5 2-.7 3.1-.2.8-.6 1.4-1.3 1.9-.4.4-1 .6-1.7.6-.8-.2-1.3-1-1.5-1.8-.2-.8-.3-1.7-.8-2.3-.4-.5-1-.9-1.5-1.3-.6-.3-1-.9-1.2-1.6-.1-.3 0-.6-.1-.9-.1-.8-.6-1.4-1.3-1.7-.4-.2-.9-.2-1.2-.6.6-.4 1-.9 1.2-1.6.2-.7.3-1.4.3-2l.1-2.3c.1-1 .1-2 .5-3 .2-.4.5-.8.7-1.2.3-.6.5-1.2.7-1.8.3-.9.7-1.9 1-2.8.1-.5.3-.9.5-1.3.4-.3.8-.8 1.2-.9z"/><path id="XMLID_35_" class="st28" d="M476.3 455.9h.6l.1-.9c0-.2.1-.4.1-.5.1-.2.2-.4.4-.5.6-.8.6-2 .7-3 .3-1.4.7-2.7 1.3-3.9l1.2-2.6c.1-.2.2-.4.3-.7 0-.3.1-.5.1-.8 0-.4.1-1.9.1-2.3 0-.2-.3-.1-.4-.2-.1-.3-.3.5-.6.7-.3.2-.5.5-.5.8-.3.7-.4 1.4-.7 2-.2.7-.6 1.3-1.1 1.8-.2.2-.5.4-.8.6-.7.7-.8 1.9-.8 2.9 0 .6-.1 6.6 0 6.6z"/><path id="XMLID_34_" class="st28" d="M485.1 439.9c-.6.3-1 .8-1.1 1.5-.1.6-.3 1.2-.5 1.8-.7 1.3-2.6 1.7-3.2 3.1-.1.5-.2 1-.2 1.4-.1 1-.4 2-.5 3-.1.8 0 1.6.1 2.3l.7 7.9c.1 1.2.1 2.3-.2 3.5.7.1 1.4 0 2-.3.6-.3 1.2-.7 1.8-1 1-.6 2.2-1 3.1-1.7.2-.1.3-.3.4-.5.1-.3.2-.7.3-1 .1-.3.2-.6.3-.8l.9-2.4c.2-.5.3-1.1.4-1.7.1-.5.1-.9.2-1.4 0-.7.2-1.4.4-2.1.6-1.6.9-3.3 1-5 0-.2 0-.5-.1-.7-.1-.3-.2-.6-.4-.8-.3-.5-.5-1.1-.7-1.6-.6-1.2-1.6-2.1-2.7-2.8-.8-.5-1.4-.9-2-.7z"/><path id="XMLID_33_" class="st24" d="M471.2 452.7c-.5-.2-.9-.6-1.3-1-.2-.2-.3-.4-.5-.6-.4-.5-1-.8-1.6-.9-.6-.1-1.2-.2-1.8-.2-.4 0-.8 0-1.2.1-.4.1-.7.5-.8.9 0 .5.2 1 .6 1.3.4.3.8.5 1.2.6.4.1.7.1 1.1.1 2.2.2 4.1 1.4 6.1 2.5 1.7 1 3.4 1.8 5.2 2.7.1-.5.1-1.1.1-1.6 0-.4 0-1-.4-1.2-.5-.2-1.1-.4-1.6-.5-1.1-.4-2.2-.8-3.3-1.3-.6-.2-1.2-.5-1.8-.9z"/><ellipse id="XMLID_32_" class="st24" cx="480.8" cy="436.5" rx="3.9" ry="3.9"/><path id="XMLID_31_" class="st28" d="M486.2 444.3c-.3.4-.6.9-.8 1.4-.5 1-1.2 1.8-1.6 2.9-.4 1-.4 2.4-1.2 3.3-.2.1-.3.3-.3.5v.4c-.1.3-.6.3-.7.6v.3c-.1.2-.4.2-.5.4-.4.3-.3.9-.6 1.2-.2.3-.6.4-1 .3-.4-.1-.7-.2-1-.4-.1-.1-.2-.1-.4-.1s-.3.1-.4.1c-.7.5-1.1 1.4-1.1 2.2.1.9.3 1.7.6 2.5 0 .1.1.3.2.4.3.2.7.2 1 .1.3-.2.6-.3.9-.4.6-.1 1.2.3 1.8.3.4-.1.9-.3 1.2-.5.6-.4 1.2-.8 1.6-1.4.3-.4.5-.8.7-1.1.3-.5.6-.9 1-1.3l2.3-2.7c.2-.3.4-.5.6-.8.2-.4.4-.8.5-1.3.2-.7.4-1.5.5-2.2 0-.6 0-1.3-.2-1.9-.1-.6-.2-1.2-.5-1.8-.5-1.2-1.7-2-2.6-1z"/><path id="XMLID_30_" d="M494 439.2c0-1.4-.7-2.7-1.8-3.6 0-2.6-1.9-4.7-4.4-5.1-.6-2.7-3.2-4.5-6-4-2.1.4-3.7 2.1-4 4.2-1.6-.4-3.1.1-3.4 1.1-.3 1 .9 2.3 2.6 2.7.5.2 1.1.2 1.7.2.8 1.2 2.1 2 3.5 2.2.4 1.9 1.9 3.4 3.8 3.9.3.6.7 1.2 1.2 1.6v.4c0 1.8 1.5 3.3 3.3 3.3 1.8 0 3.3-1.5 3.3-3.3 0-.5-.1-1-.3-1.5.3-.5.5-1.3.5-2.1z" fill="#f26d70"/><path id="XMLID_23_" class="st9" d="M475.5 432.1c.3-1 1.8-1.5 3.4-1.1.4-2.5 2.5-4.3 5-4.3h.3c-.5-.1-1-.2-1.4-.2-2.5 0-4.6 1.9-5 4.3-1.6-.4-3.1.1-3.4 1.1-.3 1 .9 2.3 2.6 2.7.3.1.6.1 1 .2-1.6-.4-2.7-1.6-2.5-2.7z"/><path id="XMLID_10_" class="st9" d="M488.2 443.1v-.4c-.5-.4-.9-1-1.2-1.6-1.9-.5-3.4-2-3.8-3.9-1.4-.2-2.7-1-3.5-2.2h-1c.8 1.1 2 1.8 3.4 2 .4 1.9 1.9 3.4 3.8 3.9.3.6.7 1.2 1.2 1.6v.4c0 1.8 1.4 3.4 3.3 3.4-1.3-.5-2.2-1.7-2.2-3.2z"/><ellipse id="XMLID_7_" transform="rotate(-127.222 482.113 437.261)" class="st24" cx="482.1" cy="437.3" rx=".8" ry=".6"/></g></svg>