<?xml version="1.0" encoding="utf-8"?>
<!-- Generator: Adobe Illustrator 19.0.0, SVG Export Plug-In . SVG Version: 6.00 Build 0)  -->
<svg version="1.1" id="Layer_1" xmlns="http://www.w3.org/2000/svg" xmlns:xlink="http://www.w3.org/1999/xlink" x="0px" y="0px"
	 width="1920px" height="1280px" viewBox="560 -240 1920 1280" style="enable-background:new 560 -240 1920 1280;"
	 xml:space="preserve">
<style type="text/css">
	.st0{fill:#0D1821;}
	.st1{fill:#C12227;}
</style>
<g id="XMLID_2_">
	<path id="XMLID_3_" class="st0" d="M555.2,231c0,0,82,102.2,145.9,84.8S804.6,184.2,892.7,231s86.3,287.4,234.7,192.2
		s283-339.3,392.6-261.4s251.2,323.8,359.9,242.4c108.7-81.4,186.4-358.4,260.6-282.2s112.2,261.4,141.5,181.8s74.2-167.9,119.1-97
		c44.9,70.9,83.7,39.8,83.7,39.8v346.3H555.2V231z"/>
	<path id="XMLID_5_" class="st1" d="M555.2,292.2c0,0,82,102.2,145.9,84.8s103.6-131.6,191.6-84.8c88,46.7,86.3,287.4,234.7,192.2
		s283-339.3,392.6-261.4s251.2,323.8,359.9,242.4c108.7-81.4,186.4-358.4,260.6-282.2S2252.7,444.6,2282,365s74.2-167.9,119.1-97
		c44.9,70.9,83.7,39.8,83.7,39.8v346.3H555.2V292.2z"/>
	<path id="XMLID_6_" class="st0" d="M555.2,352.8c0,0,82,102.2,145.9,84.8S804.6,306,892.7,352.8c88,46.7,86.3,287.4,234.7,192.2
		s283-339.3,392.6-261.4s251.2,323.8,359.9,242.4c108.7-81.4,186.4-358.4,260.6-282.2s112.2,261.4,141.5,181.8s74.2-167.9,119.1-97
		c44.9,70.9,83.7,39.8,83.7,39.8v346.3H555.2V352.8z"/>
	<path id="XMLID_1_" class="st0" d="M555.2,592.8h1929.6v223.3H555.2V592.8z"/>
</g>
<path id="XMLID_4_" class="st0" d="M555.2,806.1h1929.6v245.2H555.2V806.1z"/>
</svg>
