<svg version="1.1" id="Layer_1" xmlns="http://www.w3.org/2000/svg" x="0" y="0" viewBox="0 0 1920 1280" xml:space="preserve"><style>.st0{fill:#0d1821}</style><g id="XMLID_2_"><path id="XMLID_3_" class="st0" d="M-4.8 471s82 102.2 145.9 84.8S244.6 424.2 332.7 471 419 758.4 567.4 663.2s283-339.3 392.6-261.4 251.2 323.8 359.9 242.4c108.7-81.4 186.4-358.4 260.6-282.2s112.2 261.4 141.5 181.8 74.2-167.9 119.1-97 83.7 39.8 83.7 39.8v346.3H-4.8V471z"/><path id="XMLID_5_" d="M-4.8 532.2s82 102.2 145.9 84.8 103.6-131.6 191.6-84.8c88 46.7 86.3 287.4 234.7 192.2S850.4 385.1 960 463s251.2 323.8 359.9 242.4c108.7-81.4 186.4-358.4 260.6-282.2S1692.7 684.6 1722 605s74.2-167.9 119.1-97 83.7 39.8 83.7 39.8v346.3H-4.8V532.2z" fill="#c12227"/><path id="XMLID_6_" class="st0" d="M-4.8 592.8s82 102.2 145.9 84.8S244.6 546 332.7 592.8c88 46.7 86.3 287.4 234.7 192.2s283-339.3 392.6-261.4 251.2 323.8 359.9 242.4c108.7-81.4 186.4-358.4 260.6-282.2s112.2 261.4 141.5 181.8 74.2-167.9 119.1-97 83.7 39.8 83.7 39.8v346.3H-4.8V592.8z"/><path id="XMLID_1_" class="st0" d="M-4.8 832.8h1929.6v223.3H-4.8z"/></g><path id="XMLID_4_" class="st0" d="M-4.8 1046.1h1929.6v245.2H-4.8z"/></svg>