<?xml version="1.0" encoding="utf-8"?>
<!-- Generator: Adobe Illustrator 19.0.0, SVG Export Plug-In . SVG Version: 6.00 Build 0)  -->
<svg version="1.1" id="Layer_1" xmlns="http://www.w3.org/2000/svg" xmlns:xlink="http://www.w3.org/1999/xlink" x="0px" y="0px"
	 width="800px" height="800px" viewBox="0 0 800 800" style="enable-background:new 0 0 800 800;" xml:space="preserve">
<style type="text/css">
	.st0{opacity:5.000000e-002;fill:#0D1821;enable-background:new    ;}
</style>
<path id="XMLID_2_" class="st0" d="M799.8,144.2c0-5-54.4-18.6-58.9-19.8c-33.9-8.8-68.5-17.7-103.8-17.3
	c-62.3,0.8-108.3,44-158.7,75.2c-45.6,28.2-93.8,60.5-145.3,76.7c-31.6,9.9-63.1,26.3-86,50.6c-30.4,32.2-31.7,70.8-23.9,112.7
	c9.1,48.2,19.2,98.8,40.2,143.5c19.3,41.3,52.6,84,101.4,86.4c44.6,2.1,92.3-13.6,135.4-23.7c25.1-5.8,55.1-14.8,80-3.9
	c32.1,13.9,60.6,35.2,91.9,50.8c38.4,19.2,90.3,26.7,127.9,0C799.8,675.5,799.8,144.5,799.8,144.2L799.8,144.2z"/>
<path id="XMLID_7_" class="st0" d="M799,177.5c0,0-159.1-50.2-240.9-6.5c-39.3,21-73.5,48.3-109.4,74.2
	c-14.5,10.3-29.1,19.8-45.8,26.1c-34.4,12.9-67,21.5-96.3,45c-27.4,22-42,47.4-35.6,82.9c8.3,46,19.8,93,39.5,135.5
	c14.3,30.8,37.1,68.1,74.3,72.2c55.5,6.2,110.8-11.7,164.9-21.1c18.6-3.2,32.8-2.2,48.4,8.6c12.6,8.6,25.1,17.2,38.2,25
	c31.4,18.8,68.8,35.5,106.3,32.3c66.1-5.6,56.8-42.8,56.8-42.8L799,177.5L799,177.5z"/>
</svg>
