<svg version="1.1" id="Layer_1" xmlns="http://www.w3.org/2000/svg" x="0" y="0" viewBox="0 0 800 800" xml:space="preserve"><style>.st0{opacity:5.000000e-002;fill:#0d1821;enable-background:new}</style><path id="XMLID_9_" class="st0" d="M0 194s124.7-85.4 181.4-51.8c31.4 18.7 64.4 39.2 100.7 46.8 43.1 9 87.2 4.6 129.4 19.4 61 21.6 109.6 59.4 145.3 113.7 51.8 78.8 14.1 202.6-84.3 219.1-48.3 8.1-96.5-13.2-143.8-2.4-41.9 9.4-74.4 41.2-109.2 64.3-64.3 43-143.4 58-219.5 62.6V194z"/><path id="XMLID_4_" class="st0" d="M0 217.3s116.5-75.8 169.3-45.9c23.4 13.3 47.9 27.2 73.1 37 26.5 10.2 55.7 7.9 83.3 10 53.8 4.2 115.9 26 153.6 66.2 22.6 24.2 47 49.4 58 81.2 12.4 36 3 71.4-14.6 103.8C493 524 437.2 529.7 381 524.2c-48.3-4.6-93.5-2.6-134.1 26.5-41.5 29.9-83.1 54.7-133 67C76.6 626.9 38.2 632.8 0 635V217.3z"/></svg>