<?xml version="1.0" encoding="utf-8"?>
<!-- Generator: Adobe Illustrator 19.0.0, SVG Export Plug-In . SVG Version: 6.00 Build 0)  -->
<svg version="1.1" id="Layer_1" xmlns="http://www.w3.org/2000/svg" xmlns:xlink="http://www.w3.org/1999/xlink" x="0px" y="0px"
	 width="800px" height="800px" viewBox="0 0 800 800" style="enable-background:new 0 0 800 800;" xml:space="preserve">
<style type="text/css">
	.st0{opacity:5.000000e-002;fill:#0D1821;enable-background:new    ;}
</style>
<path id="XMLID_9_" class="st0" d="M0,194c0,0,124.7-85.4,181.4-51.8c31.4,18.7,64.4,39.2,100.7,46.8c43.1,9,87.2,4.6,129.4,19.4
	c61,21.6,109.6,59.4,145.3,113.7c51.8,78.8,14.1,202.6-84.3,219.1c-48.3,8.1-96.5-13.2-143.8-2.4c-41.9,9.4-74.4,41.2-109.2,64.3
	c-64.3,43-143.4,58-219.5,62.6L0,194L0,194z"/>
<path id="XMLID_4_" class="st0" d="M0,217.3c0,0,116.5-75.8,169.3-45.9c23.4,13.3,47.9,27.2,73.1,37c26.5,10.2,55.7,7.9,83.3,10
	c53.8,4.2,115.9,26,153.6,66.2c22.6,24.2,47,49.4,58,81.2c12.4,36,3,71.4-14.6,103.8C493,524,437.2,529.7,381,524.2
	c-48.3-4.6-93.5-2.6-134.1,26.5c-41.5,29.9-83.1,54.7-133,67C76.6,626.9,38.2,632.8,0,635V217.3z"/>
</svg>
