<svg version="1.1" id="Layer_1" xmlns="http://www.w3.org/2000/svg" x="0" y="0" viewBox="0 0 800 800" xml:space="preserve"><style>.st0{opacity:5.000000e-002;fill:#0d1821;enable-background:new}</style><path id="XMLID_9_" class="st0" d="M0 165.2s142.2-97.4 206.7-59.1c35.8 21.3 73.4 44.7 114.7 53.3 49.2 10.3 99.4 5.3 147.5 22.2 69.6 24.6 124.9 67.7 165.6 129.7 59.1 89.9 16 230.9-96.1 249.8-55 9.2-110-15-163.9-2.8-47.8 10.8-84.9 46.9-124.5 73.3-73 48.9-163.3 66-250 71.2V165.2z"/><path id="XMLID_4_" class="st0" d="M0 191.8s132.8-86.3 193-52.3c26.7 15.1 54.6 31 83.3 42.2 30.1 11.6 63.5 9 95 11.4 61.3 4.8 132.2 29.7 175.1 75.5 25.8 27.5 53.5 56.3 66.1 92.6 14.2 41 3.4 81.3-16.7 118.2-34 62-97.5 68.5-161.6 62.3-55-5.3-106.6-3-152.8 30.2-47.3 34-94.7 62.3-151.6 76.3C87.4 658.6 43.6 665.4 0 667.9V191.8z"/></svg>