<?xml version="1.0" encoding="utf-8"?>
<!-- Generator: Adobe Illustrator 19.0.0, SVG Export Plug-In . SVG Version: 6.00 Build 0)  -->
<svg version="1.1" id="Layer_1" xmlns="http://www.w3.org/2000/svg" xmlns:xlink="http://www.w3.org/1999/xlink" x="0px" y="0px"
	 width="800px" height="800px" viewBox="0 0 800 800" style="enable-background:new 0 0 800 800;" xml:space="preserve">
<style type="text/css">
	.st0{opacity:0.1;fill:#0A1720;enable-background:new    ;}
	.st1{fill:#17124A;}
	.st2{fill:#302E41;}
	.st3{fill:#F9B7B8;}
	.st4{fill:#FFFFFF;}
	.st5{fill:#0E150F;}
	.st6{fill:#0A1720;}
	.st7{fill:#403E56;}
	.st8{fill:#F3F3F3;}
</style>
<g id="XMLID_1_">
	<path id="XMLID_21_" class="st0" d="M801,119.4C756.5,100,708.9,85.5,661.4,76c-36.4-7.3-72.9-10.6-110-6.7
		c-73.4,7.9-131.1,68.1-189.8,106.8c-15.4,10.2-31.8,19.2-49.5,24.5c-26.3,7.9-53.1,8.1-78.3,20.2c-60.6,29.1-127.9,97-94.6,169.1
		c16.3,35.3,46.5,64.4,77.7,86.8c51.5,37.1,113.6,51.9,174.7,64.8c38.7,8.2,80.7,13.6,117.1,29.5c28.9,12.6,54.9,31.8,77.6,53.5
		c22.5,21.5,43.2,47.1,73,58.8c26.6,10.4,55.4,9.9,83.4,12.7c11.5,1.1,51.5,12.2,58.5-1.5c3.6-7.1,0-25.9,0-33.8V528.2V201.9
		C801,195.8,806.1,121.6,801,119.4L801,119.4z"/>
	<path id="XMLID_18_" class="st0" d="M801,157.8c0-6.7-94.1-29.9-101.7-32c-28.8-8.1-57.8-15.8-87.3-20.8
		c-24.1-4.1-64.5-14.5-86.9-1.7c-42.2,24.1-72.2,62.9-112.5,89.1c-22.1,14.4-46.8,24.5-72.1,31.6c-23.7,6.6-49.1,7.2-71.1,18.3
		c-25.7,13-49.9,30.5-69,52.2c-44.1,50.1-36.2,107.3,18.8,145.3c60.1,41.5,132.6,61.1,203.1,76.3c44.9,9.7,92.8,11.9,134.5,32.9
		c46.7,23.5,62.6,75.7,112,96.8c22.4,9.5,46.5,14.3,70.7,16c13.5,1,54.9,6,61.5-6c3.6-6.5,0-25.3,0-32.6V485.9V185.1V157.8z"/>
	<path id="XMLID_58_" class="st1" d="M673.3,437.3L482,370.2L536.4,215l197.1,60.8L673.3,437.3z"/>
	<path id="XMLID_57_" class="st2" d="M478.7,436.4h229.7v0.7H478.7V436.4z"/>
	<path id="XMLID_33_" class="st2" d="M549.8,224.2c-3.4-3.1-3.9-8.3-1.1-11.9c-0.2,0.2-0.4,0.3-0.5,0.5c-3.3,3.6-3,9.2,0.6,12.5
		s9.2,3,12.5-0.6c0.2-0.2,0.3-0.4,0.5-0.6C558.4,227.3,553.2,227.3,549.8,224.2z"/>
	<circle id="XMLID_32_" class="st2" cx="548.9" cy="208.2" r="18.2"/>
	<path id="XMLID_31_" class="st2" d="M500,432c0,0-4.8,4.8,0,4.8s9.5-3.2,9.5-3.2L500,432z"/>
	<path id="XMLID_30_" class="st2" d="M570.3,429c0,0-1.3,6.7,2.7,4s6.1-7.9,6.1-7.9L570.3,429z"/>
	<path id="XMLID_29_" class="st3" d="M518.1,272.1l-3.2,7.4l-19.3,25.6c0,0-13.2,14.3-5.9,15.1c7.4,0.8,12.2-13.2,12.2-13.2
		l22.7-22.5l2.5-10.3L518.1,272.1z"/>
	<path id="XMLID_28_" class="st4" d="M527.7,242.2l-3,0.9c0,0-11.9,21-10.6,25.4c1.3,4.4,6.9,9.9,9.5,9.5
		C526,277.5,527.7,242.2,527.7,242.2z"/>
	<path id="XMLID_27_" class="st3" d="M537.4,219.5c0,0,3.2,13,0.8,15.6s-7.4,4.4-7.4,4.4l0.8,23.5c0,0,9.7-3.4,10.1-3.8
		c0.4-0.4,9-14.1,9-14.1l8.4-8c0,0-12.8-6.1-9-16.6C554,210.1,537.4,219.5,537.4,219.5L537.4,219.5z"/>
	<circle id="XMLID_26_" class="st3" cx="545.2" cy="213.4" r="10.9"/>
	<path id="XMLID_25_" class="st4" d="M532.8,238.4c0,0-7.8,2.1-8.2,5s0,9-0.6,10.3s-2.5,3.2-1.7,11.1c0.8,8,0.4,12.8,0.4,12.8
		s-42.7,150.6-27.6,155s37.4-0.4,37.2-3.4c-0.2-2.9-4-61.2-4-61.2s22.1,77.3,49.4,59.3s21.2-21.4,18.7-22.7
		c-2.5-1.3-40.6-61.2-40.3-72.3s-0.4-46-5-51.3c0,0,4.8-16,7.1-18.1s8-21.9,8-21.9s-3.6-4.8-6.5-4.8s-5.7,1.1-9,4.2
		c-3.4,3.2-15.8,18.5-15.8,18.5S530.9,241.4,532.8,238.4L532.8,238.4z"/>
	<ellipse id="XMLID_24_" class="st2" cx="545.1" cy="203.7" rx="9.2" ry="6.3"/>
	<circle id="XMLID_23_" class="st2" cx="560.8" cy="194.4" r="8.8"/>
	<path id="XMLID_8_" class="st2" d="M567.1,200.7c-4.6,0-8.4-3.5-8.8-8.1v0.7c0,4.9,3.9,8.8,8.8,8.8s8.8-3.9,8.8-8.8v-0.7
		C575.5,197.2,571.7,200.7,567.1,200.7z"/>
	<path id="XMLID_20_" class="st4" d="M448.9,274.6h43.5v43.5h-43.5V274.6z"/>
	<path id="XMLID_9_" class="st5" d="M463.8,295.7c0,0,5.5-0.8,7.3-5.8s3.4-9.2,6.5-8.4c3.1,0.8,1.3,10.7,1.3,10.7s6.5-0.8,6.8,1.6
		c0.2,2,0.1,9.5,0,12c0,1-0.3,2-0.9,2.9c-0.8,1.3-2.3,1.9-3.8,1.6c-1.5-0.2-2.9-0.3-4.4-0.2c-2.6,0-5.2-0.7-7.4-2.1l-5.5-0.3
		L463.8,295.7L463.8,295.7z"/>
	<path id="XMLID_17_" class="st6" d="M455.4,292h11.3v19.1h-11.3V292z"/>
	<path id="XMLID_16_" class="st7" d="M474.4,285c-0.4,0-0.8-0.1-1.1-0.2l0.1-0.3c2,0.6,4-0.5,4.6-2.5c0-0.1,0.1-0.2,0.1-0.4h0.3
		C477.9,283.7,476.3,285,474.4,285z"/>
	<path id="XMLID_15_" class="st6" d="M561.7,329h43.5v43.5h-43.5V329z"/>
	<path id="XMLID_14_" class="st8" d="M576.6,351.4c0,0,5.5,0.8,7.3,5.8s3.4,9.2,6.5,8.4c3.1-0.8,1.3-10.7,1.3-10.7s6.5,0.8,6.8-1.6
		c0.2-2,0.1-9.5,0-12c0-1-0.3-2-0.9-2.9c-0.8-1.3-2.3-1.9-3.8-1.6c-1.5,0.2-2.9,0.3-4.4,0.2c-2.6,0-5.2,0.7-7.4,2.1l-5.5,0.3
		L576.6,351.4L576.6,351.4z"/>
	<path id="XMLID_13_" class="st4" d="M568.2,335.9h11.3V355h-11.3V335.9z"/>
	<path id="XMLID_11_" class="st7" d="M587.1,362c-0.4,0-0.8,0.1-1.1,0.2l0.1,0.3c2-0.6,4,0.5,4.6,2.5c0,0.1,0.1,0.2,0.1,0.4h0.3
		C590.7,363.4,589,362,587.1,362L587.1,362z"/>
	<path id="XMLID_10_" class="st3" d="M566.8,270.2l-1.1,11.8l2.1,35.3c0,0,4.8,17.9-2.5,17.4s-4.6-18.7-4.6-18.7l-3.4-41
		L566.8,270.2L566.8,270.2z"/>
	<path id="XMLID_12_" class="st4" d="M560.7,238.2l5.5,2.9c0,0,7.4,25.6,3.2,30.5s-12.8,6.7-13.2,4.8c-0.4-1.9-1.9-16-1.9-16
		L560.7,238.2L560.7,238.2z"/>
</g>
</svg>
