<svg version="1.1" id="Layer_1" xmlns="http://www.w3.org/2000/svg" x="0" y="0" viewBox="0 0 800 800" xml:space="preserve"><style>.st0{opacity:.1;fill:#0a1720}.st2{fill:#302e41}.st3{fill:#f9b7b8}.st4{fill:#fff}.st6{fill:#0a1720}.st7{fill:#403e56}</style><g id="XMLID_1_"><path id="XMLID_21_" class="st0" d="M801 119.4C756.5 100 708.9 85.5 661.4 76c-36.4-7.3-72.9-10.6-110-6.7-73.4 7.9-131.1 68.1-189.8 106.8-15.4 10.2-31.8 19.2-49.5 24.5-26.3 7.9-53.1 8.1-78.3 20.2-60.6 29.1-127.9 97-94.6 169.1 16.3 35.3 46.5 64.4 77.7 86.8 51.5 37.1 113.6 51.9 174.7 64.8 38.7 8.2 80.7 13.6 117.1 29.5 28.9 12.6 54.9 31.8 77.6 53.5 22.5 21.5 43.2 47.1 73 58.8 26.6 10.4 55.4 9.9 83.4 12.7 11.5 1.1 51.5 12.2 58.5-1.5 3.6-7.1 0-25.9 0-33.8V528.2 201.9c-.2-6.1 4.9-80.3-.2-82.5z"/><path id="XMLID_18_" class="st0" d="M801 157.8c0-6.7-94.1-29.9-101.7-32-28.8-8.1-57.8-15.8-87.3-20.8-24.1-4.1-64.5-14.5-86.9-1.7-42.2 24.1-72.2 62.9-112.5 89.1-22.1 14.4-46.8 24.5-72.1 31.6-23.7 6.6-49.1 7.2-71.1 18.3-25.7 13-49.9 30.5-69 52.2-44.1 50.1-36.2 107.3 18.8 145.3 60.1 41.5 132.6 61.1 203.1 76.3 44.9 9.7 92.8 11.9 134.5 32.9 46.7 23.5 62.6 75.7 112 96.8 22.4 9.5 46.5 14.3 70.7 16 13.5 1 54.9 6 61.5-6 3.6-6.5 0-25.3 0-32.6V485.9 185.1v-27.3z"/><path id="XMLID_58_" fill="#17124a" d="M673.3 437.3L482 370.2 536.4 215l197.1 60.8z"/><path id="XMLID_57_" class="st2" d="M478.7 436.4h229.7v.7H478.7z"/><path id="XMLID_33_" class="st2" d="M549.8 224.2c-3.4-3.1-3.9-8.3-1.1-11.9-.2.2-.4.3-.5.5-3.3 3.6-3 9.2.6 12.5s9.2 3 12.5-.6c.2-.2.3-.4.5-.6-3.4 3.2-8.6 3.2-12 .1z"/><circle id="XMLID_32_" class="st2" cx="548.9" cy="208.2" r="18.2"/><path id="XMLID_31_" class="st2" d="M500 432s-4.8 4.8 0 4.8 9.5-3.2 9.5-3.2L500 432z"/><path id="XMLID_30_" class="st2" d="M570.3 429s-1.3 6.7 2.7 4 6.1-7.9 6.1-7.9l-8.8 3.9z"/><path id="XMLID_29_" class="st3" d="M518.1 272.1l-3.2 7.4-19.3 25.6s-13.2 14.3-5.9 15.1c7.4.8 12.2-13.2 12.2-13.2l22.7-22.5 2.5-10.3-9-2.1z"/><path id="XMLID_28_" class="st4" d="M527.7 242.2l-3 .9s-11.9 21-10.6 25.4c1.3 4.4 6.9 9.9 9.5 9.5 2.4-.5 4.1-35.8 4.1-35.8z"/><path id="XMLID_27_" class="st3" d="M537.4 219.5s3.2 13 .8 15.6-7.4 4.4-7.4 4.4l.8 23.5s9.7-3.4 10.1-3.8c.4-.4 9-14.1 9-14.1l8.4-8s-12.8-6.1-9-16.6c3.9-10.4-12.7-1-12.7-1z"/><circle id="XMLID_26_" class="st3" cx="545.2" cy="213.4" r="10.9"/><path id="XMLID_25_" class="st4" d="M532.8 238.4s-7.8 2.1-8.2 5 0 9-.6 10.3c-.6 1.3-2.5 3.2-1.7 11.1.8 8 .4 12.8.4 12.8s-42.7 150.6-27.6 155c15.1 4.4 37.4-.4 37.2-3.4-.2-2.9-4-61.2-4-61.2s22.1 77.3 49.4 59.3 21.2-21.4 18.7-22.7c-2.5-1.3-40.6-61.2-40.3-72.3s-.4-46-5-51.3c0 0 4.8-16 7.1-18.1s8-21.9 8-21.9-3.6-4.8-6.5-4.8-5.7 1.1-9 4.2c-3.4 3.2-15.8 18.5-15.8 18.5s-4-17.5-2.1-20.5z"/><ellipse id="XMLID_24_" class="st2" cx="545.1" cy="203.7" rx="9.2" ry="6.3"/><circle id="XMLID_23_" class="st2" cx="560.8" cy="194.4" r="8.8"/><path id="XMLID_8_" class="st2" d="M567.1 200.7c-4.6 0-8.4-3.5-8.8-8.1v.7c0 4.9 3.9 8.8 8.8 8.8s8.8-3.9 8.8-8.8v-.7c-.4 4.6-4.2 8.1-8.8 8.1z"/><path id="XMLID_20_" class="st4" d="M448.9 274.6h43.5v43.5h-43.5z"/><path id="XMLID_9_" d="M463.8 295.7s5.5-.8 7.3-5.8c1.8-5 3.4-9.2 6.5-8.4 3.1.8 1.3 10.7 1.3 10.7s6.5-.8 6.8 1.6c.2 2 .1 9.5 0 12 0 1-.3 2-.9 2.9-.8 1.3-2.3 1.9-3.8 1.6-1.5-.2-2.9-.3-4.4-.2-2.6 0-5.2-.7-7.4-2.1l-5.5-.3.1-12z" fill="#0e150f"/><path id="XMLID_17_" class="st6" d="M455.4 292h11.3v19.1h-11.3z"/><path id="XMLID_16_" class="st7" d="M474.4 285c-.4 0-.8-.1-1.1-.2l.1-.3c2 .6 4-.5 4.6-2.5 0-.1.1-.2.1-.4h.3c-.5 2.1-2.1 3.4-4 3.4z"/><path id="XMLID_15_" class="st6" d="M561.7 329h43.5v43.5h-43.5z"/><path id="XMLID_14_" d="M576.6 351.4s5.5.8 7.3 5.8c1.8 5 3.4 9.2 6.5 8.4 3.1-.8 1.3-10.7 1.3-10.7s6.5.8 6.8-1.6c.2-2 .1-9.5 0-12 0-1-.3-2-.9-2.9-.8-1.3-2.3-1.9-3.8-1.6-1.5.2-2.9.3-4.4.2-2.6 0-5.2.7-7.4 2.1l-5.5.3.1 12z" fill="#f3f3f3"/><path id="XMLID_13_" class="st4" d="M568.2 335.9h11.3V355h-11.3z"/><path id="XMLID_11_" class="st7" d="M587.1 362c-.4 0-.8.1-1.1.2l.1.3c2-.6 4 .5 4.6 2.5 0 .1.1.2.1.4h.3c-.4-2-2.1-3.4-4-3.4z"/><path id="XMLID_10_" class="st3" d="M566.8 270.2l-1.1 11.8 2.1 35.3s4.8 17.9-2.5 17.4-4.6-18.7-4.6-18.7l-3.4-41 9.5-4.8z"/><path id="XMLID_12_" class="st4" d="M560.7 238.2l5.5 2.9s7.4 25.6 3.2 30.5-12.8 6.7-13.2 4.8c-.4-1.9-1.9-16-1.9-16l6.4-22.2z"/></g></svg>