<?xml version="1.0" encoding="utf-8"?>
<!-- Generator: Adobe Illustrator 19.0.0, SVG Export Plug-In . SVG Version: 6.00 Build 0)  -->
<svg version="1.1" id="Layer_1" xmlns="http://www.w3.org/2000/svg" xmlns:xlink="http://www.w3.org/1999/xlink" x="0px" y="0px"
	 width="800px" height="800px" viewBox="0 0 800 800" style="enable-background:new 0 0 800 800;" xml:space="preserve">
<style type="text/css">
	.st0{fill:#403E56;}
	.st1{opacity:0.1;fill:#2A1F2D;enable-background:new    ;}
	.st2{fill:#2A1F2D;}
	.st3{fill:#1B214F;}
	.st4{fill:#F3F3F3;}
	.st5{fill:#F9B7B9;}
	.st6{opacity:0.1;fill:#010101;enable-background:new    ;}
	.st7{fill:#585B8A;}
	.st8{fill:#F1EB53;}
	.st9{fill:#302E41;}
	.st10{fill:#A0626B;}
</style>
<g id="XMLID_1_">
	<path id="XMLID_167_" class="st0" d="M785.4,503.3c0,33.5-172.6,93-385.4,93s-385.4-59.4-385.4-93s172.6-28.5,385.4-28.5
		S785.4,469.7,785.4,503.3z"/>
	<path id="XMLID_166_" class="st1" d="M785.4,503.3c0,33.5-172.6,93-385.4,93s-385.4-59.4-385.4-93s172.6-28.5,385.4-28.5
		S785.4,469.7,785.4,503.3z"/>
	<ellipse id="XMLID_165_" class="st2" cx="400" cy="503.3" rx="385.4" ry="60.7"/>
	<path id="XMLID_164_" class="st1" d="M466.8,439.8c0,36.5-50.9,25.2-113.3,25.2S241,476.3,241,439.8s50.9-44.5,113.3-44.5
		S466.8,403.2,466.8,439.8z"/>
	<path id="XMLID_163_" class="st2" d="M466.8,430.8c0,36.5-50.9,25.2-113.3,25.2S241,467.3,241,430.8s50.9-44.5,113.3-44.5
		S466.8,394.2,466.8,430.8z"/>
	<path id="XMLID_162_" class="st3" d="M266.2,330.2c1.4-1,2.9-1.7,4.5-2.3c10.2-3.8,20.8-6.1,31.6-6.9c9.4-0.7,19.6,0.1,26.9,6
		c1.1,0.8,2.1,1.9,2.7,3.2c0.9,2,0.6,4.3,0.3,6.5c-0.1,0.8-0.3,1.7-0.6,2.4c-1,1.9-3.4,2.5-5.5,2.3s-4.1-1.1-6.2-1.5
		c-1.3-0.2-2.6-0.4-3.9-0.4l-13.1-0.7c-8.1-0.4-16.4-0.9-24.3,0.8c-2.5,0.4-4.8,1.3-7,2.4c-1.8,1-3,2.5-4.7,0.6
		C263.9,339.4,262.3,333.3,266.2,330.2L266.2,330.2z"/>
	<path id="XMLID_161_" class="st4" d="M286.4,336c0,0,17.6-7.9,24.3,1.2s-3.6,5.5-3.6,5.5l-11.5,3.6l-12.7-2.4L286.4,336L286.4,336z
		"/>
	<path id="XMLID_160_" class="st5" d="M287.3,330.2c0,0,2.4,11.5,0.6,14.6c-1.8,3,10.3,7.3,10.3,7.3l11.5-4.9c0,0-3-18.8,0-22.4
		L287.3,330.2z"/>
	<path id="XMLID_159_" class="st6" d="M287.3,330.2c0,0,2.4,11.5,0.6,14.6c-1.8,3,10.3,7.3,10.3,7.3l11.5-4.9c0,0-3-18.8,0-22.4
		L287.3,330.2z"/>
	<path id="XMLID_158_" class="st7" d="M276,468.8c1.6,3.4,3,6.9,4,10.5c0.1,0.5,0.5,0.8,1,0.7h10.9c1.3,0,3.1-0.4,3.1-1.8
		c0-0.9-1-1.5-1.7-2.1c-2-1.7-2.5-4.5-3.3-6.9c-1.6-4.7-4.7-8.9-8.7-11.7c-0.6-0.4-1.2-0.7-1.9-0.9c-0.7-0.1-1.4-0.1-2,0.1
		c-1.9,0.4-9,1.7-7.6,4.4c0.6,1.2,2.7,2.4,3.6,3.5C274.3,465.9,275.2,467.3,276,468.8L276,468.8z"/>
	<path id="XMLID_157_" class="st7" d="M313.5,456.3c-0.4,0.8-0.8,1.6-1.3,2.3c-1.6,2.6-3.4,5-4.9,7.6c-1,1.6-1.6,3.4-1.8,5.3
		c-0.2,1.9,0.6,3.8,2.1,5c1.6,1.2,3.7,1.2,5.7,1c1.9-0.3,3.9-0.8,5.8-0.7c-0.7-3.7,2.5-7,3.3-10.7c0.2-1,0.3-2.1,0.6-3.2
		c0.3-0.9,0.7-1.8,1.2-2.7c1.6-3.1,2.7-6.3,3.3-9.7c0.1-0.4-9.6-0.5-10.5-0.3C314.2,450.9,314.6,453.9,313.5,456.3L313.5,456.3z"/>
	<path id="XMLID_156_" class="st3" d="M239,397.5c-2.8,4.3-2.1,10-0.2,14.8c1.9,4.7,5,8.9,7.1,13.6c1.3,3,2.3,6.1,3.8,9
		c1.9,3.6,4.6,6.7,5.9,10.6c0.8,2.5,1,5.1,2.3,7.4c0.8,1.2,1.7,2.3,2.7,3.3c2.8,3.2,4.9,7,6.2,11c1.2-3.5,4.7-5.9,8.4-6.6
		c3.7-0.8,7.4-0.2,11.1,0.3c-2.1-3.2-4.1-6.4-5.4-10c-1.2-3.5-1.5-7.2-2.3-10.8c-1.6-7.4-5.2-14.2-8.6-20.8l17.9-1.4
		c2.9-0.3,5.8-0.4,8.8-0.3c4.6,0.2,9.1,1.3,13.7,1.9s9.4,0.4,13.5-1.8c-7.8,11.2-11.9,24.6-11.6,38.3c6.5-5,15.8-3.8,20.8,2.6
		c0.6,0.8,1.2,1.7,1.6,2.7c7-9.6,6.2-22.9,11.7-33.3c1.1-2.2,2.5-4.2,3.8-6.3c2.3-4.2,4.3-8.6,6-13.2c1.6-4,3.1-8.4,1.6-12.4
		c-0.6-1.5-1.5-2.9-2.7-4.1c-3.2-3.5-7.7-6.1-12.4-6.2c-7.3-0.2-13.3,5.2-19.8,8.8c-7.7,4.1-16.3,5.9-24.9,5.2
		c-8.8-0.6-17.2-3.5-25.6-6c-4.2-1.3-8.5-2.4-12.8-3.3c-3.6-0.7-7,0.1-10.6,1C245.1,392.3,241.2,394,239,397.5L239,397.5z"/>
	<path id="XMLID_155_" class="st5" d="M315.2,318.7c0,10-8.1,18.2-18.2,18.2c-1.1,0-2.2-0.1-3.2-0.3c-9.9-1.8-16.5-11.3-14.7-21.1
		c1.8-9.9,11.3-16.5,21.1-14.7C308.9,302.4,315.2,309.9,315.2,318.7L315.2,318.7z"/>
	<path id="XMLID_154_" class="st8" d="M286.4,336c0,0,3.3,1.5,4.5,2.7s4.9,7.9,10.9,3.6c6.1-4.2,6.7-6.7,8.5-6.7s4.2,3.6,4.2,3.6
		l16.7,50c-4.5,5.1-9.7,9.5-15.5,13c-9.7,6.1-21.2,9.1-26.7,6.7s-15.8-4.2-17.6-9.1s-4.9-19.4-4.9-19.4l8.5-37L286.4,336L286.4,336z
		"/>
	<path id="XMLID_153_" class="st3" d="M284.1,386.6c1.3-2.9,1.5-6.1,1.6-9.2c0.2-3.1,0.1-6.2-0.2-9.3c-0.5-4.1-1.9-8-2.7-12
		c-0.7-3.5-1.1-7.1-1.1-10.7c0-1.6,0.1-3.4,1-4.7c0.6-1,1.6-1.7,2-2.8c0.8-2.1-1.1-4.3-3.2-5.2c-2.5-0.9-5.3-1.1-7.9-0.3
		c-2.6,0.7-5,1.8-7.4,3c-1.8,0.8-3.4,1.8-4.8,3.1c-1.9,1.9-2.7,4.7-3.4,7.3c-0.5,2.1-1,4.3-0.6,6.4c0.7,3.5,3.5,6.1,5,9.2
		c1.7,3.7,1.6,8,0.9,12s-1.9,8-2.3,12s0.2,8.4,2.8,11.6c1,1.3,3.9,4.4,5.8,4c1.5-0.3,3.7-3.6,4.9-4.6
		C278,393.6,282.1,390.9,284.1,386.6L284.1,386.6z"/>
	<path id="XMLID_152_" class="st3" d="M315.9,334c0.1,3.4-1.4,6.6-3.2,9.5c-1.8,2.9-3.8,5.6-5.1,8.8c-1.6,3.9-1.9,8.2-0.9,12.3
		c0.4,1.4,0.8,2.8,1.3,4.1l3.3,9.1c0.4,1.4,1.1,2.8,1.9,4c0.8,1,1.6,1.8,2.6,2.5c2.5,2,5.4,3.6,8.5,4.5s6.5,0.7,9.5-0.5
		c0.3-12.4,2.3-24.6,5.9-36.4c0.7-2.2,1.4-4.5,0.9-6.7c-0.6-2.5-2.6-4.4-4.5-6.1c-5.8-5.2-12.2-10.7-20-11.4
		C311.7,327.3,315.8,331.6,315.9,334L315.9,334z"/>
	<path id="XMLID_151_" class="st5" d="M276.1,404.5c0.5,0.9,0.7,1.9,1.2,2.8c0.7,1.2,1.5,2.3,2.5,3.3c4.1,4.5,9,9,15.1,9.2
		c0.6,0.1,1.2,0,1.8-0.2c1-0.5,1.7-1.5,1.9-2.7c0.4-2.3-0.6-4.7-1.6-6.8c-2.3-4.7-4.8-9.4-9-12.4c-4.3-2.9-9.6-3.7-14.6-2.2
		c-2.2,0.7-5.8,1.9-2.9,3.9C272.6,400.9,274.8,402,276.1,404.5L276.1,404.5z"/>
	<path id="XMLID_150_" class="st5" d="M302.2,345.2c-0.6-1.7-1.6-3.3-2.8-4.6c-1.3-1.1-2.7-1.8-4.3-2.2c-2.1-0.6-4.2-0.9-6.4-0.9
		c-2.6,0-5.5,0.7-6.6,3c-0.9,1.8-0.2,4,0.7,5.9c0.4,1,1,1.8,1.8,2.4c1.1,0.7,2.5,0.7,3.9,1c2,0.5,4,1.4,5.7,2.6l4.5,2.7l7.7,4.7
		c-0.2-0.1-0.1-5.4-0.4-6.3C305.1,350.7,303.4,347.9,302.2,345.2L302.2,345.2z"/>
	<path id="XMLID_149_" class="st9" d="M279.7,477.9c-1.8,2.5-1.4,6-3,8.6c-1.4,2.3-4,3.4-5.7,5.4c-0.6,0.7-1,1.4-1.5,2.1
		c-1.6,2.7-2.9,6.2-1.3,8.9c1.3,2.2,4,3,6.4,3.6c3.1,0.7,6.3,1.3,9.5,0.8c3.1-0.6,6.2-2.5,7.3-5.5c0.2-0.8,0.5-1.5,0.8-2.2
		c1.7-3.4,7.1-3.4,8.8-6.7c1.2-2.3,0.1-5.2-1-7.5l-3.4-7.3c-1.1-2.4-5.7-1-8.2-1.6C285.2,475.7,282,474.9,279.7,477.9L279.7,477.9z"
		/>
	<path id="XMLID_148_" class="st9" d="M306.2,471.7c-1.4,1.1-2.5,2.6-3.1,4.2c-1.7,3.9-2.3,8.2-2.8,12.4c-0.3,1.7-0.4,3.4-0.1,5.1
		c0.7,3.5,3.9,6,7.2,7c3.4,1.1,7,0.9,10.5,0.7c1.1,0,2.3-0.2,3.3-0.7c1.8-1,2.5-3.3,2.2-5.3s-1.4-3.8-2.5-5.5s-2.2-3.5-2.5-5.5
		c-0.5-3.4,0.9-8.3-1.1-11.3C315.2,469.9,309,469.7,306.2,471.7L306.2,471.7z"/>
	<path id="XMLID_147_" class="st9" d="M314.8,309.2c-0.3-1.1-1-2-2-2.6c0-1.2-0.1-2.3-0.4-3.5c-1.1-3.3-3.7-3.1-6.2-4.5
		c-1.1-0.6-1-1.2-1.6-2.2c-0.7-1.3-1.8-2.5-3.2-3.2c-1.6-1-3.2-2-5.1-2.2c-3.9-0.3-6.9,3.4-10.7,4.6c-1.7,0.5-3.4,0.5-5.1,1
		s-3.3,1.7-3.6,3.4c-0.1,0.8,0.1,1.6,0,2.4c-0.2,1.6-1.6,2.7-2.5,4c-2,2.9-1.8,6.9-0.2,10c0.3,0.6,0.7,1.3,1.2,1.8
		c0.1,1.5,0.6,2.9,1.2,4.2c1.6,3.1,4.5,5.4,7.4,7.4c-0.2-1-0.4-2.1-0.4-3.1c0-0.4,0-0.7,0.1-1c0.3-0.7,1.2-0.9,1.9-1.2
		c1.4-0.8,1.9-2.5,1.9-4.1s-0.3-3.1-0.1-4.7c0-0.7,0.3-1.4,0.9-1.9c0.5-0.3,1.1-0.4,1.7-0.4c2.8-0.1,5.7-0.2,8.2-1.5
		c0.8-0.5,1.7-1,2.6-1.3c2.1-0.5,4.2,0.9,5.5,2.7c1.2,1.8,1.8,3.9,2.9,5.8s3,3.5,5.2,3.3c0.2,0,0.5-0.1,0.6-0.3
		c0.1-0.2,0.1-0.4,0.1-0.5l0.1-8.3C315.3,312,315.2,310.6,314.8,309.2L314.8,309.2z"/>
	<path id="XMLID_146_" class="st3" d="M257.2,352.4c-1.7,2.6-3.7,5-4.7,8c-0.6,1.7-0.7,3.6-1.1,5.3c-1.4,5.9-5.3,11.1-5.7,17.2
		c-0.1,1.3,0.1,2.7,0.6,3.9c1.1,2.4,3.8,3.7,6.4,4.5c2.6,0.8,5.3,1.4,7.3,3.1c1,1,2,2.1,2.8,3.2c3.3,4.1,7.8,7.2,12.9,8.8
		c-0.4-2.8-0.6-6.1,1.6-7.8c1.2-0.9,2.8-1.1,4.3-1.2l7.1-0.6c-4.7-4.6-10-8.7-15.6-12.1c-2-1.2-4.1-2.5-5-4.6
		c-0.5-1.4-0.7-2.8-0.6-4.3c0-5.3-0.5-10.6-1.3-15.8c-0.6-3.6-1.4-7.2-2.2-10.8c-0.2-1-1.7-5.5-3.5-4.4c-0.4,0.2-0.8,3.1-1.1,3.7
		C258.8,349.9,258,351.2,257.2,352.4L257.2,352.4z"/>
	<path id="XMLID_145_" class="st3" d="M339.1,342.7l2.9,6c1.4,2.5,2,5.3,1.8,8.2L344,375c0.1,2.4-0.1,4.8-0.6,7.2
		c-0.2,0.8-0.5,1.5-1,2.2c-0.5,0.6-1.1,1-1.7,1.4c-5.5,3.4-12.6,5.4-18.4,2.5c-1.3-0.7-2.6-1.5-3.8-2.5c-2.3-1.7-4.7-3.5-6.4-5.8
		c-1.8-2.4-2.8-5.3-4.1-8c-2.2-4.9-5-9.6-8.4-13.8c-0.6-0.6-0.9-1.3-1-2.1c0-1.6,1.8-2.4,3.3-3c2.5-1,4.9-3,5.3-5.7
		c5.3,7,11.2,14.4,19.6,16.9c0.4,0.3,0.9,0.1,1.2-0.3c0.1-0.1,0.1-0.3,0.1-0.5c0.5-2,0.6-4.1,1-6.1c0.6-3.7,1.9-7.2,3.7-10.5
		C333.8,345.2,337,338.4,339.1,342.7L339.1,342.7z"/>
	<path id="XMLID_144_" class="st6" d="M267,360.2c0.1,4.3-0.8,8.5-2.7,12.4c-0.5,0.9-0.8,1.8-1,2.7c-0.3,2,0.8,4,2.2,5.6
		c2.6,3.1,6,5.5,9.8,6.8"/>
	<path id="XMLID_143_" class="st6" d="M330.1,356.6c-0.4,1.1,0,2.4,0.3,3.6c1,3.4,1.4,7,1.3,10.5c0,0.2-0.1,0.4-0.3,0.5h-0.2
		c-1.4,0.1-3,0.1-4-0.9"/>
	<ellipse id="XMLID_142_" class="st6" cx="568" cy="507.8" rx="94.5" ry="20.2"/>
	<path id="XMLID_141_" class="st10" d="M615.2,327l-6.7,6.8l6.7,6.7L622,327H615.2z"/>
	<path id="XMLID_140_" class="st8" d="M616.7,268.5c1.9,0.8,2.8,2.9,3.5,4.8l8.8,23.5l1.7,4.6c0.8,2.2,1.7,4.5,2.4,6.8
		c0.4,1.4,0.8,2.9,1.2,4.4c0.4,1.3,0.5,2.6,0.4,3.9c-0.2,1.4-0.8,2.8-1.5,4.1c-3,5.3-7.4,9.8-12.6,12.9c-0.6-4-3.2-7.3-6.8-9
		l4.5-2.5c1-0.4,1.8-1.1,2.5-1.9c0.9-1.2,1.2-2.8,1-4.2c-0.3-1.5-0.7-2.9-1.3-4.3c-1.5-3.8-2.8-7.7-3.9-11.6
		c-0.7-2.3-1.3-4.7-2.6-6.7c-1.2-1.8-2.9-3.3-4-5.2c-1.6-2.9-1.6-6.5-0.9-9.8c0.6-2.8,1.6-5.4,2.5-8.1
		C612.2,268.2,614.7,267.7,616.7,268.5L616.7,268.5z"/>
	<path id="XMLID_139_" class="st9" d="M575,205.7c-3.5,1.2-6.6,3.9-7.3,7.5c-0.3,1.7-0.1,3.4-0.4,5.1c-0.6,3.9-3.7,6.9-6.5,9.6
		c-2.8,2.8-5.7,6-5.9,9.9c-0.2,4.3,2.9,8.4,2.4,12.7c-0.6,5-5.9,8.2-7.2,13.1c-0.9,3.2,0.2,6.7,1.9,9.6c3.3,5.5,9,9.2,15.1,11.1
		c6.1,2,12.6,2.4,18.9,2.5c7.8,0.1,16.2-0.6,22.1-5.7c3.3-3,5.4-7.1,5.9-11.5c0.6-6-1.9-12.1-0.2-17.8c1.1-3.6,3.8-6.9,3.4-10.6
		c-0.4-3.7-3.6-6.2-5.8-9.2c-2-2.8-3.3-6-4.5-9.2l-4.2-11c-0.8-2.2-1.7-4.4-3.5-5.8c-3.4-2.7-8.9-2.1-12.9-1.6
		C582.5,204.7,578.5,204.5,575,205.7z"/>
	<path id="XMLID_138_" class="st10" d="M578.2,241.9c0,0,0.4,12.2-0.8,13.4c-1.2,1.2,4.9,9.4,4.9,9.4l11-0.4l5.7-4.5l-4.9-6.5
		c0,0-2-10.6-0.4-13C595.3,237.8,578.2,241.9,578.2,241.9z"/>
	<path id="XMLID_137_" class="st6" d="M578.2,241.9c0,0,0.4,12.2-0.8,13.4c-1.2,1.2,4.9,9.4,4.9,9.4l11-0.4l5.7-4.5l-4.9-6.5
		c0,0-2-10.6-0.4-13C595.3,237.8,578.2,241.9,578.2,241.9z"/>
	<path id="XMLID_136_" class="st10" d="M552.7,336.2l7,15.5l5.3-6.5l-10.6-13.9L552.7,336.2z"/>
	<path id="XMLID_135_" class="st10" d="M534.2,491.3l-2.9,15.9l-4.8,6.9l2.8,1.6l4.9-0.8l5.7-2l2.4-9.4l4.5-12.2L534.2,491.3z"/>
	<path id="XMLID_134_" class="st10" d="M586.4,481.5l-1.7,22.8l4.1,3.3l6.5-5.7v-16.8L586.4,481.5z"/>
	<circle id="XMLID_133_" class="st10" cx="584.9" cy="231.9" r="14.7"/>
	<path id="XMLID_132_" class="st8" d="M596.3,251.6c-0.9-0.4-1.9-0.4-2.8-0.1c-0.9,0.4-1.8,0.8-2.6,1.3c-2.1,1.1-4.6,1.6-7,1.3
		c-0.3,0-0.6-0.1-0.8-0.2c-0.3-0.2-0.5-0.4-0.7-0.6c-1.8-1.5-4.4-1.2-6,0.5c-0.4,0.5-0.7,1.2-1.2,1.7c-1.2,1.3-3.2,1.4-5,1.4
		c-3.7-0.1-7.4,0.2-11,1s-7,2.6-9.7,5.1c-0.7,0.7-1.3,1.5-1.7,2.4c-0.5,1.3-0.4,2.7-0.9,4c-0.5,1.4-1.6,2.6-2,4.1
		c-0.3,1.1-0.3,2.3-0.8,3.3c2.4,2.1,4.4,4.8,6.8,6.9c1.6,1.4,3.2,2.8,3.8,4.8c0.3,1.2,0.4,2.5,0.4,3.8c0.3,6,3.6,11.5,7.2,16.3
		c1,1.4,2.2,2.7,3.6,3.8c1.8,1.3,3.9,2.1,6.2,2.5c4.2,0.9,8.4,0.8,12.7,0.8c4.4,0,8.9-0.1,13-1.5c2.1-0.6,4-1.8,5.5-3.4
		c1.7-2.1,2.4-5.2,4.7-6.5c0.6-0.3,1.1-0.6,1.6-1c0.5-0.5,0.8-1.1,1-1.8c0.8-2.6,1.3-5.2,1.3-7.9c-0.1-1.6,0-3.2,0.3-4.8
		c0.4-1.4,1-2.7,1.8-4l4.9-8.8c0.4-0.7,0.3-1.8,0.3-2.6c0-1.2-0.4-2.3-1-3.3c-3.1-5.6-8.1-9.9-14-12.3c-0.5-0.2-0.9-0.4-1.3-0.6
		c-0.5-0.4-0.9-0.9-1.2-1.4C600.2,253.7,598.6,251.5,596.3,251.6L596.3,251.6z"/>
	<path id="XMLID_131_" class="st8" d="M535.8,299.6c-1,2.3-1.7,4.8-2.1,7.2c-0.5,3.4,0.1,6.9,1.6,10c2.6,5.4,7.8,9,11.4,13.8
		c3.4,4.4,5.4,9.7,8.3,14.4c-0.5-1.2,0.1-2.6,0.9-3.6s1.9-1.8,2.5-3c0.4-0.9,0.7-1.9,0.8-2.8c0.4-2.9,0.7-6.1-0.8-8.7
		c-1.1-1.9-3.1-3.2-4.6-4.8c-3.1-3.3-4.5-8-3.6-12.4c0.3-1.5,0.8-3,1.2-4.5c0.5-2,0.9-4.1,1.1-6.1l1.8-12.6c0.5-3.4,0.9-7.1-1-9.9
		c-0.4-0.6-0.9-1.1-1.5-1.4c-0.5-0.2-1-0.4-1.6-0.4c-2-0.3-4.7-1.2-5.7,0.9c-1.2,2.6-2,5.4-3,8.1L535.8,299.6L535.8,299.6z"/>
	<path id="XMLID_130_" class="st3" d="M605.7,306.5c0,0-24.2,4.7-29.9,4.7h-10.2c0,0-3.7,6.5-3.7,13s-24,97.8-24,97.8
		s-22.8,75,2.4,75.4c25.3,0.4,41.2,1.6,41.6-6.9c0.4-8.6,2.9-119,2.9-119l3.8,56.8c1,14.1-0.1,28.2-3.2,41.9
		c-1.8,7.7-1.5,16.1,7.6,17.8c17.5,3.3,39.5,0.4,39.5-5.7S621,340.5,621,340.5s-5.7-20-9-21.6C608.8,317.3,605.7,306.5,605.7,306.5z
		"/>
	<path id="XMLID_129_" class="st9" d="M529.7,513.3l9-3.3l6.1-15.5l6.5-0.8c0,0-3.7,7.7-5.7,9c-2,1.2-5.3,11.4-5.3,11.4
		s1.6,4.1-6.1,5.7c-7.7,1.6-13.4,2.9-13.4,2.9s-0.8-1.6,2.9-5.7s7.9-10.9,7.9-10.9L529.7,513.3L529.7,513.3z"/>
	<path id="XMLID_128_" class="st9" d="M584.7,494.5l-1.6,12.2c0,0,4.5,6.5,5.7,6.5s7.7-5.7,7.7-5.7s-0.4-6.1,0-7.7s1.2-9.4,0-9.8
		s-1.2,9.1-1.2,9.1l-5.3,5.6l-5.1-3.1L584.7,494.5L584.7,494.5z"/>
	<ellipse id="XMLID_124_" class="st9" cx="586.2" cy="223.3" rx="15.9" ry="8.6"/>
</g>
</svg>
