<svg version="1.1" id="Layer_1" xmlns="http://www.w3.org/2000/svg" x="0" y="0" viewBox="0 0 800 800" xml:space="preserve"><style>.st0{fill:#403e56}.st1{fill:#1b160c}.st2{fill:#302e41}.st3{fill:#a0626b}.st4{fill:#85c880}</style><g id="XMLID_1_"><path id="XMLID_70_" class="st0" d="M22.1 587.4h755.7v1.9H22.1z"/><path id="XMLID_69_" class="st1" d="M141.5 389.9s-5.9 70.8-7.1 85.9c-.9 9.5-3 18.9-6.3 27.8 0 0-2.5 5.1-2.5 10.1v64.4s-5.1 0-3.8 5.1c1.3 5.1 2.5 13.9 2.5 13.9h19s-1.3-3.8 2.5-5.1c3.8-1.3 0-11.4 0-11.4l20.2-75.8 30.3-63.2s17.7 56.9 21.5 63.2c0 0 13.9 70.8 16.4 77.1s3.8 6.3 2.5 8.8-1.3 5.1 0 6.3c1.3 1.3 25.3 0 25.3 0l-6.3-89.7L244.3 400l-58.1-17.7-44.7 7.6z"/><path id="XMLID_68_" class="st2" d="M138.2 587s-6.3-22.7-16.4-5.1-10.1 24-10.1 24-16.4 24 6.3 21.5 17.7-13.9 17.7-13.9 8.8-5.1 8.8-8.8-6.3-17.7-6.3-17.7z"/><path id="XMLID_67_" class="st2" d="M240.5 584.5s6.3-22.7 16.4-5.1c10.1 17.7 10.1 24 10.1 24s16.4 24-6.3 21.5-17.6-13.9-17.6-13.9-8.8-5.1-8.8-8.8c-.1-3.8 6.2-17.7 6.2-17.7z"/><path id="XMLID_66_" class="st3" d="M181.1 219.3s2.5 16.4-5.1 20.2c-7.6 3.8 16.4 17.7 22.7 17.7s17.7-12.6 17.7-12.6-6.3-19-5.1-22.7l-30.2-2.6z"/><circle id="XMLID_65_" class="st3" cx="195" cy="205.4" r="26.5"/><path id="XMLID_64_" class="st4" d="M246.8 259.7l-31.6-19.1s-18 20.4-37.4-2.3l-33.3 8.8 5.1 85.9s-7.6 34.1-5.1 40.4-6.3 8.8-3.8 10.1c2.5 1.3 0 10.1 0 10.1S190 419 244.3 400l-5.1-16.4c1.4-4.4.4-9.1-2.5-12.6 0 0 5.1-7.6-1.3-13.9 0 0 2.5-11.4-3.8-16.4l-1.3-17.7 3.8-8.8 12.7-54.5z"/><path id="XMLID_63_" class="st2" d="M181.5 193.1s-3.2 6.8 9.5 4.1c0 0 4.7 2.7 4.7-1.4 0 0 6.3 6.8 7.9 2.7s4.7 1.4 4.7 1.4l3.2-6.8 3.2 4.1h11.1s3.2-27.4-34.8-24.6c-38 2.7-19.3 46.1-19.3 46.1s.3-7.8 3.5-3.7c3.1 4.1 6.3-21.9 6.3-21.9z"/><path id="XMLID_62_" class="st3" d="M258.2 310.3l1.3 26.5s5.1 49.3-5.1 70.8V419s-2.5 29.1-15.2 27.8c-12.6-1.3 3.8-41.7 3.8-41.7l-2.5-55.6-2.5-31.6 20.2-7.6z"/><path id="XMLID_61_" d="M232.9 261l12.6-2c9.1 8.7 15.3 20 17.7 32.4 3.8 20.2 5.1 24 5.1 24L238 323l-16.4-31.6 11.3-30.4z" fill="#d0cce0"/><path id="XMLID_60_" fill="#fff" d="M178.7 246.6h199.4v99.1H178.7z"/><path id="XMLID_59_" class="st1" d="M200.4 252.5c-5.1-3.1-11.3-2.8-13.6-2.6.9 2.2 3.6 7.8 8.7 10.8 5.1 3.1 11.3 2.8 13.6 2.6-.8-2.1-3.5-7.7-8.7-10.8z"/><path id="XMLID_58_" class="st1" d="M224.5 313.7h-32c-4 0-7.2 3.2-7.2 7.2s3.2 7.2 7.2 7.2h32c4 0 7.2-3.2 7.2-7.2s-3.2-7.2-7.2-7.2z"/><path id="XMLID_53_" class="st1" d="M369.5 237.6H190c-8.8 0-15.9 7.1-15.9 15.9V341c0 8.8 7.1 15.9 15.9 15.9h179.5c8.8 0 15.9-7.1 15.9-15.9v-87.5c0-8.7-7.1-15.9-15.9-15.9zm-183.9 10.9c.4-.1 8.8-1.5 15.7 2.7 7 4.2 9.6 12.3 9.7 12.6l.3.9-.9.2c-1.3.2-2.6.3-3.9.3-4.1.1-8.2-1-11.8-3-7-4.2-9.6-12.3-9.7-12.6l-.3-.9.9-.2zm38.9 81.2h-32c-4.9 0-8.8-3.9-8.8-8.8s3.9-8.8 8.8-8.8h32c4.9 0 8.8 3.9 8.8 8.8 0 4.8-3.9 8.8-8.8 8.8zm145.7-1.6c0 5.3-4.3 9.6-9.6 9.6h-24c-5.3 0-9.6-4.3-9.6-9.6v-14.4c0-5.3 4.3-9.6 9.6-9.6h24c5.3 0 9.6 4.3 9.6 9.6v14.4z"/><path id="XMLID_50_" class="st1" d="M344.2 325.3h-10.4c-1.5 0-2.8 1.3-2.8 2.8 0 1.5 1.3 2.8 2.8 2.8h10.4c1.5 0 2.8-1.3 2.8-2.8 0-1.6-1.3-2.8-2.8-2.8zm0 4h-10.4c-.7 0-1.2-.5-1.2-1.2s.5-1.2 1.2-1.2h10.4c.7 0 1.2.5 1.2 1.2s-.5 1.2-1.2 1.2z"/><path id="XMLID_47_" class="st1" d="M363.4 325.3H353c-1.5 0-2.8 1.3-2.8 2.8 0 1.5 1.3 2.8 2.8 2.8h10.4c1.5 0 2.8-1.3 2.8-2.8 0-1.6-1.3-2.8-2.8-2.8zm0 4H353c-.7 0-1.2-.5-1.2-1.2s.5-1.2 1.2-1.2h10.4c.7 0 1.2.5 1.2 1.2s-.5 1.2-1.2 1.2z"/><path id="XMLID_44_" class="st1" d="M344.2 318.1h-10.4c-1.5 0-2.8 1.3-2.8 2.8 0 1.5 1.3 2.8 2.8 2.8h10.4c1.5 0 2.8-1.3 2.8-2.8 0-1.6-1.3-2.8-2.8-2.8zm0 4h-10.4c-.7 0-1.2-.5-1.2-1.2s.5-1.2 1.2-1.2h10.4c.7 0 1.2.5 1.2 1.2 0 .6-.5 1.2-1.2 1.2z"/><path id="XMLID_41_" class="st1" d="M363.4 318.1H353c-1.5 0-2.8 1.3-2.8 2.8 0 1.5 1.3 2.8 2.8 2.8h10.4c1.5 0 2.8-1.3 2.8-2.8 0-1.6-1.3-2.8-2.8-2.8zm0 4H353c-.7 0-1.2-.5-1.2-1.2s.5-1.2 1.2-1.2h10.4c.7 0 1.2.5 1.2 1.2 0 .6-.5 1.2-1.2 1.2z"/><path id="XMLID_38_" class="st1" d="M344.2 310.9h-10.4c-1.5 0-2.8 1.3-2.8 2.8 0 1.5 1.3 2.8 2.8 2.8h10.4c1.5 0 2.8-1.3 2.8-2.8 0-1.6-1.3-2.8-2.8-2.8zm0 4h-10.4c-.7 0-1.2-.5-1.2-1.2s.5-1.2 1.2-1.2h10.4c.7 0 1.2.5 1.2 1.2 0 .6-.5 1.2-1.2 1.2z"/><path id="XMLID_35_" class="st1" d="M363.4 310.9H353c-1.5 0-2.8 1.3-2.8 2.8 0 1.5 1.3 2.8 2.8 2.8h10.4c1.5 0 2.8-1.3 2.8-2.8 0-1.6-1.3-2.8-2.8-2.8zm0 4H353c-.7 0-1.2-.5-1.2-1.2s.5-1.2 1.2-1.2h10.4c.7 0 1.2.5 1.2 1.2 0 .6-.5 1.2-1.2 1.2z"/><path id="XMLID_34_" class="st3" d="M125.5 295.1s-11.4 48 2.5 48 46.8-54.3 46.8-54.3 34.1-17.7 20.2-24c-13.9-6.3-31.6 10.1-31.6 10.1L143 303.2l-1.1-14.4-16.4 6.3z"/><path id="XMLID_33_" class="st4" d="M152.1 254.7l-7.6-7.6s-15.2 8.8-16.4 17.7c-1.3 8.8-7.6 36.6-7.6 36.6l23.4 1.9 7.6-11.4.6-37.2z"/><path id="XMLID_32_" class="st1" d="M511.2 236.7c-1-2.8-12.9-12.4-5.6-14l6 8 27.6-27.6 2.8 2.8-30.8 30.8z"/><path id="XMLID_31_" class="st1" d="M511.2 330.5c-1-2.8-12.9-12.4-5.6-14l6 8 27.6-27.6 2.8 2.8-30.8 30.8z"/><path id="XMLID_30_" class="st1" d="M511.2 425.6c-1-2.8-12.9-12.4-5.6-14l6 8 27.6-27.6 2.8 2.8-30.8 30.8z"/><circle id="XMLID_29_" class="st0" cx="594.8" cy="225.3" r="8.5"/><path id="XMLID_27_" class="st0" d="M626.7 224.5h137v1.7h-137z"/><circle id="XMLID_15_" class="st0" cx="594.8" cy="319.1" r="8.5"/><path id="XMLID_14_" class="st0" d="M626.7 318.2h137v1.7h-137z"/><circle id="XMLID_13_" class="st0" cx="594.8" cy="414.2" r="8.5"/><path id="XMLID_12_" class="st0" d="M626.7 413.4h137v1.7h-137z"/><path id="XMLID_11_" class="st0" d="M532.7 438.3h-42.5v-43.4h28.9v1.7h-27.2v40H531V417h1.7z"/><path id="XMLID_10_" class="st0" d="M532.7 343h-42.5v-43.4h28.9v1.7h-27.2v40H531v-19.6h1.7z"/><path id="XMLID_9_" class="st0" d="M532.7 246h-42.5v-43.4h28.9v1.7h-27.2v40H531v-19.6h1.7z"/></g></svg>