<svg version="1.1" id="Layer_1" xmlns="http://www.w3.org/2000/svg" x="0" y="0" viewBox="0 0 800 800" xml:space="preserve"><style>.st0{fill:#2a1f2d}.st4{fill:#fff}.st5{opacity:.5;fill:#5d84c3}.st5,.st6,.st7{enable-background:new}.st6{opacity:.5;fill:#f16046}.st7{fill:#6ec5a4}.st7,.st8{opacity:.5}.st9{fill:#6ec5a4}.st11{fill:#f9b7b9}.st12{fill:#585b8a}.st13{fill:#1b214f}.st14{opacity:.1;fill:#010101;enable-background:new}</style><g id="XMLID_1_"><path id="XMLID_116_" class="st0" d="M401.1 153.7l-178 109.5s0 225.9 178 349.2c178-123.2 178-349.2 178-349.2l-178-109.5z"/><path id="XMLID_115_" d="M402.2 153.7l-3 1.9v454.7l3 2.1c178-123.2 178-349.2 178-349.2l-178-109.5z" opacity=".04" fill="#5b6c5d"/><g id="XMLID_113_" opacity=".7"><linearGradient id="XMLID_3_" gradientUnits="userSpaceOnUse" x1="90.046" y1="1153.566" x2="195.959" y2="1153.566" gradientTransform="matrix(1 0 0 -1 254 1544)"><stop offset="0" stop-color="#818181" stop-opacity=".25"/><stop offset=".535" stop-color="#818181" stop-opacity=".12"/><stop offset="1" stop-color="#818181" stop-opacity=".1"/></linearGradient><path id="XMLID_114_" fill="url(#XMLID_3_)" d="M358 375.7l33.6 30.8 41.6-60.1 16.8 14-58.4 74-47.6-53.1z"/></g><path id="XMLID_112_" class="st4" d="M365.9 377.5l27.3 25 38.5-56.7 13.6 11.3-52.1 68.1-38.6-43.1z"/><path id="XMLID_111_" class="st5" d="M225.5 178.3c-1.1-.5-1.7-1.8-1.4-2.9 0-.1 0-.2.1-.3 0-.7-.5-1.2-1.1-1.3-.4 0-.8.2-1 .5-.1.1-.1.2-.1.2-.5 1.1-1.8 1.7-2.9 1.4-.1 0-.2 0-.3-.1-.7 0-1.2.5-1.3 1.1 0 .4.2.8.5 1 .1.1.2.1.2.1 1.1.5 1.7 1.8 1.4 2.9 0 .1 0 .2-.1.3 0 .7.5 1.2 1.1 1.3.4 0 .8-.2 1-.5.1-.1.1-.2.1-.2.5-1.1 1.8-1.7 2.9-1.4.1 0 .2 0 .3.1.7 0 1.2-.5 1.3-1.1 0-.4-.2-.8-.5-1 0 0-.1-.1-.2-.1z"/><path id="XMLID_110_" class="st5" d="M129.1 392.8c-1.1-.5-1.7-1.8-1.4-2.9 0-.1 0-.2.1-.3 0-.7-.5-1.2-1.1-1.3-.4 0-.8.2-1 .5-.1.1-.1.2-.1.2-.5 1.1-1.8 1.7-2.9 1.4-.1 0-.2 0-.3-.1-.7 0-1.2.5-1.3 1.1 0 .4.2.8.5 1 .1.1.2.1.2.1 1.1.5 1.7 1.8 1.4 2.9 0 .1 0 .2-.1.3 0 .7.5 1.2 1.1 1.3.4 0 .8-.2 1-.5.1-.1.1-.2.1-.2.5-1.1 1.8-1.7 2.9-1.4.1 0 .2 0 .3.1.7 0 1.2-.5 1.3-1.1 0-.4-.2-.8-.5-1 0 0-.1-.1-.2-.1z"/><circle id="XMLID_109_" class="st6" cx="610.3" cy="314.3" r="4"/><circle id="XMLID_108_" class="st6" cx="196.5" cy="597.4" r="4"/><circle id="XMLID_107_" class="st6" cx="677.7" cy="466.7" r="4"/><path id="XMLID_106_" class="st5" d="M581.2 197.4c-1.1-.5-1.7-1.8-1.4-2.9 0-.1 0-.2.1-.3 0-.7-.5-1.2-1.1-1.3-.4 0-.8.2-1 .5-.1.1-.1.2-.1.2-.5 1.1-1.8 1.7-2.9 1.4-.1 0-.2 0-.3-.1-.7 0-1.2.5-1.3 1.1 0 .4.2.8.5 1 .1.1.2.1.2.1 1.1.5 1.7 1.8 1.4 2.9 0 .1 0 .2-.1.3 0 .7.5 1.2 1.1 1.3.4 0 .8-.2 1-.5.1-.1.1-.2.1-.2.5-1.1 1.8-1.7 2.9-1.4.1 0 .2 0 .3.1.7 0 1.2-.5 1.3-1.1 0-.4-.2-.8-.5-1 0 0-.1 0-.2-.1z"/><path id="XMLID_105_" class="st5" d="M647.2 611.9c-1.1-.5-1.7-1.8-1.4-2.9 0-.1 0-.2.1-.3 0-.7-.5-1.2-1.1-1.3-.4 0-.8.2-1 .5-.1.1-.1.2-.1.2-.5 1.1-1.8 1.7-2.9 1.4-.1 0-.2 0-.3-.1-.7 0-1.2.5-1.3 1.1 0 .4.2.8.5 1 .1.1.2.1.2.1 1.1.5 1.7 1.8 1.4 2.9 0 .1 0 .2-.1.3 0 .7.5 1.2 1.1 1.3.4 0 .8-.2 1-.5.1-.1.1-.2.1-.2.5-1.1 1.8-1.7 2.9-1.4.1 0 .2 0 .3.1.7 0 1.2-.5 1.3-1.1 0-.4-.2-.8-.5-1 0 0-.1-.1-.2-.1z"/><path id="XMLID_104_" class="st5" d="M124.5 267.4c-1.1-.5-1.7-1.8-1.4-2.9 0-.1 0-.2.1-.3 0-.7-.5-1.2-1.1-1.3-.4 0-.8.2-1 .5-.1.1-.1.2-.1.2-.5 1.1-1.8 1.7-2.9 1.4-.1 0-.2 0-.3-.1-.7 0-1.2.5-1.3 1.1 0 .4.2.8.5 1 .1.1.2.1.2.1 1.1.5 1.7 1.8 1.4 2.9 0 .1 0 .2-.1.3 0 .7.5 1.2 1.1 1.3.4 0 .8-.2 1-.5.1-.1.1-.2.1-.2.5-1.1 1.8-1.7 2.9-1.4.1 0 .2 0 .3.1.7 0 1.2-.5 1.3-1.1 0-.4-.2-.8-.5-1 0 0-.1-.1-.2-.1z"/><circle id="XMLID_103_" class="st7" cx="168.8" cy="334.1" r="4"/><circle id="XMLID_102_" class="st7" cx="679.6" cy="365.8" r="4"/><g id="XMLID_99_" class="st8"><path id="XMLID_101_" class="st9" d="M501.4 146.6h2v11.2h-2z"/><path id="XMLID_100_" class="st9" d="M496.8 151.3H508v2h-11.2z"/></g><g id="XMLID_96_" class="st8"><path id="XMLID_98_" class="st9" d="M508.7 586.2h2v11.2h-2z"/><path id="XMLID_97_" class="st9" d="M504.1 590.8h11.2v2h-11.2z"/></g><g id="XMLID_92_" class="st8"><path id="XMLID_95_" class="st9" d="M133.8 609.9h2v11.2h-2z"/><path id="XMLID_93_" class="st9" d="M129.2 614.6h11.2v2h-11.2z"/></g><g id="XMLID_89_" class="st8"><path id="XMLID_91_" class="st9" d="M584.6 408h2v11.2h-2z"/><path id="XMLID_90_" class="st9" d="M580 412.6h11.2v2H580z"/></g><path id="XMLID_88_" class="st7" d="M641.5 227.8l4.2 3.9 6.1-8.8 2.1 1.7-8.2 10.7-6-6.8z"/><path id="XMLID_87_" transform="rotate(177.781 513.126 314.268) scale(.99995)" fill="#6466af" d="M505.8 304.8h14.7v18.9h-14.7z"/><path id="XMLID_86_" class="st11" d="M453.9 370.6s-20.3-9.7-20-1.3c.3 8.4 20.5 13.9 20.5 13.9l-.5-12.6z"/><path id="XMLID_85_" class="st0" d="M465.1 441.5s-9.6 23.5-13.1 40.4-8.9 40.2-2 56.7 26.7 65.1 26.9 70.3c.2 5.2-1.7 10.6 2.5 10.4 4.2-.2 27-7.3 27.9-10.5.9-3.2-7.8-11.2-7.8-11.2L478 530.2l22.4-43.9 16.2 65.5 3.2 81.7s15.6-4.8 17.8-.7c0 0 7-9.7 7.9-13.9.9-4.2-3.3-84.9-3.3-84.9s14.3-91.8 2.8-91.4-56.8-27.2-79.9-1.1z"/><path id="XMLID_84_" class="st12" d="M479.1 615.2s-10.6 23.5-11.6 24.6c-1 1.1-7.9 11.9-2.7 11.6s17.6-5.9 26.7-14.7c9.1-8.7 21.1-23.9 20-24.9-1.1-1-8.5-3.9-8.5-3.9l-23.9 7.3z"/><path id="XMLID_83_" class="st12" d="M521.6 628.2s-.6 10.5-2.6 14.8c-1.9 4.3-1.7 10.6 3.5 10.4 5.2-.2 18.8-2.8 18.8-2.8s.8-6.3-.3-7.3-5.7-12.4-3.8-15.6c2.1-3.3-15.6.5-15.6.5z"/><path id="XMLID_82_" class="st11" d="M529.4 286.9s11.2 17.4 15.5 21.4c4.4 4-7.9 12.9-7.9 12.9l-21.9 2.9s.3-19.9-.9-22 15.2-15.2 15.2-15.2z"/><path id="XMLID_81_" class="st4" d="M510.3 309.7s4.5 8.2 8.7 8.1c4.2-.2 25.9-9.4 26.8-12.6.9-3.2 7.2 22.8 7.2 22.8l-53 93.3-12.9-8.9 6.3-54.8 5.1-29.6 11.8-18.3z"/><path id="XMLID_80_" class="st13" d="M547.8 393.2c-2.1 4.4-3.4 9-3.3 13.8v.6c.5 9.7 4.1 20.9 5.4 29.1.9 5.9.7 10.1-2.8 11.1-8.3 2.4 1.2 4.2-30.9 14.8s-37.7 1.5-37.8-.6c-.1-2.1 4.5-18 3.5-19s-15.2 13.2-19.5 11.2c-4.3-1.9-.5-12.6-.5-12.6s9.6-22.4 9.4-27.6c-.2-5.2 14.6-29.9 14.6-29.9l10.1-65.4s3.9-8.5 9.1-9.8c5.2-1.3 9.5 1.7 9.5 1.7l-8.7 19.2-9.2 33.9 1.5 12.5s10.7-22.4 17.7-31.1c7-8.7 22-29.2 22-29.2s3.5-11.8.9-15.3 11-4.1 16.8 10.4c3.1 7.7 8.1 19.1 11.2 29.7 2.8 9.4 4.1 18.2 1.3 23.3-4.3 7.8-14.9 17.9-20.3 29.2z"/><path id="XMLID_79_" class="st14" d="M568 364.1c-4.2 7.7-14.8 17.8-20.3 29.1-1.4-5.1-3.1-10.4-3.1-10.4s-6.6-35.4 13-44.6c3.2-.3 6.5.6 9.1 2.5 2.8 9.5 4.1 18.3 1.3 23.4z"/><path id="XMLID_78_" class="st13" d="M490.3 361.8l-16.6 4.8-23.1.9-2.4 20 37.9 2.7c.1.1 9.5-26.5 4.2-28.4z"/><path id="XMLID_77_" class="st11" d="M517.4 429.2s-22.2 3.7-17.1 10.4c5.1 6.7 24.7-.3 24.7-.3l-7.6-10.1z"/><path id="XMLID_76_" class="st14" d="M544.6 407.6c.5 9.7 4.1 20.9 5.4 29.1-7.1 6.7-13.8 12.6-16.3 12.7-5.2.2-13.7-.5-16.8.7-3.1 1.2-4.9-18.7-4.9-18.7s1.9-6.4 10.1-9.8c5.5-2.5 16.2-8.8 22.5-14z"/><path id="XMLID_75_" class="st13" d="M557.4 332s17.7-2.8 16.8 26.6c-1 29.4 1.9 48.2-5.3 53.7-7.1 5.5-30.3 30.6-35.5 30.8s-13.7-.5-16.8.7c-3.1 1.2-4.9-18.7-4.9-18.7s1.9-6.4 10.1-9.8c8.3-3.5 27.7-15.8 27.6-20-.2-4.2-4.9-18.7-4.9-18.7s-6.7-35.5 12.9-44.6z"/><circle id="XMLID_74_" class="st11" cx="513.7" cy="289.6" r="23.1"/><path id="XMLID_73_" d="M498.2 256.5c-.6.5-1.2.8-1.9 1-.7.1-1.5-.4-1.6-1.1-.5 1.1-1.1 2.3-2.2 2.8-1.1.6-2.7.1-2.9-1.1-.2.9-.6 1.8-1.2 2.5-.7.6-1.9.8-2.5.1.5 2.6.2 5.2.3 7.8.1 2.6.8 5.4 2.8 7.1 2.9 2.5 7.2 1.9 11 1.4.6-.1 1.2-.1 1.7.1 1.4.6 1.4 2.6 1.4 4.1.2 5.6 4.5 10.2 10 10.9 1.5.2 3-.1 4.3-1 1.1-.9 1.6-2.4 2.9-3.1 2-1.1 4.4.5 5.9 2.3 1.5 1.8 2.9 3.9 5.2 4.3 3 .4 5.3-2.6 6.4-5.5 3.1-8 2.9-16.9-.6-24.7-6.2-13.7-27.7-15.9-39-7.9z" fill="#302e41"/></g></svg>