<svg version="1.1" id="Layer_1" xmlns="http://www.w3.org/2000/svg" x="0" y="0" viewBox="0 0 800 800" xml:space="preserve"><style>.st0{opacity:5.000000e-002;fill:#0a1720}</style><g id="XMLID_1_"><path id="XMLID_4_" class="st0" d="M211.8 403.3c-13.5-29.3-21-59.7-12.6-92.3 15.3-58.7 68.3-102.1 132.2-95.1 122.1 13.3 343.1 116 251.1 246.6-34.9 49.5-86.6 88.1-145 107.8-39.7 13.4-101.8 26.7-136.6-5.1-13.2-12-19.3-29.5-25.9-45.9-15.7-38.6-44.9-76.3-63.2-116z"/><path id="XMLID_8_" class="st0" d="M238.4 402.8c-11.6-25.2-18.1-51.3-10.8-79.2 13.1-50.4 58.7-87.7 113.5-81.7 104.9 11.4 294.6 99.6 215.7 211.8-30 42.6-74.4 75.7-124.6 92.6-34.1 11.5-87.5 22.9-117.3-4.4-11.3-10.3-16.5-25.3-22.2-39.4-13.5-33.2-38.6-65.6-54.3-99.7z"/></g></svg>