<?xml version="1.0" encoding="utf-8"?>
<!-- Generator: Adobe Illustrator 19.0.0, SVG Export Plug-In . SVG Version: 6.00 Build 0)  -->
<svg version="1.1" id="Layer_1" xmlns="http://www.w3.org/2000/svg" xmlns:xlink="http://www.w3.org/1999/xlink" x="0px" y="0px"
	 width="800px" height="800px" viewBox="0 0 800 800" style="enable-background:new 0 0 800 800;" xml:space="preserve">
<style type="text/css">
	.st0{fill:#403E56;}
	.st1{fill:#1B160C;}
	.st2{fill:#302E41;}
	.st3{fill:#A0626B;}
	.st4{fill:#85C880;}
	.st5{fill:#D0CCE0;}
	.st6{fill:#FFFFFF;}
</style>
<g id="XMLID_1_">
	<path id="XMLID_70_" class="st0" d="M22.1,587.4h755.7v1.9H22.1V587.4z"/>
	<path id="XMLID_69_" class="st1" d="M141.5,389.9c0,0-5.9,70.8-7.1,85.9c-0.9,9.5-3,18.9-6.3,27.8c0,0-2.5,5.1-2.5,10.1v64.4
		c0,0-5.1,0-3.8,5.1c1.3,5.1,2.5,13.9,2.5,13.9h19c0,0-1.3-3.8,2.5-5.1s0-11.4,0-11.4l20.2-75.8l30.3-63.2c0,0,17.7,56.9,21.5,63.2
		c0,0,13.9,70.8,16.4,77.1s3.8,6.3,2.5,8.8s-1.3,5.1,0,6.3c1.3,1.3,25.3,0,25.3,0l-6.3-89.7L244.3,400l-58.1-17.7L141.5,389.9
		L141.5,389.9z"/>
	<path id="XMLID_68_" class="st2" d="M138.2,587c0,0-6.3-22.7-16.4-5.1s-10.1,24-10.1,24s-16.4,24,6.3,21.5s17.7-13.9,17.7-13.9
		s8.8-5.1,8.8-8.8S138.2,587,138.2,587z"/>
	<path id="XMLID_67_" class="st2" d="M240.5,584.5c0,0,6.3-22.7,16.4-5.1c10.1,17.7,10.1,24,10.1,24s16.4,24-6.3,21.5
		S243.1,611,243.1,611s-8.8-5.1-8.8-8.8C234.2,598.4,240.5,584.5,240.5,584.5z"/>
	<path id="XMLID_66_" class="st3" d="M181.1,219.3c0,0,2.5,16.4-5.1,20.2s16.4,17.7,22.7,17.7s17.7-12.6,17.7-12.6s-6.3-19-5.1-22.7
		L181.1,219.3L181.1,219.3z"/>
	<circle id="XMLID_65_" class="st3" cx="195" cy="205.4" r="26.5"/>
	<path id="XMLID_64_" class="st4" d="M246.8,259.7l-31.6-19.1c0,0-18,20.4-37.4-2.3l-33.3,8.8l5.1,85.9c0,0-7.6,34.1-5.1,40.4
		s-6.3,8.8-3.8,10.1c2.5,1.3,0,10.1,0,10.1S190,419,244.3,400l-5.1-16.4c1.4-4.4,0.4-9.1-2.5-12.6c0,0,5.1-7.6-1.3-13.9
		c0,0,2.5-11.4-3.8-16.4l-1.3-17.7l3.8-8.8L246.8,259.7L246.8,259.7z"/>
	<path id="XMLID_63_" class="st2" d="M181.5,193.1c0,0-3.2,6.8,9.5,4.1c0,0,4.7,2.7,4.7-1.4c0,0,6.3,6.8,7.9,2.7s4.7,1.4,4.7,1.4
		l3.2-6.8l3.2,4.1h11.1c0,0,3.2-27.4-34.8-24.6c-38,2.7-19.3,46.1-19.3,46.1s0.3-7.8,3.5-3.7C178.3,219.1,181.5,193.1,181.5,193.1
		L181.5,193.1z"/>
	<path id="XMLID_62_" class="st3" d="M258.2,310.3l1.3,26.5c0,0,5.1,49.3-5.1,70.8V419c0,0-2.5,29.1-15.2,27.8
		c-12.6-1.3,3.8-41.7,3.8-41.7l-2.5-55.6l-2.5-31.6L258.2,310.3L258.2,310.3z"/>
	<path id="XMLID_61_" class="st5" d="M232.9,261l12.6-2c9.1,8.7,15.3,20,17.7,32.4c3.8,20.2,5.1,24,5.1,24L238,323l-16.4-31.6
		L232.9,261L232.9,261z"/>
	<path id="XMLID_60_" class="st6" d="M178.7,246.6h199.4v99.1H178.7V246.6z"/>
	<path id="XMLID_59_" class="st1" d="M200.4,252.5c-5.1-3.1-11.3-2.8-13.6-2.6c0.9,2.2,3.6,7.8,8.7,10.8c5.1,3.1,11.3,2.8,13.6,2.6
		C208.3,261.2,205.6,255.6,200.4,252.5L200.4,252.5z"/>
	<path id="XMLID_58_" class="st1" d="M224.5,313.7h-32c-4,0-7.2,3.2-7.2,7.2s3.2,7.2,7.2,7.2h32c4,0,7.2-3.2,7.2-7.2
		S228.5,313.7,224.5,313.7z"/>
	<path id="XMLID_53_" class="st1" d="M369.5,237.6H190c-8.8,0-15.9,7.1-15.9,15.9V341c0,8.8,7.1,15.9,15.9,15.9h179.5
		c8.8,0,15.9-7.1,15.9-15.9v-87.5C385.4,244.8,378.3,237.6,369.5,237.6z M185.6,248.5c0.4-0.1,8.8-1.5,15.7,2.7
		c7,4.2,9.6,12.3,9.7,12.6l0.3,0.9l-0.9,0.2c-1.3,0.2-2.6,0.3-3.9,0.3c-4.1,0.1-8.2-1-11.8-3c-7-4.2-9.6-12.3-9.7-12.6l-0.3-0.9
		L185.6,248.5L185.6,248.5z M224.5,329.7h-32c-4.9,0-8.8-3.9-8.8-8.8s3.9-8.8,8.8-8.8h32c4.9,0,8.8,3.9,8.8,8.8
		C233.3,325.7,229.4,329.7,224.5,329.7z M370.2,328.1c0,5.3-4.3,9.6-9.6,9.6h-24c-5.3,0-9.6-4.3-9.6-9.6v-14.4
		c0-5.3,4.3-9.6,9.6-9.6h24c5.3,0,9.6,4.3,9.6,9.6V328.1z"/>
	<path id="XMLID_50_" class="st1" d="M344.2,325.3h-10.4c-1.5,0-2.8,1.3-2.8,2.8s1.3,2.8,2.8,2.8h10.4c1.5,0,2.8-1.3,2.8-2.8
		C347,326.5,345.7,325.3,344.2,325.3z M344.2,329.3h-10.4c-0.7,0-1.2-0.5-1.2-1.2s0.5-1.2,1.2-1.2h10.4c0.7,0,1.2,0.5,1.2,1.2
		S344.9,329.3,344.2,329.3z"/>
	<path id="XMLID_47_" class="st1" d="M363.4,325.3H353c-1.5,0-2.8,1.3-2.8,2.8s1.3,2.8,2.8,2.8h10.4c1.5,0,2.8-1.3,2.8-2.8
		C366.2,326.5,364.9,325.3,363.4,325.3z M363.4,329.3H353c-0.7,0-1.2-0.5-1.2-1.2s0.5-1.2,1.2-1.2h10.4c0.7,0,1.2,0.5,1.2,1.2
		S364.1,329.3,363.4,329.3z"/>
	<path id="XMLID_44_" class="st1" d="M344.2,318.1h-10.4c-1.5,0-2.8,1.3-2.8,2.8s1.3,2.8,2.8,2.8h10.4c1.5,0,2.8-1.3,2.8-2.8
		C347,319.3,345.7,318.1,344.2,318.1z M344.2,322.1h-10.4c-0.7,0-1.2-0.5-1.2-1.2s0.5-1.2,1.2-1.2h10.4c0.7,0,1.2,0.5,1.2,1.2
		C345.4,321.5,344.9,322.1,344.2,322.1z"/>
	<path id="XMLID_41_" class="st1" d="M363.4,318.1H353c-1.5,0-2.8,1.3-2.8,2.8s1.3,2.8,2.8,2.8h10.4c1.5,0,2.8-1.3,2.8-2.8
		C366.2,319.3,364.9,318.1,363.4,318.1z M363.4,322.1H353c-0.7,0-1.2-0.5-1.2-1.2s0.5-1.2,1.2-1.2h10.4c0.7,0,1.2,0.5,1.2,1.2
		C364.6,321.5,364.1,322.1,363.4,322.1z"/>
	<path id="XMLID_38_" class="st1" d="M344.2,310.9h-10.4c-1.5,0-2.8,1.3-2.8,2.8s1.3,2.8,2.8,2.8h10.4c1.5,0,2.8-1.3,2.8-2.8
		C347,312.1,345.7,310.9,344.2,310.9z M344.2,314.9h-10.4c-0.7,0-1.2-0.5-1.2-1.2s0.5-1.2,1.2-1.2h10.4c0.7,0,1.2,0.5,1.2,1.2
		C345.4,314.3,344.9,314.9,344.2,314.9z"/>
	<path id="XMLID_35_" class="st1" d="M363.4,310.9H353c-1.5,0-2.8,1.3-2.8,2.8s1.3,2.8,2.8,2.8h10.4c1.5,0,2.8-1.3,2.8-2.8
		C366.2,312.1,364.9,310.9,363.4,310.9z M363.4,314.9H353c-0.7,0-1.2-0.5-1.2-1.2s0.5-1.2,1.2-1.2h10.4c0.7,0,1.2,0.5,1.2,1.2
		C364.6,314.3,364.1,314.9,363.4,314.9z"/>
	<path id="XMLID_34_" class="st3" d="M125.5,295.1c0,0-11.4,48,2.5,48s46.8-54.3,46.8-54.3s34.1-17.7,20.2-24s-31.6,10.1-31.6,10.1
		L143,303.2l-1.1-14.4C141.9,288.8,125.5,295.1,125.5,295.1z"/>
	<path id="XMLID_33_" class="st4" d="M152.1,254.7l-7.6-7.6c0,0-15.2,8.8-16.4,17.7c-1.3,8.8-7.6,36.6-7.6,36.6l23.4,1.9l7.6-11.4
		L152.1,254.7L152.1,254.7z"/>
	<path id="XMLID_32_" class="st1" d="M511.2,236.7c-1-2.8-12.9-12.4-5.6-14l6,8l27.6-27.6l2.8,2.8L511.2,236.7z"/>
	<path id="XMLID_31_" class="st1" d="M511.2,330.5c-1-2.8-12.9-12.4-5.6-14l6,8l27.6-27.6l2.8,2.8L511.2,330.5L511.2,330.5z"/>
	<path id="XMLID_30_" class="st1" d="M511.2,425.6c-1-2.8-12.9-12.4-5.6-14l6,8l27.6-27.6l2.8,2.8L511.2,425.6L511.2,425.6z"/>
	<circle id="XMLID_29_" class="st0" cx="594.8" cy="225.3" r="8.5"/>
	<path id="XMLID_27_" class="st0" d="M626.7,224.5h137v1.7h-137V224.5z"/>
	<circle id="XMLID_15_" class="st0" cx="594.8" cy="319.1" r="8.5"/>
	<path id="XMLID_14_" class="st0" d="M626.7,318.2h137v1.7h-137V318.2z"/>
	<circle id="XMLID_13_" class="st0" cx="594.8" cy="414.2" r="8.5"/>
	<path id="XMLID_12_" class="st0" d="M626.7,413.4h137v1.7h-137V413.4z"/>
	<path id="XMLID_11_" class="st0" d="M532.7,438.3h-42.5v-43.4h28.9v1.7h-27.2v40H531V417h1.7V438.3z"/>
	<path id="XMLID_10_" class="st0" d="M532.7,343h-42.5v-43.4h28.9v1.7h-27.2v40H531v-19.6h1.7V343z"/>
	<path id="XMLID_9_" class="st0" d="M532.7,246h-42.5v-43.4h28.9v1.7h-27.2v40H531v-19.6h1.7V246z"/>
</g>
</svg>
