<?xml version="1.0" encoding="utf-8"?>
<!-- Generator: Adobe Illustrator 19.0.0, SVG Export Plug-In . SVG Version: 6.00 Build 0)  -->
<svg version="1.1" id="Layer_1" xmlns="http://www.w3.org/2000/svg" xmlns:xlink="http://www.w3.org/1999/xlink" x="0px" y="0px"
	 width="800px" height="800px" viewBox="0 0 800 800" style="enable-background:new 0 0 800 800;" xml:space="preserve">
<style type="text/css">
	.st0{fill:#2A1F2D;}
	.st1{opacity:4.000000e-002;fill:#5B6C5D;enable-background:new    ;}
	.st2{opacity:0.7;}
	.st3{fill:url(#XMLID_3_);}
	.st4{fill:#FFFFFF;}
	.st5{opacity:0.5;fill:#5D84C3;enable-background:new    ;}
	.st6{opacity:0.5;fill:#F16046;enable-background:new    ;}
	.st7{opacity:0.5;fill:#6EC5A4;enable-background:new    ;}
	.st8{opacity:0.5;}
	.st9{fill:#6EC5A4;}
	.st10{fill:#6466AF;}
	.st11{fill:#F9B7B9;}
	.st12{fill:#585B8A;}
	.st13{fill:#1B214F;}
	.st14{opacity:0.1;fill:#010101;enable-background:new    ;}
	.st15{fill:#302E41;}
</style>
<g id="XMLID_1_">
	<path id="XMLID_116_" class="st0" d="M401.1,153.7l-178,109.5c0,0,0,225.9,178,349.2c178-123.2,178-349.2,178-349.2L401.1,153.7
		L401.1,153.7z"/>
	<path id="XMLID_115_" class="st1" d="M402.2,153.7l-3,1.9v454.7l3,2.1c178-123.2,178-349.2,178-349.2L402.2,153.7L402.2,153.7z"/>
	<g id="XMLID_113_" class="st2">
		
			<linearGradient id="XMLID_3_" gradientUnits="userSpaceOnUse" x1="90" y1="-353.6" x2="196" y2="-353.6" gradientTransform="matrix(1 0 0 1 254 744)">
			<stop  offset="0" style="stop-color:#818181;stop-opacity:0.25"/>
			<stop  offset="0.535" style="stop-color:#818181;stop-opacity:0.12"/>
			<stop  offset="1" style="stop-color:#818181;stop-opacity:0.1"/>
		</linearGradient>
		<path id="XMLID_114_" class="st3" d="M358,375.7l33.6,30.8l41.6-60.1l16.8,14l-58.4,74L344,381.3L358,375.7z"/>
	</g>
	<path id="XMLID_112_" class="st4" d="M365.9,377.5l27.3,25l38.5-56.7l13.6,11.3l-52.1,68.1l-38.6-43.1L365.9,377.5z"/>
	<path id="XMLID_111_" class="st5" d="M225.5,178.3c-1.1-0.5-1.7-1.8-1.4-2.9c0-0.1,0-0.2,0.1-0.3c0-0.7-0.5-1.2-1.1-1.3
		c-0.4,0-0.8,0.2-1,0.5c-0.1,0.1-0.1,0.2-0.1,0.2c-0.5,1.1-1.8,1.7-2.9,1.4c-0.1,0-0.2,0-0.3-0.1c-0.7,0-1.2,0.5-1.3,1.1
		c0,0.4,0.2,0.8,0.5,1c0.1,0.1,0.2,0.1,0.2,0.1c1.1,0.5,1.7,1.8,1.4,2.9c0,0.1,0,0.2-0.1,0.3c0,0.7,0.5,1.2,1.1,1.3
		c0.4,0,0.8-0.2,1-0.5c0.1-0.1,0.1-0.2,0.1-0.2c0.5-1.1,1.8-1.7,2.9-1.4c0.1,0,0.2,0,0.3,0.1c0.7,0,1.2-0.5,1.3-1.1
		c0-0.4-0.2-0.8-0.5-1C225.7,178.4,225.6,178.3,225.5,178.3z"/>
	<path id="XMLID_110_" class="st5" d="M129.1,392.8c-1.1-0.5-1.7-1.8-1.4-2.9c0-0.1,0-0.2,0.1-0.3c0-0.7-0.5-1.2-1.1-1.3
		c-0.4,0-0.8,0.2-1,0.5c-0.1,0.1-0.1,0.2-0.1,0.2c-0.5,1.1-1.8,1.7-2.9,1.4c-0.1,0-0.2,0-0.3-0.1c-0.7,0-1.2,0.5-1.3,1.1
		c0,0.4,0.2,0.8,0.5,1c0.1,0.1,0.2,0.1,0.2,0.1c1.1,0.5,1.7,1.8,1.4,2.9c0,0.1,0,0.2-0.1,0.3c0,0.7,0.5,1.2,1.1,1.3
		c0.4,0,0.8-0.2,1-0.5c0.1-0.1,0.1-0.2,0.1-0.2c0.5-1.1,1.8-1.7,2.9-1.4c0.1,0,0.2,0,0.3,0.1c0.7,0,1.2-0.5,1.3-1.1
		c0-0.4-0.2-0.8-0.5-1C129.3,392.9,129.2,392.8,129.1,392.8z"/>
	<circle id="XMLID_109_" class="st6" cx="610.3" cy="314.3" r="4"/>
	<circle id="XMLID_108_" class="st6" cx="196.5" cy="597.4" r="4"/>
	<circle id="XMLID_107_" class="st6" cx="677.7" cy="466.7" r="4"/>
	<path id="XMLID_106_" class="st5" d="M581.2,197.4c-1.1-0.5-1.7-1.8-1.4-2.9c0-0.1,0-0.2,0.1-0.3c0-0.7-0.5-1.2-1.1-1.3
		c-0.4,0-0.8,0.2-1,0.5c-0.1,0.1-0.1,0.2-0.1,0.2c-0.5,1.1-1.8,1.7-2.9,1.4c-0.1,0-0.2,0-0.3-0.1c-0.7,0-1.2,0.5-1.3,1.1
		c0,0.4,0.2,0.8,0.5,1c0.1,0.1,0.2,0.1,0.2,0.1c1.1,0.5,1.7,1.8,1.4,2.9c0,0.1,0,0.2-0.1,0.3c0,0.7,0.5,1.2,1.1,1.3
		c0.4,0,0.8-0.2,1-0.5c0.1-0.1,0.1-0.2,0.1-0.2c0.5-1.1,1.8-1.7,2.9-1.4c0.1,0,0.2,0,0.3,0.1c0.7,0,1.2-0.5,1.3-1.1
		c0-0.4-0.2-0.8-0.5-1C581.4,197.5,581.3,197.5,581.2,197.4z"/>
	<path id="XMLID_105_" class="st5" d="M647.2,611.9c-1.1-0.5-1.7-1.8-1.4-2.9c0-0.1,0-0.2,0.1-0.3c0-0.7-0.5-1.2-1.1-1.3
		c-0.4,0-0.8,0.2-1,0.5c-0.1,0.1-0.1,0.2-0.1,0.2c-0.5,1.1-1.8,1.7-2.9,1.4c-0.1,0-0.2,0-0.3-0.1c-0.7,0-1.2,0.5-1.3,1.1
		c0,0.4,0.2,0.8,0.5,1c0.1,0.1,0.2,0.1,0.2,0.1c1.1,0.5,1.7,1.8,1.4,2.9c0,0.1,0,0.2-0.1,0.3c0,0.7,0.5,1.2,1.1,1.3
		c0.4,0,0.8-0.2,1-0.5c0.1-0.1,0.1-0.2,0.1-0.2c0.5-1.1,1.8-1.7,2.9-1.4c0.1,0,0.2,0,0.3,0.1c0.7,0,1.2-0.5,1.3-1.1
		c0-0.4-0.2-0.8-0.5-1C647.4,612,647.3,611.9,647.2,611.9z"/>
	<path id="XMLID_104_" class="st5" d="M124.5,267.4c-1.1-0.5-1.7-1.8-1.4-2.9c0-0.1,0-0.2,0.1-0.3c0-0.7-0.5-1.2-1.1-1.3
		c-0.4,0-0.8,0.2-1,0.5c-0.1,0.1-0.1,0.2-0.1,0.2c-0.5,1.1-1.8,1.7-2.9,1.4c-0.1,0-0.2,0-0.3-0.1c-0.7,0-1.2,0.5-1.3,1.1
		c0,0.4,0.2,0.8,0.5,1c0.1,0.1,0.2,0.1,0.2,0.1c1.1,0.5,1.7,1.8,1.4,2.9c0,0.1,0,0.2-0.1,0.3c0,0.7,0.5,1.2,1.1,1.3
		c0.4,0,0.8-0.2,1-0.5c0.1-0.1,0.1-0.2,0.1-0.2c0.5-1.1,1.8-1.7,2.9-1.4c0.1,0,0.2,0,0.3,0.1c0.7,0,1.2-0.5,1.3-1.1
		c0-0.4-0.2-0.8-0.5-1C124.7,267.5,124.6,267.4,124.5,267.4z"/>
	<circle id="XMLID_103_" class="st7" cx="168.8" cy="334.1" r="4"/>
	<circle id="XMLID_102_" class="st7" cx="679.6" cy="365.8" r="4"/>
	<g id="XMLID_99_" class="st8">
		<path id="XMLID_101_" class="st9" d="M501.4,146.6h2v11.2h-2V146.6z"/>
		<path id="XMLID_100_" class="st9" d="M496.8,151.3H508v2h-11.2V151.3z"/>
	</g>
	<g id="XMLID_96_" class="st8">
		<path id="XMLID_98_" class="st9" d="M508.7,586.2h2v11.2h-2V586.2z"/>
		<path id="XMLID_97_" class="st9" d="M504.1,590.8h11.2v2h-11.2L504.1,590.8z"/>
	</g>
	<g id="XMLID_92_" class="st8">
		<path id="XMLID_95_" class="st9" d="M133.8,609.9h2v11.2h-2V609.9z"/>
		<path id="XMLID_93_" class="st9" d="M129.2,614.6h11.2v2h-11.2V614.6z"/>
	</g>
	<g id="XMLID_89_" class="st8">
		<path id="XMLID_91_" class="st9" d="M584.6,408h2v11.2h-2V408z"/>
		<path id="XMLID_90_" class="st9" d="M580,412.6h11.2v2H580V412.6z"/>
	</g>
	<path id="XMLID_88_" class="st7" d="M641.5,227.8l4.2,3.9l6.1-8.8l2.1,1.7l-8.2,10.7l-6-6.8L641.5,227.8z"/>
	<path id="XMLID_87_" class="st10" d="M520.8,323.5l-14.7,0.6l-0.7-18.9l14.7-0.6L520.8,323.5z"/>
	<path id="XMLID_86_" class="st11" d="M453.9,370.6c0,0-20.3-9.7-20-1.3c0.3,8.4,20.5,13.9,20.5,13.9L453.9,370.6z"/>
	<path id="XMLID_85_" class="st0" d="M465.1,441.5c0,0-9.6,23.5-13.1,40.4s-8.9,40.2-2,56.7s26.7,65.1,26.9,70.3
		c0.2,5.2-1.7,10.6,2.5,10.4c4.2-0.2,27-7.3,27.9-10.5s-7.8-11.2-7.8-11.2L478,530.2l22.4-43.9l16.2,65.5l3.2,81.7
		c0,0,15.6-4.8,17.8-0.7c0,0,7-9.7,7.9-13.9s-3.3-84.9-3.3-84.9s14.3-91.8,2.8-91.4S488.2,415.4,465.1,441.5z"/>
	<path id="XMLID_84_" class="st12" d="M479.1,615.2c0,0-10.6,23.5-11.6,24.6s-7.9,11.9-2.7,11.6s17.6-5.9,26.7-14.7
		c9.1-8.7,21.1-23.9,20-24.9c-1.1-1-8.5-3.9-8.5-3.9L479.1,615.2L479.1,615.2z"/>
	<path id="XMLID_83_" class="st12" d="M521.6,628.2c0,0-0.6,10.5-2.6,14.8c-1.9,4.3-1.7,10.6,3.5,10.4c5.2-0.2,18.8-2.8,18.8-2.8
		s0.8-6.3-0.3-7.3s-5.7-12.4-3.8-15.6C539.3,624.4,521.6,628.2,521.6,628.2L521.6,628.2z"/>
	<path id="XMLID_82_" class="st11" d="M529.4,286.9c0,0,11.2,17.4,15.5,21.4c4.4,4-7.9,12.9-7.9,12.9l-21.9,2.9c0,0,0.3-19.9-0.9-22
		S529.4,286.9,529.4,286.9L529.4,286.9z"/>
	<path id="XMLID_81_" class="st4" d="M510.3,309.7c0,0,4.5,8.2,8.7,8.1c4.2-0.2,25.9-9.4,26.8-12.6c0.9-3.2,7.2,22.8,7.2,22.8
		l-53,93.3l-12.9-8.9l6.3-54.8l5.1-29.6L510.3,309.7z"/>
	<path id="XMLID_80_" class="st13" d="M547.8,393.2c-2.1,4.4-3.4,9-3.3,13.8v0.6c0.5,9.7,4.1,20.9,5.4,29.1
		c0.9,5.9,0.7,10.1-2.8,11.1c-8.3,2.4,1.2,4.2-30.9,14.8s-37.7,1.5-37.8-0.6c-0.1-2.1,4.5-18,3.5-19s-15.2,13.2-19.5,11.2
		c-4.3-1.9-0.5-12.6-0.5-12.6s9.6-22.4,9.4-27.6s14.6-29.9,14.6-29.9l10.1-65.4c0,0,3.9-8.5,9.1-9.8s9.5,1.7,9.5,1.7l-8.7,19.2
		l-9.2,33.9l1.5,12.5c0,0,10.7-22.4,17.7-31.1s22-29.2,22-29.2s3.5-11.8,0.9-15.3s11-4.1,16.8,10.4c3.1,7.7,8.1,19.1,11.2,29.7
		c2.8,9.4,4.1,18.2,1.3,23.3C563.8,371.8,553.2,381.9,547.8,393.2L547.8,393.2z"/>
	<path id="XMLID_79_" class="st14" d="M568,364.1c-4.2,7.7-14.8,17.8-20.3,29.1c-1.4-5.1-3.1-10.4-3.1-10.4s-6.6-35.4,13-44.6
		c3.2-0.3,6.5,0.6,9.1,2.5C569.5,350.2,570.8,359,568,364.1z"/>
	<path id="XMLID_78_" class="st13" d="M490.3,361.8l-16.6,4.8l-23.1,0.9l-2.4,20l37.9,2.7C486.2,390.3,495.6,363.7,490.3,361.8z"/>
	<path id="XMLID_77_" class="st11" d="M517.4,429.2c0,0-22.2,3.7-17.1,10.4c5.1,6.7,24.7-0.3,24.7-0.3L517.4,429.2z"/>
	<path id="XMLID_76_" class="st14" d="M544.6,407.6c0.5,9.7,4.1,20.9,5.4,29.1c-7.1,6.7-13.8,12.6-16.3,12.7
		c-5.2,0.2-13.7-0.5-16.8,0.7s-4.9-18.7-4.9-18.7s1.9-6.4,10.1-9.8C527.6,419.1,538.3,412.8,544.6,407.6L544.6,407.6z"/>
	<path id="XMLID_75_" class="st13" d="M557.4,332c0,0,17.7-2.8,16.8,26.6c-1,29.4,1.9,48.2-5.3,53.7c-7.1,5.5-30.3,30.6-35.5,30.8
		s-13.7-0.5-16.8,0.7s-4.9-18.7-4.9-18.7s1.9-6.4,10.1-9.8c8.3-3.5,27.7-15.8,27.6-20c-0.2-4.2-4.9-18.7-4.9-18.7
		S537.8,341.1,557.4,332z"/>
	<circle id="XMLID_74_" class="st11" cx="513.7" cy="289.6" r="23.1"/>
	<path id="XMLID_73_" class="st15" d="M498.2,256.5c-0.6,0.5-1.2,0.8-1.9,1c-0.7,0.1-1.5-0.4-1.6-1.1c-0.5,1.1-1.1,2.3-2.2,2.8
		c-1.1,0.6-2.7,0.1-2.9-1.1c-0.2,0.9-0.6,1.8-1.2,2.5c-0.7,0.6-1.9,0.8-2.5,0.1c0.5,2.6,0.2,5.2,0.3,7.8c0.1,2.6,0.8,5.4,2.8,7.1
		c2.9,2.5,7.2,1.9,11,1.4c0.6-0.1,1.2-0.1,1.7,0.1c1.4,0.6,1.4,2.6,1.4,4.1c0.2,5.6,4.5,10.2,10,10.9c1.5,0.2,3-0.1,4.3-1
		c1.1-0.9,1.6-2.4,2.9-3.1c2-1.1,4.4,0.5,5.9,2.3s2.9,3.9,5.2,4.3c3,0.4,5.3-2.6,6.4-5.5c3.1-8,2.9-16.9-0.6-24.7
		C531,250.7,509.5,248.5,498.2,256.5L498.2,256.5z"/>
</g>
</svg>
