<?xml version="1.0" encoding="utf-8"?>
<!-- Generator: Adobe Illustrator 19.0.0, SVG Export Plug-In . SVG Version: 6.00 Build 0)  -->
<svg version="1.1" id="Layer_1" xmlns="http://www.w3.org/2000/svg" xmlns:xlink="http://www.w3.org/1999/xlink" x="0px" y="0px"
	 width="800px" height="800px" viewBox="0 0 800 800" style="enable-background:new 0 0 800 800;" xml:space="preserve">
<style type="text/css">
	.st0{opacity:5.000000e-002;fill:#0A1720;enable-background:new    ;}
</style>
<g id="XMLID_1_">
	<path id="XMLID_5_" class="st0" d="M545,294c-11.6-10.1-23.6-19.2-34.7-27.2C492.6,254.1,475,241,456,230.2
		c-39.2-22.2-84.8-31.9-120.6,2.2c-73.1,69.7-179.3,111.9-125.6,211.3s257,202.1,311.8,110.8c25.1-41.9,61.9-82.3,78.2-128.9
		C618.1,373,583.7,327.7,545,294z"/>
	<path id="XMLID_7_" class="st0" d="M526.8,307.3c-10.2-8.9-20.6-16.8-30.3-23.8c-15.5-11.1-30.8-22.6-47.5-32
		c-34.3-19.4-74.2-27.9-105.5,1.9c-63.9,60.9-156.8,97.9-109.9,184.8S458.4,615,506.3,535.1c22-36.6,54.2-72,68.4-112.7
		C590.8,376.3,560.7,336.8,526.8,307.3L526.8,307.3z"/>
</g>
</svg>
