<?xml version="1.0" encoding="utf-8"?>
<!-- Generator: Adobe Illustrator 19.0.0, SVG Export Plug-In . SVG Version: 6.00 Build 0)  -->
<svg version="1.1" id="Layer_1" xmlns="http://www.w3.org/2000/svg" xmlns:xlink="http://www.w3.org/1999/xlink" x="0px" y="0px"
	 width="800px" height="800px" viewBox="0 0 800 800" style="enable-background:new 0 0 800 800;" xml:space="preserve">
<style type="text/css">
	.st0{opacity:5.000000e-002;fill:#0A1720;enable-background:new    ;}
</style>
<g id="XMLID_1_">
	<path id="XMLID_4_" class="st0" d="M211.8,403.3c-13.5-29.3-21-59.7-12.6-92.3c15.3-58.7,68.3-102.1,132.2-95.1
		c122.1,13.3,343.1,116,251.1,246.6c-34.9,49.5-86.6,88.1-145,107.8c-39.7,13.4-101.8,26.7-136.6-5.1c-13.2-12-19.3-29.5-25.9-45.9
		C259.3,480.7,230.1,443,211.8,403.3z"/>
	<path id="XMLID_8_" class="st0" d="M238.4,402.8c-11.6-25.2-18.1-51.3-10.8-79.2c13.1-50.4,58.7-87.7,113.5-81.7
		c104.9,11.4,294.6,99.6,215.7,211.8c-30,42.6-74.4,75.7-124.6,92.6c-34.1,11.5-87.5,22.9-117.3-4.4c-11.3-10.3-16.5-25.3-22.2-39.4
		C279.2,469.3,254.1,436.9,238.4,402.8L238.4,402.8z"/>
</g>
</svg>
