<?xml version="1.0" encoding="utf-8"?>
<!-- Generator: Adobe Illustrator 19.0.0, SVG Export Plug-In . SVG Version: 6.00 Build 0)  -->
<svg version="1.1" id="Layer_1" xmlns="http://www.w3.org/2000/svg" xmlns:xlink="http://www.w3.org/1999/xlink" x="0px" y="0px"
	 width="800px" height="800px" viewBox="0 0 800 800" style="enable-background:new 0 0 800 800;" xml:space="preserve">
<style type="text/css">
	.st0{fill:#FF70A6;}
	.st1{fill:#210124;}
	.st2{fill:#403E56;}
	.st3{fill:#CBCFDA;}
	.st4{fill:#6466AF;}
	.st5{opacity:0.2;fill:#6466AF;enable-background:new    ;}
	.st6{fill:none;stroke:#6466AF;stroke-width:0.844;stroke-miterlimit:10;}
	.st7{fill:none;stroke:#FFFFFF;stroke-width:0.4219;stroke-miterlimit:10;}
	.st8{fill:#FFFFFF;}
	.st9{fill:url(#XMLID_3_);}
	.st10{fill:#585B8A;}
	.st11{fill:#F9C1C7;}
	.st12{opacity:0.1;fill:#010101;enable-background:new    ;}
	.st13{fill:#05BEE1;}
	.st14{fill:url(#XMLID_4_);}
	.st15{fill:#A0626B;}
	.st16{fill:#3D364D;}
	.st17{fill:#F26C74;}
	.st18{fill:none;stroke:#403E56;stroke-width:1.688;stroke-miterlimit:10;}
	.st19{fill:#57B894;}
	.st20{fill:#666380;}
	.st21{opacity:0.2;fill:#010101;enable-background:new    ;}
</style>
<path id="XMLID_2_" class="st0" d="M800.1,101.6c0-5.9-63.6-21.7-68.9-23.1c-39.6-10.3-80.1-20.7-121.4-20.2
	c-72.8,0.9-126.6,51.4-185.6,87.9c-53.3,33-109.7,70.8-169.9,89.7c-37,11.6-73.8,30.7-100.6,59.2c-35.5,37.6-37.1,82.8-27.9,131.8
	c10.6,56.4,22.4,115.5,47,167.8c22.6,48.3,61.5,98.2,118.6,101c52.2,2.5,107.9-15.9,158.3-27.7c29.3-6.8,64.4-17.3,93.6-4.6
	c37.5,16.3,70.9,41.2,107.5,59.4c44.9,22.4,105.6,31.2,149.5,0C800.1,722.8,800.1,101.9,800.1,101.6L800.1,101.6z"/>
<path id="XMLID_7_" class="st1" d="M799.1,140.5c0,0-186-58.7-281.7-7.6c-45.9,24.5-85.9,56.5-127.9,86.8
	c-16.9,12.1-34,23.1-53.5,30.5c-40.2,15.1-78.3,25.1-112.6,52.6c-32,25.7-49.1,55.4-41.6,96.9c9.7,53.8,23.1,108.7,46.2,158.5
	c16.7,36,43.4,79.6,86.9,84.4c64.9,7.2,129.6-13.7,192.8-24.7c21.8-3.8,38.3-2.6,56.6,10C579,638,593.7,648,609,657.1
	c36.7,22,80.5,41.5,124.3,37.8c77.3-6.5,66.4-50.1,66.4-50.1L799.1,140.5L799.1,140.5z"/>
<path id="XMLID_91_" class="st2" d="M634.3,279.7v147.9c0,1.7-1.4,3-3,3H329.8c-1.7,0-3-1.4-3-3V279.7c0-1.7,1.4-3,3-3h301.5
	C632.9,276.6,634.3,278,634.3,279.7z"/>
<path id="XMLID_90_" class="st3" d="M634.3,278.7v6.8H326.7v-6.8c0-1.1,0.9-2,2-2h303.5C633.4,276.6,634.3,277.5,634.3,278.7z"/>
<circle id="XMLID_89_" class="st4" cx="333.5" cy="280.9" r="2.1"/>
<circle id="XMLID_88_" class="st4" cx="339.4" cy="280.9" r="2.1"/>
<circle id="XMLID_87_" class="st4" cx="345.3" cy="280.9" r="2.1"/>
<path id="XMLID_86_" class="st5" d="M584.8,384.6V410l-208.9,0.1l-0.2-50.8c2.2,6.5,7.7,7.7,17.2-3.8c23.4-28,55.3-35.4,79.9-36.1
	c16.9-0.5,33.7,3,49.8,9.9c6.7,2.9,33,6,50.5,7.4c6.6,0.5,11.6,6,11.6,12.5L584.8,384.6L584.8,384.6z"/>
<path id="XMLID_85_" class="st5" d="M584.8,359.8v50.5H375.7v-11c6-1.5,28.3-7.3,39.1-23.3c12.8-19.2,30.3-24.2,43.7-24.7
	c9.2-0.4,18.4,2,27.2,6.7c9.9,5.3,28.9,11.8,43.4-6.9c16-20.7,40.6-3.6,46.8,2.6C578.2,355.9,584.8,359.8,584.8,359.8L584.8,359.8z"
	/>
<path id="XMLID_84_" class="st6" d="M375.7,306.3v103.2h209.1"/>
<path id="XMLID_83_" class="st7" d="M402.1,409.5v-62.9"/>
<path id="XMLID_82_" class="st7" d="M427.5,409.5v-79.8"/>
<path id="XMLID_81_" class="st7" d="M452.8,409.5v-87.8"/>
<path id="XMLID_80_" class="st7" d="M478.2,409.5v-90.3"/>
<path id="XMLID_79_" class="st7" d="M503.6,409.5V322"/>
<path id="XMLID_78_" class="st7" d="M529,409.5v-77.3"/>
<path id="XMLID_77_" class="st7" d="M554.4,409.5v-72"/>
<circle id="XMLID_76_" class="st8" cx="401.9" cy="345.7" r="4.7"/>
<circle id="XMLID_75_" class="st8" cx="427.3" cy="329.7" r="4.7"/>
<circle id="XMLID_74_" class="st8" cx="452.7" cy="322" r="4.7"/>
<circle id="XMLID_73_" class="st8" cx="478.1" cy="319.2" r="4.7"/>
<circle id="XMLID_72_" class="st8" cx="503.5" cy="322" r="4.7"/>
<circle id="XMLID_71_" class="st8" cx="528.8" cy="332.5" r="4.7"/>
<circle id="XMLID_70_" class="st8" cx="554.2" cy="338" r="4.7"/>
<ellipse id="XMLID_69_" class="st2" cx="480.4" cy="503.2" rx="216.8" ry="8.9"/>
<linearGradient id="XMLID_3_" gradientUnits="userSpaceOnUse" x1="-227.2893" y1="954.8745" x2="-227.2893" y2="1153.3656" gradientTransform="matrix(-1 0 0 -1 89 1463.5)">
	<stop  offset="0" style="stop-color:#818181;stop-opacity:0.25"/>
	<stop  offset="0.54" style="stop-color:#818181;stop-opacity:0.12"/>
	<stop  offset="1" style="stop-color:#818181;stop-opacity:0.1"/>
</linearGradient>
<path id="XMLID_65_" class="st9" d="M287.9,349.1c0,0.4-0.1,0.7-0.3,1c1.7-0.1,3.2-1.2,4.7-1.7c-0.3,1.6,0,3.6,0.2,5s0.5,2.7,1,4
	c1.1,4.6,3,9.1,4.8,13.5c0.8,1.7,1.3,3.6,1.7,5.4c1.2,7.1-2.9,14-3.7,21.1c-0.1,0.4-0.1,0.8,0,1.2c-0.1,0.1-0.1,0.2-0.2,0.2
	c-2.9,4.4-2.5,11.8-2,17s2.2,10.2,3.7,15.2c0.5,1.4,0.8,2.8,1.1,4.2c0.2,2,0.3,3.9,0.1,5.9c-0.5,9.2-1.8,18.4-0.3,27.4
	c1.1,6.6,3.5,12.6,3.8,19.2c0.2-0.5,0.5-0.9,0.9-1.3l0.5,17.5c0,0.3,0.1,0.7,0.3,0.9c0.3,0.2,0.7,0,1.1-0.1c1.1-0.1,1.8,1.1,2.6,1.9
	c1.1,1.3,2.8,1.9,4.5,2s3.4-0.1,5-0.5c0.8-0.1,1.6-0.3,2.2-0.8c0.6-0.6,0.9-1.5,0.7-2.3c-0.3-2.6-3.1-4-4.5-6.2
	c-1.6-2.6-1.3-6.1-2.9-8.7c-0.6-0.9-1.3-1.7-1.8-2.6l-0.6-1.8c0.5,0.2,1,0.4,1.4,0.7c-0.2-1.4-0.3-2.7-0.5-4.1l-0.1-0.6
	c-0.2-1.9-0.4-3.7-0.6-5.6c-0.5-6.1,1.2-12.1,0-18.1c-0.3-1.3,0.2-2.6,0.5-3.8c2.1-7.1,3.4-14.4,3.9-21.8c0.2-2.6,0.1-5.1,1-7.6
	c1,4,4,7.1,5.9,10.8c1.2,2.3,1.9,4.8,3.2,7c0.6,1.1,1.4,2.1,1.8,3.3c0.6,1.8,0.3,3.8,0,5.7c-1.4,9.9-1.2,20-0.8,30
	c-0.4,3.8-1.3,7.6-2.6,11.2c-0.5,1.4-1.1,3.1-0.3,4.4c0.3,0.5,0.8,0.9,1.3,1.2c1.2,0.9,2.5,1.6,3.8,2.3c0.4,0.3,0.9,0.4,1.3,0.3
	c0.3-0.1,0.6-0.2,0.8-0.4c1-0.6,2.3-0.5,3.5-0.1c1.1,0.4,2.2,1.1,3.2,1.5c2.3,1,4.9,1.2,7.3,0.5c1-0.3,2.1-0.8,2.4-1.8
	s-0.3-2.1-1.1-2.7c-0.8-0.7-1.8-1-2.7-1.5c-2-1.1-3.7-2.7-4.7-4.7c-0.6-1.3-1.1-2.7-1.5-4.2c-0.5-1.7-1-3.4-1.5-5.2
	c0.3,0.2,0.5,0.4,0.8,0.6c0.7-8.5,1.4-17.1,3.2-25.4c0.9-4,2-8,1.6-12.1c-0.2-2.1-0.9-4.2-1.5-6.3c-2-6.4-3.7-12.9-5.2-19.4
	c0.6-0.6,1-1.3,1.3-2.1c0.5-1.4,0.7-3,0.8-4.5c0.7-10.3,0.7-20.5-0.1-30.8c-0.2-2.6-0.5-5.3-1.5-7.7h0.6c-0.7,0-1.9-7.1-2-7.9
	c-0.5-2.7-0.8-5.5-1.3-8.2c-0.2-1.3-0.5-2.7-0.8-4c-0.2-0.9-1.1-6.3-1.9-6.9c-0.1-0.1-0.2-0.1-0.3-0.2c-0.4-1.2-1.2-2.2-2.2-2.9
	c-1.2-0.7-2.6-0.7-3.9-0.6c-0.4-0.6-0.8-1.1-1.2-1.7c-0.7-0.9-1.2-1.9-1.6-3c-0.1-0.5-0.2-0.9-0.2-1.4V337v-0.5c0-0.3,0-0.6-0.1-0.9
	c0-0.3-0.1-0.5-0.2-0.8c0-0.1-0.1-0.2-0.1-0.3c-0.2-0.6-0.4-1.3-0.6-1.9c-0.5-2.1-0.3-4.2-0.2-6.4c0.1-2.1-0.1-4.4-1.3-6.2
	c-0.9-1.3-2.3-2.3-2.8-3.8c-0.2-0.7-0.2-1.5-0.5-2.2c-0.4-0.8-1.1-1.3-1.9-1.6c-1-0.4-2.9-1-3.9-0.5c-0.2,0.1-0.4,0.2-0.5,0.4
	c-1.1,0.1-2.2,0.2-3.1-0.3c-0.7-0.4-1.3-1.1-2-1.5c-1.7-0.9-3.8,0-5.3,1.2c-2.4,2-4.1,4.6-5,7.5c-0.7,2.3-0.9,4.9-2.8,6.4
	c-0.8,0.6-1.8,0.9-2.4,1.7c-0.4,0.6-0.6,1.4-0.6,2.1c-0.2,1.7-0.4,3.5,0.1,5.2c0.3,1.3,1,2.4,1.4,3.6c1.1,3.6,0.1,7.5-2.6,10
	C286.2,349.1,287.1,349.3,287.9,349.1L287.9,349.1z M328.4,400.3c1.2-0.6,2-1.7,2.3-3c0,0.2,0.1,0.3,0.1,0.5
	c0.5,2.2,0.4,4.5-0.3,6.7C330,402.9,329.3,401.6,328.4,400.3z M329.3,390.9c-0.7-1-1.3-2.1-1.8-3.2c-0.6-1.8-0.5-3.8-0.3-5.7
	c0.1-1.5,0.3-2.9,0.6-4.4C327.9,382.1,328.5,386.5,329.3,390.9L329.3,390.9z"/>
<path id="XMLID_64_" class="st2" d="M312.9,313.8c0.8,0.3,1.5,0.9,1.9,1.6c0.3,0.7,0.3,1.5,0.5,2.2c0.5,1.5,1.9,2.5,2.7,3.8
	c1.2,1.8,1.3,4,1.2,6.1c-0.1,2.1-0.3,4.3,0.2,6.3c0.2,1,0.7,2,0.8,3c0.2,1.2,0,2.5,0.3,3.8c0.3,1.1,0.9,2.1,1.6,3l2.7,4
	c-1.2-0.3-2.4-0.7-3.6-1.1c0.4,1.1,1,2.2,2,3l-2-2.4c-0.4-0.6-0.9-1-1.5-1.4c-0.7-0.4-1.6-0.5-2.4-0.6c-1.6-0.3-3.2-1.1-3.9-2.5
	c-1-1.9-0.4-4.3-0.9-6.3c-0.4-1.5-1.5-2.8-2.2-4.2c-1.6-3.2-1.5-6.9-2-10.4c-0.2-1.5-0.5-3-0.6-4.5c0-1.1,0.1-3.2,1.3-3.8
	C310.1,312.8,312,313.4,312.9,313.8z"/>
<path id="XMLID_63_" class="st10" d="M335.1,480.3l2.1,7.5c0.3,1.4,0.8,2.8,1.5,4.1c1,2,2.6,3.6,4.6,4.7c0.9,0.5,1.9,0.8,2.7,1.5
	s1.4,1.7,1.1,2.7s-1.4,1.5-2.4,1.8c-2.4,0.7-4.9,0.5-7.2-0.5c-1.1-0.5-2.1-1.1-3.2-1.5s-2.4-0.5-3.4,0.1c-0.2,0.2-0.5,0.3-0.8,0.4
	c-0.5,0.1-0.9,0-1.3-0.3c-1.3-0.7-2.5-1.4-3.7-2.3c-0.5-0.3-0.9-0.7-1.2-1.2c-0.8-1.3-0.2-3,0.3-4.3c1.4-3.7,2.2-7.6,2.6-11.6
	c0-0.4,0.1-0.7,0.4-0.9c0.2-0.1,0.4-0.1,0.6-0.1l9-0.4"/>
<path id="XMLID_62_" class="st10" d="M311.7,487.8c0.5,0.9,1.2,1.7,1.8,2.6c1.6,2.6,1.2,6.1,2.8,8.7c1.4,2.2,4.1,3.6,4.4,6.2
	c0.1,0.8-0.1,1.7-0.7,2.3c-0.6,0.5-1.4,0.7-2.1,0.8c-1.6,0.4-3.3,0.5-4.9,0.5c-1.6-0.1-3.3-0.7-4.4-2c-0.7-0.8-1.4-2-2.5-1.9
	c-0.4,0-0.8,0.3-1.1,0.1c-0.2-0.2-0.4-0.6-0.3-0.9l-0.5-19.2c1.6-0.2,4.4-0.8,5.9-0.3C311.3,485.1,311.1,486.6,311.7,487.8
	L311.7,487.8z"/>
<path id="XMLID_61_" class="st8" d="M327.5,399.1c3.9,4.8,5,11.2,6.3,17.3c1.6,7.8,3.6,15.6,5.9,23.3c0.6,2,1.3,4.1,1.5,6.2
	c0.4,4-0.7,8.1-1.5,12c-1.8,8.3-2.5,16.8-3.2,25.3c-2.8-2.4-6.8-2.6-9.8-0.5c-0.5-10.2-0.7-20.5,0.7-30.7c0.3-1.9,0.6-3.9,0-5.7
	c-0.4-1.2-1.1-2.2-1.7-3.3c-1.3-2.2-2-4.7-3.1-6.9c-1.9-3.6-4.8-6.7-5.8-10.7c-0.8,2.5-0.8,5-1,7.6c-0.4,7.4-1.7,14.6-3.8,21.7
	c-0.4,1.2-0.8,2.5-0.5,3.8c1.2,6-0.5,11.9,0,18c0.2,1.8,0.4,3.7,0.6,5.5l0.1,0.6l0.5,4.1c-1.7-1.2-3.5-1-5.5-0.9
	c-0.7,0-1.4,0.1-2,0.4c-0.8,0.3-1.5,1-1.8,1.8c-0.2-6.6-2.6-12.6-3.7-19.1c-1.5-9-0.2-18.2,0.3-27.3c0.2-2,0.1-3.9-0.1-5.9
	c-0.3-1.4-0.6-2.8-1.1-4.2c-1.5-5-3.2-10-3.7-15.1c-0.5-5.2-0.9-12.5,1.9-16.9c0.9-1.3,3-0.7,4.4-1.6c1.1-0.7,2.2-1.1,3.5-1.4
	C312.1,394.7,319.9,398.5,327.5,399.1L327.5,399.1z"/>
<path id="XMLID_60_" class="st11" d="M314.2,339.1c0.2,1.8,0.6,4,2.2,4.8c1,0.4,2.1,0.3,3.1,0.4c1.9,0.3,3.6,1.8,4.5,3.6
	c0.9,1.8,1.2,3.8,1.4,5.7c0.3,2.5,0.3,5.1-1,7.2c-1.1,1.7-3,2.7-4.9,3.2c-3.9,1-8.1,0.3-11.4-2.1c-1.6-1.2-3-2.6-4.2-4.2
	c-2.8-3.3-5.6-6.8-6.2-11.1c-0.1-0.5-0.1-1.1,0.3-1.4c0.3-0.2,0.6-0.2,0.9-0.2h2.7c0.7,0,1.4,0,1.9-0.5s0.4-1.2,0.4-1.8l-0.2-7.8
	c0-0.3,0-0.6,0.2-0.8c0.2-0.2,0.4-0.2,0.6-0.3c1.5-0.2,3,0,4.5-0.4c1.4-0.4,3.5-2,4.6-0.3C314.3,334.6,314,337.5,314.2,339.1
	L314.2,339.1z"/>
<path id="XMLID_59_" class="st12" d="M314.2,339.1c0.2,1.8,0.6,4,2.2,4.8c1,0.4,2.1,0.3,3.1,0.4c1.9,0.3,3.6,1.8,4.5,3.6
	c0.9,1.8,1.2,3.8,1.4,5.7c0.3,2.5,0.3,5.1-1,7.2c-1.1,1.7-3,2.7-4.9,3.2c-3.9,1-8.1,0.3-11.4-2.1c-1.6-1.2-3-2.6-4.2-4.2
	c-2.8-3.3-5.6-6.8-6.2-11.1c-0.1-0.5-0.1-1.1,0.3-1.4c0.3-0.2,0.6-0.2,0.9-0.2h2.7c0.7,0,1.4,0,1.9-0.5s0.4-1.2,0.4-1.8l-0.2-7.8
	c0-0.3,0-0.6,0.2-0.8c0.2-0.2,0.4-0.2,0.6-0.3c1.5-0.2,3,0,4.5-0.4c1.4-0.4,3.5-2,4.6-0.3C314.3,334.6,314,337.5,314.2,339.1
	L314.2,339.1z"/>
<circle id="XMLID_58_" class="st11" cx="307.4" cy="328.3" r="10.3"/>
<path id="XMLID_57_" class="st13" d="M318.4,356.8c1.7,0,3.5-0.4,4.3-1.9c0.5-1,0.5-2.2,0.4-3.3l-0.6-6.3c1.6-0.2,3.3-0.3,4.8,0.5
	c1.9,1.1,2.5,3.4,2.8,5.5c0.4,4-0.2,8.1,0,12.1c0.2,3.4,1,6.9,0,10.1c-0.4,1.3-1.1,2.6-1.6,3.9c-0.6,1.7-0.7,3.5-0.8,5.3
	c-0.2,1.9-0.3,3.9,0.3,5.7c0.5,1.5,1.6,2.8,2.3,4.2c1.2,2.4,1.5,5.5-0.4,7.4c-1.7,1.7-4.5,1.8-6.8,1.3c-2.4-0.6-4.6-1.6-7-1.7
	c-4.3-0.2-8.1,2.6-12.2,3.5c-0.6,0.1-1.1,0.2-1.7,0.1c-0.5-0.2-1-0.4-1.4-0.8l-2.3-1.6c-0.5-0.3-0.8-0.7-1.1-1.1
	c-0.2-0.5-0.2-1.1-0.1-1.6c0.8-7.1,4.8-14,3.6-21c-0.4-1.9-0.9-3.7-1.7-5.4c-2.9-7.4-6.4-15.1-5.2-23c0.2-1.7,0.8-3.5,2-4.8
	s3.2-1.9,4.8-1.1s2.1,2.7,2.8,4.3c1.3,3.1,3.4,5.8,6.1,7.9c1.1,0.9,2.5,2,4,2C315.1,356.9,316.7,356.8,318.4,356.8L318.4,356.8z"/>
<path id="XMLID_56_" class="st11" d="M333.3,372.8c2.5,2.8,3,6.7,3.3,10.5c0.8,10.2,0.8,20.4,0.1,30.6c0,1.5-0.3,3-0.8,4.5
	c-0.5,1.4-1.5,2.7-2.9,3.3c-0.9,0.4-2.2,0.3-2.6-0.6c-0.4-0.8,0.2-1.7,0.6-2.5c1-1.8,1.3-3.9,0.9-5.9c-0.5,0.4-0.7,1-0.8,1.7
	l-0.8,3.4c-1.1-0.2-1.5-1.5-1.7-2.6c-0.3-2-0.6-4.1,0.2-6c0.4-1,1.1-1.8,1.6-2.8c1.1-2.5,1.5-5.3,0.8-7.9c-2.3-8.8-3.4-18-3-27.1
	C329.7,372.2,331.5,372.7,333.3,372.8L333.3,372.8z"/>
<path id="XMLID_55_" class="st13" d="M335.6,375.6c-3.1,0-6.1,0.4-9.1,1.2c-0.4-1.9-0.2-3.9,0-5.9l1.3-13.5c0.1-1-0.1-10.2,1.8-8.6
	c0.7,0.6,1.6,6,1.8,6.8c0.3,1.3,0.6,2.6,0.8,3.9c0.5,2.7,0.8,5.5,1.3,8.2C333.8,368.5,334.9,375.6,335.6,375.6L335.6,375.6z"/>
<path id="XMLID_54_" class="st2" d="M311.3,315.2c0-0.3-0.1-0.6-0.2-0.9c-0.3-0.3-0.7-0.5-1.1-0.6c-1.5-0.2-3.1,0.4-4.4-0.3
	c-0.7-0.4-1.2-1.1-1.9-1.5c-1.7-0.9-3.8,0-5.3,1.2c-2.4,2-4.1,4.6-4.9,7.5c-0.7,2.3-0.9,4.9-2.8,6.4c-0.8,0.6-1.8,0.9-2.4,1.7
	c-0.4,0.6-0.6,1.4-0.6,2.1c-0.2,1.7-0.4,3.5,0.1,5.2c0.3,1.3,1,2.4,1.4,3.6c1.1,3.5,0.1,7.4-2.6,10c0.7,0.4,1.5,0.6,2.3,0.4
	c0,0.4-0.1,0.7-0.3,1c2.4-0.1,4.5-2.4,6.8-1.9c1.8,0.4,2.8,2.2,4.1,3.5c1.7,1.6,4.4,2.3,6.6,1.3s3.5-3.7,2.6-5.9
	c-1-2.5-4.3-3.5-5.4-5.9c-0.9-1.9-0.2-4.1-0.4-6.2c-0.2-1.8-0.9-3.5-1.4-5.2s-0.6-3.7,0.3-5.2c1-1.6,3-2.2,4.8-2.8
	C310.7,321.4,311.5,319.4,311.3,315.2L311.3,315.2z"/>
<path id="XMLID_53_" class="st11" d="M308.8,352.1c0.3-1.4,0.6-3,0.1-4.3c-1-2.5-4.1-3.3-6.3-5c-1.3-1-2.2-2.2-2.8-3.7
	c-0.4-1-0.4-2.5,0.5-3c0.4-0.2,0.8-0.3,1.2-0.2c3.4,0.1,6.5,1.9,9.1,4.1c1.5,1.3,3,2.7,3.7,4.5c0.5,1.3,0.8,2.7,0.8,4.1l0.5,4.6
	c0.4,2.6,0.6,5.3,0.6,8c0,1.5-0.1,3-0.3,4.6c-0.1,1.1-0.3,2.2-1,3.1c-1.2,1.6-3.4,2-5.4,2.1c-0.8,0-1.5,0-2.3-0.1
	c-3.3-0.7-5.9-5.4-3.3-8.3c1.1-1.2,2.7-1.3,3.3-3C308.1,357.2,308.3,354.5,308.8,352.1L308.8,352.1z"/>
<path id="XMLID_52_" class="st13" d="M306.1,352.9l2.7,4.3c0.2,0.2,0.3,0.5,0.3,0.7c0.1,0.6-0.3,1.1-0.7,1.5
	c-2.3,3.1-1.7,7.4-1,11.2c-7.4-2.3-12.8-8.7-13.9-16.4c-0.3-2.3-0.9-6,1.1-7.4C299.4,343.3,303.8,349.2,306.1,352.9L306.1,352.9z"/>
<path id="XMLID_51_" class="st2" d="M319.5,344.3c-1-0.2-2.1,0-3.1-0.4c-1.7-0.8-2.1-3-2.2-4.8v-0.6c0.6-0.6,1.3-1.2,2-1.7
	c0.6-0.4,1.3-0.7,2-0.9l1.9-0.7c0.2,0.5,0.3,1,0.4,1.5c0.2,1.2,0,2.5,0.3,3.8c0.3,1.1,0.9,2.1,1.6,3l2.7,4c-0.5-0.1-1-0.2-1.5-0.4
	C322.6,345.7,321.2,344.6,319.5,344.3L319.5,344.3z"/>
<linearGradient id="XMLID_4_" gradientUnits="userSpaceOnUse" x1="472.144" y1="956.9479" x2="472.144" y2="1164.085" gradientTransform="matrix(1 0 0 -1 168 1463.5)">
	<stop  offset="0" style="stop-color:#818181;stop-opacity:0.25"/>
	<stop  offset="0.54" style="stop-color:#818181;stop-opacity:0.12"/>
	<stop  offset="1" style="stop-color:#818181;stop-opacity:0.1"/>
</linearGradient>
<path id="XMLID_48_" class="st14" d="M691.8,362.1c-0.5-2.4-1.4-4.6-2-7c-0.2-1.2-0.5-2.4-0.9-3.6c-0.2-0.5-0.4-1-0.7-1.5l0.3-0.2
	c-0.9-1.5-0.9-3.3-1.3-5c-0.4-1.4-1.1-2.8-1.5-4.2c-0.6-2-0.7-4.2-1.9-5.8c-0.5-0.6-1.1-1.1-1.6-1.7c-0.6-0.7-1.1-1.5-1.7-2.1
	c-1.8-1.9-4.5-2.5-7.1-2.8s-5.3-0.3-7.6-1.3c-1-0.5-2.1-1.1-3.1-1c-0.6-0.6-1.1-1.2-1.6-1.8c-0.8-1-1.5-2-2.2-3.1
	c0.5-0.9,0.9-1.8,1.2-2.7l0.2-0.1c0.7-0.5,1.3-1.2,1.9-1.7c0.6-0.4,1.3-0.9,1.4-1.6s-0.6-1.3-1-1.9c-1.5-2.2,0.2-5.7-1.4-7.9
	c-0.8-1.1-2.1-1.5-3.4-2.1c-1.7-0.7-3.2-1.8-4.9-2.5s-3.6-1.1-5.3-0.4c-3.2,1.3-4.3,5.8-7.5,7c-0.3,0.1-0.7,0.3-0.9,0.5
	c-0.4,0.6-0.9,4.4-0.8,5.2c0.1,1,0.4,1.5,1.1,1.9v0.7c0,5.4,3.7,9.8,8.6,10.7c0.5,0.5,0.9,1.1,1.2,1.7c0.2,0.6,0.4,1.3,0.4,2
	c-0.2-0.1-0.4-0.1-0.6-0.1c-0.6,0.1-1.2,0.5-1.3,1.2c-0.2,0.6-0.2,1.3-0.2,1.9c0.1,0.4-0.1,0.8-0.4,1.1c-0.2,0.1-0.3,0.1-0.5,0.2
	c-0.7,0.1-1.3,0.2-2,0.2c-1.1,0-2.3-0.3-3.2,0.3s-1.4,1.7-1.9,2.7c-0.7,1.5-1.6,2.9-2.6,4.1c-1.2,1.4-2.6,2.7-3,4.5v0.1
	c-0.9,0.4-1.9,1.4-2.5,1.9c-1.3,1-2.5,2-3.7,3.1s-2.8,2.6-3.5,4.1c-0.4,0.7-0.9,1.2-1.5,1.7c-1.2,0.8-2.8,0.4-4.1-0.1
	c-3.8-1.2-7.5-2.4-11-4.3c-0.2-0.1-0.4-0.2-0.6-0.1c-0.1,0-0.2,0.1-0.3,0.2l-0.1-0.1c-0.9-1-2.4-1.1-3-2.6l-0.3-1.5
	c-0.3-1.5-0.9-2.9-1.6-4.3c-0.1-0.3-0.3-0.5-0.5-0.7c-0.5-0.2-1,0-1.3,0.4c-0.2,0.4-0.3,0.9-0.3,1.4s0.1,1.2-0.3,1.6
	c-0.2,0.1-0.3,0.2-0.5,0.3c-1.2,0.4-2.6,0-3.7-0.6s-2.2-1.4-3.3-2.1l-1.8-0.9c-0.6-0.3-1.6-0.4-1.9,0.2c-0.3,0.5,0,1.1,0.3,1.6
	c0.6,0.8,1.2,1.6,2,2.2c2.2,2,5,3.1,7.5,4.4c2.2,1.2,4.4,2.6,6.3,4.2c-0.1,0.2-0.1,0.5-0.1,0.8c0,1,0.4,2,1.2,2.6
	c0.7,0.6,1.5,1.2,2.4,1.6c4.5,2.3,9,4.6,13.5,6.8c0.3,0.2,0.6,0.3,0.9,0.3c0.9,0,1.5-1,2.2-1.5c0.7-0.6,1.7-0.7,2.6-1
	c1.6-0.5,3-1.6,4.3-2.6l4.3-3.3c2.2-1.6,4.4-3.4,6.2-5.4c0.2,0.5,0.6,0.9,1,1.3c-0.4,0.8,0.4,1.6,0.6,2.5c0.1,0.6,0.1,1.1,0,1.7
	c0.1,0.8,0.2,1.6,0.4,2.4c0.2,1.3,0.3,2.6,0.3,3.9c0,1.5,0,3,0.1,4.4c0,1.9,0.1,3.8-0.3,5.7c-0.5,2.5-1.9,4.9-1.8,7.5
	c0.1,0.5,0,1-0.1,1.4c-1.1,2.1-2,4.4-3.2,6.5c-0.4,0.5-0.6,1.1-0.8,1.6c-0.1,0.6-0.1,1.2,0.2,1.8c-0.5,0.8-0.7,1.8-0.8,2.7
	c-0.1,2.4,0.9,4.6,1.3,7c0.4,2.2,0.4,4.4,0.5,6.6c0.3,10.3,2.3,20.5,2.8,30.7c0.2,4.7,0.1,9.5-0.4,14.2c-0.3,3-0.8,6.1-0.9,9.1
	c-0.5,8.7,1.3,17.3,3.1,25.8c0.5-0.6,1.3-1.1,2.1-1.2c-0.2,0.8-0.5,1.9-0.8,2.8c-0.4,0.1-0.9,0.2-1.2,0.4c-1.1,0.7-1.4,2-2,3.2
	c-1.3,2.4-4,3.7-6.1,5.3c-1,0.8-2.1,2-1.8,3.3c3.7,1.1,7.8,2,11.4,0.6c1.5-0.6,2.8-1.6,4.4-1.7c1.2,0,2.4,0.5,3.5,0.1
	c0.3-0.1,0.5-0.2,0.7-0.5c0.1-0.3,0.2-0.6,0.2-0.8c0.1-2,0.1-4,0-6c-0.1-1.7,0.1-3-1.3-3.2c-0.3-0.8-0.6-1.7-0.8-2.6
	c0-0.2,0-0.3-0.1-0.5c0.4,0,0.8,0,1.1-0.1c0.2,0,0.5-0.1,0.7-0.2c-0.1-0.3-0.1-0.6-0.2-0.9l-0.3-1.8c-0.1-0.6-0.1-1.2-0.2-1.8v-0.9
	v-1.8V481c0-0.6,0.1-1.2,0.1-1.8c0.1-1.5,0.2-3,0.4-4.5c0.4-4.4,0.9-8.7,1.3-13.1c0.1-1.3,0.3-2.6,0.3-3.9c0-0.8,0-1.6-0.1-2.3
	c-0.2-1.9-0.8-3.8-0.8-5.7v-0.9c0-0.3,0.1-0.6,0.2-0.9c0-0.2,0.1-0.3,0.1-0.5c0.1-0.3,0.2-0.7,0.3-1c0.1-0.2,0.1-0.3,0.2-0.5
	c0.2-0.7,0.3-1.4,0.3-2.2V443l0.5-10.3c0.1-1.6,0.2-3.4,0.9-4.9c0.3-0.6,0.7-1.2,1.2-1.7c-0.1-0.4,0-0.9,0.4-1
	c0.4,5.3,0.4,10.5-0.2,15.8c-0.2,1.6-0.5,3.3-0.5,4.9c-0.2,3.6,0.6,7.3,0.9,10.9c0.3,3.6,0,7.4,0,11.1c0,6.3,0.7,12.7,1.4,19
	l0.4,0.3c0,0.6,0.1,1.2,0.1,1.7c0,0.2,0,0.4,0.1,0.5h-0.2c-0.8,0.1-1.6,0.5-2,1.3c-0.4,0.7-0.7,1.5-0.9,2.3
	c-0.2,0.6-0.3,1.2-0.3,1.9c0.2,1.2,1.2,2.1,1.5,3.3c0.5,2.1-1.6,4.4-0.6,6.4c0.6,1.3,2.1,1.6,3.5,1.8c2,0.3,4.4,0.6,6-0.8
	c0.9-0.8,1.4-1.9,1.4-3.1c0-1.5-0.9-2.9-1.3-4.4c-0.6-2.1,0.3-4.9-0.6-6.8c-0.1-0.2-0.2-0.4-0.3-0.5h0.3c-0.1-0.7-0.1-1.4-0.2-2.1
	l0.7-0.4c0.7-0.4,1.6-0.6,2.3-0.4c-0.3-3.6-0.4-7.6,0.5-11.2c0.6-2.8,1.8-5.4,2.4-8.2c0.4-2.3,0.5-4.7,0.5-7.1c0-4.4,0-8.8-0.7-13.1
	c-0.3-1.7-0.7-3.5-0.4-5.2c0.2-1.1,0.7-2.2,1-3.3c0.7-2.6,0.2-5.4,0.6-8.1c1-6.4,1.5-13,2.3-19.4c0.4-3.6,0.5-7.3,0.4-10.9l1.5-3
	c1.1-2.1,2.2-4.3,2.8-6.5c0.2,0.3,0.4,0.7,0.5,1l6.7-11.1c0.4-0.7,0.8-1.4,1-2.1c0.2-0.5,0.2-1.1,0.3-1.6c0.3-1.4,1-2.7,1.6-4
	C692.2,370.3,692.6,366.1,691.8,362.1L691.8,362.1z M681.8,367.6c-0.3,1.8-0.7,3.6-1.3,5.4c-0.9,3-1.9,6-2.9,9l-0.9,2.5
	c-0.3,1-0.8,2-1.3,2.9c-0.1,0.2-0.3,0.5-0.4,0.7c-0.9-3.4,0.1-7.2-0.1-10.8c-0.2-2.7-1-5.5-0.4-8.1c0.4-1.8,1.5-3.3,2.2-5
	c0.7-1.5,1.1-3.2,1.9-4.7v0.1c0.7,1.8,1.5,3.6,2.5,5.3c0.3,0.4,0.5,0.8,0.6,1.3C681.9,366.6,681.9,367.1,681.8,367.6L681.8,367.6z"
	/>
<path id="XMLID_47_" class="st15" d="M603.5,349.3c-0.2-0.5-0.3-1-0.3-1.5c-0.3-1.5-1-2.9-1.7-4.3c-0.1-0.3-0.3-0.5-0.5-0.7
	c-0.5-0.2-1,0-1.3,0.4c-0.2,0.4-0.3,0.9-0.3,1.5s0.1,1.2-0.3,1.6l-0.6,0.3c-1.3,0.4-2.7,0-3.9-0.6s-2.3-1.4-3.4-2.1
	c-0.6-0.3-1.3-0.6-1.9-0.9c-0.7-0.3-1.6-0.5-2,0.2c-0.3,0.5,0,1.1,0.4,1.6c0.6,0.8,1.3,1.6,2.1,2.2c2.3,2,5.2,3.1,7.9,4.4
	c3,1.5,5.8,3.4,8.4,5.7c0.2-0.3,0.4-0.7,0.4-1c0.2-1.1,1.1-3.3,0.2-4.2C605.6,351,604,350.9,603.5,349.3L603.5,349.3z"/>
<path id="XMLID_46_" class="st16" d="M645.8,494.2c2.3,1.8,5.1,2.6,7.9,2.2c0.6-0.1,1.3-0.3,1.5-0.8c0.1-0.3,0-0.7-0.1-1
	c-0.4-1.1-0.8-2.2-1-3.3c-0.1-1-0.1-2.2-0.9-2.9c-1.2-0.9-4.4-0.8-5.1,0.5C647.8,489.3,646.6,494.9,645.8,494.2L645.8,494.2z"/>
<path id="XMLID_45_" class="st16" d="M662.8,489.2c-0.1,0.4,0.1,0.9,0.6,1h0.1c1.9,0.6,3.9,0.9,6,1l-0.4-4.1c0-0.3-0.2-0.7-0.6-0.7
	h-0.1c-1.2-0.2-3.6-1-4.7-0.6C662.4,486.4,662.8,488,662.8,489.2L662.8,489.2z"/>
<path id="XMLID_44_" class="st15" d="M651,327.4c0.3,0.9,0.5,1.8,0.5,2.7c0.1,3.3-0.5,6.8-2.7,9.1c2.6-0.8,5.4-0.3,7.8-1.4
	c1.1-0.5,2.1-1.4,3.1-2c1.9-1.2,4-1.7,6-2.8s3.7-2.8,3.8-5c-0.8-0.9-2.2-1-3.3-1.5c-1.2-0.6-2.1-1.6-2.9-2.7c-1-1.1-1.9-2.4-2.6-3.7
	c-0.7-1.3-1-2.8-0.8-4.3c-2.2,0.4-3.7,2.3-5.8,3.1c-0.8,0.3-1.6,0.5-2.4,0.8c-1.1,0.5-3.3,2.2-3.4,3.6
	C648.3,324.7,650.4,326.1,651,327.4L651,327.4z"/>
<path id="XMLID_43_" class="st12" d="M651,327.4c0.3,0.9,0.5,1.8,0.5,2.7c0.1,3.3-0.5,6.8-2.7,9.1c2.6-0.8,5.4-0.3,7.8-1.4
	c1.1-0.5,2.1-1.4,3.1-2c1.9-1.2,4-1.7,6-2.8s3.7-2.8,3.8-5c-0.8-0.9-2.2-1-3.3-1.5c-1.2-0.6-2.1-1.6-2.9-2.7c-1-1.1-1.9-2.4-2.6-3.7
	c-0.7-1.3-1-2.8-0.8-4.3c-2.2,0.4-3.7,2.3-5.8,3.1c-0.8,0.3-1.6,0.5-2.4,0.8c-1.1,0.5-3.3,2.2-3.4,3.6
	C648.3,324.7,650.4,326.1,651,327.4L651,327.4z"/>
<path id="XMLID_42_" class="st17" d="M678.8,412.6c-0.8,6.4-1.3,13.1-2.4,19.5c-0.4,2.7,0.1,5.5-0.6,8.1c-0.3,1.1-0.8,2.2-1.1,3.3
	c-0.3,1.7,0.1,3.5,0.4,5.2c0.8,4.3,0.8,8.7,0.8,13.1c0,2.4,0,4.8-0.5,7.1c-0.6,2.8-1.8,5.5-2.5,8.3c-0.9,3.5-0.8,7.6-0.5,11.2
	c-0.8-0.3-1.7,0-2.4,0.4c-0.8,0.4-1.5,0.8-2.3,0.9c-1.1,0.1-2.2-0.5-3.2-1.1c-0.8-0.4-1.4-0.8-2.2-1.3c-0.7-6.3-1.5-12.7-1.4-19.1
	c0-3.7,0.3-7.4,0-11.1s-1.1-7.3-1-10.9c0.1-1.7,0.4-3.3,0.6-4.9c0.6-5.3,0.5-10.5,0.2-15.8c-0.4,0.1-0.5,0.7-0.4,1
	c-0.5,0.5-1,1.1-1.3,1.7c-0.7,1.5-0.8,3.3-0.9,4.9l-0.5,10.3c0,1-0.1,2-0.4,2.9c-0.2,0.7-0.5,1.3-0.6,2c-0.6,2.5,0.4,5,0.7,7.5
	c0.3,2.1,0,4.2-0.2,6.3l-1.4,13.1c-0.5,4.8-1,9.7,0,14.3c0.1,0.3,0.1,0.6,0.2,0.9c-0.2,0.1-0.5,0.1-0.7,0.2c-0.8,0.1-1.7,0.1-2.5,0
	l-2.4-0.3c-1.9-0.2-3.7-0.3-5,1.1c-1.9-8.5-3.8-17.2-3.3-25.9c0.2-3.1,0.6-6.1,1-9.2c0.5-4.7,0.7-9.5,0.5-14.3
	c-0.4-10.3-2.5-20.5-2.9-30.8c-0.1-2.2-0.1-4.4-0.5-6.6c-0.5-2.3-1.5-4.6-1.4-7s1.8-5,4.2-4.9c6.6,0.4,12.7-3.3,19.3-3.9
	c3-0.3,6.1-0.7,9-0.2c3,0.5,5.9,2.2,7.1,5c0.6,1.5,0.7,3.2,0.7,4.8C679.2,403.2,679.3,407.9,678.8,412.6L678.8,412.6z"/>
<path id="XMLID_41_" class="st3" d="M645.4,493.5c-1.1,0.7-1.5,2.1-2.1,3.2c-1.4,2.4-4.1,3.7-6.4,5.4c-1.1,0.8-2.2,2-1.8,3.3
	c3.9,1.1,8.1,2.1,11.9,0.6c1.5-0.6,3-1.6,4.6-1.7c1.2,0,2.5,0.5,3.7,0.1c0.3-0.1,0.6-0.2,0.7-0.5c0.1-0.3,0.2-0.6,0.2-0.8
	c0.1-2,0.1-4,0-6c-0.1-1.9,0.1-3.3-2.1-3.2C651.6,494,647.6,492.2,645.4,493.5L645.4,493.5z"/>
<path id="XMLID_40_" class="st3" d="M664.1,490.1c-0.5-0.2-0.9-0.3-1.4-0.3c-0.9,0.1-1.6,0.5-2.1,1.3c-0.4,0.7-0.8,1.5-0.9,2.3
	c-0.2,0.6-0.3,1.2-0.3,1.9c0.2,1.2,1.2,2.1,1.5,3.3c0.5,2.1-1.7,4.5-0.7,6.4c0.6,1.3,2.2,1.6,3.6,1.8c2.1,0.3,4.6,0.6,6.2-0.8
	c0.9-0.8,1.4-1.9,1.4-3.1c0-1.6-1-2.9-1.4-4.4c-0.6-2.1,0.3-4.9-0.6-6.8C668.7,490.1,665.8,490.6,664.1,490.1L664.1,490.1z"/>
<circle id="XMLID_39_" class="st15" cx="651.7" cy="314.9" r="11"/>
<path id="XMLID_38_" class="st8" d="M657.5,332.9c-1.2-0.5-2.5-0.6-3.7-0.3l-1-1.7c-0.4-0.8-1.1-1.6-1.9-1.6
	c-0.7,0.1-1.2,0.5-1.4,1.2c-0.2,0.6-0.3,1.3-0.2,1.9c0.1,0.4-0.1,0.8-0.4,1.1c-0.2,0.1-0.3,0.1-0.5,0.2c-0.7,0.1-1.4,0.2-2.1,0.2
	c-1.1,0-2.4-0.3-3.4,0.3c-1,0.5-1.5,1.7-1.9,2.7c-0.7,1.5-1.6,2.9-2.7,4.1c-1.2,1.4-2.8,2.7-3.1,4.5c-0.1,0.8,0.6,1.3,1.1,1.9
	c2.2,2.2,5.3,3.5,6.9,6.2c0.4,0.6,0.7,1.3,1.3,1.7c-0.4,0.8,0.4,1.6,0.6,2.5c0.1,0.6,0.1,1.1,0,1.7c0.1,0.8,0.2,1.6,0.4,2.4
	c0.2,1.3,0.3,2.6,0.3,4l0.1,4.4c0,1.9,0.1,3.8-0.4,5.7c-0.6,2.5-2,5-1.9,7.6c0.1,0.5,0,1-0.1,1.5c-1.2,2.1-2.1,4.4-3.3,6.5
	c-0.4,0.5-0.6,1.1-0.8,1.6c-0.3,1.2,0.3,2.5,1.3,3.3s2.3,1.1,3.5,1.3c11.4,2.2,23.2-0.4,33.9-4.7c0.3-0.1,0.5-0.2,0.8-0.4
	c0.8-0.8,0.2-2.1-0.3-3c-1.7-3.7-0.3-8-0.6-12.1c-0.2-2.7-1-5.5-0.4-8.2c0.4-1.8,1.5-3.3,2.3-5c0.8-1.8,1.3-3.8,2.4-5.4
	c0.8-1.1,1.8-2.2,2.9-3l6.9-6.1c-0.9-1.5-0.9-3.3-1.4-5c-0.4-1.4-1.1-2.8-1.6-4.2c-0.6-2-0.7-4.2-2-5.8c-0.5-0.6-1.2-1.1-1.7-1.7
	c-0.6-0.7-1.1-1.5-1.8-2.2c-1.9-1.9-4.8-2.6-7.4-2.8s-5.5-0.3-8-1.4c-1.2-0.5-2.5-1.3-3.8-0.9c-1,0.3-1.6,1.3-2.1,2.3
	c-0.4,1-0.7,2-1.4,2.8S658.7,332.4,657.5,332.9L657.5,332.9z"/>
<path id="XMLID_37_" class="st8" d="M624.9,354.8c-0.4,0.7-0.9,1.2-1.5,1.7c-1.3,0.8-2.9,0.4-4.3-0.1c-3.9-1.2-7.9-2.4-11.5-4.3
	c-0.2-0.1-0.4-0.2-0.6-0.1c-0.2,0.1-0.3,0.2-0.4,0.3c-0.6,0.6-1.1,1.3-1.6,2s-0.8,1.4-0.9,2.3c0,1,0.5,2,1.2,2.7
	c0.8,0.7,1.6,1.2,2.5,1.6c4.7,2.3,9.4,4.6,14.1,6.8c0.3,0.2,0.6,0.3,1,0.3c1,0,1.6-1,2.3-1.6c0.8-0.6,1.8-0.7,2.7-1
	c1.7-0.5,3.1-1.6,4.5-2.6l4.5-3.3c3.9-2.9,8.1-6,9.8-10.5l-5.5-1.8c-1.6-0.5-3.4-1.4-5.1-1.7c-1.3-0.2-2.8,1.4-3.7,2.1
	c-1.3,1-2.6,2-3.8,3.2C627.4,351.8,625.7,353.2,624.9,354.8z"/>
<path id="XMLID_36_" class="st15" d="M676.8,390.8c-1.5,0.6-3.3-0.3-4.9,0c-0.8,0.2-1.5,0.5-2.2,0.9l-4.8,2.7
	c-0.3,0.2-0.6,0.6-0.4,0.8c0.1,0,0.2,0.1,0.2,0.1c1.6,0.2,3.1-0.8,4.7-1c0.7-0.1,1.4-0.1,2.1-0.1c0.1,0,0.2,0,0.3,0.1
	c0.2,0.1,0.4,0.4,0.4,0.7c0,0.3-0.1,0.5-0.1,0.8c0,0.6,0.3,1.2,0.7,1.7c1.5,2.2,3.2,4.3,5.1,6.2c0.5-0.6,0.9-1.2,1.2-1.9l1.6-3
	c1.6-3,3.3-6.2,3.6-9.7c-1.2-0.4-3.4-1.6-4.6-1C678.5,388.6,678.2,390.3,676.8,390.8L676.8,390.8z"/>
<path id="XMLID_35_" class="st2" d="M650.3,313.2c3.1,0.3,5.9,1.8,8.7,3.2c-0.5,0.7,0.1,1.8,1,2.1c0.8,0.3,1.8-0.1,2.5-0.6
	s1.3-1.2,2-1.7c0.6-0.4,1.4-0.9,1.5-1.6s-0.6-1.3-1.1-2c-1.6-2.2,0.2-5.7-1.5-7.9c-0.8-1.1-2.2-1.5-3.5-2.1
	c-1.7-0.7-3.3-1.8-5.1-2.6c-1.8-0.7-3.8-1.1-5.5-0.4c-3.3,1.3-4.5,5.8-7.8,7c-0.4,0.1-0.7,0.3-0.9,0.5c-0.4,0.6-0.9,4.4-0.8,5.2
	c0.2,1.3,0.5,1.8,1.8,2.2C644.2,315.3,647.4,312.8,650.3,313.2L650.3,313.2z"/>
<path id="XMLID_34_" class="st8" d="M690.3,348.1c1,0.9,1.8,2,2.3,3.3c0.4,1.2,0.7,2.4,1,3.6c0.6,2.4,1.5,4.6,2,7
	c0.9,4.1,0.4,8.3-1.3,12.1c-0.6,1.3-1.3,2.6-1.7,4c-0.1,0.5-0.2,1.1-0.3,1.6c-0.3,0.7-0.6,1.5-1.1,2.1l-6.9,11.1
	c-0.5-1.3-1.6-2.3-3-2.8c-1.3-0.4-2.8-0.5-4.1-0.2c0.5-0.8,0.7-1.7,1.3-2.5c0.3-0.4,0.6-0.9,0.8-1.3l0.6-1.5l0.9-2.6
	c1.1-3,2.1-6,3-9c0.6-1.8,1-3.6,1.3-5.4c0.1-0.5,0.1-0.9,0-1.4s-0.4-0.9-0.6-1.3c-1-1.7-1.9-3.5-2.6-5.3c-0.5-1.3-1.1-2.7-0.6-4
	c0.3-0.7,0.8-1.3,1.4-1.8C685,351.6,687.6,349.7,690.3,348.1L690.3,348.1z"/>
<path id="XMLID_33_" class="st12" d="M655.2,490.7l0.5-1c-1-4.7-0.5-9.6,0-14.3l1.4-13.1c0.2-2.1,0.4-4.2,0.2-6.3
	c-0.3-2.5-1.3-5.1-0.7-7.5c0.2-0.7,0.5-1.3,0.6-2c0.2-1,0.3-1.9,0.4-2.9l0.5-10.3c0.1-1.7,0.2-3.4,0.9-4.9v-0.3l-1.7-15l-4.6,77.8
	h2.5L655.2,490.7L655.2,490.7z"/>
<path id="XMLID_32_" class="st18" d="M615.7,497.1c1.3-2.3-0.2-5.2-1.8-7.2c-1.6-2.1-3.6-4.2-3.6-6.9c0.1-3.8,4.1-6,7.3-8.1
	c2.4-1.5,4.6-3.3,6.6-5.3c0.8-0.8,1.5-1.7,2-2.7c0.7-1.5,0.6-3.2,0.6-4.8c-0.1-5.4-0.4-10.8-0.8-16.2"/>
<path id="XMLID_31_" class="st19" d="M632.1,445.6c-0.1-2-1.2-3.8-3-4.9l-1.3,2.6v-3.2c-0.6-0.2-1.3-0.3-2-0.2
	c-3.3,0.2-5.8,2.9-5.6,6.2c0.2,3.3,2.9,5.8,6.2,5.6C629.7,451.6,632.2,448.9,632.1,445.6L632.1,445.6z"/>
<path id="XMLID_30_" class="st19" d="M621.5,485.7c-1.5,2.9-5.1,4-8,2.5s-4-5.1-2.5-8s5.1-4,8-2.5c1.3,0.7,2.3,1.8,2.8,3.2l-3.7,3
	l4.1-0.9C622.2,484,622,484.9,621.5,485.7L621.5,485.7z"/>
<path id="XMLID_29_" class="st19" d="M618.6,474.2c-3.3,0.2-6.1-2.2-6.3-5.5c-0.2-2.8,1.7-5.4,4.4-6.1v2.4l1.3-2.7
	c3.3-0.2,6,2.4,6.2,5.6c0,0.7-0.1,1.4-0.3,2C623.2,472.4,621.1,474.1,618.6,474.2L618.6,474.2z"/>
<path id="XMLID_28_" class="st19" d="M633,464.7c-3.3,0.1-6-2.4-6.1-5.7c-0.1-3.3,2.4-6,5.7-6.1c1.1,0,2.1,0.2,3.1,0.7l-1,2.9
	l2.2-2.1c1.2,1.1,1.8,2.5,1.9,4.1c0,0.5,0,1.1-0.1,1.6C637.9,462.7,635.6,464.5,633,464.7L633,464.7z"/>
<path id="XMLID_27_" class="st12" d="M631.3,447.2c-1.4,0.1-2.7,0.6-4.1,0.7c-1.4,0.1-2.9-0.2-3.7-1.3c-0.5-0.6-0.7-1.3-1.1-1.9
	c-0.4-0.6-0.9-1.1-1.5-1.4c-1.4,2.9-0.2,6.5,2.8,7.9c2.9,1.4,6.5,0.2,7.9-2.8c0.2-0.4,0.3-0.8,0.4-1.2L631.3,447.2L631.3,447.2z"/>
<path id="XMLID_26_" class="st12" d="M633,464.7c-3.3,0.2-6-2.3-6.2-5.6c0-1,0.1-2,0.6-2.8c0.5,0.3,0.9,0.7,1.2,1.2
	c0.4,0.6,0.7,1.4,1.2,2c0.9,1.1,2.5,1.4,3.9,1.4c1.4-0.1,2.8-0.5,4.2-0.6h0.6C637.9,462.7,635.6,464.5,633,464.7z"/>
<path id="XMLID_25_" class="st12" d="M618.6,474.2c-3.3,0.2-6-2.3-6.2-5.6c0-0.9,0.1-1.9,0.5-2.7c0.5,0.3,0.9,0.7,1.3,1.2
	c0.5,0.6,0.7,1.4,1.3,2c1,1.1,2.7,1.5,4.2,1.5s2.9-0.4,4.3-0.5C623.3,472.4,621.1,474.1,618.6,474.2L618.6,474.2z"/>
<path id="XMLID_24_" class="st12" d="M621.5,485.7c-1.3,3-4.8,4.3-7.8,3s-4.3-4.8-3-7.8c0.5,0.3,0.9,0.7,1.3,1.2
	c0.6,0.7,0.9,1.5,1.6,2.1c1.2,1.2,3.2,1.7,4.9,1.7C619.5,485.9,620.5,485.8,621.5,485.7L621.5,485.7z"/>
<path id="XMLID_23_" class="st20" d="M606.7,494.4c0,0,4.7-0.1,6.1-1.1c1.4-1,7.2-2.2,7.5-0.6c0.4,1.6,7,8,1.8,8
	c-5.3,0-12.3-0.8-13.7-1.7C607,498.2,606.7,494.4,606.7,494.4L606.7,494.4z"/>
<path id="XMLID_22_" class="st21" d="M622.2,500.2c-5.3,0-12.3-0.8-13.7-1.7c-1.1-0.7-1.5-3-1.6-4.1h-0.2c0,0,0.3,3.8,1.7,4.6
	s8.4,1.7,13.7,1.7c1.5,0,2-0.6,2-1.4C623.9,499.9,623.3,500.2,622.2,500.2z"/>
<path id="XMLID_20_" class="st19" d="M271.8,450.3c0.1-2,1.2-3.8,3-4.9l1.3,2.6v-3.2c0.6-0.2,1.3-0.3,2-0.2c3.3,0.2,5.8,2.9,5.6,6.2
	s-2.9,5.8-6.2,5.6C274.2,456.3,271.7,453.5,271.8,450.3L271.8,450.3z"/>
<path id="XMLID_19_" class="st19" d="M282.4,490.4c1.5,2.9,5.1,4,8,2.5s4-5.1,2.5-8s-5.1-4-8-2.5c-1.3,0.7-2.3,1.8-2.8,3.2l3.7,3
	l-4.1-0.9C281.7,488.6,281.9,489.5,282.4,490.4L282.4,490.4z"/>
<path id="XMLID_18_" class="st19" d="M285.3,478.9c3.3,0.2,6.1-2.2,6.3-5.5c0.2-2.8-1.7-5.4-4.4-6.1v2.4l-1.3-2.7
	c-3.3-0.2-6,2.4-6.2,5.6c0,0.7,0.1,1.4,0.3,2C280.7,477.1,282.8,478.7,285.3,478.9L285.3,478.9z"/>
<path id="XMLID_17_" class="st19" d="M270.9,469.3c3.3,0.1,6-2.4,6.1-5.7s-2.4-6-5.7-6.1c-1.1,0-2.1,0.2-3.1,0.7l1,2.9L267,459
	c-1.2,1.1-1.8,2.5-1.9,4.1c0,0.5,0,1.1,0.1,1.6C266,467.3,268.3,469.2,270.9,469.3z"/>
<path id="XMLID_15_" class="st12" d="M272.6,451.9c1.4,0.1,2.7,0.6,4.1,0.7s2.9-0.2,3.7-1.3c0.5-0.6,0.7-1.3,1.1-1.9
	s0.9-1.1,1.5-1.4c1.4,2.9,0.2,6.5-2.8,7.9c-2.9,1.4-6.5,0.2-7.9-2.8c-0.2-0.4-0.3-0.8-0.4-1.2C272.2,451.8,272.4,451.8,272.6,451.9
	L272.6,451.9z"/>
<path id="XMLID_14_" class="st12" d="M270.9,469.3c3.3,0.2,6-2.3,6.2-5.6c0-1-0.1-2-0.6-2.8c-0.5,0.3-0.9,0.7-1.2,1.2
	c-0.4,0.6-0.7,1.4-1.2,2c-0.9,1.1-2.5,1.4-3.9,1.4c-1.4-0.1-2.8-0.5-4.2-0.6h-0.6C266,467.3,268.3,469.2,270.9,469.3L270.9,469.3z"
	/>
<path id="XMLID_13_" class="st12" d="M285.3,478.9c3.3,0.2,6-2.3,6.2-5.6c0-0.9-0.1-1.9-0.5-2.7c-0.5,0.3-0.9,0.7-1.3,1.2
	c-0.5,0.6-0.7,1.4-1.3,2c-1,1.1-2.7,1.5-4.2,1.5s-2.9-0.4-4.3-0.5C280.6,477.1,282.8,478.8,285.3,478.9L285.3,478.9z"/>
<path id="XMLID_12_" class="st12" d="M282.4,490.4c1.3,3,4.8,4.3,7.8,3s4.3-4.8,3-7.8c-0.5,0.3-0.9,0.7-1.3,1.2
	c-0.6,0.7-0.9,1.5-1.6,2.1c-1.2,1.2-3.2,1.7-4.9,1.7C284.4,490.5,283.4,490.5,282.4,490.4L282.4,490.4z"/>
<path id="XMLID_11_" class="st20" d="M297.2,499.1c0,0-4.7-0.1-6.1-1.1s-7.2-2.2-7.5-0.6c-0.4,1.6-7,8-1.8,8
	c5.3,0,12.3-0.8,13.7-1.7S297.2,499.1,297.2,499.1L297.2,499.1z"/>
<path id="XMLID_9_" class="st21" d="M281.7,504.8c5.3,0,12.3-0.8,13.7-1.7c1.1-0.7,1.5-3,1.6-4.1h0.2c0,0-0.3,3.8-1.7,4.6
	c-1.4,0.9-8.4,1.7-13.7,1.7c-1.5,0-2-0.6-2-1.4C280,504.5,280.6,504.8,281.7,504.8z"/>
</svg>
