<svg version="1.1" id="Layer_1" xmlns="http://www.w3.org/2000/svg" x="0" y="0" viewBox="0 0 800 800" xml:space="preserve"><style>.st2{fill:#403e56}.st3{fill:#cbcfda}.st4,.st5{fill:#6466af}.st5{opacity:.2;enable-background:new}.st7{fill:none;stroke:#fff;stroke-width:.4219;stroke-miterlimit:10}.st8{fill:#fff}.st10{fill:#585b8a}.st11{fill:#f9c1c7}.st12{opacity:.1;fill:#010101;enable-background:new}.st13{fill:#05bee1}.st15{fill:#a0626b}.st16{fill:#3d364d}.st19{fill:#57b894}.st20{fill:#666380}.st21{opacity:.2;fill:#010101;enable-background:new}</style><path id="XMLID_2_" d="M800.1 101.6c0-5.9-63.6-21.7-68.9-23.1-39.6-10.3-80.1-20.7-121.4-20.2-72.8.9-126.6 51.4-185.6 87.9-53.3 33-109.7 70.8-169.9 89.7-37 11.6-73.8 30.7-100.6 59.2-35.5 37.6-37.1 82.8-27.9 131.8 10.6 56.4 22.4 115.5 47 167.8 22.6 48.3 61.5 98.2 118.6 101 52.2 2.5 107.9-15.9 158.3-27.7 29.3-6.8 64.4-17.3 93.6-4.6 37.5 16.3 70.9 41.2 107.5 59.4 44.9 22.4 105.6 31.2 149.5 0-.2 0-.2-620.9-.2-621.2z" fill="#f81"/><path id="XMLID_7_" d="M799.1 140.5s-186-58.7-281.7-7.6c-45.9 24.5-85.9 56.5-127.9 86.8-16.9 12.1-34 23.1-53.5 30.5-40.2 15.1-78.3 25.1-112.6 52.6-32 25.7-49.1 55.4-41.6 96.9 9.7 53.8 23.1 108.7 46.2 158.5 16.7 36 43.4 79.6 86.9 84.4 64.9 7.2 129.6-13.7 192.8-24.7 21.8-3.8 38.3-2.6 56.6 10C579 638 593.7 648 609 657.1c36.7 22 80.5 41.5 124.3 37.8 77.3-6.5 66.4-50.1 66.4-50.1l-.6-504.3z" fill="#0a122a"/><path id="XMLID_91_" class="st2" d="M634.3 279.7v147.9c0 1.7-1.4 3-3 3H329.8c-1.7 0-3-1.4-3-3V279.7c0-1.7 1.4-3 3-3h301.5c1.6-.1 3 1.3 3 3z"/><path id="XMLID_90_" class="st3" d="M634.3 278.7v6.8H326.7v-6.8c0-1.1.9-2 2-2h303.5c1.2-.1 2.1.8 2.1 2z"/><circle id="XMLID_89_" class="st4" cx="333.5" cy="280.9" r="2.1"/><circle id="XMLID_88_" class="st4" cx="339.4" cy="280.9" r="2.1"/><circle id="XMLID_87_" class="st4" cx="345.3" cy="280.9" r="2.1"/><path id="XMLID_86_" class="st5" d="M584.8 384.6V410l-208.9.1-.2-50.8c2.2 6.5 7.7 7.7 17.2-3.8 23.4-28 55.3-35.4 79.9-36.1 16.9-.5 33.7 3 49.8 9.9 6.7 2.9 33 6 50.5 7.4 6.6.5 11.6 6 11.6 12.5l.1 35.4z"/><path id="XMLID_85_" class="st5" d="M584.8 359.8v50.5H375.7v-11c6-1.5 28.3-7.3 39.1-23.3 12.8-19.2 30.3-24.2 43.7-24.7 9.2-.4 18.4 2 27.2 6.7 9.9 5.3 28.9 11.8 43.4-6.9 16-20.7 40.6-3.6 46.8 2.6 2.3 2.2 8.9 6.1 8.9 6.1z"/><path id="XMLID_84_" fill="none" stroke="#6466af" stroke-width=".844" stroke-miterlimit="10" d="M375.7 306.3v103.2h209.1"/><path id="XMLID_83_" class="st7" d="M402.1 409.5v-62.9"/><path id="XMLID_82_" class="st7" d="M427.5 409.5v-79.8"/><path id="XMLID_81_" class="st7" d="M452.8 409.5v-87.8"/><path id="XMLID_80_" class="st7" d="M478.2 409.5v-90.3"/><path id="XMLID_79_" class="st7" d="M503.6 409.5V322"/><path id="XMLID_78_" class="st7" d="M529 409.5v-77.3"/><path id="XMLID_77_" class="st7" d="M554.4 409.5v-72"/><circle id="XMLID_76_" class="st8" cx="401.9" cy="345.7" r="4.7"/><circle id="XMLID_75_" class="st8" cx="427.3" cy="329.7" r="4.7"/><circle id="XMLID_74_" class="st8" cx="452.7" cy="322" r="4.7"/><circle id="XMLID_73_" class="st8" cx="478.1" cy="319.2" r="4.7"/><circle id="XMLID_72_" class="st8" cx="503.5" cy="322" r="4.7"/><circle id="XMLID_71_" class="st8" cx="528.8" cy="332.5" r="4.7"/><circle id="XMLID_70_" class="st8" cx="554.2" cy="338" r="4.7"/><ellipse id="XMLID_69_" class="st2" cx="480.4" cy="503.2" rx="216.8" ry="8.9"/><linearGradient id="XMLID_3_" gradientUnits="userSpaceOnUse" x1="-227.289" y1="-154.875" x2="-227.289" y2="-353.366" gradientTransform="matrix(-1 0 0 1 89 663.5)"><stop offset="0" stop-color="#818181" stop-opacity=".25"/><stop offset=".54" stop-color="#818181" stop-opacity=".12"/><stop offset="1" stop-color="#818181" stop-opacity=".1"/></linearGradient><path id="XMLID_65_" d="M287.9 349.1c0 .4-.1.7-.3 1 1.7-.1 3.2-1.2 4.7-1.7-.3 1.6 0 3.6.2 5s.5 2.7 1 4c1.1 4.6 3 9.1 4.8 13.5.8 1.7 1.3 3.6 1.7 5.4 1.2 7.1-2.9 14-3.7 21.1-.1.4-.1.8 0 1.2-.1.1-.1.2-.2.2-2.9 4.4-2.5 11.8-2 17s2.2 10.2 3.7 15.2c.5 1.4.8 2.8 1.1 4.2.2 2 .3 3.9.1 5.9-.5 9.2-1.8 18.4-.3 27.4 1.1 6.6 3.5 12.6 3.8 19.2.2-.5.5-.9.9-1.3l.5 17.5c0 .3.1.7.3.9.3.2.7 0 1.1-.1 1.1-.1 1.8 1.1 2.6 1.9 1.1 1.3 2.8 1.9 4.5 2s3.4-.1 5-.5c.8-.1 1.6-.3 2.2-.8.6-.6.9-1.5.7-2.3-.3-2.6-3.1-4-4.5-6.2-1.6-2.6-1.3-6.1-2.9-8.7-.6-.9-1.3-1.7-1.8-2.6l-.6-1.8c.5.2 1 .4 1.4.7-.2-1.4-.3-2.7-.5-4.1l-.1-.6c-.2-1.9-.4-3.7-.6-5.6-.5-6.1 1.2-12.1 0-18.1-.3-1.3.2-2.6.5-3.8 2.1-7.1 3.4-14.4 3.9-21.8.2-2.6.1-5.1 1-7.6 1 4 4 7.1 5.9 10.8 1.2 2.3 1.9 4.8 3.2 7 .6 1.1 1.4 2.1 1.8 3.3.6 1.8.3 3.8 0 5.7-1.4 9.9-1.2 20-.8 30-.4 3.8-1.3 7.6-2.6 11.2-.5 1.4-1.1 3.1-.3 4.4.3.5.8.9 1.3 1.2 1.2.9 2.5 1.6 3.8 2.3.4.3.9.4 1.3.3.3-.1.6-.2.8-.4 1-.6 2.3-.5 3.5-.1 1.1.4 2.2 1.1 3.2 1.5 2.3 1 4.9 1.2 7.3.5 1-.3 2.1-.8 2.4-1.8s-.3-2.1-1.1-2.7c-.8-.7-1.8-1-2.7-1.5-2-1.1-3.7-2.7-4.7-4.7-.6-1.3-1.1-2.7-1.5-4.2-.5-1.7-1-3.4-1.5-5.2.3.2.5.4.8.6.7-8.5 1.4-17.1 3.2-25.4.9-4 2-8 1.6-12.1-.2-2.1-.9-4.2-1.5-6.3-2-6.4-3.7-12.9-5.2-19.4.6-.6 1-1.3 1.3-2.1.5-1.4.7-3 .8-4.5.7-10.3.7-20.5-.1-30.8-.2-2.6-.5-5.3-1.5-7.7h.6c-.7 0-1.9-7.1-2-7.9-.5-2.7-.8-5.5-1.3-8.2-.2-1.3-.5-2.7-.8-4-.2-.9-1.1-6.3-1.9-6.9-.1-.1-.2-.1-.3-.2-.4-1.2-1.2-2.2-2.2-2.9-1.2-.7-2.6-.7-3.9-.6-.4-.6-.8-1.1-1.2-1.7-.7-.9-1.2-1.9-1.6-3-.1-.5-.2-.9-.2-1.4v-.9-.5c0-.3 0-.6-.1-.9 0-.3-.1-.5-.2-.8 0-.1-.1-.2-.1-.3-.2-.6-.4-1.3-.6-1.9-.5-2.1-.3-4.2-.2-6.4.1-2.1-.1-4.4-1.3-6.2-.9-1.3-2.3-2.3-2.8-3.8-.2-.7-.2-1.5-.5-2.2-.4-.8-1.1-1.3-1.9-1.6-1-.4-2.9-1-3.9-.5-.2.1-.4.2-.5.4-1.1.1-2.2.2-3.1-.3-.7-.4-1.3-1.1-2-1.5-1.7-.9-3.8 0-5.3 1.2-2.4 2-4.1 4.6-5 7.5-.7 2.3-.9 4.9-2.8 6.4-.8.6-1.8.9-2.4 1.7-.4.6-.6 1.4-.6 2.1-.2 1.7-.4 3.5.1 5.2.3 1.3 1 2.4 1.4 3.6 1.1 3.6.1 7.5-2.6 10 .6.9 1.5 1.1 2.3.9zm40.5 51.2c1.2-.6 2-1.7 2.3-3 0 .2.1.3.1.5.5 2.2.4 4.5-.3 6.7-.5-1.6-1.2-2.9-2.1-4.2zm.9-9.4c-.7-1-1.3-2.1-1.8-3.2-.6-1.8-.5-3.8-.3-5.7.1-1.5.3-2.9.6-4.4.1 4.5.7 8.9 1.5 13.3z" fill="url(#XMLID_3_)"/><path id="XMLID_64_" class="st2" d="M312.9 313.8c.8.3 1.5.9 1.9 1.6.3.7.3 1.5.5 2.2.5 1.5 1.9 2.5 2.7 3.8 1.2 1.8 1.3 4 1.2 6.1-.1 2.1-.3 4.3.2 6.3.2 1 .7 2 .8 3 .2 1.2 0 2.5.3 3.8.3 1.1.9 2.1 1.6 3l2.7 4c-1.2-.3-2.4-.7-3.6-1.1.4 1.1 1 2.2 2 3l-2-2.4c-.4-.6-.9-1-1.5-1.4-.7-.4-1.6-.5-2.4-.6-1.6-.3-3.2-1.1-3.9-2.5-1-1.9-.4-4.3-.9-6.3-.4-1.5-1.5-2.8-2.2-4.2-1.6-3.2-1.5-6.9-2-10.4-.2-1.5-.5-3-.6-4.5 0-1.1.1-3.2 1.3-3.8 1.1-.6 3 0 3.9.4z"/><path id="XMLID_63_" class="st10" d="M335.1 480.3l2.1 7.5c.3 1.4.8 2.8 1.5 4.1 1 2 2.6 3.6 4.6 4.7.9.5 1.9.8 2.7 1.5s1.4 1.7 1.1 2.7-1.4 1.5-2.4 1.8c-2.4.7-4.9.5-7.2-.5-1.1-.5-2.1-1.1-3.2-1.5s-2.4-.5-3.4.1c-.2.2-.5.3-.8.4-.5.1-.9 0-1.3-.3-1.3-.7-2.5-1.4-3.7-2.3-.5-.3-.9-.7-1.2-1.2-.8-1.3-.2-3 .3-4.3 1.4-3.7 2.2-7.6 2.6-11.6 0-.4.1-.7.4-.9.2-.1.4-.1.6-.1l9-.4"/><path id="XMLID_62_" class="st10" d="M311.7 487.8c.5.9 1.2 1.7 1.8 2.6 1.6 2.6 1.2 6.1 2.8 8.7 1.4 2.2 4.1 3.6 4.4 6.2.1.8-.1 1.7-.7 2.3-.6.5-1.4.7-2.1.8-1.6.4-3.3.5-4.9.5-1.6-.1-3.3-.7-4.4-2-.7-.8-1.4-2-2.5-1.9-.4 0-.8.3-1.1.1-.2-.2-.4-.6-.3-.9l-.5-19.2c1.6-.2 4.4-.8 5.9-.3 1.2.4 1 1.9 1.6 3.1z"/><path id="XMLID_61_" class="st8" d="M327.5 399.1c3.9 4.8 5 11.2 6.3 17.3 1.6 7.8 3.6 15.6 5.9 23.3.6 2 1.3 4.1 1.5 6.2.4 4-.7 8.1-1.5 12-1.8 8.3-2.5 16.8-3.2 25.3-2.8-2.4-6.8-2.6-9.8-.5-.5-10.2-.7-20.5.7-30.7.3-1.9.6-3.9 0-5.7-.4-1.2-1.1-2.2-1.7-3.3-1.3-2.2-2-4.7-3.1-6.9-1.9-3.6-4.8-6.7-5.8-10.7-.8 2.5-.8 5-1 7.6-.4 7.4-1.7 14.6-3.8 21.7-.4 1.2-.8 2.5-.5 3.8 1.2 6-.5 11.9 0 18 .2 1.8.4 3.7.6 5.5l.1.6.5 4.1c-1.7-1.2-3.5-1-5.5-.9-.7 0-1.4.1-2 .4-.8.3-1.5 1-1.8 1.8-.2-6.6-2.6-12.6-3.7-19.1-1.5-9-.2-18.2.3-27.3.2-2 .1-3.9-.1-5.9-.3-1.4-.6-2.8-1.1-4.2-1.5-5-3.2-10-3.7-15.1-.5-5.2-.9-12.5 1.9-16.9.9-1.3 3-.7 4.4-1.6 1.1-.7 2.2-1.1 3.5-1.4 7.2-1.8 15 2 22.6 2.6z"/><path id="XMLID_60_" class="st11" d="M314.2 339.1c.2 1.8.6 4 2.2 4.8 1 .4 2.1.3 3.1.4 1.9.3 3.6 1.8 4.5 3.6.9 1.8 1.2 3.8 1.4 5.7.3 2.5.3 5.1-1 7.2-1.1 1.7-3 2.7-4.9 3.2-3.9 1-8.1.3-11.4-2.1-1.6-1.2-3-2.6-4.2-4.2-2.8-3.3-5.6-6.8-6.2-11.1-.1-.5-.1-1.1.3-1.4.3-.2.6-.2.9-.2h2.7c.7 0 1.4 0 1.9-.5s.4-1.2.4-1.8l-.2-7.8c0-.3 0-.6.2-.8.2-.2.4-.2.6-.3 1.5-.2 3 0 4.5-.4 1.4-.4 3.5-2 4.6-.3.7 1.5.4 4.4.6 6z"/><path id="XMLID_59_" class="st12" d="M314.2 339.1c.2 1.8.6 4 2.2 4.8 1 .4 2.1.3 3.1.4 1.9.3 3.6 1.8 4.5 3.6.9 1.8 1.2 3.8 1.4 5.7.3 2.5.3 5.1-1 7.2-1.1 1.7-3 2.7-4.9 3.2-3.9 1-8.1.3-11.4-2.1-1.6-1.2-3-2.6-4.2-4.2-2.8-3.3-5.6-6.8-6.2-11.1-.1-.5-.1-1.1.3-1.4.3-.2.6-.2.9-.2h2.7c.7 0 1.4 0 1.9-.5s.4-1.2.4-1.8l-.2-7.8c0-.3 0-.6.2-.8.2-.2.4-.2.6-.3 1.5-.2 3 0 4.5-.4 1.4-.4 3.5-2 4.6-.3.7 1.5.4 4.4.6 6z"/><circle id="XMLID_58_" class="st11" cx="307.4" cy="328.3" r="10.3"/><path id="XMLID_57_" class="st13" d="M318.4 356.8c1.7 0 3.5-.4 4.3-1.9.5-1 .5-2.2.4-3.3l-.6-6.3c1.6-.2 3.3-.3 4.8.5 1.9 1.1 2.5 3.4 2.8 5.5.4 4-.2 8.1 0 12.1.2 3.4 1 6.9 0 10.1-.4 1.3-1.1 2.6-1.6 3.9-.6 1.7-.7 3.5-.8 5.3-.2 1.9-.3 3.9.3 5.7.5 1.5 1.6 2.8 2.3 4.2 1.2 2.4 1.5 5.5-.4 7.4-1.7 1.7-4.5 1.8-6.8 1.3-2.4-.6-4.6-1.6-7-1.7-4.3-.2-8.1 2.6-12.2 3.5-.6.1-1.1.2-1.7.1-.5-.2-1-.4-1.4-.8l-2.3-1.6c-.5-.3-.8-.7-1.1-1.1-.2-.5-.2-1.1-.1-1.6.8-7.1 4.8-14 3.6-21-.4-1.9-.9-3.7-1.7-5.4-2.9-7.4-6.4-15.1-5.2-23 .2-1.7.8-3.5 2-4.8s3.2-1.9 4.8-1.1 2.1 2.7 2.8 4.3c1.3 3.1 3.4 5.8 6.1 7.9 1.1.9 2.5 2 4 2 1.4-.1 3-.2 4.7-.2z"/><path id="XMLID_56_" class="st11" d="M333.3 372.8c2.5 2.8 3 6.7 3.3 10.5.8 10.2.8 20.4.1 30.6 0 1.5-.3 3-.8 4.5-.5 1.4-1.5 2.7-2.9 3.3-.9.4-2.2.3-2.6-.6-.4-.8.2-1.7.6-2.5 1-1.8 1.3-3.9.9-5.9-.5.4-.7 1-.8 1.7l-.8 3.4c-1.1-.2-1.5-1.5-1.7-2.6-.3-2-.6-4.1.2-6 .4-1 1.1-1.8 1.6-2.8 1.1-2.5 1.5-5.3.8-7.9-2.3-8.8-3.4-18-3-27.1 1.5.8 3.3 1.3 5.1 1.4z"/><path id="XMLID_55_" class="st13" d="M335.6 375.6c-3.1 0-6.1.4-9.1 1.2-.4-1.9-.2-3.9 0-5.9l1.3-13.5c.1-1-.1-10.2 1.8-8.6.7.6 1.6 6 1.8 6.8.3 1.3.6 2.6.8 3.9.5 2.7.8 5.5 1.3 8.2.3.8 1.4 7.9 2.1 7.9z"/><path id="XMLID_54_" class="st2" d="M311.3 315.2c0-.3-.1-.6-.2-.9-.3-.3-.7-.5-1.1-.6-1.5-.2-3.1.4-4.4-.3-.7-.4-1.2-1.1-1.9-1.5-1.7-.9-3.8 0-5.3 1.2-2.4 2-4.1 4.6-4.9 7.5-.7 2.3-.9 4.9-2.8 6.4-.8.6-1.8.9-2.4 1.7-.4.6-.6 1.4-.6 2.1-.2 1.7-.4 3.5.1 5.2.3 1.3 1 2.4 1.4 3.6 1.1 3.5.1 7.4-2.6 10 .7.4 1.5.6 2.3.4 0 .4-.1.7-.3 1 2.4-.1 4.5-2.4 6.8-1.9 1.8.4 2.8 2.2 4.1 3.5 1.7 1.6 4.4 2.3 6.6 1.3s3.5-3.7 2.6-5.9c-1-2.5-4.3-3.5-5.4-5.9-.9-1.9-.2-4.1-.4-6.2-.2-1.8-.9-3.5-1.4-5.2s-.6-3.7.3-5.2c1-1.6 3-2.2 4.8-2.8 4.1-1.3 4.9-3.3 4.7-7.5z"/><path id="XMLID_53_" class="st11" d="M308.8 352.1c.3-1.4.6-3 .1-4.3-1-2.5-4.1-3.3-6.3-5-1.3-1-2.2-2.2-2.8-3.7-.4-1-.4-2.5.5-3 .4-.2.8-.3 1.2-.2 3.4.1 6.5 1.9 9.1 4.1 1.5 1.3 3 2.7 3.7 4.5.5 1.3.8 2.7.8 4.1l.5 4.6c.4 2.6.6 5.3.6 8 0 1.5-.1 3-.3 4.6-.1 1.1-.3 2.2-1 3.1-1.2 1.6-3.4 2-5.4 2.1-.8 0-1.5 0-2.3-.1-3.3-.7-5.9-5.4-3.3-8.3 1.1-1.2 2.7-1.3 3.3-3 .9-2.4 1.1-5.1 1.6-7.5z"/><path id="XMLID_52_" class="st13" d="M306.1 352.9l2.7 4.3c.2.2.3.5.3.7.1.6-.3 1.1-.7 1.5-2.3 3.1-1.7 7.4-1 11.2-7.4-2.3-12.8-8.7-13.9-16.4-.3-2.3-.9-6 1.1-7.4 4.8-3.5 9.2 2.4 11.5 6.1z"/><path id="XMLID_51_" class="st2" d="M319.5 344.3c-1-.2-2.1 0-3.1-.4-1.7-.8-2.1-3-2.2-4.8v-.6c.6-.6 1.3-1.2 2-1.7.6-.4 1.3-.7 2-.9l1.9-.7c.2.5.3 1 .4 1.5.2 1.2 0 2.5.3 3.8.3 1.1.9 2.1 1.6 3l2.7 4c-.5-.1-1-.2-1.5-.4-1-1.4-2.4-2.5-4.1-2.8z"/><linearGradient id="XMLID_4_" gradientUnits="userSpaceOnUse" x1="472.144" y1="-156.948" x2="472.144" y2="-364.085" gradientTransform="translate(168 663.5)"><stop offset="0" stop-color="#818181" stop-opacity=".25"/><stop offset=".54" stop-color="#818181" stop-opacity=".12"/><stop offset="1" stop-color="#818181" stop-opacity=".1"/></linearGradient><path id="XMLID_48_" d="M691.8 362.1c-.5-2.4-1.4-4.6-2-7-.2-1.2-.5-2.4-.9-3.6-.2-.5-.4-1-.7-1.5l.3-.2c-.9-1.5-.9-3.3-1.3-5-.4-1.4-1.1-2.8-1.5-4.2-.6-2-.7-4.2-1.9-5.8-.5-.6-1.1-1.1-1.6-1.7-.6-.7-1.1-1.5-1.7-2.1-1.8-1.9-4.5-2.5-7.1-2.8s-5.3-.3-7.6-1.3c-1-.5-2.1-1.1-3.1-1-.6-.6-1.1-1.2-1.6-1.8-.8-1-1.5-2-2.2-3.1.5-.9.9-1.8 1.2-2.7l.2-.1c.7-.5 1.3-1.2 1.9-1.7.6-.4 1.3-.9 1.4-1.6s-.6-1.3-1-1.9c-1.5-2.2.2-5.7-1.4-7.9-.8-1.1-2.1-1.5-3.4-2.1-1.7-.7-3.2-1.8-4.9-2.5s-3.6-1.1-5.3-.4c-3.2 1.3-4.3 5.8-7.5 7-.3.1-.7.3-.9.5-.4.6-.9 4.4-.8 5.2.1 1 .4 1.5 1.1 1.9v.7c0 5.4 3.7 9.8 8.6 10.7.5.5.9 1.1 1.2 1.7.2.6.4 1.3.4 2-.2-.1-.4-.1-.6-.1-.6.1-1.2.5-1.3 1.2-.2.6-.2 1.3-.2 1.9.1.4-.1.8-.4 1.1-.2.1-.3.1-.5.2-.7.1-1.3.2-2 .2-1.1 0-2.3-.3-3.2.3s-1.4 1.7-1.9 2.7c-.7 1.5-1.6 2.9-2.6 4.1-1.2 1.4-2.6 2.7-3 4.5v.1c-.9.4-1.9 1.4-2.5 1.9-1.3 1-2.5 2-3.7 3.1s-2.8 2.6-3.5 4.1c-.4.7-.9 1.2-1.5 1.7-1.2.8-2.8.4-4.1-.1-3.8-1.2-7.5-2.4-11-4.3-.2-.1-.4-.2-.6-.1-.1 0-.2.1-.3.2l-.1-.1c-.9-1-2.4-1.1-3-2.6l-.3-1.5c-.3-1.5-.9-2.9-1.6-4.3-.1-.3-.3-.5-.5-.7-.5-.2-1 0-1.3.4-.2.4-.3.9-.3 1.4s.1 1.2-.3 1.6c-.2.1-.3.2-.5.3-1.2.4-2.6 0-3.7-.6s-2.2-1.4-3.3-2.1l-1.8-.9c-.6-.3-1.6-.4-1.9.2-.3.5 0 1.1.3 1.6.6.8 1.2 1.6 2 2.2 2.2 2 5 3.1 7.5 4.4 2.2 1.2 4.4 2.6 6.3 4.2-.1.2-.1.5-.1.8 0 1 .4 2 1.2 2.6.7.6 1.5 1.2 2.4 1.6 4.5 2.3 9 4.6 13.5 6.8.3.2.6.3.9.3.9 0 1.5-1 2.2-1.5.7-.6 1.7-.7 2.6-1 1.6-.5 3-1.6 4.3-2.6l4.3-3.3c2.2-1.6 4.4-3.4 6.2-5.4.2.5.6.9 1 1.3-.4.8.4 1.6.6 2.5.1.6.1 1.1 0 1.7.1.8.2 1.6.4 2.4.2 1.3.3 2.6.3 3.9 0 1.5 0 3 .1 4.4 0 1.9.1 3.8-.3 5.7-.5 2.5-1.9 4.9-1.8 7.5.1.5 0 1-.1 1.4-1.1 2.1-2 4.4-3.2 6.5-.4.5-.6 1.1-.8 1.6-.1.6-.1 1.2.2 1.8-.5.8-.7 1.8-.8 2.7-.1 2.4.9 4.6 1.3 7 .4 2.2.4 4.4.5 6.6.3 10.3 2.3 20.5 2.8 30.7.2 4.7.1 9.5-.4 14.2-.3 3-.8 6.1-.9 9.1-.5 8.7 1.3 17.3 3.1 25.8.5-.6 1.3-1.1 2.1-1.2-.2.8-.5 1.9-.8 2.8-.4.1-.9.2-1.2.4-1.1.7-1.4 2-2 3.2-1.3 2.4-4 3.7-6.1 5.3-1 .8-2.1 2-1.8 3.3 3.7 1.1 7.8 2 11.4.6 1.5-.6 2.8-1.6 4.4-1.7 1.2 0 2.4.5 3.5.1.3-.1.5-.2.7-.5.1-.3.2-.6.2-.8.1-2 .1-4 0-6-.1-1.7.1-3-1.3-3.2-.3-.8-.6-1.7-.8-2.6 0-.2 0-.3-.1-.5.4 0 .8 0 1.1-.1.2 0 .5-.1.7-.2-.1-.3-.1-.6-.2-.9l-.3-1.8c-.1-.6-.1-1.2-.2-1.8v-.9-1.8-1.8c0-.6.1-1.2.1-1.8.1-1.5.2-3 .4-4.5.4-4.4.9-8.7 1.3-13.1.1-1.3.3-2.6.3-3.9 0-.8 0-1.6-.1-2.3-.2-1.9-.8-3.8-.8-5.7v-.9c0-.3.1-.6.2-.9 0-.2.1-.3.1-.5.1-.3.2-.7.3-1 .1-.2.1-.3.2-.5.2-.7.3-1.4.3-2.2v-.7l.5-10.3c.1-1.6.2-3.4.9-4.9.3-.6.7-1.2 1.2-1.7-.1-.4 0-.9.4-1 .4 5.3.4 10.5-.2 15.8-.2 1.6-.5 3.3-.5 4.9-.2 3.6.6 7.3.9 10.9.3 3.6 0 7.4 0 11.1 0 6.3.7 12.7 1.4 19l.4.3c0 .6.1 1.2.1 1.7 0 .2 0 .4.1.5h-.2c-.8.1-1.6.5-2 1.3-.4.7-.7 1.5-.9 2.3-.2.6-.3 1.2-.3 1.9.2 1.2 1.2 2.1 1.5 3.3.5 2.1-1.6 4.4-.6 6.4.6 1.3 2.1 1.6 3.5 1.8 2 .3 4.4.6 6-.8.9-.8 1.4-1.9 1.4-3.1 0-1.5-.9-2.9-1.3-4.4-.6-2.1.3-4.9-.6-6.8-.1-.2-.2-.4-.3-.5h.3c-.1-.7-.1-1.4-.2-2.1l.7-.4c.7-.4 1.6-.6 2.3-.4-.3-3.6-.4-7.6.5-11.2.6-2.8 1.8-5.4 2.4-8.2.4-2.3.5-4.7.5-7.1 0-4.4 0-8.8-.7-13.1-.3-1.7-.7-3.5-.4-5.2.2-1.1.7-2.2 1-3.3.7-2.6.2-5.4.6-8.1 1-6.4 1.5-13 2.3-19.4.4-3.6.5-7.3.4-10.9l1.5-3c1.1-2.1 2.2-4.3 2.8-6.5.2.3.4.7.5 1l6.7-11.1c.4-.7.8-1.4 1-2.1.2-.5.2-1.1.3-1.6.3-1.4 1-2.7 1.6-4 1.3-3.7 1.7-7.9.9-11.9zm-10 5.5c-.3 1.8-.7 3.6-1.3 5.4-.9 3-1.9 6-2.9 9l-.9 2.5c-.3 1-.8 2-1.3 2.9-.1.2-.3.5-.4.7-.9-3.4.1-7.2-.1-10.8-.2-2.7-1-5.5-.4-8.1.4-1.8 1.5-3.3 2.2-5 .7-1.5 1.1-3.2 1.9-4.7v.1c.7 1.8 1.5 3.6 2.5 5.3.3.4.5.8.6 1.3.2.4.2.9.1 1.4z" fill="url(#XMLID_4_)"/><path id="XMLID_47_" class="st15" d="M603.5 349.3c-.2-.5-.3-1-.3-1.5-.3-1.5-1-2.9-1.7-4.3-.1-.3-.3-.5-.5-.7-.5-.2-1 0-1.3.4-.2.4-.3.9-.3 1.5s.1 1.2-.3 1.6l-.6.3c-1.3.4-2.7 0-3.9-.6s-2.3-1.4-3.4-2.1c-.6-.3-1.3-.6-1.9-.9-.7-.3-1.6-.5-2 .2-.3.5 0 1.1.4 1.6.6.8 1.3 1.6 2.1 2.2 2.3 2 5.2 3.1 7.9 4.4 3 1.5 5.8 3.4 8.4 5.7.2-.3.4-.7.4-1 .2-1.1 1.1-3.3.2-4.2-1.1-.9-2.7-1-3.2-2.6z"/><path id="XMLID_46_" class="st16" d="M645.8 494.2c2.3 1.8 5.1 2.6 7.9 2.2.6-.1 1.3-.3 1.5-.8.1-.3 0-.7-.1-1-.4-1.1-.8-2.2-1-3.3-.1-1-.1-2.2-.9-2.9-1.2-.9-4.4-.8-5.1.5-.3.4-1.5 6-2.3 5.3z"/><path id="XMLID_45_" class="st16" d="M662.8 489.2c-.1.4.1.9.6 1h.1c1.9.6 3.9.9 6 1l-.4-4.1c0-.3-.2-.7-.6-.7h-.1c-1.2-.2-3.6-1-4.7-.6-1.3.6-.9 2.2-.9 3.4z"/><path id="XMLID_44_" class="st15" d="M651 327.4c.3.9.5 1.8.5 2.7.1 3.3-.5 6.8-2.7 9.1 2.6-.8 5.4-.3 7.8-1.4 1.1-.5 2.1-1.4 3.1-2 1.9-1.2 4-1.7 6-2.8s3.7-2.8 3.8-5c-.8-.9-2.2-1-3.3-1.5-1.2-.6-2.1-1.6-2.9-2.7-1-1.1-1.9-2.4-2.6-3.7-.7-1.3-1-2.8-.8-4.3-2.2.4-3.7 2.3-5.8 3.1-.8.3-1.6.5-2.4.8-1.1.5-3.3 2.2-3.4 3.6 0 1.4 2.1 2.8 2.7 4.1z"/><path id="XMLID_43_" class="st12" d="M651 327.4c.3.9.5 1.8.5 2.7.1 3.3-.5 6.8-2.7 9.1 2.6-.8 5.4-.3 7.8-1.4 1.1-.5 2.1-1.4 3.1-2 1.9-1.2 4-1.7 6-2.8s3.7-2.8 3.8-5c-.8-.9-2.2-1-3.3-1.5-1.2-.6-2.1-1.6-2.9-2.7-1-1.1-1.9-2.4-2.6-3.7-.7-1.3-1-2.8-.8-4.3-2.2.4-3.7 2.3-5.8 3.1-.8.3-1.6.5-2.4.8-1.1.5-3.3 2.2-3.4 3.6 0 1.4 2.1 2.8 2.7 4.1z"/><path id="XMLID_42_" d="M678.8 412.6c-.8 6.4-1.3 13.1-2.4 19.5-.4 2.7.1 5.5-.6 8.1-.3 1.1-.8 2.2-1.1 3.3-.3 1.7.1 3.5.4 5.2.8 4.3.8 8.7.8 13.1 0 2.4 0 4.8-.5 7.1-.6 2.8-1.8 5.5-2.5 8.3-.9 3.5-.8 7.6-.5 11.2-.8-.3-1.7 0-2.4.4-.8.4-1.5.8-2.3.9-1.1.1-2.2-.5-3.2-1.1-.8-.4-1.4-.8-2.2-1.3-.7-6.3-1.5-12.7-1.4-19.1 0-3.7.3-7.4 0-11.1s-1.1-7.3-1-10.9c.1-1.7.4-3.3.6-4.9.6-5.3.5-10.5.2-15.8-.4.1-.5.7-.4 1-.5.5-1 1.1-1.3 1.7-.7 1.5-.8 3.3-.9 4.9l-.5 10.3c0 1-.1 2-.4 2.9-.2.7-.5 1.3-.6 2-.6 2.5.4 5 .7 7.5.3 2.1 0 4.2-.2 6.3l-1.4 13.1c-.5 4.8-1 9.7 0 14.3.1.3.1.6.2.9-.2.1-.5.1-.7.2-.8.1-1.7.1-2.5 0l-2.4-.3c-1.9-.2-3.7-.3-5 1.1-1.9-8.5-3.8-17.2-3.3-25.9.2-3.1.6-6.1 1-9.2.5-4.7.7-9.5.5-14.3-.4-10.3-2.5-20.5-2.9-30.8-.1-2.2-.1-4.4-.5-6.6-.5-2.3-1.5-4.6-1.4-7s1.8-5 4.2-4.9c6.6.4 12.7-3.3 19.3-3.9 3-.3 6.1-.7 9-.2 3 .5 5.9 2.2 7.1 5 .6 1.5.7 3.2.7 4.8.2 4.8.3 9.5-.2 14.2z" fill="#f26c74"/><path id="XMLID_41_" class="st3" d="M645.4 493.5c-1.1.7-1.5 2.1-2.1 3.2-1.4 2.4-4.1 3.7-6.4 5.4-1.1.8-2.2 2-1.8 3.3 3.9 1.1 8.1 2.1 11.9.6 1.5-.6 3-1.6 4.6-1.7 1.2 0 2.5.5 3.7.1.3-.1.6-.2.7-.5.1-.3.2-.6.2-.8.1-2 .1-4 0-6-.1-1.9.1-3.3-2.1-3.2-2.5.1-6.5-1.7-8.7-.4z"/><path id="XMLID_40_" class="st3" d="M664.1 490.1c-.5-.2-.9-.3-1.4-.3-.9.1-1.6.5-2.1 1.3-.4.7-.8 1.5-.9 2.3-.2.6-.3 1.2-.3 1.9.2 1.2 1.2 2.1 1.5 3.3.5 2.1-1.7 4.5-.7 6.4.6 1.3 2.2 1.6 3.6 1.8 2.1.3 4.6.6 6.2-.8.9-.8 1.4-1.9 1.4-3.1 0-1.6-1-2.9-1.4-4.4-.6-2.1.3-4.9-.6-6.8-.7-1.6-3.6-1.1-5.3-1.6z"/><circle id="XMLID_39_" class="st15" cx="651.7" cy="314.9" r="11"/><path id="XMLID_38_" class="st8" d="M657.5 332.9c-1.2-.5-2.5-.6-3.7-.3l-1-1.7c-.4-.8-1.1-1.6-1.9-1.6-.7.1-1.2.5-1.4 1.2-.2.6-.3 1.3-.2 1.9.1.4-.1.8-.4 1.1-.2.1-.3.1-.5.2-.7.1-1.4.2-2.1.2-1.1 0-2.4-.3-3.4.3-1 .5-1.5 1.7-1.9 2.7-.7 1.5-1.6 2.9-2.7 4.1-1.2 1.4-2.8 2.7-3.1 4.5-.1.8.6 1.3 1.1 1.9 2.2 2.2 5.3 3.5 6.9 6.2.4.6.7 1.3 1.3 1.7-.4.8.4 1.6.6 2.5.1.6.1 1.1 0 1.7.1.8.2 1.6.4 2.4.2 1.3.3 2.6.3 4l.1 4.4c0 1.9.1 3.8-.4 5.7-.6 2.5-2 5-1.9 7.6.1.5 0 1-.1 1.5-1.2 2.1-2.1 4.4-3.3 6.5-.4.5-.6 1.1-.8 1.6-.3 1.2.3 2.5 1.3 3.3s2.3 1.1 3.5 1.3c11.4 2.2 23.2-.4 33.9-4.7.3-.1.5-.2.8-.4.8-.8.2-2.1-.3-3-1.7-3.7-.3-8-.6-12.1-.2-2.7-1-5.5-.4-8.2.4-1.8 1.5-3.3 2.3-5 .8-1.8 1.3-3.8 2.4-5.4.8-1.1 1.8-2.2 2.9-3l6.9-6.1c-.9-1.5-.9-3.3-1.4-5-.4-1.4-1.1-2.8-1.6-4.2-.6-2-.7-4.2-2-5.8-.5-.6-1.2-1.1-1.7-1.7-.6-.7-1.1-1.5-1.8-2.2-1.9-1.9-4.8-2.6-7.4-2.8s-5.5-.3-8-1.4c-1.2-.5-2.5-1.3-3.8-.9-1 .3-1.6 1.3-2.1 2.3-.4 1-.7 2-1.4 2.8-.7.8-2.2 1.4-3.4 1.9z"/><path id="XMLID_37_" class="st8" d="M624.9 354.8c-.4.7-.9 1.2-1.5 1.7-1.3.8-2.9.4-4.3-.1-3.9-1.2-7.9-2.4-11.5-4.3-.2-.1-.4-.2-.6-.1-.2.1-.3.2-.4.3-.6.6-1.1 1.3-1.6 2s-.8 1.4-.9 2.3c0 1 .5 2 1.2 2.7.8.7 1.6 1.2 2.5 1.6 4.7 2.3 9.4 4.6 14.1 6.8.3.2.6.3 1 .3 1 0 1.6-1 2.3-1.6.8-.6 1.8-.7 2.7-1 1.7-.5 3.1-1.6 4.5-2.6l4.5-3.3c3.9-2.9 8.1-6 9.8-10.5l-5.5-1.8c-1.6-.5-3.4-1.4-5.1-1.7-1.3-.2-2.8 1.4-3.7 2.1-1.3 1-2.6 2-3.8 3.2-1.2 1-2.9 2.4-3.7 4z"/><path id="XMLID_36_" class="st15" d="M676.8 390.8c-1.5.6-3.3-.3-4.9 0-.8.2-1.5.5-2.2.9l-4.8 2.7c-.3.2-.6.6-.4.8.1 0 .2.1.2.1 1.6.2 3.1-.8 4.7-1 .7-.1 1.4-.1 2.1-.1.1 0 .2 0 .3.1.2.1.4.4.4.7 0 .3-.1.5-.1.8 0 .6.3 1.2.7 1.7 1.5 2.2 3.2 4.3 5.1 6.2.5-.6.9-1.2 1.2-1.9l1.6-3c1.6-3 3.3-6.2 3.6-9.7-1.2-.4-3.4-1.6-4.6-1-1.2.5-1.5 2.2-2.9 2.7z"/><path id="XMLID_35_" class="st2" d="M650.3 313.2c3.1.3 5.9 1.8 8.7 3.2-.5.7.1 1.8 1 2.1.8.3 1.8-.1 2.5-.6s1.3-1.2 2-1.7c.6-.4 1.4-.9 1.5-1.6s-.6-1.3-1.1-2c-1.6-2.2.2-5.7-1.5-7.9-.8-1.1-2.2-1.5-3.5-2.1-1.7-.7-3.3-1.8-5.1-2.6-1.8-.7-3.8-1.1-5.5-.4-3.3 1.3-4.5 5.8-7.8 7-.4.1-.7.3-.9.5-.4.6-.9 4.4-.8 5.2.2 1.3.5 1.8 1.8 2.2 2.6.8 5.8-1.7 8.7-1.3z"/><path id="XMLID_34_" class="st8" d="M690.3 348.1c1 .9 1.8 2 2.3 3.3.4 1.2.7 2.4 1 3.6.6 2.4 1.5 4.6 2 7 .9 4.1.4 8.3-1.3 12.1-.6 1.3-1.3 2.6-1.7 4-.1.5-.2 1.1-.3 1.6-.3.7-.6 1.5-1.1 2.1l-6.9 11.1c-.5-1.3-1.6-2.3-3-2.8-1.3-.4-2.8-.5-4.1-.2.5-.8.7-1.7 1.3-2.5.3-.4.6-.9.8-1.3l.6-1.5.9-2.6c1.1-3 2.1-6 3-9 .6-1.8 1-3.6 1.3-5.4.1-.5.1-.9 0-1.4s-.4-.9-.6-1.3c-1-1.7-1.9-3.5-2.6-5.3-.5-1.3-1.1-2.7-.6-4 .3-.7.8-1.3 1.4-1.8 2.3-2.2 4.9-4.1 7.6-5.7z"/><path id="XMLID_33_" class="st12" d="M655.2 490.7l.5-1c-1-4.7-.5-9.6 0-14.3l1.4-13.1c.2-2.1.4-4.2.2-6.3-.3-2.5-1.3-5.1-.7-7.5.2-.7.5-1.3.6-2 .2-1 .3-1.9.4-2.9l.5-10.3c.1-1.7.2-3.4.9-4.9v-.3l-1.7-15-4.6 77.8h2.5v-.2z"/><path id="XMLID_32_" d="M615.7 497.1c1.3-2.3-.2-5.2-1.8-7.2-1.6-2.1-3.6-4.2-3.6-6.9.1-3.8 4.1-6 7.3-8.1 2.4-1.5 4.6-3.3 6.6-5.3.8-.8 1.5-1.7 2-2.7.7-1.5.6-3.2.6-4.8-.1-5.4-.4-10.8-.8-16.2" fill="none" stroke="#403e56" stroke-width="1.688" stroke-miterlimit="10"/><path id="XMLID_31_" class="st19" d="M632.1 445.6c-.1-2-1.2-3.8-3-4.9l-1.3 2.6v-3.2c-.6-.2-1.3-.3-2-.2-3.3.2-5.8 2.9-5.6 6.2.2 3.3 2.9 5.8 6.2 5.6 3.3-.1 5.8-2.8 5.7-6.1z"/><path id="XMLID_30_" class="st19" d="M621.5 485.7c-1.5 2.9-5.1 4-8 2.5s-4-5.1-2.5-8 5.1-4 8-2.5c1.3.7 2.3 1.8 2.8 3.2l-3.7 3 4.1-.9c0 1-.2 1.9-.7 2.7z"/><path id="XMLID_29_" class="st19" d="M618.6 474.2c-3.3.2-6.1-2.2-6.3-5.5-.2-2.8 1.7-5.4 4.4-6.1v2.4l1.3-2.7c3.3-.2 6 2.4 6.2 5.6 0 .7-.1 1.4-.3 2-.7 2.5-2.8 4.2-5.3 4.3z"/><path id="XMLID_28_" class="st19" d="M633 464.7c-3.3.1-6-2.4-6.1-5.7-.1-3.3 2.4-6 5.7-6.1 1.1 0 2.1.2 3.1.7l-1 2.9 2.2-2.1c1.2 1.1 1.8 2.5 1.9 4.1 0 .5 0 1.1-.1 1.6-.8 2.6-3.1 4.4-5.7 4.6z"/><path id="XMLID_27_" class="st12" d="M631.3 447.2c-1.4.1-2.7.6-4.1.7-1.4.1-2.9-.2-3.7-1.3-.5-.6-.7-1.3-1.1-1.9-.4-.6-.9-1.1-1.5-1.4-1.4 2.9-.2 6.5 2.8 7.9 2.9 1.4 6.5.2 7.9-2.8.2-.4.3-.8.4-1.2h-.7z"/><path id="XMLID_26_" class="st12" d="M633 464.7c-3.3.2-6-2.3-6.2-5.6 0-1 .1-2 .6-2.8.5.3.9.7 1.2 1.2.4.6.7 1.4 1.2 2 .9 1.1 2.5 1.4 3.9 1.4 1.4-.1 2.8-.5 4.2-.6h.6c-.6 2.4-2.9 4.2-5.5 4.4z"/><path id="XMLID_25_" class="st12" d="M618.6 474.2c-3.3.2-6-2.3-6.2-5.6 0-.9.1-1.9.5-2.7.5.3.9.7 1.3 1.2.5.6.7 1.4 1.3 2 1 1.1 2.7 1.5 4.2 1.5s2.9-.4 4.3-.5c-.7 2.3-2.9 4-5.4 4.1z"/><path id="XMLID_24_" class="st12" d="M621.5 485.7c-1.3 3-4.8 4.3-7.8 3s-4.3-4.8-3-7.8c.5.3.9.7 1.3 1.2.6.7.9 1.5 1.6 2.1 1.2 1.2 3.2 1.7 4.9 1.7 1 0 2-.1 3-.2z"/><path id="XMLID_23_" class="st20" d="M606.7 494.4s4.7-.1 6.1-1.1c1.4-1 7.2-2.2 7.5-.6.4 1.6 7 8 1.8 8-5.3 0-12.3-.8-13.7-1.7-1.4-.8-1.7-4.6-1.7-4.6z"/><path id="XMLID_22_" class="st21" d="M622.2 500.2c-5.3 0-12.3-.8-13.7-1.7-1.1-.7-1.5-3-1.6-4.1h-.2s.3 3.8 1.7 4.6 8.4 1.7 13.7 1.7c1.5 0 2-.6 2-1.4-.2.6-.8.9-1.9.9z"/><path id="XMLID_20_" class="st19" d="M271.8 450.3c.1-2 1.2-3.8 3-4.9l1.3 2.6v-3.2c.6-.2 1.3-.3 2-.2 3.3.2 5.8 2.9 5.6 6.2s-2.9 5.8-6.2 5.6c-3.3-.1-5.8-2.9-5.7-6.1z"/><path id="XMLID_19_" class="st19" d="M282.4 490.4c1.5 2.9 5.1 4 8 2.5s4-5.1 2.5-8-5.1-4-8-2.5c-1.3.7-2.3 1.8-2.8 3.2l3.7 3-4.1-.9c0 .9.2 1.8.7 2.7z"/><path id="XMLID_18_" class="st19" d="M285.3 478.9c3.3.2 6.1-2.2 6.3-5.5.2-2.8-1.7-5.4-4.4-6.1v2.4l-1.3-2.7c-3.3-.2-6 2.4-6.2 5.6 0 .7.1 1.4.3 2 .7 2.5 2.8 4.1 5.3 4.3z"/><path id="XMLID_17_" class="st19" d="M270.9 469.3c3.3.1 6-2.4 6.1-5.7s-2.4-6-5.7-6.1c-1.1 0-2.1.2-3.1.7l1 2.9-2.2-2.1c-1.2 1.1-1.8 2.5-1.9 4.1 0 .5 0 1.1.1 1.6.8 2.6 3.1 4.5 5.7 4.6z"/><path id="XMLID_15_" class="st12" d="M272.6 451.9c1.4.1 2.7.6 4.1.7s2.9-.2 3.7-1.3c.5-.6.7-1.3 1.1-1.9s.9-1.1 1.5-1.4c1.4 2.9.2 6.5-2.8 7.9-2.9 1.4-6.5.2-7.9-2.8-.2-.4-.3-.8-.4-1.2.3-.1.5-.1.7 0z"/><path id="XMLID_14_" class="st12" d="M270.9 469.3c3.3.2 6-2.3 6.2-5.6 0-1-.1-2-.6-2.8-.5.3-.9.7-1.2 1.2-.4.6-.7 1.4-1.2 2-.9 1.1-2.5 1.4-3.9 1.4-1.4-.1-2.8-.5-4.2-.6h-.6c.6 2.4 2.9 4.3 5.5 4.4z"/><path id="XMLID_13_" class="st12" d="M285.3 478.9c3.3.2 6-2.3 6.2-5.6 0-.9-.1-1.9-.5-2.7-.5.3-.9.7-1.3 1.2-.5.6-.7 1.4-1.3 2-1 1.1-2.7 1.5-4.2 1.5s-2.9-.4-4.3-.5c.7 2.3 2.9 4 5.4 4.1z"/><path id="XMLID_12_" class="st12" d="M282.4 490.4c1.3 3 4.8 4.3 7.8 3s4.3-4.8 3-7.8c-.5.3-.9.7-1.3 1.2-.6.7-.9 1.5-1.6 2.1-1.2 1.2-3.2 1.7-4.9 1.7-1-.1-2-.1-3-.2z"/><path id="XMLID_11_" class="st20" d="M297.2 499.1s-4.7-.1-6.1-1.1-7.2-2.2-7.5-.6c-.4 1.6-7 8-1.8 8 5.3 0 12.3-.8 13.7-1.7s1.7-4.6 1.7-4.6z"/><path id="XMLID_9_" class="st21" d="M281.7 504.8c5.3 0 12.3-.8 13.7-1.7 1.1-.7 1.5-3 1.6-4.1h.2s-.3 3.8-1.7 4.6c-1.4.9-8.4 1.7-13.7 1.7-1.5 0-2-.6-2-1.4.2.6.8.9 1.9.9z"/></svg>