<svg version="1.1" id="Layer_1" xmlns="http://www.w3.org/2000/svg" x="0" y="0" viewBox="0 0 800 800" xml:space="preserve"><style>.st1{fill:#0a1720}.st2{fill:#fcd2c7}.st4{fill:#6466af;enable-background:new}.st4,.st5{opacity:.1}.st6{fill:#010101}.st7{opacity:.2}.st8{fill:#6466af}.st9{opacity:.1;fill:#010101;enable-background:new}.st10{fill:#636696}.st14{fill:#cd828d}.st15{fill:#454154}.st16{fill:#f2738f}.st17{fill:#585a89}.st18{fill:#dce5f1}.st19{opacity:.5;fill:#585a89;enable-background:new}.st20{fill:#d71b5a}.st23{opacity:5.000000e-002;fill:#010101;enable-background:new}.st25{fill:#2d2a3e}.st26{fill:#3fbfb8}.st28{fill:#facdd3}</style><g id="XMLID_1_"><path id="XMLID_8_" d="M-3.4 89.9s38.9 84.8 73.6 84.8c19 0 40.1-13 56.8-20.7 30.2-13.8 60.1-28.3 91-40.5 50.3-19.8 105.7-31.1 158.5-14.3 50.2 16 87 49.8 77.6 105.8-11.4 68.3-5.1 77 19 68.2 55.2-20.1 147.7-36.5 179.3 31.2 11.1 23.9 2.2 51-7.4 73.8-34.1 81.9-86.8 168.8-152.4 229.4-25.7 23.8-56.7 43.7-93 42.3-65-2.5-120-50.7-186.6-44.3-38.1 3.7-75.6 13.4-113.1 21-34.6 6.9-69.1 14.5-103.3 23.2V89.9z" fill="#c12227"/><path id="XMLID_3_" class="st1" d="M-3.4 126.6s41.2 113.9 108.2 81 212.6-130.3 277.2-81-5.1 146.8 39.2 175.9c44.3 29.1 144.3-60.7 192.4 10.1 48.1 70.9-177.2 372.1-279.7 291.1s-337.3 2.5-337.3 2.5V126.6z"/><g id="XMLID_2_"><path id="XMLID_215_" class="st2" d="M115.7 388.2l-2.1 1.7s-2.2 3.9-2.7 10.9-2.7 17-2.7 17l-4.2 7.5s-6.9 14.5-7.8 18.4-5 10.4-5 10.4-14 12.5-4.2 14.8 10-10 10-10 2.3-2.5 2.6-4.2 12.7-23.5 12.7-23.5 4.3-5.9 3.4-9c0 0 5.6-13.2 5.6-16.5-.1-2.8-.4-5.5-.9-8.2l.9-6.9-5.6-2.4z"/><path id="XMLID_257_" d="M274.7 284.2c-17.5 14.9-40.2 13.9-60.1 6.2s-38.2-21.5-57.6-31.3c-16.3-8.2-33.3-13.6-50.6-16-24.7-3.4-52.3.8-69.5 24.8-19.2 26.8-17.7 75 3 99.6 10.6 12.5 24.4 18.6 36.4 28.4 12 9.8 23.2 26 22.2 44.8-1 17.4-12 30.8-23.4 39.2-8.8 6.5-19.7 13.6-20.8 27-1 13 8.1 23.2 16.9 29 28.5 18.9 63.6 18.7 92-.5 10.1-6.9 19.4-16 30-21.3 27.9-14 58.6.1 88.2 5.3 25 4.4 50.6 2.1 75-6.6 14.6-5.2 29.3-13.3 39.6-28.2 7.4-10.8 12-24.4 16.4-37.8 4.6-14.3 9.1-28.8 13.3-43.3 2.6-8.7 5.1-17.6 5.7-27 1.2-16.9-3.8-33.6-10.7-47.9-16.3-33.9-43.8-57.7-73.5-63.8-29.7-6.1-61.2 5.8-84.3 31.6" fill="#fff"/><ellipse id="XMLID_256_" class="st4" cx="208.7" cy="443.7" rx="86" ry="3.9"/><ellipse id="XMLID_245_" class="st4" cx="90.9" cy="488.9" rx="31.8" ry="5.2"/><g id="XMLID_238_" class="st5"><path id="XMLID_244_" class="st6" d="M146.7 344.2H49.6c-2.8 0-5.1 2.3-5.1 5.1v61.3c0 2.8 2.3 5.1 5.1 5.1h76.2s2 10.5-4.5 11.6c0 0 14.5 1 12-11.6h13.5c2.8 0 5.1-2.3 5.1-5.1v-61.3c-.1-2.8-2.4-5.1-5.2-5.1z"/><g id="XMLID_239_" class="st7"><path id="XMLID_243_" class="st6" d="M61 360.5h74.4c1.2 0 2.1 1 2.1 2.1v.5c0 1.2-1 2.1-2.1 2.1H61c-1.2 0-2.1-1-2.1-2.1v-.5c0-1.1.9-2.1 2.1-2.1z"/><path id="XMLID_242_" class="st6" d="M61 381.9h74.4c1.2 0 2.1 1 2.1 2.1v.5c0 1.2-1 2.1-2.1 2.1H61c-1.2 0-2.1-1-2.1-2.1v-.5c0-1.1.9-2.1 2.1-2.1z"/><path id="XMLID_241_" class="st6" d="M61 392.6h61.7c1.2 0 2.1 1 2.1 2.1v.5c0 1.2-1 2.1-2.1 2.1H61c-1.2 0-2.1-1-2.1-2.1v-.5c0-1.1.9-2.1 2.1-2.1z"/><path id="XMLID_240_" class="st6" d="M61 371.2h29.8c1.2 0 2.1 1 2.1 2.1v.5c0 1.2-1 2.1-2.1 2.1H61c-1.2 0-2.1-1-2.1-2.1v-.5c0-1.1.9-2.1 2.1-2.1z"/></g></g><path id="XMLID_237_" class="st1" d="M147.6 343.8H50.5c-2.8 0-5.1 2.3-5.1 5.1v61.3c0 2.8 2.3 5.1 5.1 5.1h76.2s2 10.5-4.5 11.6c0 0 14.5 1 12-11.6h13.5c2.8 0 5.1-2.3 5.1-5.1v-61.3c-.2-2.8-2.4-5.1-5.2-5.1z"/><g id="XMLID_232_" class="st7"><path id="XMLID_236_" class="st8" d="M61.9 360.1h74.4c1.2 0 2.1 1 2.1 2.1v.5c0 1.2-1 2.1-2.1 2.1H61.9c-1.2 0-2.1-1-2.1-2.1v-.5c-.1-1.2.9-2.1 2.1-2.1z"/><path id="XMLID_235_" class="st8" d="M61.9 381.5h74.4c1.2 0 2.1 1 2.1 2.1v.5c0 1.2-1 2.1-2.1 2.1H61.9c-1.2 0-2.1-1-2.1-2.1v-.5c-.1-1.1.9-2.1 2.1-2.1z"/><path id="XMLID_234_" class="st8" d="M61.9 392.2h61.7c1.2 0 2.1 1 2.1 2.1v.5c0 1.2-1 2.1-2.1 2.1H61.9c-1.2 0-2.1-1-2.1-2.1v-.5c-.1-1.1.9-2.1 2.1-2.1z"/><path id="XMLID_233_" class="st8" d="M61.9 370.8h29.8c1.2 0 2.1 1 2.1 2.1v.5c0 1.2-1 2.1-2.1 2.1H61.9c-1.2 0-2.1-1-2.1-2.1v-.5c-.1-1.2.9-2.1 2.1-2.1z"/></g><path id="XMLID_231_" class="st2" d="M111.5 342.8l-5.4 11.4s-.8 2.1-1.3 2.5c-.5.4-2.8 7.2-2.8 7.2l-5.8 8.9-.4.6-2.3-.6-1.6-5.9.1-1.7v-.2s3.6-3.7 4.4-4c0 0 .6.1 1.8-2.8 1.2-2.9 2.3-3.5 2.3-3.5l.6-2.1 6.7-10.6s5.6-8 7.1-4.5c1.7 3.5-3.4 5.3-3.4 5.3z"/><path id="XMLID_230_" class="st2" d="M89.2 424.1c0 .2-.1.4-.2.5-.6.9-4.1 19.4-4.1 19.4.3 1.2-.5 3.7-1 4.9-.5 1.1-1.6 7-1.6 7s-.3 12.7-1 14.7.2 6.2.2 6.2c-.1 2 1.1 4 1.8 5.1.1.1.1.1.1.2.2.3.4.5.4.5.2.4.5.7.8 1 0 0 .1.1.2.1 1 .6 2 1.1 3.2 1.3h.1c.5.1.8.1.8.1l.3 1.5-3 .6-5.7.4s-6.7.5-5.2-2.5l.3-.6c.1-.1.1-.3.2-.4.9-2.9.3-6.4.3-6.4l-1.3-10.2c-2.1-9.5 1.7-20.1 1.7-20.1s-.3-.8.4-3 0-6.9 0-6.9-.4-6.1-.9-9.1c-.2-1.3-.3-2.5-.2-3.8 0-.7.1-1.5.2-2.2l12.9-1.7c-.3.1.4 2.2.3 3.4z"/><path id="XMLID_229_" class="st9" d="M89 486.8l-3 .6-5.7.4s-6.7.5-5.2-2.5l.3-.6c.1-.1.1-.3.2-.4 1.2 0 2.3.3 3.4.7 1.9.8 3.4-1.2 3.4-1.2l.9-1.8.1-.3c.2.3.4.5.4.5.2.4.5.8 1 1.1l-.2.3-.9 1.9s1.2.1 2.7.4c.6.2 1.3-.2 1.5-.8h.1c.5.1.8.1.8.1l.2 1.6z"/><path id="XMLID_228_" class="st10" d="M91.8 488.2c-.2 1-6.5 1.3-6.5 1.3s-3.5-.3-4.5.5-3.9.6-4 .6-1.6-.1-2.2-2.8c-.6-2.7.8-3.1.8-3.2 1.2 0 2.4.3 3.6.7 1.9.8 3.4-1.2 3.4-1.2l1.1-2c.2.3.4.5.4.5.2.4.5.8 1 1.1l-1.1 2.2s1.2.1 2.7.4c1.3.2 1.5-.8 1.6-1.2v-.2s1 .3 2.2.6c1 .4 1.7 1.5 1.5 2.7z"/><path id="XMLID_227_" class="st2" d="M103.7 437.6c-.2.9-.3 3.2-.3 3.2.5 2-.8 6.6-.8 6.6l-.7 2.7c.3 3.4-1.9 11.7-1.9 11.7s-1.5 7.7-2.2 11c-.5 1.8-.3 3.8.4 5.6 0 .1.1.1.1.1v.2c0 .1 0 .2.1.3.2.5.4.9.8 1.3l.4.4c.7.6 1.5 1.1 2.4 1.5l.4.2c.4.1.8.3 1.2.4h.1l-.3 1.8-4-1-5.4-1.7-2.7-1.5s0-.1.1-.4c0-.1 0-.3.1-.4.5-2.3 1.5-8.9 1-13.7-.6-6 1.8-14.2 2.5-16.2.4-1.1.5-2.3.5-3.5-1-1.4-1.2-7.2-1.2-7.2s-1.8-3.7-3.3-7.6c-.5-1.3-.9-2.6-1.1-4-.2-1-.2-1.9-.2-2.9 0 0 12.2-11.1 13.5-.4 0 .4.1.7.1 1.1 1 9.7.5 11.5.4 12.4z"/><path id="XMLID_226_" class="st9" d="M103.7 482.7l-.3 1.8-4-1-5.4-1.7-2.7-1.5s0-.1.1-.4c0-.1 0-.3.1-.4h.4c.8-.1 1.5 0 2.2.3.9.3 2 .7 2.2.5.4-.2.8-.3 1.3-.2l.6-1.2.1-.2c.2.5.4.9.8 1.3.1.2.3.3.4.4v1c.6.4 1.2.7 1.9.9h.5l.4.2c.4.1.8.3 1.2.4.1-.2.1-.2.2-.2z"/><path id="XMLID_225_" class="st10" d="M101.7 486.5c-1.1-.3-3.8-.8-4.2-.4-.4.4-4.2 0-4.2 0-.8 0-1.5-.4-1.9-1.1-.8-1.2-.1-5.1-.1-5.1h.8c.8-.1 1.5 0 2.2.3.9.3 2 .7 2.2.5.4-.2.8-.3 1.3-.2l.6-1.4c.2.5.4.9.8 1.3.1.2.3.3.4.4l-.1 1c.6.4 1.2.7 1.9.9.3.1.7 0 .9-.3 0 0 .1-.1.1-.2 0 .1.4.2 1.6.5 1.3-.1 2.5.5 3.1 2.2.6 1.8-4.3 2-5.4 1.6z"/><path id="XMLID_224_" class="st9" d="M89.2 424.1c-.2.1-.5.1-.7.2-.5.2-1.1.3-1.7.4-3.6.5-9.5.2-11.3.1 0-.7.1-1.5.2-2.2l12.9-1.7c0-.1.7 2 .6 3.2z"/><path id="XMLID_223_" class="st1" d="M100.5 421s-4.7.7-8.6 1.6c-1.3.3-2.5.6-3.4.9-.5.2-1.1.3-1.7.4-4.3.6-11.9 0-11.9 0-2.1-6.8 2.5-15.3 2.5-15.3-.1-.7 1-2.8 1-2.8v-.1l.7-2.4h17.6l.2 1 .4 2.1 2.8 13.1.4 1.5z"/><path id="XMLID_222_" class="st9" d="M103.2 425.1h-.1l-2.1.9c-2.2 1-8.9 1.2-11.2 1.2-.2-1-.2-1.9-.2-2.9 0 0 12.2-11.1 13.5-.4 0 .5 0 .8.1 1.2z"/><path id="XMLID_221_" class="st1" d="M103.5 424l-.4.2-2.1.9c-2.3 1-9.2 1.2-11.4 1.2H89c-1 0-2-1-2-1.2 0-.1-.1-.8-.2-1.4-.1-.5-.1-.9-.1-.9s-4.5-2-6.9-3.5c-1.7-1.2-1.3-9.5-1-13.8.1-1.5.2-2.4.2-2.4l17.8 1 2.5.1 1.4.3.4.1s1 7.5 1.5 8.1c.5.6.2 2.7.1 3.9 0 .5-.1 1-.2 1.5 0 0 .7 2.1.6 3.3.1 1 .2 1.8.4 2.6z"/><circle id="XMLID_220_" class="st2" cx="84.4" cy="354.6" r="7.3"/><path id="XMLID_219_" class="st2" d="M80.9 357.7s.5 6.9-.9 8.5c-1.4 1.6-5.1 4.6-5.1 4.6l1.1 4.7 6.4.7 7.5-8-1.7-2.1s-1.3-4.4-.2-6.6c1-2.2-7.1-1.8-7.1-1.8z"/><path id="XMLID_218_" class="st9" d="M96.3 372.9l-.4.6-2.3-.6L92 367l.1-1.7.5-.7s2.5.1 2.4 2.3c-.1 2 1 5.2 1.3 6z"/><path id="XMLID_217_" class="st9" d="M101.2 405.7s-1.8.4-3.9.7c-2.1.3-4.4.4-5.4-.2-1.6-1-10.5-.7-13.1-.6h-.4l.7-2.4h17.6l.2 1 2.5.1 1.4.3c.3.7.4 1.1.4 1.1z"/><path id="XMLID_216_" d="M92.2 365s2.5.1 2.4 2.3 1.4 6.2 1.4 6.2l-.6 1.3s-.8 3.2-.2 4c.6.8 2.9.8 1.6 7.3 0 0-.3 4.9.4 6.5.7 1.6.7 5.4 1.7 7 1 1.6 2.4 5.3 2.4 5.3s-7.4 1.6-9.3.5c-1.9-1.1-13.8-.6-13.8-.6s.1-2 0-2.2c-.1-.5 0-1 .3-1.4.4-.5 1-1.4.7-2.2-.3-.8.9-2 .2-3.2-.6-1.2-1.4-1.5-1.2-2.1.2-.7-.2-1.6-.7-2.1C77 391 74 385 74 385l-.5-2.8s-3.9-2.9-3.9-4.2c.1-1.4 1.5-3.2 1.5-3.2l3.8-3.7s2.1 2.3 4.1 1.5c2-.8 6.4-4.6 6.4-4.6s1.6-.8 1.7-1.5c.1-.6 1.1-.1 1.1-.1s1.4-.8 1.7-.5c.3.3 1.5.5 1.5.5l.8-1.4z" fill="#f15523"/><path id="XMLID_214_" class="st9" d="M87.1 392.4s-5.6 2.9-6.6 3.1c-1.1.2 4.7-.6 4.7-.6l1.9-2.5z"/><path id="XMLID_213_" class="st9" d="M91.6 394.7s-7.4 2.5-10.6 2c0 0 8.1 1.6 10.6-2z"/><path id="XMLID_212_" class="st9" d="M92.1 395.5s-6.6 4.2-10.5 3.5c0 0 9.1 1.8 10.5.9l-4.1-1.1c0-.1 4.5-2.5 4.1-3.3z"/><path id="XMLID_211_" class="st9" d="M84.4 341.8c-1.9-.4-4-.2-5.6 1.1-1.1.9-1.9 2.3-3.2 2.9-.7.3-1.4.5-2.1.7-2.6 1-4.1 3.7-3.6 6.4.2 1.1.7 2.2 1 3.3.5 2 .1 4-.4 6-1.4 5.5-3.5 10.7-6.3 15.6-.2.3-.3.7-.3 1 .1.3.2.5.4.7 2.6 3 6.9 4.1 10.9 4.2 1.5 0 3 0 4.3-.7.8-.5 1.6-1.1 2.1-1.9 1.4-1.9 2.1-4.2 2-6.6-.1-1.9-.8-3.8-.3-5.7.1-.3.2-.5.3-.7.4-.4 1.1-.3 1.8-.4 1.7-.2 2.7-1.9 2.9-3.6s-.2-3.3-.2-5c0-2.2.7-4.4 2-6.2.6-.8 1.3-1.5 1.4-2.5.2-1.2-.5-2.1-1.1-3-.9-1.5-1.4-3.2-2.8-4.3-.9-.6-2-1.1-3.2-1.3z"/><path id="XMLID_210_" d="M84 341.3c-1.9-.4-4-.2-5.6 1.1-1.1.9-1.9 2.3-3.2 2.9-.7.3-1.4.5-2.1.7-2.6 1-4.1 3.7-3.7 6.4.2 1.1.7 2.2 1 3.3.5 2 .1 4-.4 6-1.4 5.5-3.5 10.7-6.3 15.6-.2.3-.3.7-.3 1 .1.3.2.5.4.7 2.6 3 6.9 4.1 10.9 4.2 1.5.1 3 0 4.3-.7.8-.5 1.6-1.1 2.1-1.9 1.4-1.9 2.1-4.2 2-6.6-.1-1.9-.8-3.8-.3-5.7.1-.3.2-.5.3-.7.4-.4 1.1-.3 1.8-.4 1.7-.2 2.7-1.9 2.9-3.6s-.2-3.3-.2-5c0-2.2.7-4.4 2-6.2.6-.8 1.3-1.5 1.4-2.5.2-1.2-.5-2.1-1.1-3-.9-1.5-1.4-3.2-2.8-4.3-.9-.6-2-1-3.1-1.3z" fill="#995d7f"/><path id="XMLID_209_" class="st9" d="M81.5 412.1s1.5 6.8 3.9 8.6l-3.9-8.6z"/><g id="XMLID_206_" class="st5"><path id="XMLID_208_" class="st6" d="M70 354c-.1-.3-.2-.5-.3-.8.1.3.2.5.3.8z"/><path id="XMLID_207_" class="st6" d="M90.6 348.1v.6c-.2 1-.9 1.7-1.4 2.5-1.3 1.8-2 4-2 6.2 0 1.7.4 3.3.2 5-.2 1.7-1.3 3.4-2.9 3.6-.6.1-1.3 0-1.8.4-.2.2-.3.4-.3.7-.5 1.8.2 3.8.3 5.7.1 2.4-.6 4.7-1.9 6.6-.6.8-1.3 1.4-2.1 1.9-1.3.7-2.8.8-4.3.7-3.9-.1-8.1-1.1-10.7-4.1-.1.2-.1.4-.1.5.1.3.2.5.4.7 2.6 3 6.9 4.1 10.9 4.2 1.5.1 3 0 4.3-.7.8-.5 1.6-1.1 2.1-1.9 1.4-1.9 2.1-4.2 2-6.6-.1-1.9-.8-3.8-.3-5.7.1-.3.2-.5.3-.7.4-.4 1.1-.3 1.8-.4 1.7-.2 2.7-1.9 2.9-3.6.2-1.7-.2-3.3-.2-5 0-2.2.7-4.4 2-6.2.6-.8 1.3-1.5 1.4-2.5-.1-.6-.2-1.3-.6-1.9z"/></g><ellipse id="XMLID_201_" class="st4" cx="344.5" cy="407.5" rx="29.4" ry="4.8"/><linearGradient id="XMLID_5_" gradientUnits="userSpaceOnUse" x1="224.635" y1="1091.309" x2="224.635" y2="1241.622" gradientTransform="matrix(1 0 0 -1 115.91 1500.51)"><stop offset="0" stop-color="#818181" stop-opacity=".25"/><stop offset=".54" stop-color="#818181" stop-opacity=".12"/><stop offset="1" stop-color="#818181" stop-opacity=".1"/></linearGradient><path id="XMLID_198_" d="M378.7 312.5c1.2-4 0-8.1 0-8.1v-3.8s1.4-7.4-4.7-12.2l-4.1-3.6s-2.3-1.9-2.9-2.1c-.1 0-.3 0-.4-.1l-.1-.1c-.3-.6-.6-1.2-.9-1.9.5.1 1.1-.1 1.4-.5.1-.2.3-.4.3-.6.2-.5.3-1.2.5-1.7s.4-.9.8-1.2c0 .1-.1.1-.1.2.6-.7 1.3-1.3 1.9-2.1.1-.1.2-.3.3-.5l-.1.1c.8-1.2 1-2.7 1.2-4 .1-.5.1-1 0-1.4-.1-.3-.2-.6-.4-.9-.9-1.8-.9-4.1-2.3-5.5-1.1-1.1-2.7-1.4-4.2-1.6s-3.1-.3-4.4-1.1c-.4-.3-.8-.5-1.2-.7-.4-.2-.9 0-1.2.4 0 .1-.1.2-.2.3-.1.1-.3.1-.5 0l-2-.5v.1l.1.3c.1 0 .1 0 .2.1l-.3.5c-.6 0-1.2-.1-1.8-.4v.1c0 .6.6.9.8 1.5.1.2.1.5 0 .7-.1.2-.2.4-.4.6-.7.7-1.6.6-2.4 1-.1.1-.3.2-.3.3v.2c0 .1.1.2.2.2.2.2.5.4.8.5l-.2.2c-3.5 3.5-3.4 9.2.1 12.7.9.8 1.9 1.5 3 1.9 0 .2.1.3.1.5v.2l-2.7 1.1c-.8 0-1.6-.5-1.9-1.2-.6-1.3-2.9 0-2.9 0s-6.8-.5-9.3.7c0 0-4.1-1.7-4.6-1.8-.6-.1-1.4-.6-1.8-.5-.4.1-.9-.8-1.2-.7-.3.1-.4-.6-1.3-.8s-1.3.1-2.3-1c-1-1-9.4-5-9.4-5l-3.8-3.1-4-3.2-.1.1c0-.1 0-.2-.1-.3-.4-1.6-.9-3.1-1.5-4.7-.3-.6-.4-1.4-.7-1-.2.2-.6-.3-1.1-.7-.4-.3-1-.2-1.3.2 0 .1-.1.1-.1.2-3.1 4.9-4.2 5.2-2.4 7 1.6 1.6 2.7 3 4 3.4h.1l7.6 9.1s5.5 4.8 9.2 6.3c3.8 1.5 3.5 2 3.5 2s11.4 5.8 13.2 5.7c1.8-.1 1.4 11.8.7 13.8s-1.9 15.9-1.9 15.9-1.1 2.9.1 5c0 0 .3 3.9 0 4.8-1 1.6-2.5 4.3-2.8 7.1v.4c-.1.1-.2.2-.3.2 0 0 .1 0 .3-.1-.1 1.2-.4 2.3-.8 3.4-.6 1.6-.9 3.2-.9 4.9v9l-.8 5.6s-.9 4.2 0 5.2c.4.5.6 1.1.5 1.7 0 .7.2 1.4.6 2 .3.4.5.8.4 1.3-.3 1 .4 11.4.4 11.4s-.2 2.9-.5 3c-.3.2.5 3.3.5 3.3s-3.1 2.6-2.3 3.9l.8 1.2-.2.2-.1.1c-.2-.1-.5-.2-.8-.1-1 1-2 1.9-3.1 2.8-1.4 1-5.2 2.5-5.2 2.5l-3 .2h-.1s-1.4-.1-.6 2.1c.8 2.2 8 1.5 8 1.5l4.2-.7s7.5 0 9.6-.4c.9-.2 1.1-.7 1-1.2-.1-.5-.3-.9-.6-1.3l-.1-.1.1-1.5c3.2-1.8-.9-5.4-.9-5.4s1.4-3 2.1-4 .7-15.4.7-15.4.4-5.2-.6-6.4c0-.8.4-1.6 1.1-2 .7-.5 2.8-7.1 4.5-12.6l1.1 6.5s-.2 3.1.5 4c.3.3.4.8.3 1.2-.2.9-.1 1.8.2 2.6.1.4.3.7.5.9.6.3.6 1.4.9 1.6s1.6-.3 1.7.5v2.2l.5 13.5s-.8 1.1-.9 4.1c-.1 1.3-.3 2-.5 2.4-.3.5-.2 1 .1 1.4l.1.2-.6.4c-.5.4-.6 1-.3 1.5-.4.3-.5.8-.4 1.3 0 .1.1.1.1.2-.4.1-.8.3-1.1.6-.6.8-1.2 1.5-2 2-1.1.9-2.2 1.8-3.2 2.7-.5.7-1.1 1.2-1.9 1.5-.2.1-.4.1-.6.2-1.5.3-1 1.9.2 2.1 1.2.2 5.2 1.5 8.4.8 0 0 .9.4 2.3-.3s4.5-1.5 4.5-1.5 1.7 0 1.9-.7c.1-.2.1-.4.1-.7 0-.5 0-1-.1-1.5 0-.3-.1-.5-.1-.7-.1-.6-.4-1.3-.5-1.6 0 0 0-.1.1-.1.7-1.1-.4-3.8-.4-3.8.4-.6.8-1.1 1.3-1.5.6-.5 2.2-12.2 2.2-12.2s-.1-3 .8-4.4c.8-1.4-1.1-9.6-1.1-9.6s-.8-1.9-.5-2.6-.3-3.2-.3-3.2v-3c0-.4-.1-.7-.2-1-.2-.7-.6-2-.2-3 .5-1.4 1.7-9.8 1.7-9.8s-1-3.7.4-6.6c.1-.2.2-.5.4-.7 1-1.6.7-4.5.2-6.8-.1-.4-.2-.7-.2-1 0-.1-.1-.3-.1-.4l.2-.1v-.6c1.1-.2 2.1-.9 2.7-1.9 0 0 3.5-3.9 6.6-5.6 3.1-1.6 3.3-4 3.3-4-.5-.8.8-4 .8-4l-.6-2.6zm-10 5.2l-3.3 3.8c-.9-1.2.8-3.9.8-3.9l2.7-6.1c0 .8-.1 1.5-.4 1.8-.8 1 1.4 2.7 1.4 2.7-1.1.1-1.3 1.7-1.2 1.7z" fill="url(#XMLID_5_)"/><path id="XMLID_197_" class="st14" d="M310.6 267.6l-1.8 3.5c-.6 0-1.1-.2-1.7-.3-1.7-.5-3.2-1.8-3.9-3.4-1.6-3.6 1.1-5.8 2.3-6.5s2.4-1.5 3.3.8c.6 1.5 1.1 3.1 1.5 4.6.2.8.3 1.3.3 1.3z"/><path id="XMLID_196_" class="st14" d="M367.8 285.8l-2.9 4.3s-13.6 6.5-11-1.1c1.1-3.4 1.3-5.8 1.1-7.5-.3-2.1-1.1-3-1.1-3s13.2-6.8 11.3-2.1c-.4 1-.6 2-.5 3 .2 1.5.7 2.9 1.4 4.2.5.7 1.1 1.5 1.7 2.2z"/><path id="XMLID_195_" class="st1" d="M363.7 370.6s2 8.2 1.1 9.5c-.8 1.4-.8 4.4-.8 4.4s-1.6 11.7-2.2 12.2c-.5.4-.9 1-1.3 1.5 0 0 1.1 2.7.4 3.7-.1.2-.2.3-.4.4-1 .4-4.7-1.5-6.8-2.6-.3-.1-.5-.4-.6-.7-.2-.5 0-1 .3-1.3-.3-.5-.1-1.2.3-1.5l.6-.4-.1-.2c-.3-.4-.4-1-.1-1.4.2-.4.5-1.1.5-2.4.2-2.9.9-4.1.9-4.1l-.5-13.4v-2.2c-.1-.8-1.5-.3-1.7-.5s-.3-1.3-.9-1.6c-.3-.2-.5-.6-.5-.9-.3-.8-.3-1.7-.2-2.6.1-.4 0-.9-.3-1.2-.7-.9-.5-4-.5-4l-1-6.4c-1.7 5.5-3.8 12-4.4 12.5-.7.4-1.1 1.2-1.1 2 1 1.2.6 6.4.6 6.4s0 14.3-.7 15.3-2.1 4-2.1 4 4 3.6.9 5.4c-3.2 1.8-9.9-3.2-9.9-3.2l.7-.7.2-.2-.8-1.2c-.8-1.4 2.3-3.9 2.3-3.9s-.8-3.2-.5-3.3c.3-.2.5-3 .5-3s-.7-10.4-.4-11.3c.1-.5 0-.9-.4-1.3-.4-.6-.6-1.3-.6-2 .1-.6-.1-1.2-.5-1.7-.9-1 0-5.2 0-5.2l.8-5.6V349c0-1.7.3-3.4.9-5 .5-1.3.7-2.6.8-4 .2-2.8 1.8-5.6 2.8-7.2.5-.8 1-1.3 1-1.3l24-.9s.4 1.1.8 2.6c.1.3.2.7.2 1 .5 2.3.8 5.2-.2 6.8-.1.2-.3.4-.4.7-1.4 2.9-.4 6.6-.4 6.6s-1.2 8.3-1.7 9.7c-.4 1 0 2.3.2 3 .1.3.2.7.2 1v3s.6 2.5.3 3.2.7 2.4.7 2.4z"/><path id="XMLID_194_" class="st9" d="M364.8 341.1c-.1.2-.3.4-.4.7l-1.4-.1c.1-.7-.8-7.2-.8-7.2l2.7-.2c.6 2.3.9 5.2-.1 6.8z"/><path id="XMLID_193_" class="st15" d="M365 340.9c-.1.2-.3.4-.4.7l-1.4-.1c.1-.7-.8-7.2-.8-7.2l2.7-.2c.6 2.3.9 5.2-.1 6.8z"/><path id="XMLID_192_" class="st1" d="M365 340.9c-.1.2-.3.4-.4.7l-1.4-.1c.1-.7-.8-7.2-.8-7.2l2.7-.2c.6 2.3.9 5.2-.1 6.8z"/><path id="XMLID_191_" class="st9" d="M361 401.9c-.1.2-.2.3-.4.4-1 .4-4.7-1.5-6.8-2.6-.3-.1-.5-.4-.6-.7 1.2-.2 2 1.1 2 1.1.8-.5 1.9-.3 2.4.6 1 1.5 3.2.9 3.2.9s.2.1.2.3z"/><path id="XMLID_190_" class="st16" d="M361.6 406.5c-.2.7-1.9.7-1.9.7s-3 .9-4.4 1.5c-1.3.7-2.3.3-2.3.3-3.1.7-7.1-.5-8.3-.8-1.2-.2-1.7-1.8-.2-2.1.2 0 .4-.1.6-.2.7-.3 1.4-.9 1.8-1.5 1-1 2.1-1.9 3.2-2.7.8-.6 1.4-1.2 2-2 1.8-1.6 3 .6 3 .6.8-.5 1.9-.3 2.4.6 1 1.5 3.2.9 3.2.9s.4 1 .6 1.7c0 .2.1.4.1.7.4.8.4 1.5.2 2.3z"/><circle id="XMLID_189_" class="st17" cx="356.5" cy="401.5" r=".2"/><circle id="XMLID_188_" class="st17" cx="354.7" cy="403.2" r=".2"/><circle id="XMLID_187_" class="st17" cx="352.9" cy="404.7" r=".2"/><circle id="XMLID_186_" class="st17" cx="353.8" cy="404" r=".2"/><circle id="XMLID_185_" class="st17" cx="355.6" cy="402.3" r=".2"/><path id="XMLID_184_" class="st18" d="M361.6 406.5c-.2.7-1.9.7-1.9.7s-3 .9-4.4 1.5c-1.3.7-2.3.3-2.3.3-3.1.7-7.1-.5-8.3-.8-1.2-.2-1.7-1.8-.2-2.1.2 0 .4-.1.6-.2 1.3.4 2.7.7 4.1.8 3.1.1 5.5 0 5.5 0l3.1-1c.6-.4 1.2-.6 1.9-.7.7-.1 1.3-.4 1.9-.8.2.8.2 1.5 0 2.3z"/><path id="XMLID_183_" class="st19" d="M353.9 408.4c-.2 0-.3 0-.5-.1v-.2c.6.1 1.3 0 1.9-.3.3-.1.6-.2.8-.4.3-.1.6-.3 1-.4l.3-.1c.2-.1.3-.1.5-.2.1 0 .2-.1.3-.1.2-.1.5-.2.7-.3h.7c.2-.1.4-.1.7-.2.2-.1.5-.2.7-.3h.2c.2 0 .3-.1.5-.2l.2.2c-.2.1-.4.2-.6.2h-.2c-.2.1-.4.1-.7.2-.2.1-.5.2-.7.3h-.8c-.2.1-.4.1-.6.2l-.3.3c-.2.1-.3.1-.5.2l-.3.1c-.3.1-.6.3-1 .4-.3.1-.5.3-.8.4-.5.2-1 .3-1.5.3z"/><path id="XMLID_182_" class="st9" d="M354.7 371.1s1.6-2.3 4.2-2.2c2.7 0 3.8-.3 3.8-.3s-1.7 1-2.9 1.1c-1.2.1-5.1 1.4-5.1 1.4z"/><path id="XMLID_181_" class="st9" d="M355.6 371.6s1.4-1 2.2-1c.8 0 1.5-.1 1.5-.1-.4.3-.8.5-1.2.6-.7.2-2.5.5-2.5.5z"/><path id="XMLID_180_" class="st9" d="M355.9 372.3s2.1.2 2.1.7"/><path id="XMLID_179_" class="st9" d="M336.1 340.6c.1 0 2-2 2.1-2.8.1-.5.4-.9.8-1.2 0 0 1.2.5.1 2-1 1.5-3 2-3 2z"/><path id="XMLID_178_" class="st9" d="M365.2 276.2c-.4 1-.8 1.1-.7 2.1-.5.5-1.1 1-1.7 1.4-1.3.8-2.8 2.4-4.5 2.4-1.1 0-2.2-.2-3.3-.6-.3-2.1-1.1-3-1.1-3s13.3-6.9 11.3-2.3z"/><path id="XMLID_177_" class="st14" d="M367.2 272.6c0 4.9-4 9-9 9-4.9 0-9-4-9-9s4-9 9-9c5 .1 9 4.1 9 9z"/><path id="XMLID_176_" class="st9" d="M367.8 285.8l-2.9 4.3s-13.6 6.5-11-1.1c1.1-3.4 1.3-5.8 1.1-7.5.2.6.3 1.1.3 1.7 0 1.2.1 2.7 3 3.1 4.8.8 7.4-2.2 7.9-2.8.4.8 1 1.6 1.6 2.3z"/><path id="XMLID_175_" class="st9" d="M310.6 267.6l-1.8 3.5c-.6 0-1.1-.2-1.7-.3l-.2-.2c.7.3 3.2-4.4 3.2-4.4l.1.1c.3.8.4 1.3.4 1.3z"/><path id="XMLID_174_" class="st9" d="M365 333.1c-5.8 2.5-25.9.4-25.9.4.1-.2.1-.4.1-.7.5-.8 1-1.3 1-1.3l24-.9c0-.1.4 1 .8 2.5z"/><path id="XMLID_173_" class="st20" d="M355 281.7l-2.7 1.1c-.8 0-1.6-.5-1.9-1.2-.6-1.3-2.8 0-2.8 0s-6.7-.5-9.2.7c0 0-4-1.7-4.5-1.8-.5-.1-1.4-.6-1.8-.5-.4.1-.9-.7-1.2-.7-.3.1-.4-.6-1.3-.8-.9-.2-1.2.1-2.3-1-1-1-9.2-5-9.2-5l-3.7-3-3.9-3.2s-2.5 4.7-3.2 4.4l7.5 9s5.4 4.7 9.1 6.3 3.4 2 3.4 2 11.3 5.7 13 5.6c1.7-.1 1.4 11.8.7 13.7-.7 1.9-1.9 15.8-1.9 15.8s-1.1 2.9.1 5c0 0 .3 4.2 0 4.9 0 0 20.2 2.2 25.9-.4 0 0 .8-9.3 0-10.5-.8-1.2.8-3.8.8-3.8l3.6-8.1 8.8-8.8s1.4-7.4-4.7-12.1l-4-3.5s-2.2-1.9-2.9-2.1c-.7-.1-.4 0-.4 0s-2.6 3.8-8 2.9c-2.9-.5-2.9-2-3-3.1 0-.7-.1-1.3-.3-1.8z"/><path id="XMLID_172_" class="st9" d="M366 312s-12.4.5-14.9 4.4c0 0 3.2-1.5 6.1-1.1 2.9.5 8.8-3.3 8.8-3.3z"/><path id="XMLID_171_" class="st9" d="M352.3 325.6s5.9.4 7.1-.8c1.2-1.2 1.2-2 1.2-2l-8.3 2.8z"/><path id="XMLID_170_" class="st9" d="M367.2 300s-5 5.9 1.1 8.4l-1.1-8.4z"/><path id="XMLID_169_" class="st9" d="M337.9 288.7s1.8 3.7 2.7 3.9l-2.7-3.9z"/><path id="XMLID_168_" class="st9" d="M331.8 287.1s4.5 4.1 5.4 4.4c-.1.1-4.7-4.4-5.4-4.4z"/><path id="XMLID_167_" class="st9" d="M349.8 283.3s-4.3 6.5-1.5 10.4c-.1 0-1.6-4.7 1.5-10.4z"/><path id="XMLID_166_" class="st14" d="M360.7 332.3l-1.3 1.2-.2.2-1.5 1.5c-.1.1-.2.2-.3.2-6.2 4.5-7.5-2.3-7.5-2.3s-2.8 1.8-3.2.3 6.4-3.5 7.4-3.4h.3c.5-.1 1-.3 1.4-.5.1-.1.2-.1.3-.2.3-.2.7-.4 1-.6l3.6 3.6z"/><path id="XMLID_165_" class="st9" d="M367.4 272.6c0 3.2-1.7 6.1-4.4 7.7-.1-.2-.2-.4-.3-.7-.3-.8-.5-1.5-.8-2.3-.4-.8-.9-1.6-1.5-2.2-.1-.1-.2-.2-.4-.3-.3 0-.6 0-.8.2-.4.3-.8.4-1.2.5-.5.1-.9 0-1.3-.4-.3-.4-.3-1-.2-1.6.2-1.2.6-2.3.6-3.5 0-1.2-.4-2.5-1.5-3.1-.9-.5-2-.4-3-.7-.2 0-.3-.1-.5-.2 3.5-3.5 9.1-3.6 12.7-.2 1.7 2.1 2.7 4.4 2.6 6.8z"/><path id="XMLID_164_" d="M351.5 264.9c-.2.1-.3.2-.3.4 0 .1.1.2.2.2.4.3.9.6 1.4.7 1 .3 2.1.1 3.1.7s1.5 1.9 1.5 3c0 1.2-.4 2.3-.6 3.5-.1.5-.2 1.1.2 1.6.3.3.8.5 1.3.4.4-.1.9-.3 1.2-.5.2-.2.5-.3.8-.2.2.1.3.2.4.3.6.6 1.2 1.4 1.5 2.2.3.8.5 1.5.8 2.3.3.8.8 1.4 1.5 1.9.7.4 1.7.3 2.3-.2.5-.6.5-1.4.8-2.2.4-1.3 1.7-2.1 2.5-3.2.9-1.2 1.1-2.8 1.4-4.3.1-.5.1-1 0-1.4-.1-.3-.2-.6-.4-.9-.9-1.8-.9-4.1-2.2-5.5-1-1.1-2.6-1.4-4.1-1.6-1.5-.2-3.1-.3-4.3-1.1-.4-.3-.8-.5-1.2-.7-.4-.2-.9 0-1.2.4 0 .1-.1.2-.2.3-.1.1-.3.1-.4 0l-2-.5.2 1c-.7 0-1.4-.1-2.1-.4 0 .6.6.9.8 1.5.1.5 0 1-.4 1.4-.8.6-1.7.5-2.5.9z" fill="#5a5369"/><path id="XMLID_163_" class="st9" d="M343.4 399.5l-.1.9c-3.2 1.8-9.9-3.2-9.9-3.2l.7-.7c.2.3.3.6.3.9l1.4.1 1.6 1.8s4.4.5 5.6.2h.4z"/><path id="XMLID_162_" class="st16" d="M342.9 404.4c-2.1.5-9.5.4-9.5.4l-4.1.7s-7.1.7-7.9-1.5c-.8-2.2.6-2.1.6-2.1h.1l2.9-.2s3.7-1.4 5.1-2.4c1.1-.8 2.1-1.8 3.1-2.7 0 0 1.2-.2 1.2 1.2l1.4.1 1.6 1.8s4.4.5 5.6.2h.4l-.2 2.2.1.1c.3.1 1.4 1.8-.4 2.2z"/><circle id="XMLID_161_" class="st17" cx="335.2" cy="399" r=".2"/><circle id="XMLID_160_" class="st17" cx="329.9" cy="401.3" r=".2"/><circle id="XMLID_159_" class="st17" cx="327.2" cy="402.1" r=".2"/><circle id="XMLID_158_" class="st17" cx="331.3" cy="400.8" r=".2"/><circle id="XMLID_157_" class="st17" cx="328.6" cy="401.7" r=".2"/><circle id="XMLID_156_" class="st17" cx="332.7" cy="400.2" r=".2"/><circle id="XMLID_155_" class="st17" cx="334.1" cy="399.6" r=".2"/><path id="XMLID_154_" class="st18" d="M342.9 404.4c-2.1.5-9.5.4-9.5.4l-4.1.7s-7.1.7-7.9-1.5c-.8-2.2.6-2.1.6-2.1h.1c.5.6 1.4 1.2 3.1 1.3l5.1.2 5.3-.4s4.9-.2 5.7-.3c.7-.2 1.3-.4 2-.7.3.3 1.4 2-.4 2.4z"/><path id="XMLID_153_" class="st19" d="M329.7 405c-.3 0-.6 0-.8-.1l.1-.2c.7.2 1.4.1 2.1-.1.2-.1.5-.1.8-.2 1.2-.4 2.4-.5 3.7-.4h.2c2.3.1 4.5 0 6.8-.3.5 0 1-.2 1.4-.6l.2.2c-.4.4-1 .6-1.6.6-2.3.3-4.5.4-6.8.3h-.2c-.7-.1-1.5 0-2.2.1-.5.1-.9.2-1.3.3-.2.1-.5.2-.8.2-.7.2-1.2.2-1.6.2z"/><path id="XMLID_152_" class="st9" d="M360.7 332.3l-1.3 1.2-3.3-4.2c.3-.2.7-.4 1-.6l3.6 3.6z"/><path id="XMLID_151_" class="st20" d="M375.6 297.7l2.6 3.6v3.8s1.2 4 0 8l.1 3.5s-1.3 3.2-.8 4c0 0-.2 2.4-3.3 4-3 1.6-6.5 5.5-6.5 5.5s-1.3 2.5-4.8 1.9l-3.3 1.4-3.8-4.9 5.2-2.8s1.8-2.4 2.9-2.3l4.4-5.1s.1-1.6 1.2-1.6c0 0-2.1-1.7-1.4-2.7.7-1 .1-5.5.1-5.5l7.4-10.8z"/><path id="XMLID_150_" class="st9" d="M370.8 314.2s5.9-.1 6.6 1.4c.7 1.5-4.8-2.3-6.6-1.4z"/><path id="XMLID_149_" class="st9" d="M359.2 333.5v.3c-.1.9-.9 1.6-1.9 1.7h-.1c-1.1 0-2-.9-2-2 0-.2 0-.4.1-.6-.9-.8-1-2.1-1-2.8.5-.1 1-.3 1.4-.5.2.7.6 1.4 1 2 .2 0 .3-.1.5-.1 1.1 0 2 .9 2 2z"/><path id="XMLID_148_" class="st17" d="M355.9 329.1s-1.3.3-1.3.5-.3 2.4 1.2 3.3 1.3-1.3 1.3-1.3-1.3-1.8-1.2-2.5z"/><circle id="XMLID_147_" cx="357.4" cy="333.5" r="2" fill="#e4abb5"/><circle id="XMLID_146_" class="st18" cx="357.4" cy="333.5" r="1.7"/><path id="XMLID_145_" class="st9" d="M349.7 334.2s4.2 3.5 9.6 1.3v1.7s-3.6 2.5-6.9 1c-3.2-1.5-2.7-4-2.7-4z"/><path id="XMLID_144_" class="st9" d="M349.7 333.8s4.2 3.5 9.6 1.3v1.7s-3.6 2.5-6.9 1c-3.2-1.6-2.7-4-2.7-4z"/><path id="XMLID_143_" class="st15" d="M349.7 333.8s4.2 3.5 9.6 1.3v1.7s-3.6 2.5-6.9 1c-3.2-1.6-2.7-4-2.7-4z"/><path id="XMLID_142_" class="st23" d="M349.8 333.8s4.2 3.5 9.6 1.3v1.7s-3.6 2.5-6.9 1c-3.2-1.6-2.7-4-2.7-4z"/><path id="XMLID_141_" class="st9" d="M336.5 396.5s5.6 1 6.5 1.3c.8.2-.2.6-.2.6s-5.2-.9-6.3-1.9z"/><path id="XMLID_140_" class="st9" d="M336.3 393.5c.1 0 3.8-1.1 4.6-2.9"/><path id="XMLID_139_" class="st9" d="M341.8 372s1.5 2 2.5 1.9c.9-.1-1.6-2-2.5-1.9z"/><path id="XMLID_138_" class="st9" d="M342.6 375.3s.6 1.4 1.6 1"/><path id="XMLID_137_" class="st23" d="M346.2 344.3l4 10.5s.6-6.8-.6-8.8c-.8-1.1-2.1-1.8-3.4-1.7z"/><g id="XMLID_132_" class="st5"><path id="XMLID_136_" class="st6" d="M356 260.9v-.2l-.6-.2.1.3c.1.1.3.1.5.1z"/><path id="XMLID_135_" class="st6" d="M354.2 263.4c.4-.4.6-.9.4-1.4-.1-.2-.2-.4-.3-.5l-.9-.3c0 .6.6.9.8 1.5.1.2.1.5 0 .7z"/><path id="XMLID_134_" class="st6" d="M364.9 280.7c-.7-.4-1.2-1.1-1.5-1.9-.3-.8-.5-1.6-.8-2.3-.4-.8-.9-1.6-1.5-2.2-.1-.1-.2-.2-.4-.3-.3 0-.6 0-.8.2-.4.3-.8.4-1.2.5-.5.1-.9 0-1.3-.4-.3-.4-.3-1-.2-1.6.2-1.2.6-2.3.6-3.5 0-1.2-.5-2.5-1.5-3-.9-.5-2-.4-3-.7-.5-.1-1-.4-1.4-.7l-.1-.1c-.1 0-.2.1-.2.1-.2.1-.3.2-.3.4 0 .1.1.2.2.2.4.3.9.6 1.4.7 1 .3 2.1.1 3 .7 1 .6 1.5 1.9 1.5 3s-.4 2.3-.6 3.5c-.1.5-.2 1.1.2 1.6.3.3.8.5 1.3.4.4-.1.9-.3 1.2-.5.2-.2.5-.3.8-.2.1.1.3.2.4.3.6.6 1.2 1.4 1.5 2.2.3.8.5 1.5.8 2.3.3.8.8 1.4 1.5 1.9.7.4 1.7.4 2.3-.2.1-.2.3-.4.3-.6-.7.6-1.5.6-2.2.2z"/><path id="XMLID_133_" class="st6" d="M368.1 277.9c.6-.7 1.3-1.3 1.8-2.1.1-.1.2-.3.3-.5-.6.9-1.6 1.6-2.1 2.6z"/></g><g id="XMLID_126_" class="st5"><path id="XMLID_131_" class="st6" d="M334.7 267.2h-89.6c-2.6 0-4.7 2.1-4.7 4.7v56.6c0 2.6 2.1 4.7 4.7 4.7h70.3s1.8 9.7-4.2 10.7c0 0 13.4 1 11.1-10.7h12.4c2.6 0 4.7-2.1 4.7-4.7v-56.6c0-2.6-2.1-4.7-4.7-4.7z"/><g id="XMLID_127_" class="st7"><path id="XMLID_130_" class="st6" d="M255.8 282.2H324c1.2 0 2.1 1 2.1 2.1v.1c0 1.2-1 2.1-2.1 2.1h-68.3c-1.2 0-2.1-1-2.1-2.1v-.1c0-1.1 1-2.1 2.2-2.1z"/><path id="XMLID_129_" class="st6" d="M255.8 302h55.6c1.2 0 2.1 1 2.1 2.1v.1c0 1.2-1 2.1-2.1 2.1h-55.6c-1.2 0-2.1-1-2.1-2.1v-.1c-.1-1.1.9-2.1 2.1-2.1z"/><path id="XMLID_128_" class="st6" d="M255.8 292.1h38.8c1.2 0 2.1 1 2.1 2.1v.1c0 1.2-1 2.1-2.1 2.1h-38.8c-1.2 0-2.1-1-2.1-2.1v-.1c-.1-1.1.9-2.1 2.1-2.1z"/></g></g><path id="XMLID_125_" class="st1" d="M335.9 266.4h-89.6c-2.6 0-4.7 2.1-4.7 4.7v56.6c0 2.6 2.1 4.7 4.7 4.7h70.3s1.8 9.7-4.2 10.7c0 0 13.4 1 11.1-10.7h12.4c2.6 0 4.7-2.1 4.7-4.7v-56.6c-.1-2.6-2.2-4.7-4.7-4.7z"/><g id="XMLID_121_" class="st7"><path id="XMLID_124_" class="st8" d="M256.9 281.5h68.3c1.2 0 2.1 1 2.1 2.1v.1c0 1.2-1 2.1-2.1 2.1h-68.3c-1.2 0-2.1-1-2.1-2.1v-.1c0-1.2.9-2.1 2.1-2.1z"/><path id="XMLID_123_" class="st8" d="M256.9 301.2h55.6c1.2 0 2.1 1 2.1 2.1v.1c0 1.2-1 2.1-2.1 2.1h-55.6c-1.2 0-2.1-1-2.1-2.1v-.1c0-1.1.9-2.1 2.1-2.1z"/><path id="XMLID_122_" class="st8" d="M256.9 291.3h38.8c1.2 0 2.1 1 2.1 2.1v.1c0 1.2-1 2.1-2.1 2.1h-38.8c-1.2 0-2.1-1-2.1-2.1v-.1c0-1.1.9-2.1 2.1-2.1z"/></g><ellipse id="XMLID_107_" class="st4" cx="267.9" cy="541" rx="31.8" ry="5.2"/><g id="XMLID_102_" class="st5"><path id="XMLID_106_" class="st6" d="M304.7 380.6h-97.1c-2.8 0-5.1 2.3-5.1 5.1V447c0 2.8 2.3 5.1 5.1 5.1h76.2s2 10.5-4.5 11.6c0 0 14.5 1 12-11.6h13.5c2.8 0 5.1-2.3 5.1-5.1v-61.3c-.1-2.8-2.4-5.1-5.2-5.1z"/><g id="XMLID_103_" class="st7"><path id="XMLID_105_" class="st6" d="M219 418.3h74.4c1.2 0 2.1 1 2.1 2.1v.5c0 1.2-1 2.1-2.1 2.1H219c-1.2 0-2.1-1-2.1-2.1v-.5c0-1.1.9-2.1 2.1-2.1z"/><path id="XMLID_104_" class="st6" d="M219 407.6h29.8c1.2 0 2.1 1 2.1 2.1v.5c0 1.2-1 2.1-2.1 2.1H219c-1.2 0-2.1-1-2.1-2.1v-.5c0-1.1.9-2.1 2.1-2.1z"/></g></g><path id="XMLID_101_" class="st1" d="M303.9 379.8h-97.1c-2.8 0-5.1 2.3-5.1 5.1v61.3c0 2.8 2.3 5.1 5.1 5.1H283s2 10.5-4.5 11.6c0 0 14.5 1 12-11.6H304c2.8 0 5.1-2.3 5.1-5.1v-61.3c-.1-2.9-2.4-5.1-5.2-5.1z"/><g id="XMLID_98_" class="st7"><path id="XMLID_100_" class="st8" d="M218.2 417.5h74.4c1.2 0 2.1 1 2.1 2.1v.5c0 1.2-1 2.1-2.1 2.1h-74.4c-1.2 0-2.1-1-2.1-2.1v-.5c-.1-1.2.9-2.1 2.1-2.1z"/><path id="XMLID_99_" class="st8" d="M218.2 406.8H248c1.2 0 2.1 1 2.1 2.1v.5c0 1.2-1 2.1-2.1 2.1h-29.8c-1.2 0-2.1-1-2.1-2.1v-.5c-.1-1.2.9-2.1 2.1-2.1z"/></g><linearGradient id="XMLID_7_" gradientUnits="userSpaceOnUse" x1="53.093" y1="959.498" x2="53.093" y2="1130.214" gradientTransform="matrix(1 0 0 -1 192.94 1500.51)"><stop offset="0" stop-color="#818181" stop-opacity=".25"/><stop offset=".54" stop-color="#818181" stop-opacity=".12"/><stop offset="1" stop-color="#818181" stop-opacity=".1"/></linearGradient><path id="XMLID_97_" d="M286.2 537.4c-.5-1.9-.8-3.7-.8-3.7s.1-2.1-.8-3.7v-4.4c.3-.7.6-1.4 1-2 .7-1.2 0-5.7 0-5.7s-2.6-6.4-2-10.4-5.4-17.9-5.4-17.9c0-1.3.2-2.7.6-4 .1-.3.1-.6.1-.8v-.1c-.1-2.7-2.2-7.6-2.2-7.6l.3-9.5s1.3-5.6-.8-13.1c-.8-2.6-1.3-4.7-1.6-6.3 0-.2-.1-.4-.1-.5 4.5-.7 8-1.3 8-1.3s-2.6-10.9-4.4-12.8c-1.8-1.9-3.2-8-3.2-8s-.9-7.7.6-10 1.7-6.1 1.7-6.1 3.4-2.5 3.8-3.6c.4-1.1 1.1-3.6 1.1-4.9s-.4-2.5-.3-3.1c.1-.7-1-3.3-.4-4.5.1-.4.2-.8.2-1.2 0-1.1-.1-2.1-.3-3.2-1-.8-2.1-1.4-3.4-1.8l-.1-.3-.2-.8c-.1-.1-.2-.1-.3-.2V384.5l.5-2.5c1-4.3-4.7-5-4.7-5-.3-.7-.9-1.2-1.6-1.4-1.2-.4-.2 6.5.4 7 .4.3 1.7 2.5 2.3 3.6l.1.2-.3.3.2 1.5v.2c-.4.5-.7 1-.9 1.6 0 0 1.1 1.2.8 2.5-.2 1.3.3 2.9.3 3-.1-.1-.8-.9-1.5-.7l-2.8.8s-1.6.3-1.4.6c.1.3-1.1 1.8-1.1 1.8l-4.2-4c0-.1-.1-.2-.1-.4-.2-.6-.3-1.1-.4-1.7.5-.1.9-.3 1.3-.4.4-.2.8-.4 1.1-.7.4-.5.5-1.2.7-1.8.3-1.2 1-2.3 1.5-3.5.9-1.9 1.1-4.1.8-6.2-.1-.6-.3-1.3-.6-1.8-.7-.9-1.9-1.3-2.8-2.1-.9-.7-1.5-1.9-2.5-2.5-.9-.5-2.1-.4-3.2-.3-2.1.3-4.1 1.1-5.9 2.2-.6.4-1.3.8-2 .7-.6-.1-1-.6-1.4-1v-.2c-.4 1-.6 2-.6 3.1v1c-.1.2-.2.4-.4.6-.1.1-.2.3-.3.5 0-.1 0-.1.1-.2-.3.4-.4.8-.4 1.3 0 .3.1.7.3.9.2.2.4.4.7.5-.6 3.3.9 6.6 3.8 8.3 0 .1.1.2.1.4.5 1.4.9 3 .8 4.5 0 .1 0 .2-.1.3 0 .1-.1.1-.1.2 0 0-6.9.1-8.5-1.4-1.6-1.5-4.1 3.6-4.1 3.6s-2.5.5-3 0-3.4-.1-3.4-.1c-1.2-1-2.7-1.6-4.3-1.6-1-.7-2-1.3-3.2-1.8h-.1c-.5-.2-1-.2-1.6-.2 0 0-3.4-2.8-4.4-4.3-1-1.5-5.7-7.1-5.7-7.1v-.3l-.1-.8h-.4c0-.1-.1-.2-.1-.3-.3-.8-.6-1.6-1-2.3 0 0 0-1 .3-1.3.3-.3-.1-4-.1-4s-3.1-7.1-5.8-1.8c0 0-5.2 3.4-.8 7.5 0 0 1.7.8 2 1.5.2.4.8 1.6 1.1 2.4l.2.4.1.7v.3c-.8.5-1.4.9-1.2 1.3.2.6.4 1.2.5 1.8 0 0 6 7.5 6.8 10.7 0 0 16.1 9.6 21.4 10.2l-.9 4.8c-.1 1.3-.2 2.6-.2 3.9.1 1-.6 5.7-.6 5.7s-.9 6.8-1.7 7.8c-.8 1-.6 5-.6 5-.2 2-.5 3.9-1.1 5.8-.8 2.6-.2 5.8-.2 5.8s-2.7 6.1 3.7 2c0 0 3.2-.2 6.8-.3v1.9c0 3.5-.1 8.4.1 12 .3 6.5 2.3 19.3 2.3 19.3v6.4c-.1.6-.2 1.2-.2 1.8 0 2.3.6 4.5 1.7 6.5l.5 4.3s1.2 2.8 1.2 4.5v.4c0 .2-.1.4-.1.7-.1 2 1.1 6.6 1.1 6.6s.1 4.7.8 5c.6.2-.8 2.7-1.2 3.4v-.1l-.1.1c-.1.4-.2.8-.2 1.2-.1.7.2 1.3.8 1.7 1.3.8 2.1 1.5.9 1.8l-1.2.3-.1-.2c-.3.1-.5.5-.5.8 0 .6.2 1.1.4 1.6 1.1 2.5 1.9 3.5 1.9 3.5l.5-.1-.3.6c-.2.3-.5.5-.8.7-.3.2-.6.3-1 .3-.8 0-1.5.4-2 1-.7.9-1.1 2.2.2 3.2l5 1.7s8.7 1.1 8.2-.8c-.5-2-.8-3.7-.8-3.7 0-1.2-.2-2.4-.7-3.5-.1-.2-.2-.3-.3-.5h.3s.6-4.3 1.5-5.1c.2-.2.2-.3.2-.4.1-.2-.1-.4-.4-.5l-.1.2c-.3-.1-.6-.1-.8-.1 0 0-.3-2.3.6-3.1.1-.2.2-.4.2-.7 0-.3 0-.6-.1-.9v.1c-.5-2-2-5.3-2-5.3s-.1-2 .5-2.9c.6-.8-.1-11.1-.1-11.1s.2-5-.4-7.3c-.6-2.3.8-5.1.8-5.1v-.2s0-.3-.1-.8c-.1-1.3-.4-3.7-.6-4.8-.3-1.6.1-9.1.1-9.1l1.3-3.2 2.3 5.5 2.4 7.4s1.2 1.6 1.2 3.1v.7c0 .9.2 1.8.7 2.6 0 0 .6 3.5 1.6 4.4 1 .9 1 2.6 1 2.6s1.2 5.1 1.8 5.9c.5.8.5 2.8.5 3.4v.2s.2 1.8.2 3.3v.5c0 .4-.1.8-.1 1.2v.1-.3c-.3 1-.4 2.1-.4 3.2 0 1.8.2 4 1.3 5.2 1.9 2.2 3.1 1.9 3.1 1.9s-.9 2.7-2 3.3c0 0-.1 0-.1.1v-.2c-.2.3-.4.6-.3 1-.1 1.2.7 3.2 1.4 4 .3.3.6.5 1 .6l-.2.1c-.1.1-.2.1-.4.2s-.4.1-.6.1c-.8 0-1.5.4-2 1-.7.9-1.1 2.1.2 3.2l5 1.7c-.2.9 8.5 2 8 0z" fill="url(#XMLID_7_)"/><path id="XMLID_96_" class="st25" d="M253 540.7l-4.9-1.7c-1.3-1.1-.9-2.3-.2-3.2.5-.6 1.2-.9 1.9-1 .3 0 .7-.2.9-.3.3-.2.6-.4.8-.7.4-.6.6-1.2.6-1.9 0 0 5.4-1.6 6.8 0 .3.3.5.6.7 1 .5 1.1.7 2.3.7 3.5 0 0 .3 1.7.7 3.7.4 1.7-8 .6-8 .6z"/><path id="XMLID_95_" class="st25" d="M276.9 538.2l-4.9-1.7c-1.3-1.1-.9-2.3-.2-3.2.5-.6 1.2-.9 1.9-1 .2 0 .4-.1.6-.1.1-.1.3-.1.4-.2 1.4-.8 1.3-2.6 1.3-2.6s5.4-1.6 6.8 0c.2.2.4.4.5.7.9 1.6.8 3.7.8 3.7s.3 1.7.7 3.7c.5 1.9-7.9.7-7.9.7z"/><path id="XMLID_93_" class="st9" d="M258.9 531.8c.3.3.5.6.7 1l-8 .9c.4-.6.6-1.2.6-1.9-.1 0 5.3-1.6 6.7 0z"/><path id="XMLID_92_" class="st9" d="M283.4 530.1v1.5c-1.2 2.1-7.3 1.6-9.1.6.1-.1.3-.1.4-.2 1.4-.8 1.3-2.6 1.3-2.6s5.4-1.6 6.8 0c.2.2.4.4.6.7z"/><path id="XMLID_91_" class="st26" d="M284.3 523.6c-.4.7-.7 1.3-1 2v5.4c-1.4 2.3-8.5 1.5-9.4.3s-2-4.4-.9-5 2-3.3 2-3.3-1.2.3-3-1.9c-1.8-2.2-1.3-7-1-8.2.3-1.2 0-5.1 0-5.1s.1-2.7-.5-3.6c-.5-.9-1.7-5.9-1.7-5.9s0-1.7-1-2.6c-1-.9-1.6-4.4-1.6-4.4-.6-.9-.8-1.9-.7-2.9.2-1.7-1.2-3.6-1.2-3.6l-2.3-7.4-2.2-5.5-1.2 3.2s-.3 7.5-.1 9.1c.3 1.6.7 5.7.7 5.7s-1.4 2.7-.8 5.1c.6 2.3.4 7.3.4 7.3s.6 10.3.1 11.1c-.5.8-.5 2.9-.5 2.9s2.8 6 1.9 6.8c-.9.8-.6 3.1-.6 3.1s1.9 0 1.1.8-1.4 5.1-1.4 5.1l-8.3 1s-.8-1-1.9-3.5c-1.1-2.5.2-2.3 1.3-2.5 1.1-.3.4-1-.9-1.8s-.5-2.7-.5-2.7 2-3.3 1.3-3.6c-.7-.3-.8-5-.8-5s-1.4-5.6-1-7.1c.3-1.5-1.1-5.1-1.1-5.1l-.5-4.3c-1.5-2.4-2-5.3-1.5-8.1v-6.6s-1.9-12.8-2.2-19.3c-.2-4.2-.1-9.8-.1-13.4 0-2 .1-3.3.1-3.3l29.5-3.1c0 1.5.2 2.9.5 4.4.3 1.6.8 3.7 1.5 6.3 2.1 7.5.8 13.1.8 13.1l-.3 9.5s2.6 6.4 2 8.5c-.3 1.3-.5 2.6-.5 4 0 0 5.8 13.9 5.2 17.9-.6 4 1.9 10.4 1.9 10.4s1.1 4.5.4 5.8z"/><path id="XMLID_90_" class="st23" d="M267.4 488l9-1.2s-5.1 5.2-9 1.2z"/><path id="XMLID_89_" class="st9" d="M275.1 478s.3 3.2-1.6 4.4c0 0 3.5-.6 1.6-4.4z"/><path id="XMLID_88_" class="st9" d="M274.6 467.9s-7.5 6.2-10.2 5.7c-2.8-.5 10.2-5.7 10.2-5.7z"/><path id="XMLID_87_" class="st9" d="M256.3 490.9s-5.7 1.3-5.9 3.6c-.1 2.3 5.9-3.6 5.9-3.6z"/><path id="XMLID_86_" class="st23" d="M257.6 519.4s-8.1 1.5-5.8 2.5 6.1 1.8 6.1 1.8 2.5.2-.3-4.3z"/><g id="XMLID_74_" opacity=".05"><path id="XMLID_85_" class="st6" d="M250.2 523.5c-.4-.3-.7-.7-.7-1.2l-.1.1s-.8 1.8.5 2.7c.2.1.3.2.4.3.2 0 .5-.1.8-.1 1.1-.3.4-.9-.9-1.8z"/><path id="XMLID_84_" class="st6" d="M260.6 523c.2-.2.2-.7.1-1.4-.3.6-.5 1.3-.5 2 .1-.3.2-.5.4-.6z"/><path id="XMLID_83_" class="st6" d="M259.3 489c-.3.8-.5 1.7-.5 2.5.2-.6.4-1.2.6-1.7 0 0 0-.3-.1-.8z"/><path id="XMLID_82_" class="st6" d="M277.8 485.4c.1-.2.1-.5.1-.8-.1.5-.2 1-.2 1.4 0-.1 0-.4.1-.6z"/><path id="XMLID_81_" class="st6" d="M259.1 513.3c.2-.5.2-1 .2-1.5-.2.6-.4 1.3-.4 1.9.1-.2.1-.3.2-.4z"/><path id="XMLID_80_" class="st6" d="M260.8 526.2c-.4 1.4-.7 2.8-.9 4.2l-8.3 1s-.8-1-1.9-3.5c-.1-.2-.2-.4-.2-.6-.5.2-.7.8 0 2.2 1.1 2.5 1.8 3.5 1.8 3.5l8.3-1s.6-4.3 1.4-5.1c.4-.4.2-.6-.2-.7z"/><path id="XMLID_79_" class="st6" d="M249.9 513.9s.1 4.7.8 5c.3-.8.6-1.5.3-1.6-.7-.3-.8-5-.8-5s-1.4-5.6-1-7.1c.3-1.5-1.1-5.1-1.1-5.1l-.5-4.3c-1.5-2.4-2-5.3-1.5-8.1V481s-1.9-12.8-2.2-19.3c-.2-4.2-.1-9.8-.1-13.4v-1.7h-.2s0 1.3-.1 3.3c-.1 3.5-.1 9.2.1 13.4.3 6.5 2.2 19.3 2.2 19.3v6.6c-.5 2.8 0 5.7 1.5 8.1l.5 4.3s1.4 3.6 1.1 5.1c-.4 1.6 1 7.2 1 7.2z"/><path id="XMLID_78_" class="st6" d="M274.2 529.5c-.7-1-1.1-2.1-1.3-3.2-.8.8.1 3.7 1 4.9 1 1.2 8.1 2 9.4-.3v-1.3c-1.8 1.8-8.2 1-9.1-.1z"/><path id="XMLID_77_" class="st6" d="M284.6 521.8c-.4.7-.7 1.3-1 2v1l.7-1.4c.2-.5.3-1.1.3-1.6 0-.1 0-.1 0 0z"/><path id="XMLID_76_" class="st6" d="M274.6 522.8c.3-.5.5-1.1.7-1.6 0 0-1.2.3-3-1.9-1.3-1.6-1.4-4.6-1.2-6.6-.3 1.2-.9 6 1 8.2 1.1 1.5 2 1.8 2.5 1.9z"/><path id="XMLID_75_" class="st6" d="M271.1 507.7c.1 1.3.2 2.7.1 4 0-.2.1-.4.1-.6.3-1.2 0-5.1 0-5.1s.1-2.7-.5-3.6c-.5-.9-1.7-5.9-1.7-5.9s0-1.7-1-2.6c-1-.9-1.6-4.4-1.6-4.4-.6-.9-.8-1.9-.7-2.9.2-1.7-1.2-3.6-1.2-3.6l-2.3-7.4-2.2-5.5-1.2 3.2v1l1-2.6 2.2 5.5 2.3 7.4s1.4 1.8 1.2 3.6c-.1 1 .1 2.1.7 2.9 0 0 .6 3.5 1.6 4.4 1 .9 1 2.6 1 2.6s1.2 5.1 1.7 5.9c.6 1 .5 3.7.5 3.7z"/></g><path id="XMLID_73_" class="st28" d="M276.8 382l-.5 2.5V386.4l-2.9.3-.3-.6c-.6-1.1-1.8-3.2-2.2-3.6-.5-.4-1.5-7.4-.3-7 .7.3 1.3.8 1.6 1.4 0 .1 5.6.8 4.6 5.1z"/><path id="XMLID_72_" class="st9" d="M276.3 386.4l-2.9.3-.3-.6c.8-.9 2.1-1.1 3.1-.5l.1.8z"/><path id="XMLID_71_" class="st18" d="M277.1 387.8l-3.8.9-.1-.6-.2-1.5s1.5-2 3.6-.5l.2.8.3.9z"/><path id="XMLID_70_" class="st28" d="M216.2 382.3l-4 2.2-.4-.8c-.4-.8-1-2-1.1-2.4-.2-.7-1.9-1.5-1.9-1.5-4.2-4 .8-7.5.8-7.5 2.7-5.3 5.6 1.8 5.6 1.8s.4 3.8.1 4c-.3.3-.3 1.3-.3 1.3.4.7.7 1.5 1 2.3l.2.6z"/><path id="XMLID_69_" class="st9" d="M216.2 382.3l-4 2.2-.4-.8c.6-.5 2.6-2.1 3.2-2h1l.2.6z"/><path id="XMLID_68_" class="st18" d="M216.6 383.5l-4.5 2.2-.1-1-.1-.7s2.6-2.2 3.4-2.2c.4.1.8.1 1.2 0v.8l.1.9z"/><path id="XMLID_67_" class="st28" d="M265.9 398.6s-19.7 2.2-16 1c2.6-.8 3.6-2.5 3.8-4.3.2-1.5-.2-3.1-.7-4.5-.5-1.2-1.1-2.4-1.8-3.6 0 0 15-8.3 12-.8-.5 1.1-.8 2.3-.9 3.6-.1 1.2 0 2.4.4 3.6.6 1.9 1.7 3.7 3.2 5z"/><path id="XMLID_66_" class="st9" d="M263.2 386.5c-.5 1.1-.8 2.3-.9 3.6-1.4 1.2-3 1.1-5 1.1-1.5 0-3.2.4-4.5-.4-.5-1.2-1.1-2.4-1.8-3.6.2 0 15.2-8.2 12.2-.7z"/><circle id="XMLID_65_" class="st28" cx="257.1" cy="383.5" r="8.1"/><path id="XMLID_64_" class="st9" d="M265.9 398.6s-19.7 2.2-16 1c2.6-.8 3.6-2.5 3.8-4.3 1-1.1 2.9-1.8 4.2-2.2 1.2-.4 2.4-.4 3.6-.1.5.1.9.3 1.3.6.5 1.9 1.6 3.7 3.1 5z"/><path id="XMLID_63_" class="st9" d="M277.1 387.8l-3.8.9-.1-.6c.8-1.1 2.3-1.6 3.6-1.2l.3.9z"/><path id="XMLID_62_" class="st9" d="M216.6 383.5l-4.5 2.2-.1-1c1.5-.8 3-1.5 4.5-2l.1.8z"/><path id="XMLID_61_" class="st9" d="M273.7 448.1c-7.6 1.2-18.4 2.8-20.2 2.2-1.4-.4-6-.4-9.9-.3 0-2 .1-3.3.1-3.3l29.5-3.1c0 1.6.1 3.1.5 4.5z"/><path id="XMLID_60_" class="st26" d="M281.2 446.3s-25.1 4.3-27.8 3.5c-2.7-.8-16.5.1-16.5.1-6.2 4.2-3.6-2-3.6-2s-.5-3.2.2-5.8c.5-1.9.9-3.8 1-5.8 0 0-.1-4.1.6-5.1s1.6-7.8 1.6-7.8.7-4.6.6-5.7c0-1.3.1-2.6.2-3.9l.9-4.8c-5.1-.7-20.7-10.2-20.7-10.2-.8-3.2-6.6-10.7-6.6-10.7-.1-.6-.2-1.3-.5-1.8-.4-1.1 5.7-3.3 5.7-3.3s4.6 5.6 5.5 7.1 4.2 4.3 4.2 4.3c.5-.1 1 0 1.5.2h.1c1.1.4 2.1 1 3.1 1.8 1.5 0 3 .5 4.2 1.6 0 0 2.8-.4 3.3.1s2.9 0 2.9 0 2.4-5.1 4-3.6c1.6 1.5 8.2 1.4 8.2 1.4.9-1.2 3.1-2 4.4-2.5 1.2-.4 2.4-.4 3.6-.1.5.1 1 .4 1.4.7l4 4s1.2-1.5 1-1.8 1.4-.6 1.4-.6 2-.6 2.7-.8c.7-.2 1.4.6 1.5.7 0-.1-.5-1.7-.3-3s-.8-2.5-.8-2.5c2.4-5.9 7.8-1 7.8-1s.6 3.2.1 4.4c-.5 1.2.5 3.8.4 4.5-.1.7.3 1.8.3 3.1s-.7 3.8-1.1 4.8-3.7 3.6-3.7 3.6-.2 3.9-1.6 6.1c-1.4 2.3-.6 10-.6 10s1.4 6 3.1 8c1.8 1.9 4.3 12.8 4.3 12.8z"/><path id="XMLID_59_" class="st9" d="M244.7 401.4s-.8-2.3-1.4-2.5c-.7-.3-1.3-.5-2-.9l.4-.8s2.6.7 3 1.5c.4.7 0 2.7 0 2.7z"/><path id="XMLID_58_" class="st9" d="M231 396.4c-.1.7-6.2 1.3-6.2 1.3l3.1-3.1h.1c1 .5 2 1.1 3 1.8z"/><circle id="XMLID_57_" class="st17" cx="213.4" cy="387" r=".5"/><circle id="XMLID_56_" class="st17" cx="214.1" cy="388.1" r=".5"/><circle id="XMLID_55_" class="st17" cx="214.8" cy="389.1" r=".5"/><circle id="XMLID_54_" class="st17" cx="215.5" cy="390.2" r=".5"/><circle id="XMLID_53_" class="st17" cx="279.9" cy="390.1" r=".4"/><circle id="XMLID_52_" class="st17" cx="279.9" cy="391.2" r=".4"/><circle id="XMLID_51_" class="st17" cx="280" cy="392.2" r=".4"/><path id="XMLID_50_" class="st9" d="M244.7 419.9c-.1-.1 15.3 19.4 27.3 8.1 0 0-18.9 2.6-27.3-8.1z"/><path id="XMLID_49_" class="st9" d="M235.9 430s9.2.2 10.2 2.9v2.8c-.5.3-1.2.3-1.7 0-.9-.5-6.5-3.3-8.5-2V430z"/><path id="XMLID_48_" d="M236.1 430s8.8.2 9.7 2.8v2.6c-.5.3-1.1.3-1.6 0-.9-.5-6.2-3.2-8.1-1.9V430z" fill="#666792"/><path id="XMLID_47_" class="st9" d="M240.9 410c.9 2.2 2.1 4.2 3.6 6.1 1.6 2.1 3.5 3.9 5.6 5.4 0 0-9-10.2-9.2-11.5z"/><path id="XMLID_46_" class="st9" d="M237.9 399.3s1.5 6.6 5.5 8.9l-5.5-8.9z"/><path id="XMLID_45_" class="st9" d="M235.5 400c0-.1-1.4 5.2 5.1 8.2.1 0-2.7-1-5.1-8.2z"/><path id="XMLID_44_" class="st9" d="M275.8 395.5c-.1 0 3.2 2.1 4.1 3.1 0 0-2.2-3.2-4.1-3.1z"/><path id="XMLID_43_" class="st25" d="M254.9 390.9c.1.4.3.8.6 1.1.2.1.5.2.8.2 2.5.2 5.1.3 7.4-.7.4-.1.8-.4 1.1-.7.4-.5.5-1.2.7-1.8.3-1.2 1-2.3 1.5-3.5.8-2 1.1-4.1.8-6.2-.1-.6-.3-1.3-.6-1.8-.7-.9-1.9-1.3-2.7-2.1-.9-.7-1.4-1.9-2.4-2.5-.9-.5-2-.4-3.1-.3-2 .3-4 1.1-5.8 2.2-.6.4-1.2.8-1.9.7-.6-.1-1-.6-1.4-1.1-.5 1.1-.7 2.3-.6 3.5v.5c-.1.2-.2.4-.4.6-.6.7-1 1.8-.4 2.5.3.3.7.5.9.8.5.6.3 1.4.3 2.1 0 .3 0 .5.2.7.3.2.7.3 1 .2.3-.1.7-.1 1.1-.1.4.1.7.4.9.7 1.1 1.7 1.6 3.3 2 5z"/><g id="XMLID_40_" class="st5"><path id="XMLID_42_" class="st6" d="M265.1 390.1c-.3.3-.7.6-1.1.8-2.3 1-4.9.8-7.4.7-.3 0-.5-.1-.8-.2-.3-.3-.6-.7-.6-1.1-.5-1.7-.9-3.4-2.1-4.8-.2-.3-.5-.6-.9-.7-.4 0-.7 0-1.1.1-.3.1-.7 0-1-.2-.1-.2-.2-.5-.2-.7 0-.7.2-1.6-.3-2.1-.3-.3-.7-.5-.9-.8-.3-.5-.4-1.1-.2-1.6-.4.7-.6 1.6-.1 2.2.3.3.7.5.9.8.5.6.3 1.4.3 2.1 0 .3 0 .5.2.7.3.2.7.3 1 .2.3-.1.7-.1 1.1-.1.4.1.7.4.9.7 1.1 1.5 1.6 3.1 2.1 4.8 0 .7.6 1.3 1.3 1.3h.1c2.5.2 5.1.3 7.4-.7.4-.1.8-.4 1.1-.7.2-.3.3-.5.3-.7z"/><path id="XMLID_41_" class="st6" d="M249.3 378.3c.1-.1.2-.3.2-.4v-.5c-.1-1 .1-2 .4-2.9v-.1c-.5 1.1-.7 2.3-.6 3.5v.4z"/></g><path id="XMLID_39_" class="st9" d="M253.5 395.8s10.2 1.3 11.1-.2"/><path id="XMLID_38_" class="st9" d="M273.2 391.6s5.6 0 6.9 2.1"/></g></g></svg>