<?xml version="1.0" encoding="utf-8"?>
<!-- Generator: Adobe Illustrator 19.0.0, SVG Export Plug-In . SVG Version: 6.00 Build 0)  -->
<svg version="1.1" id="Layer_1" xmlns="http://www.w3.org/2000/svg" xmlns:xlink="http://www.w3.org/1999/xlink" x="0px" y="0px"
	 width="800px" height="800px" viewBox="0 0 800 800" style="enable-background:new 0 0 800 800;" xml:space="preserve">
<style type="text/css">
	.st0{fill:#C12227;}
	.st1{fill:#0A1720;}
	.st2{fill:#FCD2C7;}
	.st3{fill:#FFFFFF;}
	.st4{opacity:0.1;fill:#6466AF;enable-background:new    ;}
	.st5{opacity:0.1;}
	.st6{fill:#010101;}
	.st7{opacity:0.2;}
	.st8{fill:#6466AF;}
	.st9{opacity:0.1;fill:#010101;enable-background:new    ;}
	.st10{fill:#636696;}
	.st11{fill:#F15523;}
	.st12{fill:#995D7F;}
	.st13{fill:url(#XMLID_5_);}
	.st14{fill:#CD828D;}
	.st15{fill:#454154;}
	.st16{fill:#F2738F;}
	.st17{fill:#585A89;}
	.st18{fill:#DCE5F1;}
	.st19{opacity:0.5;fill:#585A89;enable-background:new    ;}
	.st20{fill:#D71B5A;}
	.st21{fill:#5A5369;}
	.st22{fill:#E4ABB5;}
	.st23{opacity:5.000000e-002;fill:#010101;enable-background:new    ;}
	.st24{fill:url(#XMLID_6_);}
	.st25{fill:#2D2A3E;}
	.st26{fill:#3FBFB8;}
	.st27{opacity:5.000000e-002;}
	.st28{fill:#FACDD3;}
	.st29{fill:#666792;}
</style>
<g id="XMLID_1_">
	<path id="XMLID_8_" class="st0" d="M-3.4,89.9c0,0,38.9,84.8,73.6,84.8c19,0,40.1-13,56.8-20.7c30.2-13.8,60.1-28.3,91-40.5
		c50.3-19.8,105.7-31.1,158.5-14.3c50.2,16,87,49.8,77.6,105.8c-11.4,68.3-5.1,77,19,68.2c55.2-20.1,147.7-36.5,179.3,31.2
		c11.1,23.9,2.2,51-7.4,73.8c-34.1,81.9-86.8,168.8-152.4,229.4c-25.7,23.8-56.7,43.7-93,42.3c-65-2.5-120-50.7-186.6-44.3
		c-38.1,3.7-75.6,13.4-113.1,21c-34.6,6.9-69.1,14.5-103.3,23.2C-3.4,649.8-3.4,89.9-3.4,89.9z"/>
	<path id="XMLID_3_" class="st1" d="M-3.4,126.6c0,0,41.2,113.9,108.2,81s212.6-130.3,277.2-81s-5.1,146.8,39.2,175.9
		c44.3,29.1,144.3-60.7,192.4,10.1c48.1,70.9-177.2,372.1-279.7,291.1s-337.3,2.5-337.3,2.5L-3.4,126.6L-3.4,126.6z"/>
	<g id="XMLID_2_">
		<path id="XMLID_215_" class="st2" d="M115.7,388.2l-2.1,1.7c0,0-2.2,3.9-2.7,10.9s-2.7,17-2.7,17l-4.2,7.5c0,0-6.9,14.5-7.8,18.4
			s-5,10.4-5,10.4s-14,12.5-4.2,14.8s10-10,10-10s2.3-2.5,2.6-4.2s12.7-23.5,12.7-23.5s4.3-5.9,3.4-9c0,0,5.6-13.2,5.6-16.5
			c-0.1-2.8-0.4-5.5-0.9-8.2l0.9-6.9L115.7,388.2L115.7,388.2z"/>
		<path id="XMLID_257_" class="st3" d="M274.7,284.2c-17.5,14.9-40.2,13.9-60.1,6.2s-38.2-21.5-57.6-31.3
			c-16.3-8.2-33.3-13.6-50.6-16c-24.7-3.4-52.3,0.8-69.5,24.8c-19.2,26.8-17.7,75,3,99.6c10.6,12.5,24.4,18.6,36.4,28.4
			s23.2,26,22.2,44.8c-1,17.4-12,30.8-23.4,39.2c-8.8,6.5-19.7,13.6-20.8,27c-1,13,8.1,23.2,16.9,29c28.5,18.9,63.6,18.7,92-0.5
			c10.1-6.9,19.4-16,30-21.3c27.9-14,58.6,0.1,88.2,5.3c25,4.4,50.6,2.1,75-6.6c14.6-5.2,29.3-13.3,39.6-28.2
			c7.4-10.8,12-24.4,16.4-37.8c4.6-14.3,9.1-28.8,13.3-43.3c2.6-8.7,5.1-17.6,5.7-27c1.2-16.9-3.8-33.6-10.7-47.9
			c-16.3-33.9-43.8-57.7-73.5-63.8c-29.7-6.1-61.2,5.8-84.3,31.6"/>
		<ellipse id="XMLID_256_" class="st4" cx="208.7" cy="443.7" rx="86" ry="3.9"/>
		<ellipse id="XMLID_245_" class="st4" cx="90.9" cy="488.9" rx="31.8" ry="5.2"/>
		<g id="XMLID_238_" class="st5">
			<path id="XMLID_244_" class="st6" d="M146.7,344.2H49.6c-2.8,0-5.1,2.3-5.1,5.1v61.3c0,2.8,2.3,5.1,5.1,5.1h76.2
				c0,0,2,10.5-4.5,11.6c0,0,14.5,1,12-11.6h13.5c2.8,0,5.1-2.3,5.1-5.1v-61.3C151.8,346.5,149.5,344.2,146.7,344.2z"/>
			<g id="XMLID_239_" class="st7">
				<path id="XMLID_243_" class="st6" d="M61,360.5h74.4c1.2,0,2.1,1,2.1,2.1v0.5c0,1.2-1,2.1-2.1,2.1H61c-1.2,0-2.1-1-2.1-2.1v-0.5
					C58.9,361.5,59.8,360.5,61,360.5z"/>
				<path id="XMLID_242_" class="st6" d="M61,381.9h74.4c1.2,0,2.1,1,2.1,2.1v0.5c0,1.2-1,2.1-2.1,2.1H61c-1.2,0-2.1-1-2.1-2.1V384
					C58.9,382.9,59.8,381.9,61,381.9z"/>
				<path id="XMLID_241_" class="st6" d="M61,392.6h61.7c1.2,0,2.1,1,2.1,2.1v0.5c0,1.2-1,2.1-2.1,2.1H61c-1.2,0-2.1-1-2.1-2.1v-0.5
					C58.9,393.6,59.8,392.6,61,392.6z"/>
				<path id="XMLID_240_" class="st6" d="M61,371.2h29.8c1.2,0,2.1,1,2.1,2.1v0.5c0,1.2-1,2.1-2.1,2.1H61c-1.2,0-2.1-1-2.1-2.1v-0.5
					C58.9,372.2,59.8,371.2,61,371.2z"/>
			</g>
		</g>
		<path id="XMLID_237_" class="st1" d="M147.6,343.8H50.5c-2.8,0-5.1,2.3-5.1,5.1v61.3c0,2.8,2.3,5.1,5.1,5.1h76.2
			c0,0,2,10.5-4.5,11.6c0,0,14.5,1,12-11.6h13.5c2.8,0,5.1-2.3,5.1-5.1v-61.3C152.6,346.1,150.4,343.8,147.6,343.8z"/>
		<g id="XMLID_232_" class="st7">
			<path id="XMLID_236_" class="st8" d="M61.9,360.1h74.4c1.2,0,2.1,1,2.1,2.1v0.5c0,1.2-1,2.1-2.1,2.1H61.9c-1.2,0-2.1-1-2.1-2.1
				v-0.5C59.7,361,60.7,360.1,61.9,360.1z"/>
			<path id="XMLID_235_" class="st8" d="M61.9,381.5h74.4c1.2,0,2.1,1,2.1,2.1v0.5c0,1.2-1,2.1-2.1,2.1H61.9c-1.2,0-2.1-1-2.1-2.1
				v-0.5C59.7,382.5,60.7,381.5,61.9,381.5z"/>
			<path id="XMLID_234_" class="st8" d="M61.9,392.2h61.7c1.2,0,2.1,1,2.1,2.1v0.5c0,1.2-1,2.1-2.1,2.1H61.9c-1.2,0-2.1-1-2.1-2.1
				v-0.5C59.7,393.2,60.7,392.2,61.9,392.2z"/>
			<path id="XMLID_233_" class="st8" d="M61.9,370.8h29.8c1.2,0,2.1,1,2.1,2.1v0.5c0,1.2-1,2.1-2.1,2.1H61.9c-1.2,0-2.1-1-2.1-2.1
				v-0.5C59.7,371.7,60.7,370.8,61.9,370.8z"/>
		</g>
		<path id="XMLID_231_" class="st2" d="M111.5,342.8l-5.4,11.4c0,0-0.8,2.1-1.3,2.5s-2.8,7.2-2.8,7.2l-5.8,8.9l-0.4,0.6l-2.3-0.6
			l-1.6-5.9l0.1-1.7V365c0,0,3.6-3.7,4.4-4c0,0,0.6,0.1,1.8-2.8c1.2-2.9,2.3-3.5,2.3-3.5l0.6-2.1l6.7-10.6c0,0,5.6-8,7.1-4.5
			C116.6,341,111.5,342.8,111.5,342.8L111.5,342.8z"/>
		<path id="XMLID_230_" class="st2" d="M89.2,424.1c0,0.2-0.1,0.4-0.2,0.5c-0.6,0.9-4.1,19.4-4.1,19.4c0.3,1.2-0.5,3.7-1,4.9
			c-0.5,1.1-1.6,7-1.6,7s-0.3,12.7-1,14.7s0.2,6.2,0.2,6.2c-0.1,2,1.1,4,1.8,5.1c0.1,0.1,0.1,0.1,0.1,0.2c0.2,0.3,0.4,0.5,0.4,0.5
			c0.2,0.4,0.5,0.7,0.8,1c0,0,0.1,0.1,0.2,0.1c1,0.6,2,1.1,3.2,1.3h0.1c0.5,0.1,0.8,0.1,0.8,0.1l0.3,1.5l-3,0.6l-5.7,0.4
			c0,0-6.7,0.5-5.2-2.5l0.3-0.6c0.1-0.1,0.1-0.3,0.2-0.4c0.9-2.9,0.3-6.4,0.3-6.4l-1.3-10.2c-2.1-9.5,1.7-20.1,1.7-20.1
			s-0.3-0.8,0.4-3s0-6.9,0-6.9s-0.4-6.1-0.9-9.1c-0.2-1.3-0.3-2.5-0.2-3.8c0-0.7,0.1-1.5,0.2-2.2l12.9-1.7
			C88.6,420.8,89.3,422.9,89.2,424.1L89.2,424.1z"/>
		<path id="XMLID_229_" class="st9" d="M89,486.8l-3,0.6l-5.7,0.4c0,0-6.7,0.5-5.2-2.5l0.3-0.6c0.1-0.1,0.1-0.3,0.2-0.4
			c1.2,0,2.3,0.3,3.4,0.7c1.9,0.8,3.4-1.2,3.4-1.2l0.9-1.8l0.1-0.3c0.2,0.3,0.4,0.5,0.4,0.5c0.2,0.4,0.5,0.8,1,1.1l-0.2,0.3
			l-0.9,1.9c0,0,1.2,0.1,2.7,0.4c0.6,0.2,1.3-0.2,1.5-0.8H88c0.5,0.1,0.8,0.1,0.8,0.1L89,486.8L89,486.8z"/>
		<path id="XMLID_228_" class="st10" d="M91.8,488.2c-0.2,1-6.5,1.3-6.5,1.3s-3.5-0.3-4.5,0.5s-3.9,0.6-4,0.6s-1.6-0.1-2.2-2.8
			c-0.6-2.7,0.8-3.1,0.8-3.2c1.2,0,2.4,0.3,3.6,0.7c1.9,0.8,3.4-1.2,3.4-1.2l1.1-2c0.2,0.3,0.4,0.5,0.4,0.5c0.2,0.4,0.5,0.8,1,1.1
			l-1.1,2.2c0,0,1.2,0.1,2.7,0.4c1.3,0.2,1.5-0.8,1.6-1.2v-0.2c0,0,1,0.3,2.2,0.6C91.3,485.9,92,487,91.8,488.2z"/>
		<path id="XMLID_227_" class="st2" d="M103.7,437.6c-0.2,0.9-0.3,3.2-0.3,3.2c0.5,2-0.8,6.6-0.8,6.6l-0.7,2.7
			c0.3,3.4-1.9,11.7-1.9,11.7s-1.5,7.7-2.2,11c-0.5,1.8-0.3,3.8,0.4,5.6c0,0.1,0.1,0.1,0.1,0.1v0.2c0,0.1,0,0.2,0.1,0.3
			c0.2,0.5,0.4,0.9,0.8,1.3l0.4,0.4c0.7,0.6,1.5,1.1,2.4,1.5l0.4,0.2c0.4,0.1,0.8,0.3,1.2,0.4h0.1l-0.3,1.8l-4-1l-5.4-1.7l-2.7-1.5
			c0,0,0-0.1,0.1-0.4c0-0.1,0-0.3,0.1-0.4c0.5-2.3,1.5-8.9,1-13.7c-0.6-6,1.8-14.2,2.5-16.2c0.4-1.1,0.5-2.3,0.5-3.5
			c-1-1.4-1.2-7.2-1.2-7.2s-1.8-3.7-3.3-7.6c-0.5-1.3-0.9-2.6-1.1-4c-0.2-1-0.2-1.9-0.2-2.9c0,0,12.2-11.1,13.5-0.4
			c0,0.4,0.1,0.7,0.1,1.1C104.3,434.9,103.8,436.7,103.7,437.6z"/>
		<path id="XMLID_226_" class="st9" d="M103.7,482.7l-0.3,1.8l-4-1l-5.4-1.7l-2.7-1.5c0,0,0-0.1,0.1-0.4c0-0.1,0-0.3,0.1-0.4h0.4
			c0.8-0.1,1.5,0,2.2,0.3c0.9,0.3,2,0.7,2.2,0.5c0.4-0.2,0.8-0.3,1.3-0.2l0.6-1.2l0.1-0.2c0.2,0.5,0.4,0.9,0.8,1.3
			c0.1,0.2,0.3,0.3,0.4,0.4v1c0.6,0.4,1.2,0.7,1.9,0.9h0.5l0.4,0.2c0.4,0.1,0.8,0.3,1.2,0.4C103.6,482.7,103.6,482.7,103.7,482.7
			L103.7,482.7z"/>
		<path id="XMLID_225_" class="st10" d="M101.7,486.5c-1.1-0.3-3.8-0.8-4.2-0.4c-0.4,0.4-4.2,0-4.2,0c-0.8,0-1.5-0.4-1.9-1.1
			c-0.8-1.2-0.1-5.1-0.1-5.1h0.8c0.8-0.1,1.5,0,2.2,0.3c0.9,0.3,2,0.7,2.2,0.5c0.4-0.2,0.8-0.3,1.3-0.2l0.6-1.4
			c0.2,0.5,0.4,0.9,0.8,1.3c0.1,0.2,0.3,0.3,0.4,0.4l-0.1,1c0.6,0.4,1.2,0.7,1.9,0.9c0.3,0.1,0.7,0,0.9-0.3c0,0,0.1-0.1,0.1-0.2
			c0,0.1,0.4,0.2,1.6,0.5c1.3-0.1,2.5,0.5,3.1,2.2C107.7,486.7,102.8,486.9,101.7,486.5L101.7,486.5z"/>
		<path id="XMLID_224_" class="st9" d="M89.2,424.1c-0.2,0.1-0.5,0.1-0.7,0.2c-0.5,0.2-1.1,0.3-1.7,0.4c-3.6,0.5-9.5,0.2-11.3,0.1
			c0-0.7,0.1-1.5,0.2-2.2l12.9-1.7C88.6,420.8,89.3,422.9,89.2,424.1z"/>
		<path id="XMLID_223_" class="st1" d="M100.5,421c0,0-4.7,0.7-8.6,1.6c-1.3,0.3-2.5,0.6-3.4,0.9c-0.5,0.2-1.1,0.3-1.7,0.4
			c-4.3,0.6-11.9,0-11.9,0c-2.1-6.8,2.5-15.3,2.5-15.3c-0.1-0.7,1-2.8,1-2.8v-0.1l0.7-2.4h17.6l0.2,1l0.4,2.1l2.8,13.1L100.5,421
			L100.5,421z"/>
		<path id="XMLID_222_" class="st9" d="M103.2,425.1L103.2,425.1L101,426c-2.2,1-8.9,1.2-11.2,1.2c-0.2-1-0.2-1.9-0.2-2.9
			c0,0,12.2-11.1,13.5-0.4C103.1,424.4,103.1,424.7,103.2,425.1L103.2,425.1z"/>
		<path id="XMLID_221_" class="st1" d="M103.5,424l-0.4,0.2l-2.1,0.9c-2.3,1-9.2,1.2-11.4,1.2H89c-1,0-2-1-2-1.2
			c0-0.1-0.1-0.8-0.2-1.4c-0.1-0.5-0.1-0.9-0.1-0.9s-4.5-2-6.9-3.5c-1.7-1.2-1.3-9.5-1-13.8c0.1-1.5,0.2-2.4,0.2-2.4l17.8,1l2.5,0.1
			l1.4,0.3l0.4,0.1c0,0,1,7.5,1.5,8.1s0.2,2.7,0.1,3.9c0,0.5-0.1,1-0.2,1.5c0,0,0.7,2.1,0.6,3.3C103.2,422.4,103.3,423.2,103.5,424
			L103.5,424z"/>
		<circle id="XMLID_220_" class="st2" cx="84.4" cy="354.6" r="7.3"/>
		<path id="XMLID_219_" class="st2" d="M80.9,357.7c0,0,0.5,6.9-0.9,8.5s-5.1,4.6-5.1,4.6l1.1,4.7l6.4,0.7l7.5-8l-1.7-2.1
			c0,0-1.3-4.4-0.2-6.6C89,357.3,80.9,357.7,80.9,357.7L80.9,357.7z"/>
		<path id="XMLID_218_" class="st9" d="M96.3,372.9l-0.4,0.6l-2.3-0.6L92,367l0.1-1.7l0.5-0.7c0,0,2.5,0.1,2.4,2.3
			C94.9,368.9,96,372.1,96.3,372.9L96.3,372.9z"/>
		<path id="XMLID_217_" class="st9" d="M101.2,405.7c0,0-1.8,0.4-3.9,0.7c-2.1,0.3-4.4,0.4-5.4-0.2c-1.6-1-10.5-0.7-13.1-0.6h-0.4
			l0.7-2.4h17.6l0.2,1l2.5,0.1l1.4,0.3C101.1,405.3,101.2,405.7,101.2,405.7z"/>
		<path id="XMLID_216_" class="st11" d="M92.2,365c0,0,2.5,0.1,2.4,2.3s1.4,6.2,1.4,6.2l-0.6,1.3c0,0-0.8,3.2-0.2,4
			c0.6,0.8,2.9,0.8,1.6,7.3c0,0-0.3,4.9,0.4,6.5c0.7,1.6,0.7,5.4,1.7,7s2.4,5.3,2.4,5.3s-7.4,1.6-9.3,0.5s-13.8-0.6-13.8-0.6
			s0.1-2,0-2.2c-0.1-0.5,0-1,0.3-1.4c0.4-0.5,1-1.4,0.7-2.2c-0.3-0.8,0.9-2,0.2-3.2c-0.6-1.2-1.4-1.5-1.2-2.1
			c0.2-0.7-0.2-1.6-0.7-2.1C77,391,74,385,74,385l-0.5-2.8c0,0-3.9-2.9-3.9-4.2c0.1-1.4,1.5-3.2,1.5-3.2l3.8-3.7
			c0,0,2.1,2.3,4.1,1.5s6.4-4.6,6.4-4.6s1.6-0.8,1.7-1.5c0.1-0.6,1.1-0.1,1.1-0.1s1.4-0.8,1.7-0.5c0.3,0.3,1.5,0.5,1.5,0.5L92.2,365
			L92.2,365z"/>
		<path id="XMLID_214_" class="st9" d="M87.1,392.4c0,0-5.6,2.9-6.6,3.1c-1.1,0.2,4.7-0.6,4.7-0.6L87.1,392.4z"/>
		<path id="XMLID_213_" class="st9" d="M91.6,394.7c0,0-7.4,2.5-10.6,2C81,396.7,89.1,398.3,91.6,394.7z"/>
		<path id="XMLID_212_" class="st9" d="M92.1,395.5c0,0-6.6,4.2-10.5,3.5c0,0,9.1,1.8,10.5,0.9l-4.1-1.1
			C88,398.7,92.5,396.3,92.1,395.5z"/>
		<path id="XMLID_211_" class="st9" d="M84.4,341.8c-1.9-0.4-4-0.2-5.6,1.1c-1.1,0.9-1.9,2.3-3.2,2.9c-0.7,0.3-1.4,0.5-2.1,0.7
			c-2.6,1-4.1,3.7-3.6,6.4c0.2,1.1,0.7,2.2,1,3.3c0.5,2,0.1,4-0.4,6c-1.4,5.5-3.5,10.7-6.3,15.6c-0.2,0.3-0.3,0.7-0.3,1
			c0.1,0.3,0.2,0.5,0.4,0.7c2.6,3,6.9,4.1,10.9,4.2c1.5,0,3,0,4.3-0.7c0.8-0.5,1.6-1.1,2.1-1.9c1.4-1.9,2.1-4.2,2-6.6
			c-0.1-1.9-0.8-3.8-0.3-5.7c0.1-0.3,0.2-0.5,0.3-0.7c0.4-0.4,1.1-0.3,1.8-0.4c1.7-0.2,2.7-1.9,2.9-3.6s-0.2-3.3-0.2-5
			c0-2.2,0.7-4.4,2-6.2c0.6-0.8,1.3-1.5,1.4-2.5c0.2-1.2-0.5-2.1-1.1-3c-0.9-1.5-1.4-3.2-2.8-4.3C86.7,342.5,85.6,342,84.4,341.8
			L84.4,341.8z"/>
		<path id="XMLID_210_" class="st12" d="M84,341.3c-1.9-0.4-4-0.2-5.6,1.1c-1.1,0.9-1.9,2.3-3.2,2.9c-0.7,0.3-1.4,0.5-2.1,0.7
			c-2.6,1-4.1,3.7-3.7,6.4c0.2,1.1,0.7,2.2,1,3.3c0.5,2,0.1,4-0.4,6c-1.4,5.5-3.5,10.7-6.3,15.6c-0.2,0.3-0.3,0.7-0.3,1
			c0.1,0.3,0.2,0.5,0.4,0.7c2.6,3,6.9,4.1,10.9,4.2c1.5,0.1,3,0,4.3-0.7c0.8-0.5,1.6-1.1,2.1-1.9c1.4-1.9,2.1-4.2,2-6.6
			c-0.1-1.9-0.8-3.8-0.3-5.7c0.1-0.3,0.2-0.5,0.3-0.7c0.4-0.4,1.1-0.3,1.8-0.4c1.7-0.2,2.7-1.9,2.9-3.6s-0.2-3.3-0.2-5
			c0-2.2,0.7-4.4,2-6.2c0.6-0.8,1.3-1.5,1.4-2.5c0.2-1.2-0.5-2.1-1.1-3c-0.9-1.5-1.4-3.2-2.8-4.3C86.2,342,85.1,341.6,84,341.3
			L84,341.3z"/>
		<path id="XMLID_209_" class="st9" d="M81.5,412.1c0,0,1.5,6.8,3.9,8.6L81.5,412.1z"/>
		<g id="XMLID_206_" class="st5">
			<path id="XMLID_208_" class="st6" d="M70,354c-0.1-0.3-0.2-0.5-0.3-0.8C69.8,353.5,69.9,353.7,70,354z"/>
			<path id="XMLID_207_" class="st6" d="M90.6,348.1v0.6c-0.2,1-0.9,1.7-1.4,2.5c-1.3,1.8-2,4-2,6.2c0,1.7,0.4,3.3,0.2,5
				c-0.2,1.7-1.3,3.4-2.9,3.6c-0.6,0.1-1.3,0-1.8,0.4c-0.2,0.2-0.3,0.4-0.3,0.7c-0.5,1.8,0.2,3.8,0.3,5.7c0.1,2.4-0.6,4.7-1.9,6.6
				c-0.6,0.8-1.3,1.4-2.1,1.9c-1.3,0.7-2.8,0.8-4.3,0.7c-3.9-0.1-8.1-1.1-10.7-4.1c-0.1,0.2-0.1,0.4-0.1,0.5
				c0.1,0.3,0.2,0.5,0.4,0.7c2.6,3,6.9,4.1,10.9,4.2c1.5,0.1,3,0,4.3-0.7c0.8-0.5,1.6-1.1,2.1-1.9c1.4-1.9,2.1-4.2,2-6.6
				c-0.1-1.9-0.8-3.8-0.3-5.7c0.1-0.3,0.2-0.5,0.3-0.7c0.4-0.4,1.1-0.3,1.8-0.4c1.7-0.2,2.7-1.9,2.9-3.6c0.2-1.7-0.2-3.3-0.2-5
				c0-2.2,0.7-4.4,2-6.2c0.6-0.8,1.3-1.5,1.4-2.5C91.1,349.4,91,348.7,90.6,348.1L90.6,348.1z"/>
		</g>
		<ellipse id="XMLID_201_" class="st4" cx="344.5" cy="407.5" rx="29.4" ry="4.8"/>
		
			<linearGradient id="XMLID_5_" gradientUnits="userSpaceOnUse" x1="224.7066" y1="-291.309" x2="224.7066" y2="-441.6219" gradientTransform="matrix(1 0 0 1 115.91 700.51)">
			<stop  offset="0" style="stop-color:#818181;stop-opacity:0.25"/>
			<stop  offset="0.54" style="stop-color:#818181;stop-opacity:0.12"/>
			<stop  offset="1" style="stop-color:#818181;stop-opacity:0.1"/>
		</linearGradient>
		<path id="XMLID_198_" class="st13" d="M378.7,312.5c1.2-4,0-8.1,0-8.1v-3.8c0,0,1.4-7.4-4.7-12.2l-4.1-3.6c0,0-2.3-1.9-2.9-2.1
			c-0.1,0-0.3,0-0.4-0.1l-0.1-0.1c-0.3-0.6-0.6-1.2-0.9-1.9c0.5,0.1,1.1-0.1,1.4-0.5c0.1-0.2,0.3-0.4,0.3-0.6
			c0.2-0.5,0.3-1.2,0.5-1.7s0.4-0.9,0.8-1.2c0,0.1-0.1,0.1-0.1,0.2c0.6-0.7,1.3-1.3,1.9-2.1c0.1-0.1,0.2-0.3,0.3-0.5l-0.1,0.1
			c0.8-1.2,1-2.7,1.2-4c0.1-0.5,0.1-1,0-1.4c-0.1-0.3-0.2-0.6-0.4-0.9c-0.9-1.8-0.9-4.1-2.3-5.5c-1.1-1.1-2.7-1.4-4.2-1.6
			s-3.1-0.3-4.4-1.1c-0.4-0.3-0.8-0.5-1.2-0.7c-0.4-0.2-0.9,0-1.2,0.4c0,0.1-0.1,0.2-0.2,0.3c-0.1,0.1-0.3,0.1-0.5,0l-2-0.5v0.1
			l0.1,0.3c0.1,0,0.1,0,0.2,0.1l-0.3,0.5c-0.6,0-1.2-0.1-1.8-0.4v0.1c0,0.6,0.6,0.9,0.8,1.5c0.1,0.2,0.1,0.5,0,0.7s-0.2,0.4-0.4,0.6
			c-0.7,0.7-1.6,0.6-2.4,1c-0.1,0.1-0.3,0.2-0.3,0.3v0.2c0,0.1,0.1,0.2,0.2,0.2c0.2,0.2,0.5,0.4,0.8,0.5l-0.2,0.2
			c-3.5,3.5-3.4,9.2,0.1,12.7c0.9,0.8,1.9,1.5,3,1.9c0,0.2,0.1,0.3,0.1,0.5v0.2l-2.7,1.1c-0.8,0-1.6-0.5-1.9-1.2
			c-0.6-1.3-2.9,0-2.9,0s-6.8-0.5-9.3,0.7c0,0-4.1-1.7-4.6-1.8c-0.6-0.1-1.4-0.6-1.8-0.5s-0.9-0.8-1.2-0.7c-0.3,0.1-0.4-0.6-1.3-0.8
			s-1.3,0.1-2.3-1c-1-1-9.4-5-9.4-5l-3.8-3.1l-4-3.2l-0.1,0.1c0-0.1,0-0.2-0.1-0.3c-0.4-1.6-0.9-3.1-1.5-4.7c-0.3-0.6-0.4-1.4-0.7-1
			c-0.2,0.2-0.6-0.3-1.1-0.7c-0.4-0.3-1-0.2-1.3,0.2c0,0.1-0.1,0.1-0.1,0.2c-3.1,4.9-4.2,5.2-2.4,7c1.6,1.6,2.7,3,4,3.4h0.1l7.6,9.1
			c0,0,5.5,4.8,9.2,6.3c3.8,1.5,3.5,2,3.5,2s11.4,5.8,13.2,5.7c1.8-0.1,1.4,11.8,0.7,13.8s-1.9,15.9-1.9,15.9s-1.1,2.9,0.1,5
			c0,0,0.3,3.9,0,4.8c-1,1.6-2.5,4.3-2.8,7.1v0.4c-0.1,0.1-0.2,0.2-0.3,0.2c0,0,0.1,0,0.3-0.1c-0.1,1.2-0.4,2.3-0.8,3.4
			c-0.6,1.6-0.9,3.2-0.9,4.9v9l-0.8,5.6c0,0-0.9,4.2,0,5.2c0.4,0.5,0.6,1.1,0.5,1.7c0,0.7,0.2,1.4,0.6,2c0.3,0.4,0.5,0.8,0.4,1.3
			c-0.3,1,0.4,11.4,0.4,11.4s-0.2,2.9-0.5,3c-0.3,0.2,0.5,3.3,0.5,3.3s-3.1,2.6-2.3,3.9l0.8,1.2l-0.2,0.2l-0.1,0.1
			c-0.2-0.1-0.5-0.2-0.8-0.1c-1,1-2,1.9-3.1,2.8c-1.4,1-5.2,2.5-5.2,2.5l-3,0.2h-0.1c0,0-1.4-0.1-0.6,2.1s8,1.5,8,1.5l4.2-0.7
			c0,0,7.5,0,9.6-0.4c0.9-0.2,1.1-0.7,1-1.2s-0.3-0.9-0.6-1.3l-0.1-0.1l0.1-1.5c3.2-1.8-0.9-5.4-0.9-5.4s1.4-3,2.1-4
			s0.7-15.4,0.7-15.4s0.4-5.2-0.6-6.4c0-0.8,0.4-1.6,1.1-2c0.7-0.5,2.8-7.1,4.5-12.6l1.1,6.5c0,0-0.2,3.1,0.5,4
			c0.3,0.3,0.4,0.8,0.3,1.2c-0.2,0.9-0.1,1.8,0.2,2.6c0.1,0.4,0.3,0.7,0.5,0.9c0.6,0.3,0.6,1.4,0.9,1.6s1.6-0.3,1.7,0.5v2.2
			l0.5,13.5c0,0-0.8,1.1-0.9,4.1c-0.1,1.3-0.3,2-0.5,2.4c-0.3,0.5-0.2,1,0.1,1.4l0.1,0.2l-0.6,0.4c-0.5,0.4-0.6,1-0.3,1.5
			c-0.4,0.3-0.5,0.8-0.4,1.3c0,0.1,0.1,0.1,0.1,0.2c-0.4,0.1-0.8,0.3-1.1,0.6c-0.6,0.8-1.2,1.5-2,2c-1.1,0.9-2.2,1.8-3.2,2.7
			c-0.5,0.7-1.1,1.2-1.9,1.5c-0.2,0.1-0.4,0.1-0.6,0.2c-1.5,0.3-1,1.9,0.2,2.1s5.2,1.5,8.4,0.8c0,0,0.9,0.4,2.3-0.3s4.5-1.5,4.5-1.5
			s1.7,0,1.9-0.7c0.1-0.2,0.1-0.4,0.1-0.7c0-0.5,0-1-0.1-1.5c0-0.3-0.1-0.5-0.1-0.7c-0.1-0.6-0.4-1.3-0.5-1.6c0,0,0-0.1,0.1-0.1
			c0.7-1.1-0.4-3.8-0.4-3.8c0.4-0.6,0.8-1.1,1.3-1.5c0.6-0.5,2.2-12.2,2.2-12.2s-0.1-3,0.8-4.4c0.8-1.4-1.1-9.6-1.1-9.6
			s-0.8-1.9-0.5-2.6s-0.3-3.2-0.3-3.2v-3c0-0.4-0.1-0.7-0.2-1c-0.2-0.7-0.6-2-0.2-3c0.5-1.4,1.7-9.8,1.7-9.8s-1-3.7,0.4-6.6
			c0.1-0.2,0.2-0.5,0.4-0.7c1-1.6,0.7-4.5,0.2-6.8c-0.1-0.4-0.2-0.7-0.2-1c0-0.1-0.1-0.3-0.1-0.4l0.2-0.1v-0.6
			c1.1-0.2,2.1-0.9,2.7-1.9c0,0,3.5-3.9,6.6-5.6c3.1-1.6,3.3-4,3.3-4c-0.5-0.8,0.8-4,0.8-4L378.7,312.5L378.7,312.5z M368.7,317.7
			l-3.3,3.8c-0.9-1.2,0.8-3.9,0.8-3.9l2.7-6.1c0,0.8-0.1,1.5-0.4,1.8c-0.8,1,1.4,2.7,1.4,2.7C368.8,316.1,368.6,317.7,368.7,317.7z"
			/>
		<path id="XMLID_197_" class="st14" d="M310.6,267.6l-1.8,3.5c-0.6,0-1.1-0.2-1.7-0.3c-1.7-0.5-3.2-1.8-3.9-3.4
			c-1.6-3.6,1.1-5.8,2.3-6.5s2.4-1.5,3.3,0.8c0.6,1.5,1.1,3.1,1.5,4.6C310.5,267.1,310.6,267.6,310.6,267.6L310.6,267.6z"/>
		<path id="XMLID_196_" class="st14" d="M367.8,285.8l-2.9,4.3c0,0-13.6,6.5-11-1.1c1.1-3.4,1.3-5.8,1.1-7.5c-0.3-2.1-1.1-3-1.1-3
			s13.2-6.8,11.3-2.1c-0.4,1-0.6,2-0.5,3c0.2,1.5,0.7,2.9,1.4,4.2C366.6,284.3,367.2,285.1,367.8,285.8z"/>
		<path id="XMLID_195_" class="st1" d="M363.7,370.6c0,0,2,8.2,1.1,9.5c-0.8,1.4-0.8,4.4-0.8,4.4s-1.6,11.7-2.2,12.2
			c-0.5,0.4-0.9,1-1.3,1.5c0,0,1.1,2.7,0.4,3.7c-0.1,0.2-0.2,0.3-0.4,0.4c-1,0.4-4.7-1.5-6.8-2.6c-0.3-0.1-0.5-0.4-0.6-0.7
			c-0.2-0.5,0-1,0.3-1.3c-0.3-0.5-0.1-1.2,0.3-1.5l0.6-0.4l-0.1-0.2c-0.3-0.4-0.4-1-0.1-1.4c0.2-0.4,0.5-1.1,0.5-2.4
			c0.2-2.9,0.9-4.1,0.9-4.1l-0.5-13.4v-2.2c-0.1-0.8-1.5-0.3-1.7-0.5s-0.3-1.3-0.9-1.6c-0.3-0.2-0.5-0.6-0.5-0.9
			c-0.3-0.8-0.3-1.7-0.2-2.6c0.1-0.4,0-0.9-0.3-1.2c-0.7-0.9-0.5-4-0.5-4l-1-6.4c-1.7,5.5-3.8,12-4.4,12.5c-0.7,0.4-1.1,1.2-1.1,2
			c1,1.2,0.6,6.4,0.6,6.4s0,14.3-0.7,15.3s-2.1,4-2.1,4s4,3.6,0.9,5.4c-3.2,1.8-9.9-3.2-9.9-3.2l0.7-0.7l0.2-0.2l-0.8-1.2
			c-0.8-1.4,2.3-3.9,2.3-3.9s-0.8-3.2-0.5-3.3c0.3-0.2,0.5-3,0.5-3s-0.7-10.4-0.4-11.3c0.1-0.5,0-0.9-0.4-1.3
			c-0.4-0.6-0.6-1.3-0.6-2c0.1-0.6-0.1-1.2-0.5-1.7c-0.9-1,0-5.2,0-5.2l0.8-5.6V349c0-1.7,0.3-3.4,0.9-5c0.5-1.3,0.7-2.6,0.8-4
			c0.2-2.8,1.8-5.6,2.8-7.2c0.5-0.8,1-1.3,1-1.3l24-0.9c0,0,0.4,1.1,0.8,2.6c0.1,0.3,0.2,0.7,0.2,1c0.5,2.3,0.8,5.2-0.2,6.8
			c-0.1,0.2-0.3,0.4-0.4,0.7c-1.4,2.9-0.4,6.6-0.4,6.6s-1.2,8.3-1.7,9.7c-0.4,1,0,2.3,0.2,3c0.1,0.3,0.2,0.7,0.2,1v3
			c0,0,0.6,2.5,0.3,3.2S363.7,370.6,363.7,370.6L363.7,370.6z"/>
		<path id="XMLID_194_" class="st9" d="M364.8,341.1c-0.1,0.2-0.3,0.4-0.4,0.7l-1.4-0.1c0.1-0.7-0.8-7.2-0.8-7.2l2.7-0.2
			C365.5,336.6,365.8,339.5,364.8,341.1L364.8,341.1z"/>
		<path id="XMLID_193_" class="st15" d="M365,340.9c-0.1,0.2-0.3,0.4-0.4,0.7l-1.4-0.1c0.1-0.7-0.8-7.2-0.8-7.2l2.7-0.2
			C365.7,336.4,366,339.3,365,340.9L365,340.9z"/>
		<path id="XMLID_192_" class="st1" d="M365,340.9c-0.1,0.2-0.3,0.4-0.4,0.7l-1.4-0.1c0.1-0.7-0.8-7.2-0.8-7.2l2.7-0.2
			C365.7,336.4,366,339.3,365,340.9L365,340.9z"/>
		<path id="XMLID_191_" class="st9" d="M361,401.9c-0.1,0.2-0.2,0.3-0.4,0.4c-1,0.4-4.7-1.5-6.8-2.6c-0.3-0.1-0.5-0.4-0.6-0.7
			c1.2-0.2,2,1.1,2,1.1c0.8-0.5,1.9-0.3,2.4,0.6c1,1.5,3.2,0.9,3.2,0.9S361,401.7,361,401.9L361,401.9z"/>
		<path id="XMLID_190_" class="st16" d="M361.6,406.5c-0.2,0.7-1.9,0.7-1.9,0.7s-3,0.9-4.4,1.5c-1.3,0.7-2.3,0.3-2.3,0.3
			c-3.1,0.7-7.1-0.5-8.3-0.8c-1.2-0.2-1.7-1.8-0.2-2.1c0.2,0,0.4-0.1,0.6-0.2c0.7-0.3,1.4-0.9,1.8-1.5c1-1,2.1-1.9,3.2-2.7
			c0.8-0.6,1.4-1.2,2-2c1.8-1.6,3,0.6,3,0.6c0.8-0.5,1.9-0.3,2.4,0.6c1,1.5,3.2,0.9,3.2,0.9s0.4,1,0.6,1.7c0,0.2,0.1,0.4,0.1,0.7
			C361.8,405,361.8,405.7,361.6,406.5L361.6,406.5z"/>
		<circle id="XMLID_189_" class="st17" cx="356.5" cy="401.5" r="0.2"/>
		<circle id="XMLID_188_" class="st17" cx="354.7" cy="403.2" r="0.2"/>
		<circle id="XMLID_187_" class="st17" cx="352.9" cy="404.7" r="0.2"/>
		<circle id="XMLID_186_" class="st17" cx="353.8" cy="404" r="0.2"/>
		<circle id="XMLID_185_" class="st17" cx="355.6" cy="402.3" r="0.2"/>
		<path id="XMLID_184_" class="st18" d="M361.6,406.5c-0.2,0.7-1.9,0.7-1.9,0.7s-3,0.9-4.4,1.5c-1.3,0.7-2.3,0.3-2.3,0.3
			c-3.1,0.7-7.1-0.5-8.3-0.8c-1.2-0.2-1.7-1.8-0.2-2.1c0.2,0,0.4-0.1,0.6-0.2c1.3,0.4,2.7,0.7,4.1,0.8c3.1,0.1,5.5,0,5.5,0l3.1-1
			c0.6-0.4,1.2-0.6,1.9-0.7c0.7-0.1,1.3-0.4,1.9-0.8C361.8,405,361.8,405.7,361.6,406.5L361.6,406.5z"/>
		<path id="XMLID_183_" class="st19" d="M353.9,408.4c-0.2,0-0.3,0-0.5-0.1v-0.2c0.6,0.1,1.3,0,1.9-0.3c0.3-0.1,0.6-0.2,0.8-0.4
			c0.3-0.1,0.6-0.3,1-0.4l0.3-0.1c0.2-0.1,0.3-0.1,0.5-0.2c0.1,0,0.2-0.1,0.3-0.1c0.2-0.1,0.5-0.2,0.7-0.3h0.7
			c0.2-0.1,0.4-0.1,0.7-0.2c0.2-0.1,0.5-0.2,0.7-0.3h0.2c0.2,0,0.3-0.1,0.5-0.2l0.2,0.2c-0.2,0.1-0.4,0.2-0.6,0.2h-0.2
			c-0.2,0.1-0.4,0.1-0.7,0.2c-0.2,0.1-0.5,0.2-0.7,0.3h-0.8c-0.2,0.1-0.4,0.1-0.6,0.2L358,407c-0.2,0.1-0.3,0.1-0.5,0.2l-0.3,0.1
			c-0.3,0.1-0.6,0.3-1,0.4c-0.3,0.1-0.5,0.3-0.8,0.4C354.9,408.3,354.4,408.4,353.9,408.4L353.9,408.4z"/>
		<path id="XMLID_182_" class="st9" d="M354.7,371.1c0,0,1.6-2.3,4.2-2.2c2.7,0,3.8-0.3,3.8-0.3s-1.7,1-2.9,1.1
			C358.6,369.8,354.7,371.1,354.7,371.1z"/>
		<path id="XMLID_181_" class="st9" d="M355.6,371.6c0,0,1.4-1,2.2-1c0.8,0,1.5-0.1,1.5-0.1c-0.4,0.3-0.8,0.5-1.2,0.6
			C357.4,371.3,355.6,371.6,355.6,371.6z"/>
		<path id="XMLID_180_" class="st9" d="M355.9,372.3c0,0,2.1,0.2,2.1,0.7"/>
		<path id="XMLID_179_" class="st9" d="M336.1,340.6c0.1,0,2-2,2.1-2.8c0.1-0.5,0.4-0.9,0.8-1.2c0,0,1.2,0.5,0.1,2
			C338.1,340.1,336.1,340.6,336.1,340.6z"/>
		<path id="XMLID_178_" class="st9" d="M365.2,276.2c-0.4,1-0.8,1.1-0.7,2.1c-0.5,0.5-1.1,1-1.7,1.4c-1.3,0.8-2.8,2.4-4.5,2.4
			c-1.1,0-2.2-0.2-3.3-0.6c-0.3-2.1-1.1-3-1.1-3S367.2,271.6,365.2,276.2L365.2,276.2z"/>
		<path id="XMLID_177_" class="st14" d="M367.2,272.6c0,4.9-4,9-9,9c-4.9,0-9-4-9-9s4-9,9-9C363.2,263.7,367.2,267.7,367.2,272.6z"
			/>
		<path id="XMLID_176_" class="st9" d="M367.8,285.8l-2.9,4.3c0,0-13.6,6.5-11-1.1c1.1-3.4,1.3-5.8,1.1-7.5c0.2,0.6,0.3,1.1,0.3,1.7
			c0,1.2,0.1,2.7,3,3.1c4.8,0.8,7.4-2.2,7.9-2.8C366.6,284.3,367.2,285.1,367.8,285.8z"/>
		<path id="XMLID_175_" class="st9" d="M310.6,267.6l-1.8,3.5c-0.6,0-1.1-0.2-1.7-0.3l-0.2-0.2c0.7,0.3,3.2-4.4,3.2-4.4l0.1,0.1
			C310.5,267.1,310.6,267.6,310.6,267.6z"/>
		<path id="XMLID_174_" class="st9" d="M365,333.1c-5.8,2.5-25.9,0.4-25.9,0.4c0.1-0.2,0.1-0.4,0.1-0.7c0.5-0.8,1-1.3,1-1.3l24-0.9
			C364.2,330.5,364.6,331.6,365,333.1z"/>
		<path id="XMLID_173_" class="st20" d="M355,281.7l-2.7,1.1c-0.8,0-1.6-0.5-1.9-1.2c-0.6-1.3-2.8,0-2.8,0s-6.7-0.5-9.2,0.7
			c0,0-4-1.7-4.5-1.8c-0.5-0.1-1.4-0.6-1.8-0.5s-0.9-0.7-1.2-0.7c-0.3,0.1-0.4-0.6-1.3-0.8c-0.9-0.2-1.2,0.1-2.3-1c-1-1-9.2-5-9.2-5
			l-3.7-3l-3.9-3.2c0,0-2.5,4.7-3.2,4.4l7.5,9c0,0,5.4,4.7,9.1,6.3s3.4,2,3.4,2s11.3,5.7,13,5.6s1.4,11.8,0.7,13.7
			c-0.7,1.9-1.9,15.8-1.9,15.8s-1.1,2.9,0.1,5c0,0,0.3,4.2,0,4.9c0,0,20.2,2.2,25.9-0.4c0,0,0.8-9.3,0-10.5s0.8-3.8,0.8-3.8l3.6-8.1
			l8.8-8.8c0,0,1.4-7.4-4.7-12.1l-4-3.5c0,0-2.2-1.9-2.9-2.1c-0.7-0.1-0.4,0-0.4,0s-2.6,3.8-8,2.9c-2.9-0.5-2.9-2-3-3.1
			C355.3,282.8,355.2,282.2,355,281.7z"/>
		<path id="XMLID_172_" class="st9" d="M366,312c0,0-12.4,0.5-14.9,4.4c0,0,3.2-1.5,6.1-1.1C360.1,315.8,366,312,366,312z"/>
		<path id="XMLID_171_" class="st9" d="M352.3,325.6c0,0,5.9,0.4,7.1-0.8c1.2-1.2,1.2-2,1.2-2L352.3,325.6L352.3,325.6z"/>
		<path id="XMLID_170_" class="st9" d="M367.2,300c0,0-5,5.9,1.1,8.4L367.2,300z"/>
		<path id="XMLID_169_" class="st9" d="M337.9,288.7c0,0,1.8,3.7,2.7,3.9L337.9,288.7z"/>
		<path id="XMLID_168_" class="st9" d="M331.8,287.1c0,0,4.5,4.1,5.4,4.4C337.1,291.6,332.5,287.1,331.8,287.1z"/>
		<path id="XMLID_167_" class="st9" d="M349.8,283.3c0,0-4.3,6.5-1.5,10.4C348.2,293.7,346.7,289,349.8,283.3z"/>
		<path id="XMLID_166_" class="st14" d="M360.7,332.3l-1.3,1.2l-0.2,0.2l-1.5,1.5c-0.1,0.1-0.2,0.2-0.3,0.2
			c-6.2,4.5-7.5-2.3-7.5-2.3s-2.8,1.8-3.2,0.3s6.4-3.5,7.4-3.4h0.3c0.5-0.1,1-0.3,1.4-0.5c0.1-0.1,0.2-0.1,0.3-0.2
			c0.3-0.2,0.7-0.4,1-0.6L360.7,332.3L360.7,332.3z"/>
		<path id="XMLID_165_" class="st9" d="M367.4,272.6c0,3.2-1.7,6.1-4.4,7.7c-0.1-0.2-0.2-0.4-0.3-0.7c-0.3-0.8-0.5-1.5-0.8-2.3
			c-0.4-0.8-0.9-1.6-1.5-2.2c-0.1-0.1-0.2-0.2-0.4-0.3c-0.3,0-0.6,0-0.8,0.2c-0.4,0.3-0.8,0.4-1.2,0.5c-0.5,0.1-0.9,0-1.3-0.4
			c-0.3-0.4-0.3-1-0.2-1.6c0.2-1.2,0.6-2.3,0.6-3.5s-0.4-2.5-1.5-3.1c-0.9-0.5-2-0.4-3-0.7c-0.2,0-0.3-0.1-0.5-0.2
			c3.5-3.5,9.1-3.6,12.7-0.2C366.5,267.9,367.5,270.2,367.4,272.6L367.4,272.6z"/>
		<path id="XMLID_164_" class="st21" d="M351.5,264.9c-0.2,0.1-0.3,0.2-0.3,0.4c0,0.1,0.1,0.2,0.2,0.2c0.4,0.3,0.9,0.6,1.4,0.7
			c1,0.3,2.1,0.1,3.1,0.7s1.5,1.9,1.5,3c0,1.2-0.4,2.3-0.6,3.5c-0.1,0.5-0.2,1.1,0.2,1.6c0.3,0.3,0.8,0.5,1.3,0.4
			c0.4-0.1,0.9-0.3,1.2-0.5c0.2-0.2,0.5-0.3,0.8-0.2c0.2,0.1,0.3,0.2,0.4,0.3c0.6,0.6,1.2,1.4,1.5,2.2c0.3,0.8,0.5,1.5,0.8,2.3
			s0.8,1.4,1.5,1.9c0.7,0.4,1.7,0.3,2.3-0.2c0.5-0.6,0.5-1.4,0.8-2.2c0.4-1.3,1.7-2.1,2.5-3.2c0.9-1.2,1.1-2.8,1.4-4.3
			c0.1-0.5,0.1-1,0-1.4c-0.1-0.3-0.2-0.6-0.4-0.9c-0.9-1.8-0.9-4.1-2.2-5.5c-1-1.1-2.6-1.4-4.1-1.6s-3.1-0.3-4.3-1.1
			c-0.4-0.3-0.8-0.5-1.2-0.7c-0.4-0.2-0.9,0-1.2,0.4c0,0.1-0.1,0.2-0.2,0.3c-0.1,0.1-0.3,0.1-0.4,0l-2-0.5l0.2,1
			c-0.7,0-1.4-0.1-2.1-0.4c0,0.6,0.6,0.9,0.8,1.5c0.1,0.5,0,1-0.4,1.4C353.2,264.6,352.3,264.5,351.5,264.9L351.5,264.9z"/>
		<path id="XMLID_163_" class="st9" d="M343.4,399.5l-0.1,0.9c-3.2,1.8-9.9-3.2-9.9-3.2l0.7-0.7c0.2,0.3,0.3,0.6,0.3,0.9l1.4,0.1
			l1.6,1.8c0,0,4.4,0.5,5.6,0.2L343.4,399.5L343.4,399.5z"/>
		<path id="XMLID_162_" class="st16" d="M342.9,404.4c-2.1,0.5-9.5,0.4-9.5,0.4l-4.1,0.7c0,0-7.1,0.7-7.9-1.5s0.6-2.1,0.6-2.1h0.1
			l2.9-0.2c0,0,3.7-1.4,5.1-2.4c1.1-0.8,2.1-1.8,3.1-2.7c0,0,1.2-0.2,1.2,1.2l1.4,0.1l1.6,1.8c0,0,4.4,0.5,5.6,0.2h0.4l-0.2,2.2
			l0.1,0.1C343.6,402.3,344.7,404,342.9,404.4L342.9,404.4z"/>
		<circle id="XMLID_161_" class="st17" cx="335.2" cy="399" r="0.2"/>
		<circle id="XMLID_160_" class="st17" cx="329.9" cy="401.3" r="0.2"/>
		<circle id="XMLID_159_" class="st17" cx="327.2" cy="402.1" r="0.2"/>
		<circle id="XMLID_158_" class="st17" cx="331.3" cy="400.8" r="0.2"/>
		<circle id="XMLID_157_" class="st17" cx="328.6" cy="401.7" r="0.2"/>
		<circle id="XMLID_156_" class="st17" cx="332.7" cy="400.2" r="0.2"/>
		<circle id="XMLID_155_" class="st17" cx="334.1" cy="399.6" r="0.2"/>
		<path id="XMLID_154_" class="st18" d="M342.9,404.4c-2.1,0.5-9.5,0.4-9.5,0.4l-4.1,0.7c0,0-7.1,0.7-7.9-1.5s0.6-2.1,0.6-2.1h0.1
			c0.5,0.6,1.4,1.2,3.1,1.3l5.1,0.2l5.3-0.4c0,0,4.9-0.2,5.7-0.3c0.7-0.2,1.3-0.4,2-0.7C343.6,402.3,344.7,404,342.9,404.4
			L342.9,404.4z"/>
		<path id="XMLID_153_" class="st19" d="M329.7,405c-0.3,0-0.6,0-0.8-0.1l0.1-0.2c0.7,0.2,1.4,0.1,2.1-0.1c0.2-0.1,0.5-0.1,0.8-0.2
			c1.2-0.4,2.4-0.5,3.7-0.4h0.2c2.3,0.1,4.5,0,6.8-0.3c0.5,0,1-0.2,1.4-0.6l0.2,0.2c-0.4,0.4-1,0.6-1.6,0.6
			c-2.3,0.3-4.5,0.4-6.8,0.3h-0.2c-0.7-0.1-1.5,0-2.2,0.1c-0.5,0.1-0.9,0.2-1.3,0.3c-0.2,0.1-0.5,0.2-0.8,0.2
			C330.6,405,330.1,405,329.7,405L329.7,405z"/>
		<path id="XMLID_152_" class="st9" d="M360.7,332.3l-1.3,1.2l-3.3-4.2c0.3-0.2,0.7-0.4,1-0.6L360.7,332.3L360.7,332.3z"/>
		<path id="XMLID_151_" class="st20" d="M375.6,297.7l2.6,3.6v3.8c0,0,1.2,4,0,8l0.1,3.5c0,0-1.3,3.2-0.8,4c0,0-0.2,2.4-3.3,4
			c-3,1.6-6.5,5.5-6.5,5.5s-1.3,2.5-4.8,1.9l-3.3,1.4l-3.8-4.9l5.2-2.8c0,0,1.8-2.4,2.9-2.3l4.4-5.1c0,0,0.1-1.6,1.2-1.6
			c0,0-2.1-1.7-1.4-2.7s0.1-5.5,0.1-5.5L375.6,297.7L375.6,297.7z"/>
		<path id="XMLID_150_" class="st9" d="M370.8,314.2c0,0,5.9-0.1,6.6,1.4S372.6,313.3,370.8,314.2z"/>
		<path id="XMLID_149_" class="st9" d="M359.2,333.5v0.3c-0.1,0.9-0.9,1.6-1.9,1.7h-0.1c-1.1,0-2-0.9-2-2c0-0.2,0-0.4,0.1-0.6
			c-0.9-0.8-1-2.1-1-2.8c0.5-0.1,1-0.3,1.4-0.5c0.2,0.7,0.6,1.4,1,2c0.2,0,0.3-0.1,0.5-0.1C358.3,331.5,359.2,332.4,359.2,333.5z"/>
		<path id="XMLID_148_" class="st17" d="M355.9,329.1c0,0-1.3,0.3-1.3,0.5s-0.3,2.4,1.2,3.3s1.3-1.3,1.3-1.3
			S355.8,329.8,355.9,329.1z"/>
		<circle id="XMLID_147_" class="st22" cx="357.4" cy="333.5" r="2"/>
		<circle id="XMLID_146_" class="st18" cx="357.4" cy="333.5" r="1.7"/>
		<path id="XMLID_145_" class="st9" d="M349.7,334.2c0,0,4.2,3.5,9.6,1.3v1.7c0,0-3.6,2.5-6.9,1
			C349.2,336.7,349.7,334.2,349.7,334.2z"/>
		<path id="XMLID_144_" class="st9" d="M349.7,333.8c0,0,4.2,3.5,9.6,1.3v1.7c0,0-3.6,2.5-6.9,1
			C349.2,336.2,349.7,333.8,349.7,333.8z"/>
		<path id="XMLID_143_" class="st15" d="M349.7,333.8c0,0,4.2,3.5,9.6,1.3v1.7c0,0-3.6,2.5-6.9,1
			C349.2,336.2,349.7,333.8,349.7,333.8z"/>
		<path id="XMLID_142_" class="st23" d="M349.8,333.8c0,0,4.2,3.5,9.6,1.3v1.7c0,0-3.6,2.5-6.9,1
			C349.3,336.2,349.8,333.8,349.8,333.8z"/>
		<path id="XMLID_141_" class="st9" d="M336.5,396.5c0,0,5.6,1,6.5,1.3c0.8,0.2-0.2,0.6-0.2,0.6S337.6,397.5,336.5,396.5z"/>
		<path id="XMLID_140_" class="st9" d="M336.3,393.5c0.1,0,3.8-1.1,4.6-2.9"/>
		<path id="XMLID_139_" class="st9" d="M341.8,372c0,0,1.5,2,2.5,1.9C345.2,373.8,342.7,371.9,341.8,372z"/>
		<path id="XMLID_138_" class="st9" d="M342.6,375.3c0,0,0.6,1.4,1.6,1"/>
		<path id="XMLID_137_" class="st23" d="M346.2,344.3l4,10.5c0,0,0.6-6.8-0.6-8.8C348.8,344.9,347.5,344.2,346.2,344.3z"/>
		<g id="XMLID_132_" class="st5">
			<path id="XMLID_136_" class="st6" d="M356,260.9v-0.2l-0.6-0.2l0.1,0.3C355.6,260.9,355.8,260.9,356,260.9L356,260.9z"/>
			<path id="XMLID_135_" class="st6" d="M354.2,263.4c0.4-0.4,0.6-0.9,0.4-1.4c-0.1-0.2-0.2-0.4-0.3-0.5l-0.9-0.3
				c0,0.6,0.6,0.9,0.8,1.5C354.3,262.9,354.3,263.2,354.2,263.4L354.2,263.4z"/>
			<path id="XMLID_134_" class="st6" d="M364.9,280.7c-0.7-0.4-1.2-1.1-1.5-1.9s-0.5-1.6-0.8-2.3c-0.4-0.8-0.9-1.6-1.5-2.2
				c-0.1-0.1-0.2-0.2-0.4-0.3c-0.3,0-0.6,0-0.8,0.2c-0.4,0.3-0.8,0.4-1.2,0.5c-0.5,0.1-0.9,0-1.3-0.4c-0.3-0.4-0.3-1-0.2-1.6
				c0.2-1.2,0.6-2.3,0.6-3.5s-0.5-2.5-1.5-3c-0.9-0.5-2-0.4-3-0.7c-0.5-0.1-1-0.4-1.4-0.7l-0.1-0.1c-0.1,0-0.2,0.1-0.2,0.1
				c-0.2,0.1-0.3,0.2-0.3,0.4c0,0.1,0.1,0.2,0.2,0.2c0.4,0.3,0.9,0.6,1.4,0.7c1,0.3,2.1,0.1,3,0.7c1,0.6,1.5,1.9,1.5,3
				s-0.4,2.3-0.6,3.5c-0.1,0.5-0.2,1.1,0.2,1.6c0.3,0.3,0.8,0.5,1.3,0.4c0.4-0.1,0.9-0.3,1.2-0.5c0.2-0.2,0.5-0.3,0.8-0.2
				c0.1,0.1,0.3,0.2,0.4,0.3c0.6,0.6,1.2,1.4,1.5,2.2c0.3,0.8,0.5,1.5,0.8,2.3s0.8,1.4,1.5,1.9c0.7,0.4,1.7,0.4,2.3-0.2
				c0.1-0.2,0.3-0.4,0.3-0.6C366.4,281.1,365.6,281.1,364.9,280.7L364.9,280.7z"/>
			<path id="XMLID_133_" class="st6" d="M368.1,277.9c0.6-0.7,1.3-1.3,1.8-2.1c0.1-0.1,0.2-0.3,0.3-0.5
				C369.6,276.2,368.6,276.9,368.1,277.9L368.1,277.9z"/>
		</g>
		<g id="XMLID_126_" class="st5">
			<path id="XMLID_131_" class="st6" d="M334.7,267.2h-89.6c-2.6,0-4.7,2.1-4.7,4.7v56.6c0,2.6,2.1,4.7,4.7,4.7h70.3
				c0,0,1.8,9.7-4.2,10.7c0,0,13.4,1,11.1-10.7h12.4c2.6,0,4.7-2.1,4.7-4.7v-56.6C339.4,269.3,337.3,267.2,334.7,267.2z"/>
			<g id="XMLID_127_" class="st7">
				<path id="XMLID_130_" class="st6" d="M255.8,282.2H324c1.2,0,2.1,1,2.1,2.1v0.1c0,1.2-1,2.1-2.1,2.1h-68.3c-1.2,0-2.1-1-2.1-2.1
					v-0.1C253.6,283.2,254.6,282.2,255.8,282.2L255.8,282.2z"/>
				<path id="XMLID_129_" class="st6" d="M255.8,302h55.6c1.2,0,2.1,1,2.1,2.1v0.1c0,1.2-1,2.1-2.1,2.1h-55.6c-1.2,0-2.1-1-2.1-2.1
					v-0.1C253.6,303,254.6,302,255.8,302L255.8,302z"/>
				<path id="XMLID_128_" class="st6" d="M255.8,292.1h38.8c1.2,0,2.1,1,2.1,2.1v0.1c0,1.2-1,2.1-2.1,2.1h-38.8
					c-1.2,0-2.1-1-2.1-2.1v-0.1C253.6,293.1,254.6,292.1,255.8,292.1z"/>
			</g>
		</g>
		<path id="XMLID_125_" class="st1" d="M335.9,266.4h-89.6c-2.6,0-4.7,2.1-4.7,4.7v56.6c0,2.6,2.1,4.7,4.7,4.7h70.3
			c0,0,1.8,9.7-4.2,10.7c0,0,13.4,1,11.1-10.7h12.4c2.6,0,4.7-2.1,4.7-4.7v-56.6C340.5,268.5,338.4,266.4,335.9,266.4L335.9,266.4z"
			/>
		<g id="XMLID_121_" class="st7">
			<path id="XMLID_124_" class="st8" d="M256.9,281.5h68.3c1.2,0,2.1,1,2.1,2.1v0.1c0,1.2-1,2.1-2.1,2.1h-68.3c-1.2,0-2.1-1-2.1-2.1
				v-0.1C254.8,282.4,255.7,281.5,256.9,281.5L256.9,281.5z"/>
			<path id="XMLID_123_" class="st8" d="M256.9,301.2h55.6c1.2,0,2.1,1,2.1,2.1v0.1c0,1.2-1,2.1-2.1,2.1h-55.6c-1.2,0-2.1-1-2.1-2.1
				v-0.1C254.8,302.2,255.7,301.2,256.9,301.2z"/>
			<path id="XMLID_122_" class="st8" d="M256.9,291.3h38.8c1.2,0,2.1,1,2.1,2.1v0.1c0,1.2-1,2.1-2.1,2.1h-38.8c-1.2,0-2.1-1-2.1-2.1
				v-0.1C254.8,292.3,255.7,291.3,256.9,291.3z"/>
		</g>
		<ellipse id="XMLID_107_" class="st4" cx="267.9" cy="541" rx="31.8" ry="5.2"/>
		<g id="XMLID_102_" class="st5">
			<path id="XMLID_106_" class="st6" d="M304.7,380.6h-97.1c-2.8,0-5.1,2.3-5.1,5.1V447c0,2.8,2.3,5.1,5.1,5.1h76.2
				c0,0,2,10.5-4.5,11.6c0,0,14.5,1,12-11.6h13.5c2.8,0,5.1-2.3,5.1-5.1v-61.3C309.8,382.9,307.5,380.6,304.7,380.6L304.7,380.6z"/>
			<g id="XMLID_103_" class="st7">
				<path id="XMLID_105_" class="st6" d="M219,418.3h74.4c1.2,0,2.1,1,2.1,2.1v0.5c0,1.2-1,2.1-2.1,2.1H219c-1.2,0-2.1-1-2.1-2.1
					v-0.5C216.9,419.3,217.8,418.3,219,418.3z"/>
				<path id="XMLID_104_" class="st6" d="M219,407.6h29.8c1.2,0,2.1,1,2.1,2.1v0.5c0,1.2-1,2.1-2.1,2.1H219c-1.2,0-2.1-1-2.1-2.1
					v-0.5C216.9,408.6,217.8,407.6,219,407.6z"/>
			</g>
		</g>
		<path id="XMLID_101_" class="st1" d="M303.9,379.8h-97.1c-2.8,0-5.1,2.3-5.1,5.1v61.3c0,2.8,2.3,5.1,5.1,5.1H283
			c0,0,2,10.5-4.5,11.6c0,0,14.5,1,12-11.6H304c2.8,0,5.1-2.3,5.1-5.1v-61.3C309,382,306.7,379.8,303.9,379.8z"/>
		<g id="XMLID_98_" class="st7">
			<path id="XMLID_100_" class="st8" d="M218.2,417.5h74.4c1.2,0,2.1,1,2.1,2.1v0.5c0,1.2-1,2.1-2.1,2.1h-74.4c-1.2,0-2.1-1-2.1-2.1
				v-0.5C216,418.4,217,417.5,218.2,417.5L218.2,417.5z"/>
			<path id="XMLID_99_" class="st8" d="M218.2,406.8H248c1.2,0,2.1,1,2.1,2.1v0.5c0,1.2-1,2.1-2.1,2.1h-29.8c-1.2,0-2.1-1-2.1-2.1
				v-0.5C216,407.7,217,406.8,218.2,406.8z"/>
		</g>
		
			<linearGradient id="XMLID_6_" gradientUnits="userSpaceOnUse" x1="53.0366" y1="-159.498" x2="53.0366" y2="-330.214" gradientTransform="matrix(1 0 0 1 192.94 700.51)">
			<stop  offset="0" style="stop-color:#818181;stop-opacity:0.25"/>
			<stop  offset="0.54" style="stop-color:#818181;stop-opacity:0.12"/>
			<stop  offset="1" style="stop-color:#818181;stop-opacity:0.1"/>
		</linearGradient>
		<path id="XMLID_97_" class="st24" d="M286.2,537.4c-0.5-1.9-0.8-3.7-0.8-3.7s0.1-2.1-0.8-3.7v-4.4c0.3-0.7,0.6-1.4,1-2
			c0.7-1.2,0-5.7,0-5.7s-2.6-6.4-2-10.4s-5.4-17.9-5.4-17.9c0-1.3,0.2-2.7,0.6-4c0.1-0.3,0.1-0.6,0.1-0.8v-0.1
			c-0.1-2.7-2.2-7.6-2.2-7.6l0.3-9.5c0,0,1.3-5.6-0.8-13.1c-0.8-2.6-1.3-4.7-1.6-6.3c0-0.2-0.1-0.4-0.1-0.5c4.5-0.7,8-1.3,8-1.3
			s-2.6-10.9-4.4-12.8s-3.2-8-3.2-8s-0.9-7.7,0.6-10s1.7-6.1,1.7-6.1s3.4-2.5,3.8-3.6s1.1-3.6,1.1-4.9s-0.4-2.5-0.3-3.1
			c0.1-0.7-1-3.3-0.4-4.5c0.1-0.4,0.2-0.8,0.2-1.2c0-1.1-0.1-2.1-0.3-3.2c-1-0.8-2.1-1.4-3.4-1.8l-0.1-0.3l-0.2-0.8
			c-0.1-0.1-0.2-0.1-0.3-0.2v-1.4l0.5-2.5c1-4.3-4.7-5-4.7-5c-0.3-0.7-0.9-1.2-1.6-1.4c-1.2-0.4-0.2,6.5,0.4,7
			c0.4,0.3,1.7,2.5,2.3,3.6l0.1,0.2l-0.3,0.3l0.2,1.5v0.2c-0.4,0.5-0.7,1-0.9,1.6c0,0,1.1,1.2,0.8,2.5c-0.2,1.3,0.3,2.9,0.3,3
			c-0.1-0.1-0.8-0.9-1.5-0.7l-2.8,0.8c0,0-1.6,0.3-1.4,0.6c0.1,0.3-1.1,1.8-1.1,1.8l-4.2-4c0-0.1-0.1-0.2-0.1-0.4
			c-0.2-0.6-0.3-1.1-0.4-1.7c0.5-0.1,0.9-0.3,1.3-0.4c0.4-0.2,0.8-0.4,1.1-0.7c0.4-0.5,0.5-1.2,0.7-1.8c0.3-1.2,1-2.3,1.5-3.5
			c0.9-1.9,1.1-4.1,0.8-6.2c-0.1-0.6-0.3-1.3-0.6-1.8c-0.7-0.9-1.9-1.3-2.8-2.1c-0.9-0.7-1.5-1.9-2.5-2.5c-0.9-0.5-2.1-0.4-3.2-0.3
			c-2.1,0.3-4.1,1.1-5.9,2.2c-0.6,0.4-1.3,0.8-2,0.7c-0.6-0.1-1-0.6-1.4-1v-0.2c-0.4,1-0.6,2-0.6,3.1v1c-0.1,0.2-0.2,0.4-0.4,0.6
			c-0.1,0.1-0.2,0.3-0.3,0.5c0-0.1,0-0.1,0.1-0.2c-0.3,0.4-0.4,0.8-0.4,1.3c0,0.3,0.1,0.7,0.3,0.9c0.2,0.2,0.4,0.4,0.7,0.5
			c-0.6,3.3,0.9,6.6,3.8,8.3c0,0.1,0.1,0.2,0.1,0.4c0.5,1.4,0.9,3,0.8,4.5c0,0.1,0,0.2-0.1,0.3c0,0.1-0.1,0.1-0.1,0.2
			c0,0-6.9,0.1-8.5-1.4s-4.1,3.6-4.1,3.6s-2.5,0.5-3,0s-3.4-0.1-3.4-0.1c-1.2-1-2.7-1.6-4.3-1.6c-1-0.7-2-1.3-3.2-1.8h-0.1
			c-0.5-0.2-1-0.2-1.6-0.2c0,0-3.4-2.8-4.4-4.3s-5.7-7.1-5.7-7.1v-0.3l-0.1-0.8H215c0-0.1-0.1-0.2-0.1-0.3c-0.3-0.8-0.6-1.6-1-2.3
			c0,0,0-1,0.3-1.3s-0.1-4-0.1-4s-3.1-7.1-5.8-1.8c0,0-5.2,3.4-0.8,7.5c0,0,1.7,0.8,2,1.5c0.2,0.4,0.8,1.6,1.1,2.4l0.2,0.4l0.1,0.7
			v0.3c-0.8,0.5-1.4,0.9-1.2,1.3c0.2,0.6,0.4,1.2,0.5,1.8c0,0,6,7.5,6.8,10.7c0,0,16.1,9.6,21.4,10.2l-0.9,4.8
			c-0.1,1.3-0.2,2.6-0.2,3.9c0.1,1-0.6,5.7-0.6,5.7s-0.9,6.8-1.7,7.8s-0.6,5-0.6,5c-0.2,2-0.5,3.9-1.1,5.8c-0.8,2.6-0.2,5.8-0.2,5.8
			s-2.7,6.1,3.7,2c0,0,3.2-0.2,6.8-0.3v1.9c0,3.5-0.1,8.4,0.1,12c0.3,6.5,2.3,19.3,2.3,19.3v6.4c-0.1,0.6-0.2,1.2-0.2,1.8
			c0,2.3,0.6,4.5,1.7,6.5l0.5,4.3c0,0,1.2,2.8,1.2,4.5v0.4c0,0.2-0.1,0.4-0.1,0.7c-0.1,2,1.1,6.6,1.1,6.6s0.1,4.7,0.8,5
			c0.6,0.2-0.8,2.7-1.2,3.4V522l-0.1,0.1c-0.1,0.4-0.2,0.8-0.2,1.2c-0.1,0.7,0.2,1.3,0.8,1.7c1.3,0.8,2.1,1.5,0.9,1.8l-1.2,0.3
			l-0.1-0.2c-0.3,0.1-0.5,0.5-0.5,0.8c0,0.6,0.2,1.1,0.4,1.6c1.1,2.5,1.9,3.5,1.9,3.5l0.5-0.1l-0.3,0.6c-0.2,0.3-0.5,0.5-0.8,0.7
			s-0.6,0.3-1,0.3c-0.8,0-1.5,0.4-2,1c-0.7,0.9-1.1,2.2,0.2,3.2l5,1.7c0,0,8.7,1.1,8.2-0.8c-0.5-2-0.8-3.7-0.8-3.7
			c0-1.2-0.2-2.4-0.7-3.5c-0.1-0.2-0.2-0.3-0.3-0.5h0.3c0,0,0.6-4.3,1.5-5.1c0.2-0.2,0.2-0.3,0.2-0.4c0.1-0.2-0.1-0.4-0.4-0.5
			l-0.1,0.2c-0.3-0.1-0.6-0.1-0.8-0.1c0,0-0.3-2.3,0.6-3.1c0.1-0.2,0.2-0.4,0.2-0.7s0-0.6-0.1-0.9v0.1c-0.5-2-2-5.3-2-5.3
			s-0.1-2,0.5-2.9c0.6-0.8-0.1-11.1-0.1-11.1s0.2-5-0.4-7.3s0.8-5.1,0.8-5.1v-0.2c0,0,0-0.3-0.1-0.8c-0.1-1.3-0.4-3.7-0.6-4.8
			c-0.3-1.6,0.1-9.1,0.1-9.1l1.3-3.2l2.3,5.5l2.4,7.4c0,0,1.2,1.6,1.2,3.1v0.7c0,0.9,0.2,1.8,0.7,2.6c0,0,0.6,3.5,1.6,4.4
			s1,2.6,1,2.6s1.2,5.1,1.8,5.9c0.5,0.8,0.5,2.8,0.5,3.4v0.2c0,0,0.2,1.8,0.2,3.3v0.5c0,0.4-0.1,0.8-0.1,1.2v0.1V512
			c-0.3,1-0.4,2.1-0.4,3.2c0,1.8,0.2,4,1.3,5.2c1.9,2.2,3.1,1.9,3.1,1.9s-0.9,2.7-2,3.3c0,0-0.1,0-0.1,0.1v-0.2
			c-0.2,0.3-0.4,0.6-0.3,1c-0.1,1.2,0.7,3.2,1.4,4c0.3,0.3,0.6,0.5,1,0.6l-0.2,0.1c-0.1,0.1-0.2,0.1-0.4,0.2s-0.4,0.1-0.6,0.1
			c-0.8,0-1.5,0.4-2,1c-0.7,0.9-1.1,2.1,0.2,3.2l5,1.7C278,538.3,286.7,539.4,286.2,537.4L286.2,537.4z"/>
		<path id="XMLID_96_" class="st25" d="M253,540.7l-4.9-1.7c-1.3-1.1-0.9-2.3-0.2-3.2c0.5-0.6,1.2-0.9,1.9-1c0.3,0,0.7-0.2,0.9-0.3
			c0.3-0.2,0.6-0.4,0.8-0.7c0.4-0.6,0.6-1.2,0.6-1.9c0,0,5.4-1.6,6.8,0c0.3,0.3,0.5,0.6,0.7,1c0.5,1.1,0.7,2.3,0.7,3.5
			c0,0,0.3,1.7,0.7,3.7C261.4,541.8,253,540.7,253,540.7L253,540.7z"/>
		<path id="XMLID_95_" class="st25" d="M276.9,538.2l-4.9-1.7c-1.3-1.1-0.9-2.3-0.2-3.2c0.5-0.6,1.2-0.9,1.9-1
			c0.2,0,0.4-0.1,0.6-0.1c0.1-0.1,0.3-0.1,0.4-0.2c1.4-0.8,1.3-2.6,1.3-2.6s5.4-1.6,6.8,0c0.2,0.2,0.4,0.4,0.5,0.7
			c0.9,1.6,0.8,3.7,0.8,3.7s0.3,1.7,0.7,3.7C285.3,539.4,276.9,538.2,276.9,538.2L276.9,538.2z"/>
		<path id="XMLID_93_" class="st9" d="M258.9,531.8c0.3,0.3,0.5,0.6,0.7,1l-8,0.9c0.4-0.6,0.6-1.2,0.6-1.9
			C252.1,531.8,257.5,530.2,258.9,531.8L258.9,531.8z"/>
		<path id="XMLID_92_" class="st9" d="M283.4,530.1v1.5c-1.2,2.1-7.3,1.6-9.1,0.6c0.1-0.1,0.3-0.1,0.4-0.2c1.4-0.8,1.3-2.6,1.3-2.6
			s5.4-1.6,6.8,0C283,529.6,283.2,529.8,283.4,530.1L283.4,530.1z"/>
		<path id="XMLID_91_" class="st26" d="M284.3,523.6c-0.4,0.7-0.7,1.3-1,2v5.4c-1.4,2.3-8.5,1.5-9.4,0.3s-2-4.4-0.9-5s2-3.3,2-3.3
			s-1.2,0.3-3-1.9s-1.3-7-1-8.2s0-5.1,0-5.1s0.1-2.7-0.5-3.6c-0.5-0.9-1.7-5.9-1.7-5.9s0-1.7-1-2.6s-1.6-4.4-1.6-4.4
			c-0.6-0.9-0.8-1.9-0.7-2.9c0.2-1.7-1.2-3.6-1.2-3.6l-2.3-7.4l-2.2-5.5l-1.2,3.2c0,0-0.3,7.5-0.1,9.1c0.3,1.6,0.7,5.7,0.7,5.7
			s-1.4,2.7-0.8,5.1c0.6,2.3,0.4,7.3,0.4,7.3s0.6,10.3,0.1,11.1s-0.5,2.9-0.5,2.9s2.8,6,1.9,6.8s-0.6,3.1-0.6,3.1s1.9,0,1.1,0.8
			s-1.4,5.1-1.4,5.1l-8.3,1c0,0-0.8-1-1.9-3.5c-1.1-2.5,0.2-2.3,1.3-2.5c1.1-0.3,0.4-1-0.9-1.8s-0.5-2.7-0.5-2.7s2-3.3,1.3-3.6
			s-0.8-5-0.8-5s-1.4-5.6-1-7.1c0.3-1.5-1.1-5.1-1.1-5.1l-0.5-4.3c-1.5-2.4-2-5.3-1.5-8.1v-6.6c0,0-1.9-12.8-2.2-19.3
			c-0.2-4.2-0.1-9.8-0.1-13.4c0-2,0.1-3.3,0.1-3.3l29.5-3.1c0,1.5,0.2,2.9,0.5,4.4c0.3,1.6,0.8,3.7,1.5,6.3
			c2.1,7.5,0.8,13.1,0.8,13.1l-0.3,9.5c0,0,2.6,6.4,2,8.5c-0.3,1.3-0.5,2.6-0.5,4c0,0,5.8,13.9,5.2,17.9c-0.6,4,1.9,10.4,1.9,10.4
			S285,522.3,284.3,523.6L284.3,523.6z"/>
		<path id="XMLID_90_" class="st23" d="M267.4,488l9-1.2C276.4,486.8,271.3,492,267.4,488z"/>
		<path id="XMLID_89_" class="st9" d="M275.1,478c0,0,0.3,3.2-1.6,4.4C273.5,482.4,277,481.8,275.1,478z"/>
		<path id="XMLID_88_" class="st9" d="M274.6,467.9c0,0-7.5,6.2-10.2,5.7C261.6,473.1,274.6,467.9,274.6,467.9z"/>
		<path id="XMLID_87_" class="st9" d="M256.3,490.9c0,0-5.7,1.3-5.9,3.6C250.3,496.8,256.3,490.9,256.3,490.9z"/>
		<path id="XMLID_86_" class="st23" d="M257.6,519.4c0,0-8.1,1.5-5.8,2.5s6.1,1.8,6.1,1.8S260.4,523.9,257.6,519.4z"/>
		<g id="XMLID_74_" class="st27">
			<path id="XMLID_85_" class="st6" d="M250.2,523.5c-0.4-0.3-0.7-0.7-0.7-1.2l-0.1,0.1c0,0-0.8,1.8,0.5,2.7
				c0.2,0.1,0.3,0.2,0.4,0.3c0.2,0,0.5-0.1,0.8-0.1C252.2,525,251.5,524.4,250.2,523.5z"/>
			<path id="XMLID_84_" class="st6" d="M260.6,523c0.2-0.2,0.2-0.7,0.1-1.4c-0.3,0.6-0.5,1.3-0.5,2
				C260.3,523.3,260.4,523.1,260.6,523z"/>
			<path id="XMLID_83_" class="st6" d="M259.3,489c-0.3,0.8-0.5,1.7-0.5,2.5c0.2-0.6,0.4-1.2,0.6-1.7
				C259.4,489.8,259.4,489.5,259.3,489z"/>
			<path id="XMLID_82_" class="st6" d="M277.8,485.4c0.1-0.2,0.1-0.5,0.1-0.8c-0.1,0.5-0.2,1-0.2,1.4
				C277.7,485.9,277.7,485.6,277.8,485.4z"/>
			<path id="XMLID_81_" class="st6" d="M259.1,513.3c0.2-0.5,0.2-1,0.2-1.5c-0.2,0.6-0.4,1.3-0.4,1.9
				C259,513.5,259,513.4,259.1,513.3L259.1,513.3z"/>
			<path id="XMLID_80_" class="st6" d="M260.8,526.2c-0.4,1.4-0.7,2.8-0.9,4.2l-8.3,1c0,0-0.8-1-1.9-3.5c-0.1-0.2-0.2-0.4-0.2-0.6
				c-0.5,0.2-0.7,0.8,0,2.2c1.1,2.5,1.8,3.5,1.8,3.5l8.3-1c0,0,0.6-4.3,1.4-5.1C261.4,526.5,261.2,526.3,260.8,526.2L260.8,526.2z"
				/>
			<path id="XMLID_79_" class="st6" d="M249.9,513.9c0,0,0.1,4.7,0.8,5c0.3-0.8,0.6-1.5,0.3-1.6c-0.7-0.3-0.8-5-0.8-5
				s-1.4-5.6-1-7.1c0.3-1.5-1.1-5.1-1.1-5.1l-0.5-4.3c-1.5-2.4-2-5.3-1.5-8.1V481c0,0-1.9-12.8-2.2-19.3c-0.2-4.2-0.1-9.8-0.1-13.4
				v-1.7h-0.2c0,0,0,1.3-0.1,3.3c-0.1,3.5-0.1,9.2,0.1,13.4c0.3,6.5,2.2,19.3,2.2,19.3v6.6c-0.5,2.8,0,5.7,1.5,8.1l0.5,4.3
				c0,0,1.4,3.6,1.1,5.1C248.5,508.3,249.9,513.9,249.9,513.9L249.9,513.9z"/>
			<path id="XMLID_78_" class="st6" d="M274.2,529.5c-0.7-1-1.1-2.1-1.3-3.2c-0.8,0.8,0.1,3.7,1,4.9c1,1.2,8.1,2,9.4-0.3v-1.3
				C281.5,531.4,275.1,530.6,274.2,529.5L274.2,529.5z"/>
			<path id="XMLID_77_" class="st6" d="M284.6,521.8c-0.4,0.7-0.7,1.3-1,2v1l0.7-1.4C284.5,522.9,284.6,522.3,284.6,521.8
				C284.6,521.7,284.6,521.7,284.6,521.8z"/>
			<path id="XMLID_76_" class="st6" d="M274.6,522.8c0.3-0.5,0.5-1.1,0.7-1.6c0,0-1.2,0.3-3-1.9c-1.3-1.6-1.4-4.6-1.2-6.6
				c-0.3,1.2-0.9,6,1,8.2C273.2,522.4,274.1,522.7,274.6,522.8L274.6,522.8z"/>
			<path id="XMLID_75_" class="st6" d="M271.1,507.7c0.1,1.3,0.2,2.7,0.1,4c0-0.2,0.1-0.4,0.1-0.6c0.3-1.2,0-5.1,0-5.1
				s0.1-2.7-0.5-3.6c-0.5-0.9-1.7-5.9-1.7-5.9s0-1.7-1-2.6s-1.6-4.4-1.6-4.4c-0.6-0.9-0.8-1.9-0.7-2.9c0.2-1.7-1.2-3.6-1.2-3.6
				l-2.3-7.4l-2.2-5.5l-1.2,3.2v1l1-2.6l2.2,5.5l2.3,7.4c0,0,1.4,1.8,1.2,3.6c-0.1,1,0.1,2.1,0.7,2.9c0,0,0.6,3.5,1.6,4.4
				s1,2.6,1,2.6s1.2,5.1,1.7,5.9C271.2,505,271.1,507.7,271.1,507.7z"/>
		</g>
		<path id="XMLID_73_" class="st28" d="M276.8,382l-0.5,2.5v1.9l-2.9,0.3l-0.3-0.6c-0.6-1.1-1.8-3.2-2.2-3.6c-0.5-0.4-1.5-7.4-0.3-7
			c0.7,0.3,1.3,0.8,1.6,1.4C272.2,377,277.8,377.7,276.8,382L276.8,382z"/>
		<path id="XMLID_72_" class="st9" d="M276.3,386.4l-2.9,0.3l-0.3-0.6c0.8-0.9,2.1-1.1,3.1-0.5L276.3,386.4L276.3,386.4z"/>
		<path id="XMLID_71_" class="st18" d="M277.1,387.8l-3.8,0.9l-0.1-0.6l-0.2-1.5c0,0,1.5-2,3.6-0.5l0.2,0.8L277.1,387.8L277.1,387.8
			z"/>
		<path id="XMLID_70_" class="st28" d="M216.2,382.3l-4,2.2l-0.4-0.8c-0.4-0.8-1-2-1.1-2.4c-0.2-0.7-1.9-1.5-1.9-1.5
			c-4.2-4,0.8-7.5,0.8-7.5c2.7-5.3,5.6,1.8,5.6,1.8s0.4,3.8,0.1,4c-0.3,0.3-0.3,1.3-0.3,1.3c0.4,0.7,0.7,1.5,1,2.3L216.2,382.3
			L216.2,382.3z"/>
		<path id="XMLID_69_" class="st9" d="M216.2,382.3l-4,2.2l-0.4-0.8c0.6-0.5,2.6-2.1,3.2-2h1L216.2,382.3L216.2,382.3z"/>
		<path id="XMLID_68_" class="st18" d="M216.6,383.5l-4.5,2.2l-0.1-1l-0.1-0.7c0,0,2.6-2.2,3.4-2.2c0.4,0.1,0.8,0.1,1.2,0v0.8
			L216.6,383.5L216.6,383.5z"/>
		<path id="XMLID_67_" class="st28" d="M265.9,398.6c0,0-19.7,2.2-16,1c2.6-0.8,3.6-2.5,3.8-4.3c0.2-1.5-0.2-3.1-0.7-4.5
			c-0.5-1.2-1.1-2.4-1.8-3.6c0,0,15-8.3,12-0.8c-0.5,1.1-0.8,2.3-0.9,3.6c-0.1,1.2,0,2.4,0.4,3.6
			C263.3,395.5,264.4,397.3,265.9,398.6L265.9,398.6z"/>
		<path id="XMLID_66_" class="st9" d="M263.2,386.5c-0.5,1.1-0.8,2.3-0.9,3.6c-1.4,1.2-3,1.1-5,1.1c-1.5,0-3.2,0.4-4.5-0.4
			c-0.5-1.2-1.1-2.4-1.8-3.6C251.2,387.2,266.2,379,263.2,386.5z"/>
		<circle id="XMLID_65_" class="st28" cx="257.1" cy="383.5" r="8.1"/>
		<path id="XMLID_64_" class="st9" d="M265.9,398.6c0,0-19.7,2.2-16,1c2.6-0.8,3.6-2.5,3.8-4.3c1-1.1,2.9-1.8,4.2-2.2
			c1.2-0.4,2.4-0.4,3.6-0.1c0.5,0.1,0.9,0.3,1.3,0.6C263.3,395.5,264.4,397.3,265.9,398.6z"/>
		<path id="XMLID_63_" class="st9" d="M277.1,387.8l-3.8,0.9l-0.1-0.6c0.8-1.1,2.3-1.6,3.6-1.2L277.1,387.8L277.1,387.8z"/>
		<path id="XMLID_62_" class="st9" d="M216.6,383.5l-4.5,2.2l-0.1-1c1.5-0.8,3-1.5,4.5-2L216.6,383.5z"/>
		<path id="XMLID_61_" class="st9" d="M273.7,448.1c-7.6,1.2-18.4,2.8-20.2,2.2c-1.4-0.4-6-0.4-9.9-0.3c0-2,0.1-3.3,0.1-3.3
			l29.5-3.1C273.2,445.2,273.3,446.7,273.7,448.1L273.7,448.1z"/>
		<path id="XMLID_60_" class="st26" d="M281.2,446.3c0,0-25.1,4.3-27.8,3.5s-16.5,0.1-16.5,0.1c-6.2,4.2-3.6-2-3.6-2
			s-0.5-3.2,0.2-5.8c0.5-1.9,0.9-3.8,1-5.8c0,0-0.1-4.1,0.6-5.1s1.6-7.8,1.6-7.8s0.7-4.6,0.6-5.7c0-1.3,0.1-2.6,0.2-3.9l0.9-4.8
			c-5.1-0.7-20.7-10.2-20.7-10.2c-0.8-3.2-6.6-10.7-6.6-10.7c-0.1-0.6-0.2-1.3-0.5-1.8c-0.4-1.1,5.7-3.3,5.7-3.3s4.6,5.6,5.5,7.1
			s4.2,4.3,4.2,4.3c0.5-0.1,1,0,1.5,0.2h0.1c1.1,0.4,2.1,1,3.1,1.8c1.5,0,3,0.5,4.2,1.6c0,0,2.8-0.4,3.3,0.1s2.9,0,2.9,0
			s2.4-5.1,4-3.6s8.2,1.4,8.2,1.4c0.9-1.2,3.1-2,4.4-2.5c1.2-0.4,2.4-0.4,3.6-0.1c0.5,0.1,1,0.4,1.4,0.7l4,4c0,0,1.2-1.5,1-1.8
			s1.4-0.6,1.4-0.6s2-0.6,2.7-0.8c0.7-0.2,1.4,0.6,1.5,0.7c0-0.1-0.5-1.7-0.3-3s-0.8-2.5-0.8-2.5c2.4-5.9,7.8-1,7.8-1
			s0.6,3.2,0.1,4.4c-0.5,1.2,0.5,3.8,0.4,4.5s0.3,1.8,0.3,3.1s-0.7,3.8-1.1,4.8s-3.7,3.6-3.7,3.6s-0.2,3.9-1.6,6.1
			c-1.4,2.3-0.6,10-0.6,10s1.4,6,3.1,8C278.7,435.4,281.2,446.3,281.2,446.3L281.2,446.3z"/>
		<path id="XMLID_59_" class="st9" d="M244.7,401.4c0,0-0.8-2.3-1.4-2.5c-0.7-0.3-1.3-0.5-2-0.9l0.4-0.8c0,0,2.6,0.7,3,1.5
			C245.1,399.4,244.7,401.4,244.7,401.4L244.7,401.4z"/>
		<path id="XMLID_58_" class="st9" d="M231,396.4c-0.1,0.7-6.2,1.3-6.2,1.3l3.1-3.1h0.1C229,395.1,230,395.7,231,396.4L231,396.4z"
			/>
		<circle id="XMLID_57_" class="st17" cx="213.4" cy="387" r="0.5"/>
		<circle id="XMLID_56_" class="st17" cx="214.1" cy="388.1" r="0.5"/>
		<circle id="XMLID_55_" class="st17" cx="214.8" cy="389.1" r="0.5"/>
		<circle id="XMLID_54_" class="st17" cx="215.5" cy="390.2" r="0.5"/>
		<circle id="XMLID_53_" class="st17" cx="279.9" cy="390.1" r="0.4"/>
		<circle id="XMLID_52_" class="st17" cx="279.9" cy="391.2" r="0.4"/>
		<circle id="XMLID_51_" class="st17" cx="280" cy="392.2" r="0.4"/>
		<path id="XMLID_50_" class="st9" d="M244.7,419.9c-0.1-0.1,15.3,19.4,27.3,8.1C272,428,253.1,430.6,244.7,419.9z"/>
		<path id="XMLID_49_" class="st9" d="M235.9,430c0,0,9.2,0.2,10.2,2.9v2.8c-0.5,0.3-1.2,0.3-1.7,0c-0.9-0.5-6.5-3.3-8.5-2V430z"/>
		<path id="XMLID_48_" class="st29" d="M236.1,430c0,0,8.8,0.2,9.7,2.8v2.6c-0.5,0.3-1.1,0.3-1.6,0c-0.9-0.5-6.2-3.2-8.1-1.9
			L236.1,430L236.1,430z"/>
		<path id="XMLID_47_" class="st9" d="M240.9,410c0.9,2.2,2.1,4.2,3.6,6.1c1.6,2.1,3.5,3.9,5.6,5.4
			C250.1,421.5,241.1,411.3,240.9,410L240.9,410z"/>
		<path id="XMLID_46_" class="st9" d="M237.9,399.3c0,0,1.5,6.6,5.5,8.9L237.9,399.3z"/>
		<path id="XMLID_45_" class="st9" d="M235.5,400c0-0.1-1.4,5.2,5.1,8.2C240.7,408.2,237.9,407.2,235.5,400z"/>
		<path id="XMLID_44_" class="st9" d="M275.8,395.5c-0.1,0,3.2,2.1,4.1,3.1C279.9,398.6,277.7,395.4,275.8,395.5z"/>
		<path id="XMLID_43_" class="st25" d="M254.9,390.9c0.1,0.4,0.3,0.8,0.6,1.1c0.2,0.1,0.5,0.2,0.8,0.2c2.5,0.2,5.1,0.3,7.4-0.7
			c0.4-0.1,0.8-0.4,1.1-0.7c0.4-0.5,0.5-1.2,0.7-1.8c0.3-1.2,1-2.3,1.5-3.5c0.8-2,1.1-4.1,0.8-6.2c-0.1-0.6-0.3-1.3-0.6-1.8
			c-0.7-0.9-1.9-1.3-2.7-2.1c-0.9-0.7-1.4-1.9-2.4-2.5c-0.9-0.5-2-0.4-3.1-0.3c-2,0.3-4,1.1-5.8,2.2c-0.6,0.4-1.2,0.8-1.9,0.7
			c-0.6-0.1-1-0.6-1.4-1.1c-0.5,1.1-0.7,2.3-0.6,3.5v0.5c-0.1,0.2-0.2,0.4-0.4,0.6c-0.6,0.7-1,1.8-0.4,2.5c0.3,0.3,0.7,0.5,0.9,0.8
			c0.5,0.6,0.3,1.4,0.3,2.1c0,0.3,0,0.5,0.2,0.7c0.3,0.2,0.7,0.3,1,0.2c0.3-0.1,0.7-0.1,1.1-0.1c0.4,0.1,0.7,0.4,0.9,0.7
			C254,387.6,254.5,389.2,254.9,390.9L254.9,390.9z"/>
		<g id="XMLID_40_" class="st5">
			<path id="XMLID_42_" class="st6" d="M265.1,390.1c-0.3,0.3-0.7,0.6-1.1,0.8c-2.3,1-4.9,0.8-7.4,0.7c-0.3,0-0.5-0.1-0.8-0.2
				c-0.3-0.3-0.6-0.7-0.6-1.1c-0.5-1.7-0.9-3.4-2.1-4.8c-0.2-0.3-0.5-0.6-0.9-0.7c-0.4,0-0.7,0-1.1,0.1c-0.3,0.1-0.7,0-1-0.2
				c-0.1-0.2-0.2-0.5-0.2-0.7c0-0.7,0.2-1.6-0.3-2.1c-0.3-0.3-0.7-0.5-0.9-0.8c-0.3-0.5-0.4-1.1-0.2-1.6c-0.4,0.7-0.6,1.6-0.1,2.2
				c0.3,0.3,0.7,0.5,0.9,0.8c0.5,0.6,0.3,1.4,0.3,2.1c0,0.3,0,0.5,0.2,0.7c0.3,0.2,0.7,0.3,1,0.2c0.3-0.1,0.7-0.1,1.1-0.1
				c0.4,0.1,0.7,0.4,0.9,0.7c1.1,1.5,1.6,3.1,2.1,4.8c0,0.7,0.6,1.3,1.3,1.3h0.1c2.5,0.2,5.1,0.3,7.4-0.7c0.4-0.1,0.8-0.4,1.1-0.7
				C265,390.5,265.1,390.3,265.1,390.1L265.1,390.1z"/>
			<path id="XMLID_41_" class="st6" d="M249.3,378.3c0.1-0.1,0.2-0.3,0.2-0.4v-0.5c-0.1-1,0.1-2,0.4-2.9v-0.1
				c-0.5,1.1-0.7,2.3-0.6,3.5L249.3,378.3L249.3,378.3z"/>
		</g>
		<path id="XMLID_39_" class="st9" d="M253.5,395.8c0,0,10.2,1.3,11.1-0.2"/>
		<path id="XMLID_38_" class="st9" d="M273.2,391.6c0,0,5.6,0,6.9,2.1"/>
	</g>
</g>
</svg>
