<?xml version="1.0" encoding="utf-8"?>
<!-- Generator: Adobe Illustrator 19.0.0, SVG Export Plug-In . SVG Version: 6.00 Build 0)  -->
<svg version="1.1" id="Layer_1" xmlns="http://www.w3.org/2000/svg" xmlns:xlink="http://www.w3.org/1999/xlink" x="0px" y="0px"
	 width="800px" height="800px" viewBox="0 0 800 800" style="enable-background:new 0 0 800 800;" xml:space="preserve">
<style type="text/css">
	.st0{fill:#FB3640;}
	.st1{fill:#050609;}
</style>
<path class="st0" d="M800.1,101.6c0-5.9-63.6-21.7-68.9-23.1c-39.6-10.3-80.1-20.7-121.4-20.2c-72.8,0.9-126.6,51.4-185.6,87.9
	c-53.3,33-109.7,70.8-169.9,89.7c-37,11.6-73.8,30.7-100.6,59.2c-35.5,37.6-37.1,82.8-27.9,131.8c10.6,56.4,22.4,115.5,47,167.8
	c22.6,48.3,61.5,98.2,118.6,101c52.2,2.5,107.9-15.9,158.3-27.7c29.3-6.8,64.4-17.3,93.6-4.6c37.5,16.3,70.9,41.2,107.5,59.4
	c44.9,22.4,105.6,31.2,149.5,0C800.1,722.8,800.1,101.9,800.1,101.6L800.1,101.6z"/>
<path class="st1" d="M799.1,140.5c0,0-186-58.7-281.7-7.6c-45.9,24.5-85.9,56.5-127.9,86.8c-16.9,12.1-34,23.1-53.5,30.5
	c-40.2,15.1-78.3,25.1-112.6,52.6c-32,25.7-49.1,55.4-41.6,96.9c9.7,53.8,23.1,108.7,46.2,158.5c16.7,36,43.4,79.6,86.9,84.4
	c64.9,7.2,129.6-13.7,192.8-24.7c21.8-3.8,38.3-2.6,56.6,10C579,638,593.7,648,609,657.1c36.7,22,80.5,41.5,124.3,37.8
	c77.3-6.5,66.4-50.1,66.4-50.1L799.1,140.5L799.1,140.5z"/>
</svg>
