<svg xmlns="http://www.w3.org/2000/svg" viewBox="0 0 800 800"><path d="M800.1 101.6c0-5.9-63.6-21.7-68.9-23.1-39.6-10.3-80.1-20.7-121.4-20.2-72.8.9-126.6 51.4-185.6 87.9-53.3 33-109.7 70.8-169.9 89.7-37 11.6-73.8 30.7-100.6 59.2-35.5 37.6-37.1 82.8-27.9 131.8 10.6 56.4 22.4 115.5 47 167.8 22.6 48.3 61.5 98.2 118.6 101 52.2 2.5 107.9-15.9 158.3-27.7 29.3-6.8 64.4-17.3 93.6-4.6 37.5 16.3 70.9 41.2 107.5 59.4 44.9 22.4 105.6 31.2 149.5 0-.2 0-.2-620.9-.2-621.2z" fill="#fb3640"/><path d="M799.1 140.5s-186-58.7-281.7-7.6c-45.9 24.5-85.9 56.5-127.9 86.8-16.9 12.1-34 23.1-53.5 30.5-40.2 15.1-78.3 25.1-112.6 52.6-32 25.7-49.1 55.4-41.6 96.9 9.7 53.8 23.1 108.7 46.2 158.5 16.7 36 43.4 79.6 86.9 84.4 64.9 7.2 129.6-13.7 192.8-24.7 21.8-3.8 38.3-2.6 56.6 10C579 638 593.7 648 609 657.1c36.7 22 80.5 41.5 124.3 37.8 77.3-6.5 66.4-50.1 66.4-50.1l-.6-504.3z" fill="#050609"/></svg>